G04*
G04 #@! TF.GenerationSoftware,Altium Limited,Altium Designer,21.7.2 (23)*
G04*
G04 Layer_Color=65535*
%FSLAX25Y25*%
%MOIN*%
G70*
G04*
G04 #@! TF.SameCoordinates,2BA94D00-C298-4741-AC1B-5A8F31098602*
G04*
G04*
G04 #@! TF.FilePolarity,Positive*
G04*
G01*
G75*
%ADD10C,0.01181*%
%ADD11C,0.00787*%
%ADD12C,0.00500*%
%ADD13C,0.00984*%
%ADD14C,0.01000*%
%ADD15C,0.00394*%
%ADD16C,0.01000*%
%ADD17C,0.00600*%
%ADD18C,0.00591*%
%ADD19R,0.02218X0.04960*%
G36*
X213888Y179336D02*
X213949D01*
Y178907D01*
X214010D01*
Y177929D01*
X214071D01*
Y177684D01*
X214132D01*
Y177378D01*
X214194D01*
Y177072D01*
X214255D01*
Y177011D01*
X214316D01*
Y176827D01*
X214438D01*
Y176766D01*
X214500D01*
Y176705D01*
X214561D01*
Y176644D01*
X214683D01*
Y176583D01*
X214744D01*
Y176522D01*
X215356D01*
Y176460D01*
X215540D01*
Y176399D01*
X216763D01*
Y176338D01*
X216885D01*
Y176216D01*
X216763D01*
Y176154D01*
X216335D01*
Y176093D01*
X215417D01*
Y176032D01*
X215173D01*
Y175971D01*
X214989D01*
Y175910D01*
X214928D01*
Y175971D01*
X214867D01*
Y175910D01*
X214683D01*
Y175848D01*
X214622D01*
Y175787D01*
X214500D01*
Y175726D01*
X214438D01*
Y175665D01*
X214377D01*
Y175604D01*
X214316D01*
Y175481D01*
X214255D01*
Y175420D01*
X214194D01*
Y175053D01*
X214132D01*
Y174809D01*
X214071D01*
Y174625D01*
X214010D01*
Y173585D01*
X213949D01*
Y173279D01*
X213888D01*
Y173096D01*
X213766D01*
Y173218D01*
X213827D01*
Y173279D01*
X213766D01*
Y173524D01*
X213704D01*
Y174625D01*
X213643D01*
Y174747D01*
X213582D01*
Y175298D01*
X213521D01*
Y175359D01*
X213460D01*
Y175420D01*
X213398D01*
Y175543D01*
X213337D01*
Y175604D01*
X213276D01*
Y175665D01*
X213215D01*
Y175726D01*
X213154D01*
Y175787D01*
X213031D01*
Y175848D01*
X212970D01*
Y175910D01*
X212909D01*
Y175971D01*
X212787D01*
Y175910D01*
X212725D01*
Y175971D01*
X212481D01*
Y176032D01*
X212236D01*
Y176093D01*
X211441D01*
Y176154D01*
X211013D01*
Y176216D01*
X210890D01*
Y176338D01*
X211013D01*
Y176399D01*
X212236D01*
Y176460D01*
X212358D01*
Y176522D01*
X212970D01*
Y176583D01*
X213031D01*
Y176644D01*
X213092D01*
Y176705D01*
X213154D01*
Y176766D01*
X213215D01*
Y176827D01*
X213337D01*
Y176889D01*
X213398D01*
Y177011D01*
X213460D01*
Y177133D01*
X213582D01*
Y177684D01*
X213643D01*
Y177806D01*
X213704D01*
Y178846D01*
X213766D01*
Y179213D01*
X213827D01*
Y179397D01*
X213888D01*
Y179336D01*
D02*
G37*
G36*
X212787Y174564D02*
X212848D01*
Y174503D01*
Y174442D01*
X212787D01*
Y174380D01*
X212725D01*
Y174625D01*
X212787D01*
Y174564D01*
D02*
G37*
G36*
X219149Y177623D02*
X219210D01*
Y177439D01*
X219271D01*
Y176950D01*
X219333D01*
Y175726D01*
X219394D01*
Y175604D01*
X219455D01*
Y173524D01*
X219516D01*
Y173279D01*
X219577D01*
Y172300D01*
X219638D01*
Y172117D01*
X219700D01*
Y171933D01*
X219761D01*
Y171444D01*
X219822D01*
Y171383D01*
X219883D01*
Y171260D01*
X219944D01*
Y171138D01*
X220006D01*
Y171077D01*
X220067D01*
Y170832D01*
X220128D01*
Y170771D01*
X220189D01*
Y170710D01*
X220250D01*
Y170649D01*
X220311D01*
Y170587D01*
X220373D01*
Y170526D01*
X220434D01*
Y170465D01*
X220495D01*
Y170404D01*
X220556D01*
Y170343D01*
X220617D01*
Y170281D01*
X220678D01*
Y170220D01*
X220740D01*
Y170159D01*
X220862D01*
Y170098D01*
X220984D01*
Y170037D01*
X221107D01*
Y169975D01*
X221168D01*
Y169914D01*
X221290D01*
Y169853D01*
X221413D01*
Y169792D01*
X221841D01*
Y169731D01*
X221963D01*
Y169670D01*
X222086D01*
Y169608D01*
X222820D01*
Y169547D01*
X223126D01*
Y169486D01*
X224839D01*
Y169425D01*
X225267D01*
Y169364D01*
X226429D01*
Y169302D01*
X226980D01*
Y169241D01*
X227224D01*
Y169180D01*
X228326D01*
Y169058D01*
X226613D01*
Y168997D01*
X226368D01*
Y168936D01*
X225817D01*
Y168874D01*
X223676D01*
Y168813D01*
X223554D01*
Y168752D01*
X222636D01*
Y168691D01*
X222514D01*
Y168630D01*
X221719D01*
Y168568D01*
X221596D01*
Y168507D01*
X221535D01*
Y168446D01*
X221352D01*
Y168385D01*
X221290D01*
Y168324D01*
X221046D01*
Y168263D01*
X220923D01*
Y168201D01*
X220862D01*
Y168140D01*
X220801D01*
Y168079D01*
X220740D01*
Y168018D01*
X220678D01*
Y167957D01*
X220617D01*
Y167895D01*
X220556D01*
Y167834D01*
X220495D01*
Y167773D01*
X220434D01*
Y167712D01*
X220373D01*
Y167651D01*
X220311D01*
Y167590D01*
X220250D01*
Y167528D01*
X220189D01*
Y167467D01*
X220128D01*
Y167406D01*
X220067D01*
Y167161D01*
X219944D01*
Y167100D01*
X219883D01*
Y166855D01*
X219822D01*
Y166794D01*
X219761D01*
Y166305D01*
X219700D01*
Y166121D01*
X219638D01*
Y165938D01*
X219577D01*
Y164959D01*
X219516D01*
Y164837D01*
X219455D01*
Y162757D01*
X219394D01*
Y162634D01*
X219333D01*
Y161472D01*
X219271D01*
Y160738D01*
X219210D01*
Y160677D01*
X219149D01*
Y160371D01*
X219027D01*
Y161839D01*
X218966D01*
Y162267D01*
X218904D01*
Y162573D01*
X218843D01*
Y164531D01*
X218782D01*
Y164653D01*
X218721D01*
Y165632D01*
X218660D01*
Y165877D01*
X218599D01*
Y166488D01*
X218537D01*
Y166611D01*
X218476D01*
Y166733D01*
X218415D01*
Y166855D01*
X218354D01*
Y166917D01*
X218293D01*
Y167161D01*
X218231D01*
Y167222D01*
X218170D01*
Y167345D01*
X218109D01*
Y167406D01*
X218048D01*
Y167467D01*
X217987D01*
Y167590D01*
X217926D01*
Y167651D01*
X217864D01*
Y167712D01*
X217742D01*
Y167773D01*
X217681D01*
Y167895D01*
X217620D01*
Y167957D01*
X217559D01*
Y168018D01*
X217436D01*
Y168079D01*
X217375D01*
Y168140D01*
X217314D01*
Y168201D01*
X217130D01*
Y168263D01*
X217069D01*
Y168324D01*
X216824D01*
Y168446D01*
X216580D01*
Y168507D01*
X216518D01*
Y168568D01*
X216457D01*
Y168630D01*
X215662D01*
Y168691D01*
X215478D01*
Y168752D01*
X214561D01*
Y168813D01*
X214438D01*
Y168874D01*
X212725D01*
Y168691D01*
X212787D01*
Y168630D01*
X212848D01*
Y168140D01*
X212909D01*
Y168018D01*
X212970D01*
Y167284D01*
X213031D01*
Y167161D01*
X213092D01*
Y167039D01*
X213154D01*
Y166611D01*
X213215D01*
Y166550D01*
X213276D01*
Y166060D01*
X213337D01*
Y165999D01*
X213398D01*
Y165938D01*
X213460D01*
Y165571D01*
X213521D01*
Y165509D01*
X213582D01*
Y164959D01*
X213643D01*
Y164898D01*
X213704D01*
Y164531D01*
X213766D01*
Y164470D01*
X213827D01*
Y164408D01*
X213888D01*
Y163858D01*
X213949D01*
Y163797D01*
X214010D01*
Y163552D01*
X214071D01*
Y163491D01*
X214132D01*
Y163429D01*
X214194D01*
Y163185D01*
X214132D01*
Y163124D01*
X214194D01*
Y163062D01*
X214255D01*
Y163001D01*
X214316D01*
Y162757D01*
X214377D01*
Y162695D01*
X214438D01*
Y162328D01*
X214500D01*
Y162206D01*
X214561D01*
Y162145D01*
X214622D01*
Y161900D01*
X214683D01*
Y161839D01*
X214744D01*
Y161472D01*
X214806D01*
Y161411D01*
X214867D01*
Y161349D01*
X214928D01*
Y161166D01*
X214989D01*
Y161105D01*
X215050D01*
Y161044D01*
Y160738D01*
X215111D01*
Y160677D01*
X215173D01*
Y160554D01*
X215234D01*
Y160432D01*
X215295D01*
Y160371D01*
X215356D01*
Y160126D01*
X215417D01*
Y160065D01*
X215478D01*
Y159820D01*
X215601D01*
Y159759D01*
X215662D01*
Y159392D01*
X215723D01*
Y159331D01*
X215784D01*
Y159147D01*
X215845D01*
Y159086D01*
X215907D01*
Y158780D01*
X215968D01*
Y158658D01*
X216029D01*
Y158597D01*
X216090D01*
Y158413D01*
X216151D01*
Y158352D01*
X216213D01*
Y158046D01*
X216335D01*
Y157985D01*
X216396D01*
Y157801D01*
X216457D01*
Y157740D01*
X216518D01*
Y157495D01*
X216580D01*
Y157434D01*
X216641D01*
Y157373D01*
X216702D01*
Y157251D01*
X216763D01*
Y157189D01*
X216824D01*
Y156884D01*
X216947D01*
Y156761D01*
X217008D01*
Y156700D01*
X217069D01*
Y156639D01*
X217130D01*
Y156394D01*
X217191D01*
Y156333D01*
X217253D01*
Y156211D01*
X217314D01*
Y156149D01*
X217375D01*
Y155905D01*
X217436D01*
Y155843D01*
X217497D01*
Y155782D01*
X217559D01*
Y155660D01*
X217620D01*
Y155599D01*
X217681D01*
Y155354D01*
X217742D01*
Y155293D01*
X217803D01*
Y155171D01*
X217864D01*
Y155109D01*
X217926D01*
Y155048D01*
X217987D01*
Y154804D01*
X218048D01*
Y154742D01*
X218109D01*
Y154559D01*
X218170D01*
Y154498D01*
X218293D01*
Y154253D01*
X218354D01*
Y154192D01*
X218415D01*
Y153947D01*
X218537D01*
Y153886D01*
X218599D01*
Y153641D01*
X218721D01*
Y153519D01*
X218782D01*
Y153458D01*
X218843D01*
Y153274D01*
X218904D01*
Y153213D01*
X218966D01*
Y153152D01*
X219027D01*
Y153091D01*
X219088D01*
Y153029D01*
X219149D01*
Y152785D01*
X219210D01*
Y152724D01*
X219333D01*
Y152540D01*
X219394D01*
Y152479D01*
X219455D01*
Y152234D01*
X219516D01*
Y152173D01*
X219577D01*
Y152112D01*
X219638D01*
Y152050D01*
X219700D01*
Y151989D01*
X219761D01*
Y151806D01*
X219822D01*
Y151745D01*
X219883D01*
Y151622D01*
X219944D01*
Y151561D01*
X220006D01*
Y151500D01*
X220067D01*
Y151316D01*
X220128D01*
Y151255D01*
X220189D01*
Y151133D01*
X220250D01*
Y151072D01*
X220311D01*
Y150888D01*
X220373D01*
Y150827D01*
X220434D01*
Y150766D01*
X220495D01*
Y150705D01*
X220556D01*
Y150643D01*
X220617D01*
Y150399D01*
X220678D01*
Y150338D01*
X220740D01*
Y150215D01*
X220801D01*
Y150093D01*
X220923D01*
Y149909D01*
X220984D01*
Y149848D01*
X221046D01*
Y149787D01*
X221107D01*
Y149726D01*
X221168D01*
Y149665D01*
X221229D01*
Y149542D01*
X221290D01*
Y149481D01*
X221352D01*
Y149420D01*
X221413D01*
Y149297D01*
X221474D01*
Y149175D01*
X221535D01*
Y149114D01*
X221596D01*
Y149053D01*
X221657D01*
Y148992D01*
X221719D01*
Y148931D01*
X221780D01*
Y148686D01*
X221841D01*
Y148625D01*
X221963D01*
Y148502D01*
X222086D01*
Y148319D01*
X222147D01*
Y148196D01*
X222208D01*
Y148135D01*
X222269D01*
Y148074D01*
X222330D01*
Y148013D01*
X222392D01*
Y147829D01*
X222453D01*
Y147768D01*
X222575D01*
Y147707D01*
X222636D01*
Y147585D01*
X222697D01*
Y147462D01*
X222820D01*
Y147340D01*
X222881D01*
Y147218D01*
X222942D01*
Y147095D01*
X223003D01*
Y147034D01*
X223064D01*
Y146973D01*
X223126D01*
Y146912D01*
X223187D01*
Y146850D01*
X223248D01*
Y146667D01*
X223309D01*
Y146606D01*
X223370D01*
Y146545D01*
X223431D01*
Y146483D01*
X223493D01*
Y146422D01*
X223554D01*
Y146300D01*
X223615D01*
Y146239D01*
X223676D01*
Y146116D01*
X223737D01*
Y145994D01*
X223860D01*
Y145872D01*
X223921D01*
Y145749D01*
X224043D01*
Y145688D01*
X224104D01*
Y145627D01*
X224166D01*
Y145443D01*
X224227D01*
Y145382D01*
X224288D01*
Y145321D01*
X224349D01*
Y145260D01*
X224410D01*
Y145076D01*
X224471D01*
Y145015D01*
X224533D01*
Y144954D01*
X224594D01*
Y144832D01*
X224716D01*
Y144587D01*
X224777D01*
Y144526D01*
X224900D01*
Y144465D01*
X224961D01*
Y144403D01*
X225022D01*
Y144220D01*
X219822D01*
Y144281D01*
X219761D01*
Y144342D01*
X219700D01*
Y144403D01*
X219638D01*
Y144465D01*
X219577D01*
Y144526D01*
X219516D01*
Y144587D01*
X219455D01*
Y144770D01*
X219394D01*
Y144832D01*
X219333D01*
Y144893D01*
X219271D01*
Y144954D01*
X219210D01*
Y145015D01*
X219149D01*
Y145199D01*
X219088D01*
Y145260D01*
X219027D01*
Y145382D01*
X218966D01*
Y145443D01*
X218843D01*
Y145688D01*
X218782D01*
Y145749D01*
X218721D01*
Y145872D01*
X218660D01*
Y145933D01*
X218599D01*
Y146116D01*
X218537D01*
Y146239D01*
X218476D01*
Y146300D01*
X218415D01*
Y146361D01*
X218354D01*
Y146422D01*
X218293D01*
Y146667D01*
X218231D01*
Y146728D01*
X218170D01*
Y146789D01*
X218109D01*
Y146850D01*
X218048D01*
Y146912D01*
X217987D01*
Y147156D01*
X217926D01*
Y147218D01*
X217864D01*
Y147401D01*
X217803D01*
Y147462D01*
X217742D01*
Y147523D01*
X217681D01*
Y147768D01*
X217559D01*
Y147890D01*
X217497D01*
Y148013D01*
X217436D01*
Y148074D01*
X217375D01*
Y148319D01*
X217314D01*
Y148380D01*
X217253D01*
Y148502D01*
X217191D01*
Y148563D01*
X217130D01*
Y148869D01*
X217069D01*
Y148931D01*
X217008D01*
Y148992D01*
X216947D01*
Y149236D01*
X216824D01*
Y149603D01*
X216763D01*
Y149665D01*
X216702D01*
Y149726D01*
X216641D01*
Y149909D01*
X216580D01*
Y149970D01*
X216518D01*
Y150338D01*
X216457D01*
Y150399D01*
X216396D01*
Y150521D01*
X216335D01*
Y150643D01*
X216274D01*
Y150705D01*
X216213D01*
Y151011D01*
X216151D01*
Y151072D01*
X216090D01*
Y151255D01*
X216029D01*
Y151316D01*
X215968D01*
Y151378D01*
X215907D01*
Y151745D01*
X215845D01*
Y151806D01*
X215784D01*
Y151989D01*
X215723D01*
Y152050D01*
X215662D01*
Y152418D01*
X215601D01*
Y152479D01*
X215478D01*
Y152724D01*
X215417D01*
Y152785D01*
X215356D01*
Y153091D01*
X215295D01*
Y153152D01*
X215234D01*
Y153274D01*
X215173D01*
Y153458D01*
X215111D01*
Y153519D01*
X215050D01*
Y153886D01*
X214928D01*
Y154192D01*
X214867D01*
Y154253D01*
X214744D01*
Y154742D01*
X214683D01*
Y154804D01*
X214622D01*
Y155048D01*
X214561D01*
Y155109D01*
X214500D01*
Y155232D01*
X214438D01*
Y155538D01*
X214500D01*
Y155599D01*
X214438D01*
Y155660D01*
X214377D01*
Y155721D01*
X214316D01*
Y155966D01*
X214255D01*
Y156027D01*
X214194D01*
Y156517D01*
X214132D01*
Y156578D01*
X214071D01*
Y156639D01*
X214010D01*
Y156945D01*
X213949D01*
Y157006D01*
X213888D01*
Y157495D01*
X213827D01*
Y157556D01*
X213766D01*
Y157618D01*
X213704D01*
Y157924D01*
X213643D01*
Y157985D01*
X213582D01*
Y158474D01*
X213521D01*
Y158597D01*
X213460D01*
Y158841D01*
X213398D01*
Y158902D01*
X213337D01*
Y158964D01*
X213276D01*
Y159636D01*
X213215D01*
Y159698D01*
X213154D01*
Y160065D01*
X213092D01*
Y160187D01*
X213031D01*
Y160248D01*
X212970D01*
Y160921D01*
X212909D01*
Y160982D01*
X212848D01*
Y161472D01*
X212787D01*
Y161533D01*
X212725D01*
Y162267D01*
X212664D01*
Y162390D01*
X212603D01*
Y162451D01*
X212542D01*
Y162879D01*
X212481D01*
Y163001D01*
X212420D01*
Y164164D01*
X212358D01*
Y164286D01*
X212297D01*
Y164470D01*
X212236D01*
Y165204D01*
X212175D01*
Y165326D01*
X212114D01*
Y167222D01*
X212052D01*
Y167712D01*
X211991D01*
Y168936D01*
X211808D01*
Y168997D01*
X211563D01*
Y169058D01*
X209973D01*
Y169119D01*
X210034D01*
Y169180D01*
X211074D01*
Y169241D01*
X211502D01*
Y169302D01*
X211869D01*
Y169364D01*
X211930D01*
Y169302D01*
X212052D01*
Y169364D01*
X212114D01*
Y171505D01*
X212175D01*
Y171627D01*
X212236D01*
Y172361D01*
X212297D01*
Y172484D01*
X212358D01*
Y172667D01*
X212420D01*
Y173524D01*
X212481D01*
Y173646D01*
X212542D01*
Y174074D01*
X212603D01*
Y174136D01*
X212664D01*
Y174013D01*
X212725D01*
Y173463D01*
X212664D01*
Y173034D01*
X212603D01*
Y172606D01*
X212542D01*
Y170587D01*
X212603D01*
Y170343D01*
X212664D01*
Y170037D01*
X212725D01*
Y169364D01*
X212787D01*
Y169302D01*
X212909D01*
Y169364D01*
X213092D01*
Y169425D01*
X213521D01*
Y169486D01*
X215234D01*
Y169547D01*
X215478D01*
Y169608D01*
X216151D01*
Y169670D01*
X216274D01*
Y169731D01*
X216335D01*
Y169792D01*
X216824D01*
Y169914D01*
X217069D01*
Y169975D01*
X217130D01*
Y170037D01*
X217191D01*
Y170098D01*
X217375D01*
Y170159D01*
X217436D01*
Y170220D01*
X217497D01*
Y170281D01*
X217559D01*
Y170343D01*
X217620D01*
Y170404D01*
X217681D01*
Y170465D01*
X217742D01*
Y170526D01*
X217803D01*
Y170587D01*
X217864D01*
Y170649D01*
X217926D01*
Y170710D01*
X217987D01*
Y170771D01*
X218048D01*
Y170832D01*
X218109D01*
Y170893D01*
X218170D01*
Y170954D01*
X218231D01*
Y171016D01*
X218293D01*
Y171260D01*
X218354D01*
Y171321D01*
X218415D01*
Y171505D01*
X218476D01*
Y171566D01*
X218537D01*
Y171688D01*
X218599D01*
Y172361D01*
X218660D01*
Y172606D01*
X218721D01*
Y173463D01*
X218782D01*
Y173585D01*
X218843D01*
Y175543D01*
X218904D01*
Y175787D01*
X218966D01*
Y176277D01*
X219027D01*
Y177867D01*
X219149D01*
Y177623D01*
D02*
G37*
G36*
X225512Y159575D02*
X225573D01*
Y159514D01*
X226307D01*
Y159453D01*
X226368D01*
Y159392D01*
X226490D01*
Y159331D01*
X226735D01*
Y159269D01*
X226796D01*
Y159208D01*
X227102D01*
Y159147D01*
X227163D01*
Y159086D01*
X227347D01*
Y159025D01*
X227408D01*
Y158902D01*
X227653D01*
Y158841D01*
X227714D01*
Y158780D01*
X227775D01*
Y158719D01*
X227836D01*
Y158658D01*
X227897D01*
Y158597D01*
X228081D01*
Y158535D01*
X228142D01*
Y158474D01*
X228203D01*
Y158413D01*
X228264D01*
Y158352D01*
X228326D01*
Y158291D01*
X228387D01*
Y158229D01*
X228448D01*
Y158168D01*
X228509D01*
Y158107D01*
X228570D01*
Y158046D01*
X228632D01*
Y157985D01*
X228693D01*
Y157801D01*
X228754D01*
Y157740D01*
X228815D01*
Y157679D01*
X228876D01*
Y157556D01*
X228938D01*
Y157495D01*
X228999D01*
Y157312D01*
X229121D01*
Y157067D01*
X229182D01*
Y157006D01*
X229243D01*
Y156945D01*
X229305D01*
Y156700D01*
X229366D01*
Y156639D01*
X229427D01*
Y156211D01*
X229488D01*
Y156027D01*
X229549D01*
Y155966D01*
X229610D01*
Y155476D01*
X229672D01*
Y155415D01*
X229733D01*
Y153702D01*
X229672D01*
Y153641D01*
X229610D01*
Y153213D01*
X229549D01*
Y153152D01*
X229488D01*
Y153091D01*
X229427D01*
Y152724D01*
X229366D01*
Y152662D01*
X229305D01*
Y152418D01*
X229243D01*
Y152356D01*
X229182D01*
Y152234D01*
X229121D01*
Y152112D01*
X229060D01*
Y151989D01*
X228999D01*
Y151928D01*
X228938D01*
Y151867D01*
X228876D01*
Y151806D01*
X228815D01*
Y151683D01*
X228754D01*
Y151622D01*
X228693D01*
Y151561D01*
X228632D01*
Y151500D01*
X228570D01*
Y151316D01*
X228326D01*
Y151255D01*
X228264D01*
Y151072D01*
X228203D01*
Y151011D01*
X228020D01*
Y150949D01*
X227959D01*
Y150888D01*
X227897D01*
Y150827D01*
X227836D01*
Y150766D01*
X227775D01*
Y150705D01*
X227530D01*
Y150643D01*
X227469D01*
Y150582D01*
X227347D01*
Y150521D01*
X227286D01*
Y150460D01*
X227224D01*
Y150399D01*
X226857D01*
Y150338D01*
X226796D01*
Y150276D01*
X226552D01*
Y150215D01*
X226429D01*
Y150154D01*
X226246D01*
Y150093D01*
X225389D01*
Y150032D01*
X225328D01*
Y149909D01*
X225389D01*
Y149848D01*
X225450D01*
Y149787D01*
X225512D01*
Y149726D01*
X225573D01*
Y149665D01*
X225634D01*
Y149542D01*
X225695D01*
Y149481D01*
X225756D01*
Y149359D01*
X225817D01*
Y149297D01*
X225879D01*
Y149175D01*
X225940D01*
Y149114D01*
X226001D01*
Y149053D01*
X226062D01*
Y148992D01*
X226123D01*
Y148931D01*
X226185D01*
Y148686D01*
X226246D01*
Y148625D01*
X226429D01*
Y148502D01*
X226490D01*
Y148380D01*
X226552D01*
Y148319D01*
X226613D01*
Y148258D01*
X226674D01*
Y148196D01*
X226735D01*
Y148074D01*
X226796D01*
Y147952D01*
X226857D01*
Y147890D01*
X226919D01*
Y147829D01*
X226980D01*
Y147768D01*
X227041D01*
Y147707D01*
X227102D01*
Y147523D01*
X227163D01*
Y147462D01*
X227224D01*
Y147401D01*
X227286D01*
Y147340D01*
X227347D01*
Y147279D01*
X227408D01*
Y147218D01*
X227469D01*
Y147156D01*
X227530D01*
Y146973D01*
X227592D01*
Y146912D01*
X227653D01*
Y146789D01*
X227714D01*
Y146728D01*
X227775D01*
Y146667D01*
X227836D01*
Y146606D01*
X227897D01*
Y146545D01*
X227959D01*
Y146361D01*
X228020D01*
Y146300D01*
X228142D01*
Y146239D01*
X228203D01*
Y146116D01*
X228264D01*
Y146055D01*
X228326D01*
Y145994D01*
X228387D01*
Y145872D01*
X228448D01*
Y145810D01*
X228509D01*
Y145749D01*
X228570D01*
Y145566D01*
X228632D01*
Y145504D01*
X228693D01*
Y145443D01*
X228754D01*
Y145382D01*
X228876D01*
Y145138D01*
X228938D01*
Y145076D01*
X228999D01*
Y145015D01*
X229060D01*
Y144954D01*
X229121D01*
Y144893D01*
X229182D01*
Y144832D01*
X229243D01*
Y144770D01*
X229305D01*
Y144648D01*
X229366D01*
Y144587D01*
X229427D01*
Y144465D01*
X229488D01*
Y144403D01*
X229549D01*
Y144342D01*
X229610D01*
Y144281D01*
X229549D01*
Y144220D01*
X226857D01*
Y144281D01*
X226796D01*
Y144342D01*
X226735D01*
Y144403D01*
X226674D01*
Y144465D01*
X226613D01*
Y144526D01*
X226552D01*
Y144587D01*
X226490D01*
Y144832D01*
X226368D01*
Y144954D01*
X226246D01*
Y145015D01*
X226185D01*
Y145138D01*
X226123D01*
Y145199D01*
X226062D01*
Y145321D01*
X226001D01*
Y145382D01*
X225940D01*
Y145504D01*
X225879D01*
Y145566D01*
X225817D01*
Y145627D01*
X225756D01*
Y145688D01*
X225695D01*
Y145749D01*
X225634D01*
Y145994D01*
X225512D01*
Y146055D01*
X225389D01*
Y146177D01*
X225328D01*
Y146300D01*
X225267D01*
Y146361D01*
X225206D01*
Y146483D01*
X225145D01*
Y146545D01*
X225083D01*
Y146606D01*
X225022D01*
Y146728D01*
X224900D01*
Y146850D01*
X224839D01*
Y146912D01*
X224716D01*
Y147156D01*
X224655D01*
Y147218D01*
X224594D01*
Y147279D01*
X224533D01*
Y147340D01*
X224471D01*
Y147401D01*
X224410D01*
Y147462D01*
X224349D01*
Y147585D01*
X224288D01*
Y147707D01*
X224227D01*
Y147768D01*
X224166D01*
Y147890D01*
X224104D01*
Y147952D01*
X224043D01*
Y148013D01*
X223982D01*
Y148074D01*
X223860D01*
Y148258D01*
X223799D01*
Y148319D01*
X223737D01*
Y148380D01*
X223676D01*
Y148441D01*
X223615D01*
Y148563D01*
X223554D01*
Y148625D01*
X223493D01*
Y148686D01*
X223431D01*
Y148808D01*
X223370D01*
Y148869D01*
X223309D01*
Y148992D01*
X223248D01*
Y149053D01*
X223187D01*
Y149114D01*
X223126D01*
Y149175D01*
X223064D01*
Y149236D01*
X223003D01*
Y149481D01*
X222942D01*
Y149542D01*
X222820D01*
Y149603D01*
X222759D01*
Y149665D01*
X222697D01*
Y149787D01*
X222636D01*
Y149848D01*
X222575D01*
Y149909D01*
X222514D01*
Y150032D01*
X222453D01*
Y150093D01*
X222392D01*
Y150215D01*
X222330D01*
Y150276D01*
X222269D01*
Y150338D01*
X222208D01*
Y150399D01*
X222147D01*
Y150460D01*
X222086D01*
Y150705D01*
X221963D01*
Y150766D01*
X221902D01*
Y150827D01*
X221841D01*
Y150888D01*
X221780D01*
Y151011D01*
X221657D01*
Y151194D01*
X221596D01*
Y151255D01*
X221535D01*
Y151378D01*
X221474D01*
Y151439D01*
X221413D01*
Y151500D01*
X221352D01*
Y151561D01*
X221229D01*
Y151745D01*
X224227D01*
Y151806D01*
X224288D01*
Y151867D01*
X225022D01*
Y151989D01*
X225083D01*
Y152050D01*
X225267D01*
Y151989D01*
X225328D01*
Y152050D01*
X225450D01*
Y152112D01*
X225573D01*
Y152173D01*
X225879D01*
Y152234D01*
X225940D01*
Y152295D01*
X226062D01*
Y152356D01*
X226185D01*
Y152418D01*
X226246D01*
Y152479D01*
X226368D01*
Y152540D01*
X226429D01*
Y152601D01*
X226490D01*
Y152724D01*
X226552D01*
Y152785D01*
X226796D01*
Y153029D01*
X226919D01*
Y153091D01*
X226980D01*
Y153152D01*
X227041D01*
Y153213D01*
X227102D01*
Y153458D01*
X227163D01*
Y153519D01*
X227224D01*
Y153641D01*
X227286D01*
Y153702D01*
X227347D01*
Y153947D01*
X227408D01*
Y155538D01*
X227347D01*
Y155660D01*
X227286D01*
Y155721D01*
X227224D01*
Y155905D01*
X227163D01*
Y155966D01*
X227102D01*
Y156211D01*
X227041D01*
Y156272D01*
X226980D01*
Y156333D01*
X226919D01*
Y156394D01*
X226857D01*
Y156455D01*
X226796D01*
Y156578D01*
X226735D01*
Y156639D01*
X226674D01*
Y156700D01*
X226552D01*
Y156761D01*
X226490D01*
Y156822D01*
X226429D01*
Y156884D01*
X226368D01*
Y156945D01*
X226307D01*
Y157006D01*
X226185D01*
Y157067D01*
X226123D01*
Y157128D01*
X225940D01*
Y157189D01*
X225817D01*
Y157251D01*
X225756D01*
Y157312D01*
X225512D01*
Y157373D01*
X225450D01*
Y157434D01*
X224777D01*
Y157495D01*
X224716D01*
Y157556D01*
X223982D01*
Y157618D01*
X219455D01*
Y159636D01*
X225512D01*
Y159575D01*
D02*
G37*
G36*
X214194Y152418D02*
X214255D01*
Y152356D01*
X214316D01*
Y152173D01*
X214438D01*
Y151928D01*
X214500D01*
Y151806D01*
X214561D01*
Y151683D01*
X214622D01*
Y151561D01*
X214744D01*
Y151255D01*
X214806D01*
Y151133D01*
X214867D01*
Y151011D01*
X214928D01*
Y150949D01*
X214989D01*
Y150888D01*
X215050D01*
Y150582D01*
X215173D01*
Y150460D01*
X215234D01*
Y150338D01*
X215295D01*
Y150276D01*
X215356D01*
Y149970D01*
X215417D01*
Y149909D01*
X215478D01*
Y149787D01*
X215540D01*
Y149665D01*
X215601D01*
Y149603D01*
X215662D01*
Y149297D01*
X215723D01*
Y149236D01*
X215784D01*
Y149114D01*
X215907D01*
Y148747D01*
X215968D01*
Y148686D01*
X216029D01*
Y148625D01*
X216090D01*
Y148502D01*
X216151D01*
Y148441D01*
X216213D01*
Y148135D01*
X216274D01*
Y148074D01*
X216335D01*
Y148013D01*
X216396D01*
Y147829D01*
X216457D01*
Y147768D01*
X216518D01*
Y147523D01*
X216580D01*
Y147462D01*
X216641D01*
Y147218D01*
X216702D01*
Y147156D01*
X216824D01*
Y146912D01*
X216885D01*
Y146850D01*
X216947D01*
Y146667D01*
X217008D01*
Y146606D01*
X217069D01*
Y146545D01*
X217130D01*
Y146239D01*
X217191D01*
Y146177D01*
X217253D01*
Y146055D01*
X217314D01*
Y145994D01*
X217375D01*
Y145749D01*
X217436D01*
Y145688D01*
X217497D01*
Y145627D01*
Y145566D01*
X217559D01*
Y145443D01*
X217620D01*
Y145382D01*
X217681D01*
Y145138D01*
X217742D01*
Y145015D01*
X217803D01*
Y144954D01*
X217864D01*
Y144832D01*
X217926D01*
Y144770D01*
X217987D01*
Y144403D01*
X218109D01*
Y144220D01*
X215417D01*
Y144281D01*
X215356D01*
Y144465D01*
X215295D01*
Y144526D01*
X215234D01*
Y144587D01*
X215173D01*
Y144648D01*
X215111D01*
Y144709D01*
X215050D01*
Y145076D01*
X214989D01*
Y145138D01*
X214928D01*
Y145199D01*
X214867D01*
Y145260D01*
X214806D01*
Y145382D01*
X214744D01*
Y145688D01*
X214622D01*
Y145933D01*
X214561D01*
Y145994D01*
X214500D01*
Y146055D01*
X214438D01*
Y146300D01*
X214316D01*
Y146545D01*
X214255D01*
Y146606D01*
X214194D01*
Y146850D01*
X214132D01*
Y146912D01*
X214071D01*
Y147034D01*
X214010D01*
Y147156D01*
X213949D01*
Y147218D01*
X213888D01*
Y147462D01*
X213827D01*
Y147523D01*
X213766D01*
Y147646D01*
X213704D01*
Y147768D01*
X213643D01*
Y147829D01*
X213582D01*
Y148135D01*
X213521D01*
Y148196D01*
X213460D01*
Y148319D01*
X213398D01*
Y148441D01*
X213337D01*
Y148502D01*
X213276D01*
Y148747D01*
X213215D01*
Y148808D01*
X213154D01*
Y148931D01*
X213092D01*
Y148992D01*
X213031D01*
Y149114D01*
X212970D01*
Y149420D01*
X212909D01*
Y149481D01*
X212848D01*
Y149603D01*
X212787D01*
Y149665D01*
X212725D01*
Y149970D01*
X212664D01*
Y150032D01*
X212603D01*
Y150154D01*
X212542D01*
Y150276D01*
X212481D01*
Y150338D01*
X212420D01*
Y150643D01*
X212358D01*
Y150705D01*
X212297D01*
Y150766D01*
X212236D01*
Y150888D01*
X212175D01*
Y150949D01*
X212114D01*
Y151194D01*
X212052D01*
Y151255D01*
X211991D01*
Y151378D01*
X211930D01*
Y151561D01*
X211869D01*
Y151622D01*
X211808D01*
Y151867D01*
X211747D01*
Y151928D01*
X211685D01*
Y152112D01*
X211624D01*
Y152173D01*
X211563D01*
Y152234D01*
X211502D01*
Y152418D01*
X211563D01*
Y152479D01*
X214194D01*
Y152418D01*
D02*
G37*
G36*
X210829Y159575D02*
X210890D01*
Y159514D01*
X210951D01*
Y159208D01*
X211074D01*
Y158964D01*
X211135D01*
Y158902D01*
X211196D01*
Y158841D01*
X211257D01*
Y158658D01*
X211318D01*
Y158597D01*
X211380D01*
Y158413D01*
X211441D01*
Y158352D01*
X211502D01*
Y158107D01*
X211563D01*
Y158046D01*
X211624D01*
Y157985D01*
X211685D01*
Y157740D01*
X211808D01*
Y157495D01*
X211869D01*
Y157434D01*
X211930D01*
Y157373D01*
X211991D01*
Y157189D01*
X212052D01*
Y157128D01*
X212114D01*
Y156884D01*
X212175D01*
Y156700D01*
X212114D01*
Y156455D01*
X212052D01*
Y156394D01*
X211991D01*
Y156333D01*
X211930D01*
Y156211D01*
X211869D01*
Y156149D01*
X211808D01*
Y155843D01*
X211747D01*
Y155782D01*
X211685D01*
Y155599D01*
X211624D01*
Y155538D01*
X211563D01*
Y155476D01*
X211502D01*
Y155171D01*
X211441D01*
Y155109D01*
X211380D01*
Y154987D01*
X211318D01*
Y154926D01*
X211257D01*
Y154865D01*
X211196D01*
Y154804D01*
X211257D01*
Y154620D01*
X211196D01*
Y154559D01*
X211135D01*
Y154498D01*
X211074D01*
Y154375D01*
X211013D01*
Y154314D01*
X210951D01*
Y154008D01*
X210890D01*
Y153947D01*
X210829D01*
Y153886D01*
X210768D01*
Y153702D01*
X210707D01*
Y153641D01*
X210645D01*
Y153335D01*
X210523D01*
Y153091D01*
X210462D01*
Y153029D01*
X210339D01*
Y152724D01*
X210217D01*
Y152479D01*
X210095D01*
Y152418D01*
X210034D01*
Y152112D01*
X209973D01*
Y152050D01*
X209911D01*
Y151928D01*
X209850D01*
Y151867D01*
X209789D01*
Y151622D01*
X209728D01*
Y151561D01*
X209667D01*
Y151439D01*
X209605D01*
Y151255D01*
X209483D01*
Y151011D01*
X209422D01*
Y150888D01*
X209361D01*
Y150766D01*
X209299D01*
Y150643D01*
X209238D01*
Y150582D01*
X209177D01*
Y150276D01*
X209055D01*
Y150154D01*
X208994D01*
Y150093D01*
X208932D01*
Y149970D01*
X208871D01*
Y149665D01*
X208810D01*
Y149603D01*
X208749D01*
Y149481D01*
X208688D01*
Y149420D01*
X208627D01*
Y149297D01*
X208565D01*
Y148992D01*
X208504D01*
Y148931D01*
X208443D01*
Y148808D01*
X208321D01*
Y148686D01*
X208260D01*
Y148625D01*
X208321D01*
Y148563D01*
Y148502D01*
X208260D01*
Y148380D01*
X208198D01*
Y148319D01*
X208137D01*
Y148196D01*
X208076D01*
Y148135D01*
X208015D01*
Y147829D01*
X207954D01*
Y147768D01*
X207892D01*
Y147707D01*
X207831D01*
Y147523D01*
X207770D01*
Y147462D01*
X207709D01*
Y147218D01*
X207648D01*
Y147156D01*
X207587D01*
Y146973D01*
X207525D01*
Y146912D01*
X207464D01*
Y146850D01*
X207403D01*
Y146545D01*
X207342D01*
Y146483D01*
X207281D01*
Y146361D01*
X207220D01*
Y146300D01*
X207158D01*
Y146239D01*
X207097D01*
Y145994D01*
X207036D01*
Y145933D01*
X206975D01*
Y145749D01*
X206914D01*
Y145688D01*
X206852D01*
Y145443D01*
X206791D01*
Y145321D01*
X206730D01*
Y145260D01*
X206669D01*
Y145076D01*
X206608D01*
Y145015D01*
X206546D01*
Y144770D01*
X206485D01*
Y144709D01*
X206424D01*
Y144648D01*
X206363D01*
Y144465D01*
X206302D01*
Y144403D01*
X206241D01*
Y144281D01*
X206179D01*
Y144220D01*
X203488D01*
Y144403D01*
X203610D01*
Y144709D01*
X203732D01*
Y144832D01*
X203794D01*
Y145015D01*
X203855D01*
Y145138D01*
X203916D01*
Y145382D01*
X203977D01*
Y145443D01*
X204038D01*
Y145504D01*
X204099D01*
Y145566D01*
X204161D01*
Y145933D01*
X204222D01*
Y145994D01*
X204283D01*
Y146055D01*
X204344D01*
Y146177D01*
X204405D01*
Y146239D01*
X204467D01*
Y146545D01*
X204528D01*
Y146606D01*
X204589D01*
Y146667D01*
X204650D01*
Y146850D01*
X204772D01*
Y147156D01*
X204895D01*
Y147401D01*
X204956D01*
Y147462D01*
X205017D01*
Y147523D01*
X205078D01*
Y147768D01*
X205139D01*
Y147829D01*
X205201D01*
Y148013D01*
X205262D01*
Y148074D01*
X205323D01*
Y148135D01*
X205384D01*
Y148441D01*
X205445D01*
Y148502D01*
X205506D01*
Y148625D01*
X205568D01*
Y148686D01*
X205629D01*
Y148931D01*
X205690D01*
Y148992D01*
X205751D01*
Y149114D01*
X205812D01*
Y149236D01*
X205874D01*
Y149297D01*
X205935D01*
Y149603D01*
X205996D01*
Y149665D01*
X206057D01*
Y149787D01*
X206118D01*
Y149909D01*
X206179D01*
Y149970D01*
X206241D01*
Y150215D01*
X206302D01*
Y150276D01*
X206363D01*
Y150460D01*
X206424D01*
Y150582D01*
X206485D01*
Y150643D01*
X206546D01*
Y150888D01*
X206608D01*
Y150949D01*
X206669D01*
Y151072D01*
X206730D01*
Y151133D01*
X206791D01*
Y151194D01*
X206852D01*
Y151378D01*
X206791D01*
Y151500D01*
X206852D01*
Y151561D01*
X206914D01*
Y151622D01*
X206975D01*
Y151745D01*
X207036D01*
Y151806D01*
X207097D01*
Y152112D01*
X207158D01*
Y152173D01*
X207220D01*
Y152234D01*
X207281D01*
Y152418D01*
X207342D01*
Y152479D01*
X207403D01*
Y152724D01*
X207464D01*
Y152785D01*
X207587D01*
Y153029D01*
X207648D01*
Y153091D01*
X207709D01*
Y153335D01*
X207770D01*
Y153396D01*
X207831D01*
Y153580D01*
X207892D01*
Y153641D01*
X207954D01*
Y153702D01*
X208015D01*
Y154069D01*
X208137D01*
Y154192D01*
X208198D01*
Y154253D01*
X208321D01*
Y154620D01*
X208382D01*
Y154681D01*
X208443D01*
Y154804D01*
X208504D01*
Y154865D01*
X208565D01*
Y155171D01*
X208627D01*
Y155232D01*
X208688D01*
Y155293D01*
X208749D01*
Y155538D01*
X208871D01*
Y155843D01*
X208932D01*
Y155905D01*
X208994D01*
Y156027D01*
X209055D01*
Y156149D01*
X209177D01*
Y156455D01*
X209238D01*
Y156517D01*
X209299D01*
Y156639D01*
X209361D01*
Y156761D01*
X209422D01*
Y156884D01*
X209483D01*
Y157128D01*
X209544D01*
Y157189D01*
X209605D01*
Y157251D01*
X209667D01*
Y157373D01*
X209728D01*
Y157434D01*
X209789D01*
Y157740D01*
X209911D01*
Y157985D01*
X209973D01*
Y158046D01*
X210034D01*
Y158291D01*
X210095D01*
Y158352D01*
X210217D01*
Y158597D01*
X210278D01*
Y158658D01*
X210339D01*
Y158902D01*
X210462D01*
Y158964D01*
X210523D01*
Y159208D01*
X210645D01*
Y159575D01*
X210707D01*
Y159636D01*
X210829D01*
Y159575D01*
D02*
G37*
G36*
X271578Y157618D02*
X263258D01*
Y157679D01*
X263197D01*
Y157740D01*
X263258D01*
Y159514D01*
X263197D01*
Y159575D01*
X263258D01*
Y159636D01*
X271578D01*
Y157618D01*
D02*
G37*
G36*
X261912Y158841D02*
Y158780D01*
Y154253D01*
X261851D01*
Y154192D01*
X259771D01*
Y154253D01*
X259710D01*
Y154314D01*
X259648D01*
Y154375D01*
X259710D01*
Y159636D01*
X261912D01*
Y158841D01*
D02*
G37*
G36*
X271578Y151011D02*
X265583D01*
Y148747D01*
Y148686D01*
Y146300D01*
X271578D01*
Y144281D01*
X271517D01*
Y144220D01*
X263319D01*
Y144281D01*
X263258D01*
Y144342D01*
X263197D01*
Y144403D01*
X263258D01*
Y152907D01*
X263197D01*
Y152968D01*
X263258D01*
Y153029D01*
X271578D01*
Y151011D01*
D02*
G37*
G36*
X250717Y159514D02*
X250778D01*
Y159453D01*
X250839D01*
Y159269D01*
X250900D01*
Y159208D01*
X251023D01*
Y159086D01*
X251084D01*
Y159025D01*
X251145D01*
Y158841D01*
X251206D01*
Y158780D01*
X251267D01*
Y158719D01*
X251328D01*
Y158658D01*
X251390D01*
Y158597D01*
X251451D01*
Y158413D01*
X251512D01*
Y158352D01*
X251573D01*
Y158291D01*
X251634D01*
Y158229D01*
X251695D01*
Y158168D01*
X251757D01*
Y158046D01*
X251818D01*
Y157985D01*
X251879D01*
Y157924D01*
X251940D01*
Y157801D01*
X252001D01*
Y157740D01*
X252063D01*
Y157618D01*
X252124D01*
Y157556D01*
X252185D01*
Y157495D01*
X252246D01*
Y157434D01*
X252307D01*
Y157373D01*
X252368D01*
Y157189D01*
X252430D01*
Y157128D01*
X252491D01*
Y157067D01*
X252552D01*
Y157006D01*
X252613D01*
Y156945D01*
X252674D01*
Y156822D01*
X252735D01*
Y156761D01*
X252797D01*
Y156639D01*
X252858D01*
Y156578D01*
X252919D01*
Y156455D01*
X252980D01*
Y156394D01*
X253041D01*
Y156333D01*
X253102D01*
Y156272D01*
X253225D01*
Y156027D01*
X253286D01*
Y155966D01*
X253347D01*
Y155905D01*
X253408D01*
Y155843D01*
X253470D01*
Y155782D01*
X253531D01*
Y155599D01*
X253592D01*
Y155538D01*
X253653D01*
Y155476D01*
X253714D01*
Y155415D01*
X253776D01*
Y155354D01*
X253837D01*
Y155232D01*
X253898D01*
Y155171D01*
X253959D01*
Y155109D01*
X254020D01*
Y155048D01*
X254081D01*
Y154865D01*
X254143D01*
Y154804D01*
X254204D01*
Y154742D01*
X254265D01*
Y154681D01*
X254326D01*
Y154620D01*
X254387D01*
Y154436D01*
X254449D01*
Y154375D01*
X254510D01*
Y154314D01*
X254571D01*
Y154253D01*
X254632D01*
Y154192D01*
X254693D01*
Y154069D01*
X254754D01*
Y154008D01*
X254816D01*
Y153947D01*
X254877D01*
Y153886D01*
X254938D01*
Y153763D01*
X254999D01*
Y153641D01*
X255121D01*
Y153519D01*
X255183D01*
Y153458D01*
X255244D01*
Y153396D01*
X255305D01*
Y153213D01*
X255366D01*
Y153152D01*
X255427D01*
Y153091D01*
X255488D01*
Y153029D01*
X255550D01*
Y152968D01*
X255611D01*
Y152785D01*
X255672D01*
Y152724D01*
X255733D01*
Y152662D01*
X255794D01*
Y152601D01*
X255855D01*
Y152479D01*
X255978D01*
Y152418D01*
X256039D01*
Y152234D01*
X256100D01*
Y152173D01*
X256161D01*
Y152050D01*
X256223D01*
Y151989D01*
X256284D01*
Y151928D01*
X256345D01*
Y151867D01*
X256406D01*
Y151806D01*
X256467D01*
Y151622D01*
X256528D01*
Y151561D01*
X256590D01*
Y151500D01*
X256651D01*
Y151439D01*
X256712D01*
Y151378D01*
X256773D01*
Y151255D01*
X256834D01*
Y151194D01*
X256895D01*
Y151072D01*
X256957D01*
Y151011D01*
X257018D01*
Y150888D01*
X257079D01*
Y150827D01*
X257140D01*
Y150766D01*
X257201D01*
Y150705D01*
X257324D01*
Y150460D01*
X257385D01*
Y150399D01*
X257446D01*
Y150338D01*
X257507D01*
Y150276D01*
X257569D01*
Y150215D01*
X257630D01*
Y150032D01*
X257691D01*
Y149970D01*
X257752D01*
Y149909D01*
X257813D01*
Y149848D01*
X257874D01*
Y149787D01*
X257936D01*
Y149665D01*
X257997D01*
Y149542D01*
X258119D01*
Y149481D01*
X258180D01*
Y149359D01*
X258241D01*
Y149236D01*
X258303D01*
Y149175D01*
X258364D01*
Y149114D01*
X258425D01*
Y149053D01*
X258486D01*
Y148931D01*
X258547D01*
Y148808D01*
X258609D01*
Y148747D01*
X258670D01*
Y148686D01*
X258731D01*
Y148625D01*
X258792D01*
Y148502D01*
X258853D01*
Y148441D01*
X258914D01*
Y148380D01*
X258976D01*
Y148319D01*
X259037D01*
Y148258D01*
X259098D01*
Y148074D01*
X259220D01*
Y147952D01*
X259281D01*
Y147890D01*
X259404D01*
Y147646D01*
X259465D01*
Y147585D01*
X259526D01*
Y147523D01*
X259587D01*
Y147462D01*
X259648D01*
Y147401D01*
X259710D01*
Y147218D01*
X259771D01*
Y147156D01*
X259832D01*
Y147095D01*
X259893D01*
Y147034D01*
X259954D01*
Y146973D01*
X260016D01*
Y146912D01*
X260077D01*
Y146850D01*
X260138D01*
Y146728D01*
X260199D01*
Y146606D01*
X260260D01*
Y146483D01*
X260321D01*
Y146422D01*
X260383D01*
Y146361D01*
X260444D01*
Y146300D01*
X260566D01*
Y146055D01*
X260627D01*
Y145994D01*
X260688D01*
Y145933D01*
X260750D01*
Y145872D01*
X260811D01*
Y145810D01*
X260872D01*
Y145688D01*
X260994D01*
Y145504D01*
X261056D01*
Y145443D01*
X261117D01*
Y145382D01*
X261178D01*
Y145260D01*
X261239D01*
Y145199D01*
X261300D01*
Y145138D01*
X261423D01*
Y144893D01*
X261484D01*
Y144832D01*
X261545D01*
Y144770D01*
X261606D01*
Y144709D01*
X261667D01*
Y144648D01*
X261729D01*
Y144526D01*
X261790D01*
Y144465D01*
X261851D01*
Y144403D01*
X261912D01*
Y144281D01*
X261851D01*
Y144220D01*
X259281D01*
Y144281D01*
X259220D01*
Y144403D01*
X259098D01*
Y144465D01*
Y144526D01*
X259037D01*
Y144587D01*
X258976D01*
Y144709D01*
X258914D01*
Y144770D01*
X258853D01*
Y144893D01*
X258792D01*
Y144954D01*
X258731D01*
Y145015D01*
X258670D01*
Y145076D01*
X258609D01*
Y145138D01*
X258547D01*
Y145199D01*
X258486D01*
Y145382D01*
X258425D01*
Y145443D01*
X258364D01*
Y145504D01*
X258303D01*
Y145566D01*
X258241D01*
Y145688D01*
X258180D01*
Y145810D01*
X258119D01*
Y145872D01*
X258058D01*
Y145994D01*
X257936D01*
Y146116D01*
X257874D01*
Y146177D01*
X257813D01*
Y146239D01*
X257752D01*
Y146300D01*
X257691D01*
Y146422D01*
X257630D01*
Y146545D01*
X257569D01*
Y146606D01*
X257507D01*
Y146667D01*
X257446D01*
Y146728D01*
X257385D01*
Y146850D01*
X257324D01*
Y147034D01*
X257201D01*
Y147156D01*
X257079D01*
Y147218D01*
X257018D01*
Y147401D01*
X256957D01*
Y147462D01*
X256895D01*
Y147523D01*
X256834D01*
Y147585D01*
X256773D01*
Y147707D01*
X256712D01*
Y147768D01*
X256651D01*
Y147829D01*
X256590D01*
Y147952D01*
X256528D01*
Y148013D01*
X256467D01*
Y148135D01*
X256406D01*
Y148196D01*
X256345D01*
Y148258D01*
X256284D01*
Y148319D01*
X256223D01*
Y148380D01*
X256161D01*
Y148563D01*
X256100D01*
Y148625D01*
X256039D01*
Y148686D01*
X255978D01*
Y148747D01*
X255917D01*
Y148808D01*
X255855D01*
Y148931D01*
X255794D01*
Y148992D01*
X255733D01*
Y149053D01*
X255672D01*
Y149114D01*
X255611D01*
Y149297D01*
X255550D01*
Y149359D01*
X255488D01*
Y149420D01*
X255427D01*
Y149481D01*
X255366D01*
Y149542D01*
X255305D01*
Y149787D01*
X255183D01*
Y149848D01*
X255121D01*
Y149970D01*
X254999D01*
Y150093D01*
X254938D01*
Y150154D01*
X254877D01*
Y150276D01*
X254816D01*
Y150338D01*
X254754D01*
Y150399D01*
X254693D01*
Y150521D01*
X254632D01*
Y150582D01*
X254571D01*
Y150643D01*
X254510D01*
Y150705D01*
X254449D01*
Y150766D01*
X254387D01*
Y150949D01*
X254326D01*
Y151011D01*
X254265D01*
Y151072D01*
X254204D01*
Y151133D01*
X254143D01*
Y151194D01*
X254081D01*
Y151378D01*
X254020D01*
Y151439D01*
X253959D01*
Y151561D01*
X253837D01*
Y151683D01*
X253776D01*
Y151745D01*
X253714D01*
Y151806D01*
X253653D01*
Y151867D01*
X253592D01*
Y151928D01*
X253531D01*
Y152112D01*
X253470D01*
Y152173D01*
X253408D01*
Y152234D01*
X253347D01*
Y152295D01*
X253286D01*
Y152356D01*
X253225D01*
Y152601D01*
X253102D01*
Y152724D01*
X252980D01*
Y152785D01*
X252858D01*
Y144281D01*
X252735D01*
Y144220D01*
X250656D01*
Y144281D01*
X250594D01*
Y159575D01*
X250717D01*
Y159514D01*
D02*
G37*
G36*
X245394Y152418D02*
X245455D01*
Y152173D01*
X245578D01*
Y151928D01*
X245639D01*
Y151867D01*
X245700D01*
Y151745D01*
X245761D01*
Y151561D01*
X245884D01*
Y151255D01*
X245945D01*
Y151194D01*
X246006D01*
Y151072D01*
X246067D01*
Y151011D01*
X246128D01*
Y150949D01*
X246189D01*
Y150705D01*
X246251D01*
Y150643D01*
X246312D01*
Y150460D01*
X246373D01*
Y150399D01*
X246434D01*
Y150338D01*
X246495D01*
Y150032D01*
X246557D01*
Y149970D01*
X246618D01*
Y149787D01*
X246679D01*
Y149726D01*
X246740D01*
Y149420D01*
X246801D01*
Y149359D01*
X246862D01*
Y149297D01*
X246924D01*
Y149175D01*
X246985D01*
Y149114D01*
X247046D01*
Y148808D01*
X247107D01*
Y148747D01*
X247168D01*
Y148686D01*
X247230D01*
Y148563D01*
X247291D01*
Y148502D01*
X247352D01*
Y148135D01*
X247413D01*
Y148074D01*
X247474D01*
Y147952D01*
X247535D01*
Y147890D01*
X247658D01*
Y147523D01*
X247719D01*
Y147462D01*
X247780D01*
Y147340D01*
X247841D01*
Y147279D01*
X247902D01*
Y147156D01*
X247964D01*
Y146912D01*
X248025D01*
Y146850D01*
X248086D01*
Y146667D01*
X248147D01*
Y146606D01*
X248208D01*
Y146361D01*
X248270D01*
Y146300D01*
X248331D01*
Y146239D01*
X248392D01*
Y146055D01*
X248453D01*
Y145994D01*
X248514D01*
Y145749D01*
X248575D01*
Y145688D01*
X248637D01*
Y145566D01*
X248698D01*
Y145443D01*
X248759D01*
Y145382D01*
X248820D01*
Y145076D01*
X248881D01*
Y145015D01*
X248942D01*
Y144893D01*
X249004D01*
Y144832D01*
X249065D01*
Y144770D01*
X249126D01*
Y144526D01*
X249187D01*
Y144465D01*
X249248D01*
Y144220D01*
X246495D01*
Y144465D01*
X246434D01*
Y144526D01*
X246373D01*
Y144587D01*
X246312D01*
Y144832D01*
X246189D01*
Y145076D01*
X246128D01*
Y145138D01*
X246067D01*
Y145199D01*
X246006D01*
Y145382D01*
X245945D01*
Y145443D01*
X245884D01*
Y145749D01*
X245822D01*
Y145810D01*
X245761D01*
Y145933D01*
X245700D01*
Y145994D01*
X245639D01*
Y146055D01*
X245578D01*
Y146300D01*
X245517D01*
Y146361D01*
X245455D01*
Y146545D01*
X245394D01*
Y146606D01*
X245333D01*
Y146728D01*
X245272D01*
Y146973D01*
X245211D01*
Y147034D01*
X245149D01*
Y147218D01*
X245088D01*
Y147279D01*
X245027D01*
Y147585D01*
X244966D01*
Y147646D01*
X244905D01*
Y147707D01*
X244844D01*
Y147890D01*
X244721D01*
Y148196D01*
X244660D01*
Y148258D01*
X244599D01*
Y148319D01*
X244538D01*
Y148441D01*
X244477D01*
Y148502D01*
X244415D01*
Y148869D01*
X244354D01*
Y148931D01*
X244293D01*
Y148992D01*
X244232D01*
Y149053D01*
X244171D01*
Y149114D01*
X244110D01*
Y149481D01*
X244048D01*
Y149542D01*
X243987D01*
Y149665D01*
X243926D01*
Y149726D01*
X243865D01*
Y149848D01*
X243804D01*
Y150093D01*
X243742D01*
Y150154D01*
X243681D01*
Y150338D01*
X243620D01*
Y150399D01*
X243559D01*
Y150643D01*
X243498D01*
Y150705D01*
X243437D01*
Y150766D01*
X243375D01*
Y150949D01*
X243314D01*
Y151011D01*
X243253D01*
Y151255D01*
X243192D01*
Y151316D01*
X243131D01*
Y151500D01*
X243070D01*
Y151561D01*
X243008D01*
Y151622D01*
X242947D01*
Y151928D01*
X242886D01*
Y151989D01*
X242825D01*
Y152112D01*
X242764D01*
Y152173D01*
X242702D01*
Y152234D01*
X242641D01*
Y152418D01*
X242702D01*
Y152479D01*
X245394D01*
Y152418D01*
D02*
G37*
G36*
X242029Y159575D02*
X242091D01*
Y159269D01*
X242152D01*
Y159208D01*
X242213D01*
Y159086D01*
X242274D01*
Y159025D01*
X242335D01*
Y158780D01*
X242396D01*
Y158658D01*
X242458D01*
Y158597D01*
X242519D01*
Y158413D01*
X242580D01*
Y158352D01*
X242641D01*
Y158107D01*
X242702D01*
Y158046D01*
X242764D01*
Y157985D01*
X242825D01*
Y157801D01*
X242886D01*
Y157740D01*
X242947D01*
Y157434D01*
X243070D01*
Y157251D01*
X243131D01*
Y157189D01*
X243192D01*
Y157128D01*
X243253D01*
Y156455D01*
X243192D01*
Y156394D01*
X243131D01*
Y156272D01*
X243070D01*
Y156149D01*
X243008D01*
Y156088D01*
X242947D01*
Y155782D01*
X242886D01*
Y155721D01*
X242825D01*
Y155599D01*
X242764D01*
Y155538D01*
X242702D01*
Y155476D01*
X242641D01*
Y155171D01*
X242580D01*
Y155109D01*
X242519D01*
Y154987D01*
X242458D01*
Y154865D01*
X242396D01*
Y154742D01*
X242335D01*
Y154559D01*
X242274D01*
Y154498D01*
X242213D01*
Y154314D01*
X242152D01*
Y154253D01*
X242091D01*
Y154008D01*
X242029D01*
Y153886D01*
X241968D01*
Y153825D01*
X241907D01*
Y153702D01*
X241846D01*
Y153641D01*
X241785D01*
Y153396D01*
X241723D01*
Y153335D01*
X241662D01*
Y153213D01*
X241601D01*
Y153091D01*
X241540D01*
Y153029D01*
X241479D01*
Y152785D01*
X241418D01*
Y152724D01*
X241356D01*
Y152540D01*
X241295D01*
Y152418D01*
X241173D01*
Y152112D01*
X241112D01*
Y152050D01*
X241051D01*
Y151867D01*
X240989D01*
Y151806D01*
X240928D01*
Y151683D01*
X240867D01*
Y151439D01*
X240806D01*
Y151378D01*
X240745D01*
Y151316D01*
X240684D01*
Y151194D01*
X240622D01*
Y150888D01*
X240561D01*
Y150827D01*
X240500D01*
Y150705D01*
X240439D01*
Y150643D01*
X240378D01*
Y150582D01*
X240317D01*
Y150276D01*
X240255D01*
Y150154D01*
X240194D01*
Y150032D01*
X240133D01*
Y149970D01*
X240072D01*
Y149909D01*
X240011D01*
Y149603D01*
X239949D01*
Y149542D01*
X239888D01*
Y149420D01*
X239827D01*
Y149359D01*
X239766D01*
Y149236D01*
X239705D01*
Y148992D01*
X239644D01*
Y148931D01*
X239582D01*
Y148747D01*
X239521D01*
Y148686D01*
X239460D01*
Y148625D01*
X239399D01*
Y148380D01*
X239338D01*
Y148319D01*
X239277D01*
Y148135D01*
X239215D01*
Y148074D01*
X239154D01*
Y147829D01*
X239093D01*
Y147707D01*
X239032D01*
Y147646D01*
X238971D01*
Y147523D01*
X238909D01*
Y147462D01*
X238848D01*
Y147218D01*
X238787D01*
Y147156D01*
X238726D01*
Y146973D01*
X238665D01*
Y146912D01*
X238603D01*
Y146850D01*
X238542D01*
Y146545D01*
X238481D01*
Y146483D01*
X238420D01*
Y146361D01*
X238359D01*
Y146239D01*
X238298D01*
Y146177D01*
X238236D01*
Y145933D01*
X238175D01*
Y145872D01*
X238114D01*
Y145627D01*
X238053D01*
Y145566D01*
X237992D01*
Y145504D01*
X237930D01*
Y145260D01*
X237869D01*
Y145199D01*
X237808D01*
Y145076D01*
X237747D01*
Y145015D01*
X237686D01*
Y144709D01*
X237625D01*
Y144587D01*
X237563D01*
Y144526D01*
X237502D01*
Y144465D01*
X237441D01*
Y144403D01*
X237380D01*
Y144281D01*
X237319D01*
Y144220D01*
X234749D01*
Y144281D01*
X234688D01*
Y144465D01*
X234749D01*
Y144648D01*
X234810D01*
Y144709D01*
X234872D01*
Y144893D01*
X234933D01*
Y144954D01*
X234994D01*
Y145138D01*
X235055D01*
Y145260D01*
X235116D01*
Y145321D01*
X235178D01*
Y145504D01*
X235239D01*
Y145566D01*
X235300D01*
Y145810D01*
X235361D01*
Y145872D01*
X235422D01*
Y145994D01*
X235483D01*
Y146116D01*
X235545D01*
Y146177D01*
X235606D01*
Y146483D01*
X235667D01*
Y146545D01*
X235728D01*
Y146667D01*
X235789D01*
Y146789D01*
X235851D01*
Y146850D01*
X235912D01*
Y147156D01*
X235973D01*
Y147218D01*
X236034D01*
Y147279D01*
X236095D01*
Y147401D01*
X236156D01*
Y147462D01*
X236218D01*
Y147768D01*
X236340D01*
Y148013D01*
X236401D01*
Y148074D01*
X236462D01*
Y148319D01*
X236585D01*
Y148380D01*
X236646D01*
Y148625D01*
X236707D01*
Y148686D01*
X236768D01*
Y148931D01*
X236829D01*
Y148992D01*
X236891D01*
Y149114D01*
X236952D01*
Y149236D01*
X237074D01*
Y149542D01*
X237135D01*
Y149603D01*
X237196D01*
Y149787D01*
X237319D01*
Y149848D01*
X237380D01*
Y150154D01*
X237441D01*
Y150276D01*
X237502D01*
Y150399D01*
X237563D01*
Y150460D01*
X237625D01*
Y150582D01*
X237686D01*
Y150827D01*
X237747D01*
Y150888D01*
X237808D01*
Y151072D01*
X237869D01*
Y151133D01*
X237930D01*
Y151378D01*
X237992D01*
Y151439D01*
X238053D01*
Y151500D01*
X238114D01*
Y151622D01*
X238175D01*
Y151683D01*
X238236D01*
Y152050D01*
X238298D01*
Y152112D01*
X238359D01*
Y152173D01*
X238420D01*
Y152295D01*
X238481D01*
Y152356D01*
X238542D01*
Y152724D01*
X238603D01*
Y152785D01*
X238665D01*
Y152846D01*
X238726D01*
Y152907D01*
X238787D01*
Y152968D01*
X238848D01*
Y153335D01*
X238971D01*
Y153519D01*
X239032D01*
Y153580D01*
X239093D01*
Y153702D01*
X239154D01*
Y153886D01*
X239215D01*
Y153947D01*
X239277D01*
Y154192D01*
X239399D01*
Y154498D01*
X239460D01*
Y154559D01*
X239521D01*
Y154620D01*
X239582D01*
Y154804D01*
X239705D01*
Y155109D01*
X239766D01*
Y155171D01*
X239827D01*
Y155293D01*
X239888D01*
Y155354D01*
X239949D01*
Y155415D01*
X240011D01*
Y155721D01*
X240072D01*
Y155782D01*
X240133D01*
Y155905D01*
X240194D01*
Y156027D01*
X240255D01*
Y156088D01*
X240317D01*
Y156394D01*
X240378D01*
Y156455D01*
X240439D01*
Y156578D01*
X240500D01*
Y156700D01*
X240561D01*
Y156761D01*
X240622D01*
Y157006D01*
X240684D01*
Y157067D01*
X240745D01*
Y157189D01*
X240806D01*
Y157251D01*
X240867D01*
Y157556D01*
X240928D01*
Y157618D01*
X240989D01*
Y157740D01*
X241051D01*
Y157862D01*
X241112D01*
Y157924D01*
X241173D01*
Y158229D01*
X241234D01*
Y158291D01*
X241295D01*
Y158413D01*
X241356D01*
Y158535D01*
X241418D01*
Y158597D01*
X241479D01*
Y158902D01*
X241601D01*
Y159025D01*
X241662D01*
Y159086D01*
X241723D01*
Y159208D01*
X241785D01*
Y159453D01*
X241846D01*
Y159514D01*
X241907D01*
Y159636D01*
X242029D01*
Y159575D01*
D02*
G37*
G36*
X233220D02*
X233281D01*
Y154192D01*
Y154130D01*
Y144281D01*
X233220D01*
Y144220D01*
X231079D01*
Y144342D01*
X231017D01*
Y144403D01*
X231079D01*
Y159636D01*
X233220D01*
Y159575D01*
D02*
G37*
G36*
X247145Y175267D02*
X246460D01*
Y175886D01*
X247145D01*
Y175267D01*
D02*
G37*
G36*
X275146Y174662D02*
X275153D01*
X275183Y174654D01*
X275212D01*
X275255Y174647D01*
Y174020D01*
X275204D01*
X275175Y174027D01*
X275131Y174035D01*
X275073Y174042D01*
X275059D01*
X275022Y174049D01*
X274854D01*
X274811Y174042D01*
X274745Y174035D01*
X274672Y174020D01*
X274585Y174005D01*
X274497Y173976D01*
X274410Y173940D01*
X274402Y173933D01*
X274366Y173918D01*
X274322Y173896D01*
X274264Y173860D01*
X274191Y173816D01*
X274118Y173765D01*
X274038Y173699D01*
X273958Y173626D01*
Y171111D01*
X273360D01*
Y174669D01*
X273958D01*
Y174137D01*
X273965D01*
X273972Y174151D01*
X274016Y174188D01*
X274074Y174239D01*
X274155Y174297D01*
X274242Y174363D01*
X274337Y174435D01*
X274432Y174494D01*
X274526Y174545D01*
X274541Y174552D01*
X274570Y174567D01*
X274614Y174581D01*
X274679Y174610D01*
X274752Y174632D01*
X274833Y174647D01*
X274920Y174662D01*
X275008Y174669D01*
X275110D01*
X275146Y174662D01*
D02*
G37*
G36*
X245913Y174662D02*
X245920D01*
X245950Y174654D01*
X245979D01*
X246023Y174647D01*
Y174020D01*
X245971D01*
X245942Y174027D01*
X245899Y174035D01*
X245840Y174042D01*
X245826D01*
X245789Y174049D01*
X245621D01*
X245578Y174042D01*
X245512Y174035D01*
X245439Y174020D01*
X245352Y174005D01*
X245264Y173976D01*
X245177Y173940D01*
X245169Y173933D01*
X245133Y173918D01*
X245089Y173896D01*
X245031Y173860D01*
X244958Y173816D01*
X244885Y173765D01*
X244805Y173699D01*
X244725Y173626D01*
Y171111D01*
X244127D01*
Y174669D01*
X244725D01*
Y174137D01*
X244732D01*
X244739Y174151D01*
X244783Y174188D01*
X244842Y174239D01*
X244922Y174297D01*
X245009Y174363D01*
X245104Y174435D01*
X245199Y174494D01*
X245293Y174545D01*
X245308Y174552D01*
X245337Y174567D01*
X245381Y174581D01*
X245447Y174610D01*
X245519Y174632D01*
X245600Y174647D01*
X245687Y174662D01*
X245775Y174669D01*
X245877D01*
X245913Y174662D01*
D02*
G37*
G36*
X249500Y174749D02*
X249573D01*
X249653Y174734D01*
X249748Y174720D01*
X249850Y174698D01*
X249952Y174669D01*
X249966D01*
X249995Y174654D01*
X250054Y174640D01*
X250119Y174618D01*
X250192Y174589D01*
X250280Y174552D01*
X250448Y174479D01*
Y173809D01*
X250411D01*
X250396Y173816D01*
X250367Y173845D01*
X250316Y173881D01*
X250243Y173925D01*
X250236D01*
X250229Y173940D01*
X250207Y173954D01*
X250178Y173969D01*
X250098Y174020D01*
X249995Y174071D01*
X249988D01*
X249974Y174086D01*
X249944Y174093D01*
X249915Y174108D01*
X249872Y174129D01*
X249821Y174144D01*
X249704Y174180D01*
X249697D01*
X249675Y174188D01*
X249646Y174195D01*
X249602Y174209D01*
X249551Y174217D01*
X249493Y174224D01*
X249376Y174231D01*
X249332D01*
X249296Y174224D01*
X249216Y174209D01*
X249106Y174188D01*
X248990Y174144D01*
X248866Y174078D01*
X248800Y174042D01*
X248742Y173991D01*
X248683Y173940D01*
X248625Y173874D01*
Y173867D01*
X248610Y173860D01*
X248603Y173838D01*
X248581Y173809D01*
X248559Y173772D01*
X248537Y173728D01*
X248516Y173677D01*
X248486Y173619D01*
X248457Y173553D01*
X248435Y173480D01*
X248414Y173400D01*
X248392Y173306D01*
X248363Y173109D01*
X248348Y172883D01*
Y172875D01*
Y172854D01*
Y172824D01*
X248355Y172781D01*
Y172730D01*
X248363Y172664D01*
X248384Y172526D01*
X248414Y172372D01*
X248465Y172205D01*
X248530Y172052D01*
X248618Y171906D01*
Y171899D01*
X248632Y171891D01*
X248669Y171855D01*
X248734Y171797D01*
X248815Y171731D01*
X248924Y171665D01*
X249055Y171614D01*
X249208Y171571D01*
X249288Y171563D01*
X249376Y171556D01*
X249427D01*
X249485Y171563D01*
X249558Y171571D01*
X249646Y171585D01*
X249740Y171607D01*
X249835Y171636D01*
X249937Y171673D01*
X249952Y171680D01*
X249981Y171695D01*
X250032Y171724D01*
X250098Y171753D01*
X250170Y171804D01*
X250251Y171855D01*
X250331Y171913D01*
X250411Y171986D01*
X250448D01*
Y171308D01*
X250440D01*
X250433Y171301D01*
X250411Y171293D01*
X250382Y171279D01*
X250309Y171250D01*
X250214Y171206D01*
X250207D01*
X250192Y171199D01*
X250170Y171184D01*
X250134Y171177D01*
X250061Y171148D01*
X249981Y171119D01*
X249974D01*
X249952Y171111D01*
X249923Y171104D01*
X249886Y171097D01*
X249791Y171082D01*
X249697Y171060D01*
X249689D01*
X249675Y171053D01*
X249653D01*
X249616Y171046D01*
X249573Y171038D01*
X249522D01*
X249456Y171031D01*
X249325D01*
X249259Y171038D01*
X249165Y171046D01*
X249062Y171060D01*
X248946Y171075D01*
X248829Y171104D01*
X248712Y171140D01*
X248698Y171148D01*
X248661Y171162D01*
X248603Y171192D01*
X248530Y171228D01*
X248450Y171279D01*
X248363Y171337D01*
X248275Y171403D01*
X248188Y171483D01*
X248180Y171490D01*
X248151Y171527D01*
X248115Y171578D01*
X248064Y171643D01*
X248005Y171724D01*
X247954Y171826D01*
X247896Y171935D01*
X247845Y172059D01*
Y172066D01*
X247838Y172074D01*
Y172095D01*
X247830Y172125D01*
X247809Y172197D01*
X247787Y172292D01*
X247765Y172416D01*
X247750Y172555D01*
X247736Y172715D01*
X247728Y172883D01*
Y172890D01*
Y172905D01*
Y172926D01*
Y172963D01*
X247736Y172999D01*
Y173050D01*
X247743Y173160D01*
X247758Y173284D01*
X247779Y173422D01*
X247809Y173561D01*
X247852Y173692D01*
Y173699D01*
X247860Y173706D01*
X247874Y173750D01*
X247903Y173816D01*
X247940Y173896D01*
X247991Y173984D01*
X248049Y174078D01*
X248115Y174173D01*
X248188Y174268D01*
X248195Y174275D01*
X248224Y174304D01*
X248268Y174348D01*
X248333Y174399D01*
X248406Y174457D01*
X248501Y174516D01*
X248603Y174574D01*
X248712Y174625D01*
X248720D01*
X248727Y174632D01*
X248771Y174647D01*
X248829Y174669D01*
X248917Y174691D01*
X249019Y174713D01*
X249128Y174734D01*
X249259Y174749D01*
X249391Y174756D01*
X249442D01*
X249500Y174749D01*
D02*
G37*
G36*
X240460D02*
X240533D01*
X240613Y174734D01*
X240708Y174720D01*
X240810Y174698D01*
X240912Y174669D01*
X240927D01*
X240956Y174654D01*
X241014Y174640D01*
X241080Y174618D01*
X241153Y174589D01*
X241240Y174552D01*
X241408Y174479D01*
Y173809D01*
X241371D01*
X241357Y173816D01*
X241328Y173845D01*
X241277Y173881D01*
X241204Y173925D01*
X241196D01*
X241189Y173940D01*
X241167Y173954D01*
X241138Y173969D01*
X241058Y174020D01*
X240956Y174071D01*
X240949D01*
X240934Y174086D01*
X240905Y174093D01*
X240876Y174108D01*
X240832Y174129D01*
X240781Y174144D01*
X240664Y174180D01*
X240657D01*
X240635Y174188D01*
X240606Y174195D01*
X240562Y174209D01*
X240511Y174217D01*
X240453Y174224D01*
X240336Y174231D01*
X240293D01*
X240256Y174224D01*
X240176Y174209D01*
X240067Y174188D01*
X239950Y174144D01*
X239826Y174078D01*
X239760Y174042D01*
X239702Y173991D01*
X239644Y173940D01*
X239585Y173874D01*
Y173867D01*
X239571Y173860D01*
X239563Y173838D01*
X239542Y173809D01*
X239520Y173772D01*
X239498Y173728D01*
X239476Y173677D01*
X239447Y173619D01*
X239418Y173553D01*
X239396Y173480D01*
X239374Y173400D01*
X239352Y173306D01*
X239323Y173109D01*
X239308Y172883D01*
Y172875D01*
Y172854D01*
Y172824D01*
X239316Y172781D01*
Y172730D01*
X239323Y172664D01*
X239345Y172526D01*
X239374Y172372D01*
X239425Y172205D01*
X239491Y172052D01*
X239578Y171906D01*
Y171899D01*
X239593Y171891D01*
X239629Y171855D01*
X239695Y171797D01*
X239775Y171731D01*
X239884Y171665D01*
X240016Y171614D01*
X240169Y171571D01*
X240249Y171563D01*
X240336Y171556D01*
X240387D01*
X240446Y171563D01*
X240518Y171571D01*
X240606Y171585D01*
X240701Y171607D01*
X240795Y171636D01*
X240898Y171673D01*
X240912Y171680D01*
X240941Y171695D01*
X240992Y171724D01*
X241058Y171753D01*
X241131Y171804D01*
X241211Y171855D01*
X241291Y171913D01*
X241371Y171986D01*
X241408D01*
Y171308D01*
X241401D01*
X241393Y171301D01*
X241371Y171293D01*
X241342Y171279D01*
X241269Y171250D01*
X241175Y171206D01*
X241167D01*
X241153Y171199D01*
X241131Y171184D01*
X241094Y171177D01*
X241021Y171148D01*
X240941Y171119D01*
X240934D01*
X240912Y171111D01*
X240883Y171104D01*
X240847Y171097D01*
X240752Y171082D01*
X240657Y171060D01*
X240650D01*
X240635Y171053D01*
X240613D01*
X240577Y171046D01*
X240533Y171038D01*
X240482D01*
X240417Y171031D01*
X240285D01*
X240220Y171038D01*
X240125Y171046D01*
X240023Y171060D01*
X239906Y171075D01*
X239790Y171104D01*
X239673Y171140D01*
X239658Y171148D01*
X239622Y171162D01*
X239563Y171192D01*
X239491Y171228D01*
X239410Y171279D01*
X239323Y171337D01*
X239235Y171403D01*
X239148Y171483D01*
X239141Y171490D01*
X239111Y171527D01*
X239075Y171578D01*
X239024Y171643D01*
X238966Y171724D01*
X238915Y171826D01*
X238856Y171935D01*
X238805Y172059D01*
Y172066D01*
X238798Y172074D01*
Y172095D01*
X238791Y172125D01*
X238769Y172197D01*
X238747Y172292D01*
X238725Y172416D01*
X238711Y172555D01*
X238696Y172715D01*
X238689Y172883D01*
Y172890D01*
Y172905D01*
Y172926D01*
Y172963D01*
X238696Y172999D01*
Y173050D01*
X238703Y173160D01*
X238718Y173284D01*
X238740Y173422D01*
X238769Y173561D01*
X238813Y173692D01*
Y173699D01*
X238820Y173706D01*
X238835Y173750D01*
X238864Y173816D01*
X238900Y173896D01*
X238951Y173984D01*
X239009Y174078D01*
X239075Y174173D01*
X239148Y174268D01*
X239155Y174275D01*
X239184Y174304D01*
X239228Y174348D01*
X239294Y174399D01*
X239367Y174457D01*
X239461Y174516D01*
X239563Y174574D01*
X239673Y174625D01*
X239680D01*
X239687Y174632D01*
X239731Y174647D01*
X239790Y174669D01*
X239877Y174691D01*
X239979Y174713D01*
X240088Y174734D01*
X240220Y174749D01*
X240351Y174756D01*
X240402D01*
X240460Y174749D01*
D02*
G37*
G36*
X268497Y171111D02*
X267944D01*
X267076Y173852D01*
X266209Y171111D01*
X265654D01*
X264751Y174669D01*
X265363D01*
X265997Y171913D01*
X266843Y174669D01*
X267338D01*
X268206Y171913D01*
X268796Y174669D01*
X269402D01*
X268497Y171111D01*
D02*
G37*
G36*
X259436Y175850D02*
X259545Y175842D01*
X259662Y175828D01*
X259779Y175806D01*
X259895Y175784D01*
X259910D01*
X259946Y175770D01*
X260005Y175755D01*
X260070Y175726D01*
X260158Y175697D01*
X260245Y175660D01*
X260333Y175609D01*
X260420Y175558D01*
X260435Y175551D01*
X260464Y175529D01*
X260515Y175485D01*
X260573Y175434D01*
X260639Y175369D01*
X260712Y175288D01*
X260777Y175201D01*
X260836Y175099D01*
X260843Y175084D01*
X260858Y175048D01*
X260887Y174990D01*
X260916Y174909D01*
X260938Y174815D01*
X260967Y174698D01*
X260982Y174567D01*
X260989Y174421D01*
Y174406D01*
Y174370D01*
X260982Y174312D01*
X260974Y174231D01*
X260960Y174144D01*
X260938Y174049D01*
X260909Y173940D01*
X260872Y173838D01*
X260865Y173823D01*
X260850Y173794D01*
X260828Y173743D01*
X260792Y173677D01*
X260748Y173605D01*
X260697Y173524D01*
X260639Y173444D01*
X260573Y173371D01*
X260559Y173364D01*
X260530Y173335D01*
X260478Y173291D01*
X260406Y173233D01*
X260326Y173174D01*
X260223Y173116D01*
X260114Y173058D01*
X259997Y173007D01*
X259983Y172999D01*
X259939Y172985D01*
X259866Y172970D01*
X259771Y172948D01*
X259647Y172919D01*
X259509Y172905D01*
X259349Y172890D01*
X259166Y172883D01*
X258634Y172883D01*
Y171111D01*
X258000D01*
Y175857D01*
X259334Y175857D01*
X259436Y175850D01*
D02*
G37*
G36*
X255026Y171111D02*
X254428D01*
Y176068D01*
X255026D01*
Y171111D01*
D02*
G37*
G36*
X252328Y174749D02*
X252430Y174742D01*
X252532Y174734D01*
X252635Y174720D01*
X252729Y174698D01*
X252744D01*
X252773Y174683D01*
X252824Y174669D01*
X252882Y174647D01*
X252955Y174618D01*
X253028Y174581D01*
X253108Y174538D01*
X253188Y174486D01*
X253196Y174479D01*
X253218Y174457D01*
X253254Y174428D01*
X253298Y174384D01*
X253342Y174333D01*
X253385Y174268D01*
X253436Y174188D01*
X253473Y174108D01*
X253480Y174100D01*
X253487Y174064D01*
X253502Y174013D01*
X253524Y173947D01*
X253546Y173867D01*
X253560Y173772D01*
X253568Y173663D01*
X253575Y173539D01*
Y171111D01*
X252977D01*
Y171483D01*
X252963Y171476D01*
X252919Y171447D01*
X252860Y171396D01*
X252773Y171330D01*
X252766Y171323D01*
X252751Y171315D01*
X252729Y171293D01*
X252700Y171279D01*
X252627Y171228D01*
X252540Y171177D01*
X252532D01*
X252511Y171162D01*
X252481Y171155D01*
X252438Y171133D01*
X252343Y171097D01*
X252226Y171060D01*
X252219D01*
X252197Y171053D01*
X252168Y171046D01*
X252124Y171038D01*
X252066Y171024D01*
X251993Y171017D01*
X251913Y171009D01*
X251782D01*
X251738Y171017D01*
X251687D01*
X251621Y171031D01*
X251548Y171046D01*
X251475Y171060D01*
X251395Y171089D01*
X251388Y171097D01*
X251366Y171104D01*
X251322Y171126D01*
X251279Y171148D01*
X251169Y171221D01*
X251053Y171323D01*
X251045Y171330D01*
X251031Y171352D01*
X251002Y171381D01*
X250972Y171425D01*
X250929Y171476D01*
X250892Y171534D01*
X250856Y171607D01*
X250819Y171680D01*
Y171687D01*
X250805Y171716D01*
X250797Y171760D01*
X250783Y171818D01*
X250768Y171891D01*
X250754Y171964D01*
X250746Y172052D01*
X250739Y172139D01*
Y172146D01*
Y172154D01*
Y172197D01*
X250746Y172270D01*
X250761Y172358D01*
X250776Y172453D01*
X250805Y172555D01*
X250841Y172664D01*
X250892Y172766D01*
X250900Y172781D01*
X250921Y172810D01*
X250958Y172861D01*
X251009Y172919D01*
X251082Y172985D01*
X251169Y173050D01*
X251271Y173123D01*
X251388Y173182D01*
X251402Y173189D01*
X251439Y173204D01*
X251505Y173225D01*
X251592Y173255D01*
X251694Y173291D01*
X251811Y173320D01*
X251949Y173349D01*
X252095Y173371D01*
X252117D01*
X252139Y173379D01*
X252168D01*
X252204Y173386D01*
X252248D01*
X252358Y173400D01*
X252489Y173415D01*
X252642Y173430D01*
X252802Y173437D01*
X252977Y173451D01*
Y173561D01*
Y173568D01*
Y173597D01*
Y173634D01*
X252970Y173685D01*
X252948Y173794D01*
X252933Y173852D01*
X252911Y173903D01*
Y173911D01*
X252897Y173925D01*
X252882Y173947D01*
X252868Y173976D01*
X252810Y174042D01*
X252729Y174108D01*
X252722D01*
X252707Y174122D01*
X252685Y174129D01*
X252656Y174144D01*
X252613Y174166D01*
X252569Y174180D01*
X252452Y174202D01*
X252445D01*
X252423Y174209D01*
X252387D01*
X252350Y174217D01*
X252292Y174224D01*
X252241D01*
X252110Y174231D01*
X252029D01*
X251971Y174224D01*
X251898Y174217D01*
X251818Y174202D01*
X251723Y174188D01*
X251621Y174166D01*
X251607D01*
X251570Y174151D01*
X251519Y174137D01*
X251446Y174122D01*
X251366Y174093D01*
X251271Y174064D01*
X251060Y173984D01*
X251031D01*
Y174589D01*
X251038D01*
X251060Y174596D01*
X251096Y174610D01*
X251147Y174625D01*
X251213Y174640D01*
X251293Y174654D01*
X251388Y174676D01*
X251497Y174698D01*
X251512D01*
X251548Y174705D01*
X251614Y174720D01*
X251694Y174727D01*
X251789Y174742D01*
X251891Y174749D01*
X252117Y174756D01*
X252248D01*
X252328Y174749D01*
D02*
G37*
G36*
X247094Y171111D02*
X246496D01*
Y174669D01*
X247094D01*
Y171111D01*
D02*
G37*
G36*
X234621D02*
X234023D01*
Y176068D01*
X234621D01*
Y171111D01*
D02*
G37*
G36*
X233367Y175296D02*
X231034D01*
Y173998D01*
X233207D01*
Y173437D01*
X231034D01*
Y171673D01*
X233367D01*
Y171111D01*
X230400D01*
Y175857D01*
X233367D01*
Y175296D01*
D02*
G37*
G36*
X242589Y174669D02*
X243690D01*
Y174166D01*
X242589D01*
Y172475D01*
Y172460D01*
Y172431D01*
Y172380D01*
Y172321D01*
Y172183D01*
X242596Y172117D01*
Y172059D01*
Y172052D01*
Y172037D01*
X242603Y172008D01*
X242611Y171971D01*
X242633Y171884D01*
X242669Y171782D01*
Y171775D01*
X242676Y171767D01*
X242713Y171724D01*
X242764Y171665D01*
X242837Y171614D01*
X242844D01*
X242859Y171607D01*
X242888Y171600D01*
X242924Y171592D01*
X242975Y171578D01*
X243034Y171571D01*
X243099Y171563D01*
X243223D01*
X243260Y171571D01*
X243354Y171585D01*
X243449Y171607D01*
X243456D01*
X243471Y171614D01*
X243500Y171622D01*
X243529Y171636D01*
X243595Y171658D01*
X243653Y171680D01*
X243690D01*
Y171140D01*
X243682D01*
X243660Y171133D01*
X243624Y171126D01*
X243580Y171119D01*
X243529Y171104D01*
X243471Y171089D01*
X243340Y171068D01*
X243333D01*
X243311Y171060D01*
X243281D01*
X243238Y171053D01*
X243136Y171046D01*
X243026Y171038D01*
X242983D01*
X242946Y171046D01*
X242902D01*
X242859Y171053D01*
X242749Y171075D01*
X242625Y171104D01*
X242494Y171155D01*
X242370Y171221D01*
X242261Y171315D01*
X242246Y171330D01*
X242217Y171366D01*
X242173Y171432D01*
X242130Y171527D01*
X242079Y171651D01*
X242035Y171804D01*
X242013Y171891D01*
X242006Y171979D01*
X241991Y172081D01*
Y172190D01*
Y174166D01*
X241590D01*
Y174669D01*
X241991D01*
Y175689D01*
X242589D01*
Y174669D01*
D02*
G37*
G36*
X271443Y174764D02*
X271523Y174756D01*
X271610Y174749D01*
X271712Y174727D01*
X271814Y174705D01*
X271909Y174669D01*
X271924Y174662D01*
X271953Y174654D01*
X271997Y174625D01*
X272062Y174596D01*
X272128Y174552D01*
X272208Y174501D01*
X272281Y174443D01*
X272354Y174370D01*
X272361Y174363D01*
X272383Y174334D01*
X272420Y174290D01*
X272463Y174231D01*
X272514Y174159D01*
X272565Y174078D01*
X272609Y173976D01*
X272653Y173874D01*
X272660Y173860D01*
X272667Y173823D01*
X272682Y173758D01*
X272704Y173677D01*
X272726Y173568D01*
X272740Y173444D01*
X272748Y173306D01*
X272755Y173152D01*
Y172832D01*
X270284D01*
Y172824D01*
Y172803D01*
Y172773D01*
X270291Y172730D01*
Y172679D01*
X270298Y172613D01*
X270320Y172475D01*
X270356Y172321D01*
X270415Y172161D01*
X270488Y172015D01*
X270590Y171877D01*
X270597D01*
X270604Y171862D01*
X270648Y171826D01*
X270721Y171775D01*
X270816Y171716D01*
X270940Y171658D01*
X271086Y171607D01*
X271260Y171571D01*
X271355Y171563D01*
X271457Y171556D01*
X271530D01*
X271581Y171563D01*
X271639D01*
X271705Y171578D01*
X271844Y171600D01*
X271851D01*
X271880Y171607D01*
X271917Y171614D01*
X271960Y171629D01*
X272077Y171665D01*
X272194Y171709D01*
X272201D01*
X272223Y171724D01*
X272252Y171738D01*
X272288Y171753D01*
X272376Y171797D01*
X272463Y171848D01*
X272471D01*
X272485Y171862D01*
X272529Y171891D01*
X272594Y171935D01*
X272653Y171986D01*
X272689D01*
Y171330D01*
X272682D01*
X272667Y171323D01*
X272646Y171315D01*
X272616Y171301D01*
X272573Y171286D01*
X272529Y171264D01*
X272420Y171221D01*
X272412D01*
X272390Y171213D01*
X272361Y171199D01*
X272325Y171184D01*
X272237Y171155D01*
X272143Y171126D01*
X272135D01*
X272113Y171119D01*
X272077Y171111D01*
X272041Y171104D01*
X271931Y171082D01*
X271822Y171060D01*
X271814D01*
X271800Y171053D01*
X271763D01*
X271727Y171046D01*
X271676Y171038D01*
X271610D01*
X271545Y171031D01*
X271384D01*
X271326Y171038D01*
X271253Y171046D01*
X271173Y171053D01*
X271078Y171068D01*
X270983Y171089D01*
X270772Y171148D01*
X270663Y171184D01*
X270553Y171228D01*
X270444Y171286D01*
X270335Y171352D01*
X270240Y171425D01*
X270145Y171505D01*
X270138Y171512D01*
X270123Y171527D01*
X270101Y171556D01*
X270072Y171592D01*
X270036Y171643D01*
X269999Y171702D01*
X269955Y171775D01*
X269912Y171855D01*
X269868Y171950D01*
X269824Y172052D01*
X269788Y172161D01*
X269751Y172285D01*
X269722Y172416D01*
X269700Y172555D01*
X269686Y172708D01*
X269678Y172868D01*
Y172875D01*
Y172905D01*
Y172948D01*
X269686Y173014D01*
X269693Y173087D01*
X269700Y173167D01*
X269715Y173262D01*
X269737Y173364D01*
X269788Y173590D01*
X269824Y173706D01*
X269868Y173816D01*
X269919Y173933D01*
X269985Y174042D01*
X270050Y174151D01*
X270130Y174253D01*
X270138Y174261D01*
X270152Y174275D01*
X270181Y174304D01*
X270211Y174334D01*
X270262Y174370D01*
X270313Y174414D01*
X270378Y174465D01*
X270451Y174516D01*
X270531Y174559D01*
X270626Y174610D01*
X270721Y174654D01*
X270830Y174691D01*
X270940Y174720D01*
X271064Y174749D01*
X271195Y174764D01*
X271326Y174771D01*
X271384D01*
X271443Y174764D01*
D02*
G37*
G36*
X237019Y174764D02*
X237100Y174756D01*
X237187Y174749D01*
X237289Y174727D01*
X237391Y174705D01*
X237486Y174669D01*
X237501Y174662D01*
X237530Y174654D01*
X237573Y174625D01*
X237639Y174596D01*
X237705Y174552D01*
X237785Y174501D01*
X237858Y174443D01*
X237931Y174370D01*
X237938Y174363D01*
X237960Y174333D01*
X237996Y174290D01*
X238040Y174231D01*
X238091Y174159D01*
X238142Y174078D01*
X238186Y173976D01*
X238229Y173874D01*
X238237Y173860D01*
X238244Y173823D01*
X238259Y173758D01*
X238281Y173677D01*
X238302Y173568D01*
X238317Y173444D01*
X238324Y173306D01*
X238332Y173152D01*
Y172832D01*
X235860D01*
Y172824D01*
Y172802D01*
Y172773D01*
X235868Y172730D01*
Y172679D01*
X235875Y172613D01*
X235897Y172475D01*
X235933Y172321D01*
X235991Y172161D01*
X236064Y172015D01*
X236166Y171877D01*
X236174D01*
X236181Y171862D01*
X236225Y171826D01*
X236298Y171775D01*
X236392Y171716D01*
X236516Y171658D01*
X236662Y171607D01*
X236837Y171571D01*
X236932Y171563D01*
X237034Y171556D01*
X237107D01*
X237158Y171563D01*
X237216D01*
X237282Y171578D01*
X237420Y171600D01*
X237428D01*
X237457Y171607D01*
X237493Y171614D01*
X237537Y171629D01*
X237653Y171665D01*
X237770Y171709D01*
X237777D01*
X237799Y171724D01*
X237828Y171738D01*
X237865Y171753D01*
X237952Y171797D01*
X238040Y171848D01*
X238047D01*
X238062Y171862D01*
X238106Y171891D01*
X238171Y171935D01*
X238229Y171986D01*
X238266D01*
Y171330D01*
X238259D01*
X238244Y171323D01*
X238222Y171315D01*
X238193Y171301D01*
X238149Y171286D01*
X238106Y171264D01*
X237996Y171221D01*
X237989D01*
X237967Y171213D01*
X237938Y171199D01*
X237901Y171184D01*
X237814Y171155D01*
X237719Y171126D01*
X237712D01*
X237690Y171119D01*
X237653Y171111D01*
X237617Y171104D01*
X237508Y171082D01*
X237398Y171060D01*
X237391D01*
X237376Y171053D01*
X237340D01*
X237304Y171046D01*
X237253Y171038D01*
X237187D01*
X237121Y171031D01*
X236961D01*
X236903Y171038D01*
X236830Y171046D01*
X236750Y171053D01*
X236655Y171068D01*
X236560Y171089D01*
X236349Y171148D01*
X236239Y171184D01*
X236130Y171228D01*
X236021Y171286D01*
X235911Y171352D01*
X235817Y171425D01*
X235722Y171505D01*
X235714Y171512D01*
X235700Y171527D01*
X235678Y171556D01*
X235649Y171592D01*
X235612Y171643D01*
X235576Y171702D01*
X235532Y171775D01*
X235488Y171855D01*
X235445Y171950D01*
X235401Y172052D01*
X235365Y172161D01*
X235328Y172285D01*
X235299Y172416D01*
X235277Y172555D01*
X235262Y172708D01*
X235255Y172868D01*
Y172875D01*
Y172905D01*
Y172948D01*
X235262Y173014D01*
X235270Y173087D01*
X235277Y173167D01*
X235292Y173262D01*
X235314Y173364D01*
X235365Y173590D01*
X235401Y173706D01*
X235445Y173816D01*
X235496Y173933D01*
X235561Y174042D01*
X235627Y174151D01*
X235707Y174253D01*
X235714Y174260D01*
X235729Y174275D01*
X235758Y174304D01*
X235787Y174333D01*
X235838Y174370D01*
X235889Y174414D01*
X235955Y174465D01*
X236028Y174516D01*
X236108Y174559D01*
X236203Y174610D01*
X236298Y174654D01*
X236407Y174691D01*
X236516Y174720D01*
X236640Y174749D01*
X236771Y174764D01*
X236903Y174771D01*
X236961D01*
X237019Y174764D01*
D02*
G37*
G36*
X263001Y174764D02*
X263067Y174756D01*
X263132Y174742D01*
X263212Y174727D01*
X263300Y174713D01*
X263482Y174647D01*
X263577Y174610D01*
X263672Y174559D01*
X263774Y174508D01*
X263861Y174435D01*
X263956Y174363D01*
X264036Y174275D01*
X264043Y174268D01*
X264058Y174253D01*
X264080Y174224D01*
X264102Y174180D01*
X264138Y174137D01*
X264175Y174071D01*
X264211Y173998D01*
X264255Y173918D01*
X264299Y173823D01*
X264335Y173721D01*
X264371Y173605D01*
X264408Y173480D01*
X264430Y173342D01*
X264452Y173204D01*
X264466Y173043D01*
X264474Y172883D01*
Y172875D01*
Y172846D01*
Y172795D01*
X264466Y172737D01*
X264459Y172657D01*
X264452Y172577D01*
X264437Y172475D01*
X264422Y172372D01*
X264364Y172154D01*
X264335Y172037D01*
X264291Y171921D01*
X264240Y171804D01*
X264182Y171695D01*
X264116Y171592D01*
X264036Y171498D01*
X264029Y171490D01*
X264014Y171476D01*
X263992Y171454D01*
X263956Y171425D01*
X263912Y171381D01*
X263861Y171345D01*
X263803Y171301D01*
X263730Y171257D01*
X263650Y171206D01*
X263569Y171162D01*
X263475Y171126D01*
X263365Y171089D01*
X263256Y171053D01*
X263139Y171031D01*
X263016Y171017D01*
X262884Y171009D01*
X262811D01*
X262760Y171017D01*
X262702Y171024D01*
X262629Y171038D01*
X262549Y171053D01*
X262461Y171075D01*
X262367Y171097D01*
X262272Y171133D01*
X262177Y171170D01*
X262082Y171221D01*
X261980Y171279D01*
X261893Y171345D01*
X261798Y171425D01*
X261718Y171512D01*
X261711Y171519D01*
X261703Y171534D01*
X261681Y171563D01*
X261652Y171607D01*
X261623Y171658D01*
X261587Y171716D01*
X261543Y171789D01*
X261506Y171869D01*
X261470Y171964D01*
X261426Y172066D01*
X261390Y172183D01*
X261361Y172300D01*
X261332Y172431D01*
X261317Y172577D01*
X261302Y172722D01*
X261295Y172883D01*
Y172890D01*
Y172919D01*
Y172970D01*
X261302Y173029D01*
X261310Y173109D01*
X261317Y173196D01*
X261332Y173291D01*
X261353Y173393D01*
X261404Y173619D01*
X261441Y173736D01*
X261477Y173852D01*
X261528Y173962D01*
X261587Y174071D01*
X261652Y174180D01*
X261732Y174275D01*
X261740Y174282D01*
X261754Y174297D01*
X261776Y174319D01*
X261813Y174355D01*
X261856Y174392D01*
X261907Y174435D01*
X261973Y174479D01*
X262039Y174523D01*
X262119Y174567D01*
X262206Y174618D01*
X262301Y174654D01*
X262403Y174691D01*
X262512Y174727D01*
X262629Y174749D01*
X262753Y174764D01*
X262884Y174771D01*
X262957D01*
X263001Y174764D01*
D02*
G37*
G36*
X232179Y170038D02*
X232281D01*
X232398Y170024D01*
X232521Y170009D01*
X232653Y169994D01*
X232791Y169965D01*
X232806D01*
X232849Y169951D01*
X232922Y169929D01*
X233010Y169907D01*
X233112Y169870D01*
X233221Y169834D01*
X233454Y169732D01*
Y168981D01*
X233403D01*
X233396Y168988D01*
X233360Y169018D01*
X233316Y169054D01*
X233243Y169105D01*
X233163Y169156D01*
X233061Y169222D01*
X232951Y169280D01*
X232820Y169338D01*
X232813D01*
X232806Y169346D01*
X232784Y169353D01*
X232762Y169360D01*
X232689Y169389D01*
X232594Y169419D01*
X232485Y169448D01*
X232354Y169477D01*
X232223Y169491D01*
X232077Y169499D01*
X232004D01*
X231924Y169491D01*
X231821Y169470D01*
X231705Y169448D01*
X231588Y169411D01*
X231472Y169360D01*
X231362Y169287D01*
X231348Y169280D01*
X231318Y169251D01*
X231275Y169207D01*
X231231Y169141D01*
X231180Y169069D01*
X231136Y168974D01*
X231107Y168865D01*
X231093Y168748D01*
Y168733D01*
Y168697D01*
X231100Y168646D01*
X231114Y168573D01*
X231129Y168500D01*
X231158Y168420D01*
X231195Y168340D01*
X231246Y168267D01*
X231253Y168259D01*
X231275Y168238D01*
X231311Y168208D01*
X231362Y168172D01*
X231428Y168128D01*
X231508Y168085D01*
X231603Y168041D01*
X231712Y168004D01*
X231719D01*
X231749Y167997D01*
X231792Y167982D01*
X231851Y167968D01*
X231924Y167953D01*
X232011Y167931D01*
X232106Y167910D01*
X232208Y167880D01*
X232223D01*
X232259Y167873D01*
X232310Y167859D01*
X232376Y167844D01*
X232456Y167822D01*
X232536Y167800D01*
X232616Y167778D01*
X232689Y167756D01*
X232696D01*
X232711Y167749D01*
X232733Y167742D01*
X232769Y167727D01*
X232857Y167691D01*
X232959Y167647D01*
X233075Y167581D01*
X233199Y167501D01*
X233309Y167414D01*
X233403Y167304D01*
X233411Y167290D01*
X233440Y167253D01*
X233476Y167188D01*
X233520Y167100D01*
X233564Y166991D01*
X233600Y166867D01*
X233629Y166721D01*
X233637Y166561D01*
Y166546D01*
Y166517D01*
X233629Y166459D01*
X233622Y166386D01*
X233608Y166306D01*
X233586Y166211D01*
X233557Y166109D01*
X233520Y166007D01*
X233513Y165992D01*
X233498Y165963D01*
X233469Y165912D01*
X233440Y165846D01*
X233389Y165781D01*
X233338Y165701D01*
X233272Y165628D01*
X233199Y165555D01*
X233192Y165548D01*
X233163Y165518D01*
X233112Y165482D01*
X233054Y165438D01*
X232973Y165387D01*
X232886Y165329D01*
X232791Y165278D01*
X232682Y165234D01*
X232667Y165227D01*
X232631Y165219D01*
X232565Y165198D01*
X232485Y165183D01*
X232376Y165161D01*
X232252Y165139D01*
X232113Y165132D01*
X231960Y165125D01*
X231829D01*
X231778Y165132D01*
X231654Y165139D01*
X231515Y165147D01*
X231370Y165168D01*
X231224Y165190D01*
X231078Y165227D01*
X231071D01*
X231063Y165234D01*
X231042Y165241D01*
X231020Y165249D01*
X230947Y165270D01*
X230859Y165300D01*
X230750Y165336D01*
X230641Y165387D01*
X230400Y165489D01*
Y166284D01*
X230451D01*
X230458Y166269D01*
X230502Y166233D01*
X230560Y166182D01*
X230648Y166116D01*
X230757Y166043D01*
X230874Y165963D01*
X231005Y165890D01*
X231151Y165825D01*
X231158D01*
X231166Y165817D01*
X231187Y165810D01*
X231217Y165803D01*
X231297Y165773D01*
X231391Y165752D01*
X231508Y165723D01*
X231639Y165693D01*
X231778Y165679D01*
X231916Y165672D01*
X232004D01*
X232048Y165679D01*
X232099Y165686D01*
X232215Y165701D01*
X232339Y165723D01*
X232470Y165759D01*
X232602Y165810D01*
X232711Y165883D01*
X232726Y165890D01*
X232755Y165919D01*
X232798Y165970D01*
X232849Y166036D01*
X232893Y166123D01*
X232937Y166218D01*
X232966Y166335D01*
X232981Y166459D01*
Y166473D01*
Y166510D01*
X232973Y166561D01*
X232966Y166627D01*
X232944Y166699D01*
X232922Y166772D01*
X232886Y166845D01*
X232835Y166918D01*
X232828Y166925D01*
X232806Y166947D01*
X232776Y166984D01*
X232726Y167020D01*
X232667Y167064D01*
X232587Y167108D01*
X232500Y167151D01*
X232390Y167188D01*
X232383D01*
X232354Y167202D01*
X232310Y167210D01*
X232252Y167224D01*
X232193Y167239D01*
X232120Y167261D01*
X231982Y167290D01*
X231975D01*
X231953Y167297D01*
X231909Y167304D01*
X231858Y167319D01*
X231792Y167341D01*
X231712Y167356D01*
X231625Y167377D01*
X231530Y167406D01*
X231523D01*
X231486Y167421D01*
X231442Y167428D01*
X231384Y167450D01*
X231311Y167472D01*
X231238Y167501D01*
X231085Y167567D01*
X231078Y167574D01*
X231056Y167589D01*
X231020Y167611D01*
X230969Y167640D01*
X230859Y167720D01*
X230743Y167822D01*
X230735Y167829D01*
X230721Y167851D01*
X230692Y167888D01*
X230662Y167931D01*
X230626Y167982D01*
X230590Y168048D01*
X230553Y168121D01*
X230517Y168194D01*
Y168201D01*
X230502Y168230D01*
X230495Y168274D01*
X230480Y168332D01*
X230466Y168405D01*
X230451Y168493D01*
X230444Y168580D01*
X230436Y168682D01*
Y168690D01*
Y168711D01*
Y168741D01*
X230444Y168777D01*
X230451Y168828D01*
X230458Y168886D01*
X230495Y169018D01*
X230546Y169171D01*
X230582Y169251D01*
X230626Y169331D01*
X230677Y169419D01*
X230735Y169499D01*
X230801Y169579D01*
X230881Y169652D01*
X230888Y169659D01*
X230903Y169666D01*
X230925Y169688D01*
X230961Y169710D01*
X231005Y169747D01*
X231063Y169776D01*
X231122Y169812D01*
X231195Y169849D01*
X231275Y169885D01*
X231362Y169922D01*
X231457Y169958D01*
X231559Y169987D01*
X231785Y170031D01*
X231902Y170038D01*
X232033Y170045D01*
X232099D01*
X232179Y170038D01*
D02*
G37*
G36*
X249733Y168865D02*
X249799Y168857D01*
X249872Y168843D01*
X250010Y168799D01*
X250017D01*
X250039Y168784D01*
X250076Y168770D01*
X250119Y168741D01*
X250170Y168711D01*
X250229Y168668D01*
X250287Y168624D01*
X250338Y168566D01*
X250345Y168558D01*
X250360Y168536D01*
X250389Y168500D01*
X250418Y168456D01*
X250455Y168398D01*
X250499Y168325D01*
X250535Y168245D01*
X250564Y168157D01*
X250571Y168150D01*
X250579Y168114D01*
X250593Y168063D01*
X250608Y167990D01*
X250623Y167902D01*
X250630Y167800D01*
X250644Y167683D01*
Y167552D01*
Y165212D01*
X250046D01*
Y167268D01*
Y167283D01*
Y167312D01*
Y167356D01*
Y167421D01*
X250039Y167487D01*
Y167567D01*
X250025Y167720D01*
Y167727D01*
X250017Y167756D01*
Y167793D01*
X250010Y167844D01*
X249981Y167946D01*
X249966Y168004D01*
X249944Y168048D01*
Y168055D01*
X249930Y168070D01*
X249915Y168092D01*
X249901Y168121D01*
X249842Y168186D01*
X249762Y168238D01*
X249755D01*
X249740Y168245D01*
X249711Y168259D01*
X249682Y168274D01*
X249631Y168281D01*
X249580Y168296D01*
X249514Y168303D01*
X249412D01*
X249376Y168296D01*
X249325Y168289D01*
X249267Y168274D01*
X249201Y168252D01*
X249128Y168223D01*
X249048Y168186D01*
X249041Y168179D01*
X249011Y168165D01*
X248968Y168135D01*
X248917Y168099D01*
X248851Y168055D01*
X248771Y167997D01*
X248698Y167931D01*
X248610Y167859D01*
Y167851D01*
Y167822D01*
Y167778D01*
X248618Y167727D01*
Y167713D01*
X248625Y167676D01*
Y167625D01*
Y167552D01*
Y165212D01*
X248027D01*
Y167268D01*
Y167283D01*
Y167312D01*
Y167356D01*
Y167421D01*
X248020Y167487D01*
Y167567D01*
X248005Y167720D01*
Y167727D01*
X247998Y167756D01*
Y167793D01*
X247991Y167844D01*
X247962Y167946D01*
X247947Y168004D01*
X247925Y168048D01*
Y168055D01*
X247911Y168070D01*
X247896Y168092D01*
X247881Y168121D01*
X247823Y168186D01*
X247743Y168238D01*
X247736D01*
X247721Y168245D01*
X247692Y168259D01*
X247663Y168274D01*
X247612Y168281D01*
X247561Y168296D01*
X247495Y168303D01*
X247393D01*
X247349Y168296D01*
X247298Y168289D01*
X247240Y168274D01*
X247167Y168252D01*
X247094Y168223D01*
X247014Y168179D01*
X247007Y168172D01*
X246977Y168157D01*
X246934Y168128D01*
X246883Y168092D01*
X246824Y168048D01*
X246751Y167997D01*
X246679Y167931D01*
X246606Y167866D01*
Y165212D01*
X246008D01*
Y168770D01*
X246606D01*
Y168376D01*
X246613Y168383D01*
X246649Y168412D01*
X246693Y168456D01*
X246751Y168507D01*
X246817Y168566D01*
X246897Y168631D01*
X246977Y168690D01*
X247065Y168741D01*
X247072Y168748D01*
X247109Y168762D01*
X247152Y168784D01*
X247218Y168806D01*
X247291Y168828D01*
X247378Y168850D01*
X247473Y168865D01*
X247575Y168872D01*
X247626D01*
X247685Y168865D01*
X247765Y168857D01*
X247845Y168835D01*
X247940Y168814D01*
X248035Y168777D01*
X248129Y168726D01*
X248144Y168719D01*
X248173Y168697D01*
X248217Y168660D01*
X248268Y168609D01*
X248333Y168544D01*
X248392Y168464D01*
X248457Y168369D01*
X248508Y168252D01*
X248523Y168267D01*
X248552Y168303D01*
X248610Y168354D01*
X248676Y168427D01*
X248756Y168500D01*
X248844Y168573D01*
X248938Y168646D01*
X249033Y168711D01*
X249048Y168719D01*
X249077Y168733D01*
X249135Y168762D01*
X249201Y168792D01*
X249288Y168821D01*
X249383Y168850D01*
X249485Y168865D01*
X249595Y168872D01*
X249675D01*
X249733Y168865D01*
D02*
G37*
G36*
X238711Y168850D02*
X238784D01*
X238871Y168835D01*
X238973Y168821D01*
X239082Y168806D01*
X239192Y168777D01*
X239206D01*
X239243Y168762D01*
X239301Y168748D01*
X239374Y168726D01*
X239454Y168704D01*
X239534Y168668D01*
X239622Y168631D01*
X239702Y168595D01*
Y167961D01*
X239666D01*
X239658Y167968D01*
X239629Y167990D01*
X239578Y168026D01*
X239520Y168063D01*
X239440Y168114D01*
X239352Y168157D01*
X239257Y168201D01*
X239155Y168245D01*
X239141Y168252D01*
X239104Y168259D01*
X239053Y168281D01*
X238980Y168303D01*
X238900Y168318D01*
X238805Y168340D01*
X238703Y168347D01*
X238594Y168354D01*
X238543D01*
X238492Y168347D01*
X238419Y168340D01*
X238339Y168325D01*
X238259Y168296D01*
X238171Y168267D01*
X238091Y168223D01*
X238084Y168216D01*
X238062Y168201D01*
X238025Y168172D01*
X237996Y168128D01*
X237960Y168077D01*
X237923Y168012D01*
X237901Y167939D01*
X237894Y167851D01*
Y167844D01*
Y167815D01*
X237901Y167771D01*
X237909Y167727D01*
X237923Y167669D01*
X237945Y167618D01*
X237974Y167560D01*
X238011Y167516D01*
X238018Y167508D01*
X238033Y167501D01*
X238062Y167479D01*
X238106Y167450D01*
X238157Y167421D01*
X238222Y167392D01*
X238295Y167363D01*
X238390Y167334D01*
X238397D01*
X238412Y167326D01*
X238441D01*
X238477Y167312D01*
X238521Y167304D01*
X238572Y167297D01*
X238689Y167268D01*
X238696D01*
X238718Y167261D01*
X238754Y167253D01*
X238798Y167246D01*
X238849Y167232D01*
X238907Y167217D01*
X239039Y167188D01*
X239046D01*
X239053Y167181D01*
X239075D01*
X239104Y167173D01*
X239177Y167144D01*
X239257Y167115D01*
X239359Y167064D01*
X239454Y167013D01*
X239549Y166940D01*
X239629Y166860D01*
X239636Y166852D01*
X239658Y166816D01*
X239695Y166765D01*
X239731Y166699D01*
X239768Y166612D01*
X239804Y166502D01*
X239826Y166379D01*
X239833Y166240D01*
Y166233D01*
Y166204D01*
X239826Y166153D01*
X239819Y166102D01*
X239811Y166029D01*
X239797Y165956D01*
X239768Y165883D01*
X239738Y165803D01*
X239731Y165795D01*
X239724Y165766D01*
X239702Y165730D01*
X239673Y165686D01*
X239636Y165628D01*
X239593Y165569D01*
X239534Y165511D01*
X239476Y165453D01*
X239469Y165445D01*
X239440Y165424D01*
X239403Y165394D01*
X239345Y165365D01*
X239286Y165322D01*
X239206Y165285D01*
X239126Y165249D01*
X239039Y165212D01*
X239031D01*
X238995Y165198D01*
X238944Y165190D01*
X238871Y165176D01*
X238791Y165161D01*
X238689Y165147D01*
X238572Y165139D01*
X238441Y165132D01*
X238383D01*
X238310Y165139D01*
X238222Y165147D01*
X238120Y165154D01*
X238011Y165176D01*
X237887Y165198D01*
X237770Y165227D01*
X237756Y165234D01*
X237719Y165241D01*
X237661Y165263D01*
X237588Y165285D01*
X237508Y165314D01*
X237420Y165351D01*
X237340Y165387D01*
X237260Y165424D01*
Y166102D01*
X237289D01*
X237304Y166087D01*
X237340Y166058D01*
X237391Y166014D01*
X237464Y165963D01*
X237471D01*
X237486Y165948D01*
X237508Y165934D01*
X237537Y165919D01*
X237581Y165898D01*
X237624Y165868D01*
X237741Y165810D01*
X237748D01*
X237770Y165795D01*
X237799Y165781D01*
X237843Y165766D01*
X237887Y165744D01*
X237945Y165730D01*
X238076Y165686D01*
X238084D01*
X238106Y165679D01*
X238142Y165672D01*
X238193Y165664D01*
X238251Y165650D01*
X238317Y165642D01*
X238456Y165635D01*
X238514D01*
X238550Y165642D01*
X238594D01*
X238645Y165650D01*
X238762Y165664D01*
X238769D01*
X238791Y165672D01*
X238820Y165679D01*
X238849Y165686D01*
X238929Y165715D01*
X238966Y165737D01*
X239002Y165752D01*
X239009D01*
X239017Y165766D01*
X239060Y165795D01*
X239119Y165846D01*
X239163Y165905D01*
Y165912D01*
X239170Y165919D01*
X239177Y165941D01*
X239192Y165970D01*
X239199Y166007D01*
X239206Y166043D01*
X239214Y166153D01*
Y166160D01*
Y166189D01*
X239206Y166226D01*
X239199Y166277D01*
X239184Y166328D01*
X239163Y166386D01*
X239133Y166437D01*
X239097Y166481D01*
X239090Y166488D01*
X239075Y166502D01*
X239046Y166517D01*
X239002Y166546D01*
X238944Y166575D01*
X238878Y166605D01*
X238791Y166634D01*
X238689Y166663D01*
X238681D01*
X238667Y166670D01*
X238645Y166677D01*
X238609Y166685D01*
X238565Y166692D01*
X238514Y166707D01*
X238456Y166714D01*
X238390Y166728D01*
X238383D01*
X238361Y166736D01*
X238324Y166743D01*
X238281Y166750D01*
X238229Y166765D01*
X238171Y166779D01*
X238047Y166809D01*
X238040D01*
X238033Y166816D01*
X238011Y166823D01*
X237982Y166831D01*
X237909Y166860D01*
X237821Y166896D01*
X237726Y166947D01*
X237624Y167013D01*
X237537Y167086D01*
X237457Y167173D01*
X237449Y167188D01*
X237428Y167217D01*
X237398Y167268D01*
X237369Y167341D01*
X237333Y167428D01*
X237304Y167530D01*
X237282Y167647D01*
X237275Y167771D01*
Y167778D01*
Y167793D01*
Y167815D01*
X237282Y167851D01*
X237289Y167895D01*
X237296Y167939D01*
X237318Y168048D01*
X237362Y168172D01*
X237428Y168303D01*
X237464Y168369D01*
X237515Y168434D01*
X237566Y168493D01*
X237632Y168551D01*
X237639Y168558D01*
X237646Y168566D01*
X237668Y168580D01*
X237697Y168602D01*
X237734Y168624D01*
X237777Y168646D01*
X237828Y168675D01*
X237887Y168704D01*
X238025Y168762D01*
X238193Y168806D01*
X238383Y168843D01*
X238601Y168857D01*
X238652D01*
X238711Y168850D01*
D02*
G37*
G36*
X235109Y163900D02*
X234468D01*
X235109Y165387D01*
X233819Y168770D01*
X234453D01*
X235430Y166123D01*
X236400Y168770D01*
X237027D01*
X235109Y163900D01*
D02*
G37*
G36*
X255376Y165212D02*
X254698D01*
X253065Y169958D01*
X253735D01*
X255055Y165999D01*
X256374Y169958D01*
X257016D01*
X255376Y165212D01*
D02*
G37*
G36*
X261915Y165212D02*
X261157D01*
Y166123D01*
X261915D01*
Y165212D01*
D02*
G37*
G36*
X259181Y165693D02*
X260019D01*
Y165212D01*
X257708Y165212D01*
Y165693D01*
X258569D01*
Y168879D01*
X257708D01*
Y169309D01*
X257788D01*
X257876Y169316D01*
X257978Y169324D01*
X258095Y169346D01*
X258211Y169368D01*
X258328Y169404D01*
X258423Y169448D01*
X258430Y169455D01*
X258459Y169477D01*
X258496Y169513D01*
X258547Y169564D01*
X258590Y169637D01*
X258634Y169725D01*
X258663Y169841D01*
X258685Y169973D01*
X259181Y169973D01*
Y165693D01*
D02*
G37*
G36*
X241029Y168770D02*
X242130D01*
Y168267D01*
X241029D01*
Y166575D01*
Y166561D01*
Y166532D01*
Y166481D01*
Y166422D01*
Y166284D01*
X241036Y166218D01*
Y166160D01*
Y166153D01*
Y166138D01*
X241043Y166109D01*
X241051Y166072D01*
X241073Y165985D01*
X241109Y165883D01*
Y165876D01*
X241116Y165868D01*
X241153Y165825D01*
X241204Y165766D01*
X241277Y165715D01*
X241284D01*
X241299Y165708D01*
X241328Y165701D01*
X241364Y165693D01*
X241415Y165679D01*
X241474Y165672D01*
X241539Y165664D01*
X241663D01*
X241700Y165672D01*
X241794Y165686D01*
X241889Y165708D01*
X241896D01*
X241911Y165715D01*
X241940Y165723D01*
X241969Y165737D01*
X242035Y165759D01*
X242093Y165781D01*
X242130D01*
Y165241D01*
X242122D01*
X242101Y165234D01*
X242064Y165227D01*
X242020Y165219D01*
X241969Y165205D01*
X241911Y165190D01*
X241780Y165168D01*
X241772D01*
X241751Y165161D01*
X241721D01*
X241678Y165154D01*
X241576Y165147D01*
X241466Y165139D01*
X241423D01*
X241386Y165147D01*
X241342D01*
X241299Y165154D01*
X241189Y165176D01*
X241065Y165205D01*
X240934Y165256D01*
X240810Y165322D01*
X240701Y165416D01*
X240686Y165431D01*
X240657Y165467D01*
X240613Y165533D01*
X240569Y165628D01*
X240518Y165752D01*
X240475Y165905D01*
X240453Y165992D01*
X240446Y166080D01*
X240431Y166182D01*
Y166291D01*
Y168267D01*
X240030D01*
Y168770D01*
X240431D01*
Y169790D01*
X241029D01*
Y168770D01*
D02*
G37*
G36*
X244083Y168865D02*
X244163Y168857D01*
X244251Y168850D01*
X244353Y168828D01*
X244455Y168806D01*
X244550Y168770D01*
X244565Y168762D01*
X244594Y168755D01*
X244637Y168726D01*
X244703Y168697D01*
X244769Y168653D01*
X244849Y168602D01*
X244922Y168544D01*
X244995Y168471D01*
X245002Y168464D01*
X245024Y168434D01*
X245060Y168391D01*
X245104Y168332D01*
X245155Y168259D01*
X245206Y168179D01*
X245250Y168077D01*
X245293Y167975D01*
X245301Y167961D01*
X245308Y167924D01*
X245323Y167859D01*
X245344Y167778D01*
X245366Y167669D01*
X245381Y167545D01*
X245388Y167406D01*
X245395Y167253D01*
Y166933D01*
X242924D01*
Y166925D01*
Y166903D01*
Y166874D01*
X242932Y166831D01*
Y166779D01*
X242939Y166714D01*
X242961Y166575D01*
X242997Y166422D01*
X243055Y166262D01*
X243128Y166116D01*
X243230Y165978D01*
X243238D01*
X243245Y165963D01*
X243289Y165927D01*
X243362Y165876D01*
X243456Y165817D01*
X243580Y165759D01*
X243726Y165708D01*
X243901Y165672D01*
X243996Y165664D01*
X244098Y165657D01*
X244171D01*
X244222Y165664D01*
X244280D01*
X244346Y165679D01*
X244484Y165701D01*
X244492D01*
X244521Y165708D01*
X244557Y165715D01*
X244601Y165730D01*
X244718Y165766D01*
X244834Y165810D01*
X244842D01*
X244863Y165825D01*
X244893Y165839D01*
X244929Y165854D01*
X245016Y165898D01*
X245104Y165948D01*
X245111D01*
X245126Y165963D01*
X245169Y165992D01*
X245235Y166036D01*
X245293Y166087D01*
X245330D01*
Y165431D01*
X245323D01*
X245308Y165424D01*
X245286Y165416D01*
X245257Y165402D01*
X245213Y165387D01*
X245169Y165365D01*
X245060Y165322D01*
X245053D01*
X245031Y165314D01*
X245002Y165300D01*
X244965Y165285D01*
X244878Y165256D01*
X244783Y165227D01*
X244776D01*
X244754Y165219D01*
X244718Y165212D01*
X244681Y165205D01*
X244572Y165183D01*
X244462Y165161D01*
X244455D01*
X244441Y165154D01*
X244404D01*
X244368Y165147D01*
X244317Y165139D01*
X244251D01*
X244185Y165132D01*
X244025D01*
X243967Y165139D01*
X243894Y165147D01*
X243814Y165154D01*
X243719Y165168D01*
X243624Y165190D01*
X243413Y165249D01*
X243303Y165285D01*
X243194Y165329D01*
X243085Y165387D01*
X242975Y165453D01*
X242881Y165526D01*
X242786Y165606D01*
X242778Y165613D01*
X242764Y165628D01*
X242742Y165657D01*
X242713Y165693D01*
X242676Y165744D01*
X242640Y165803D01*
X242596Y165876D01*
X242552Y165956D01*
X242509Y166051D01*
X242465Y166153D01*
X242428Y166262D01*
X242392Y166386D01*
X242363Y166517D01*
X242341Y166656D01*
X242326Y166809D01*
X242319Y166969D01*
Y166976D01*
Y167006D01*
Y167049D01*
X242326Y167115D01*
X242334Y167188D01*
X242341Y167268D01*
X242356Y167363D01*
X242377Y167465D01*
X242428Y167691D01*
X242465Y167807D01*
X242509Y167917D01*
X242560Y168033D01*
X242625Y168143D01*
X242691Y168252D01*
X242771Y168354D01*
X242778Y168361D01*
X242793Y168376D01*
X242822Y168405D01*
X242851Y168434D01*
X242902Y168471D01*
X242953Y168515D01*
X243019Y168566D01*
X243092Y168617D01*
X243172Y168660D01*
X243267Y168711D01*
X243362Y168755D01*
X243471Y168792D01*
X243580Y168821D01*
X243704Y168850D01*
X243835Y168865D01*
X243967Y168872D01*
X244025D01*
X244083Y168865D01*
D02*
G37*
G36*
X264379Y170053D02*
X264437D01*
X264495Y170038D01*
X264576Y170031D01*
X264656Y170009D01*
X264743Y169980D01*
X264831Y169951D01*
X264925Y169907D01*
X265020Y169856D01*
X265115Y169798D01*
X265210Y169725D01*
X265297Y169644D01*
X265377Y169550D01*
X265450Y169440D01*
X265458Y169433D01*
X265465Y169411D01*
X265487Y169375D01*
X265509Y169324D01*
X265538Y169258D01*
X265567Y169178D01*
X265603Y169083D01*
X265640Y168974D01*
X265669Y168850D01*
X265705Y168711D01*
X265735Y168566D01*
X265764Y168398D01*
X265786Y168216D01*
X265808Y168019D01*
X265815Y167807D01*
X265822Y167581D01*
Y167567D01*
Y167523D01*
Y167457D01*
X265815Y167370D01*
X265808Y167268D01*
X265800Y167144D01*
X265793Y167013D01*
X265778Y166867D01*
X265735Y166561D01*
X265669Y166255D01*
X265625Y166102D01*
X265574Y165963D01*
X265516Y165825D01*
X265450Y165708D01*
X265443Y165701D01*
X265436Y165686D01*
X265414Y165650D01*
X265377Y165613D01*
X265341Y165569D01*
X265290Y165518D01*
X265232Y165467D01*
X265166Y165409D01*
X265093Y165351D01*
X265006Y165300D01*
X264911Y165249D01*
X264809Y165205D01*
X264699Y165168D01*
X264576Y165139D01*
X264444Y165117D01*
X264306Y165110D01*
X264269D01*
X264233Y165117D01*
X264175D01*
X264109Y165132D01*
X264036Y165139D01*
X263956Y165161D01*
X263868Y165183D01*
X263774Y165219D01*
X263679Y165256D01*
X263584Y165307D01*
X263489Y165365D01*
X263394Y165438D01*
X263307Y165518D01*
X263227Y165606D01*
X263154Y165715D01*
X263147Y165723D01*
X263139Y165744D01*
X263118Y165781D01*
X263096Y165832D01*
X263067Y165898D01*
X263037Y165978D01*
X263008Y166072D01*
X262972Y166182D01*
X262935Y166298D01*
X262906Y166437D01*
X262877Y166590D01*
X262848Y166758D01*
X262826Y166947D01*
X262804Y167144D01*
X262797Y167356D01*
X262790Y167581D01*
Y167589D01*
Y167596D01*
Y167640D01*
Y167705D01*
X262797Y167793D01*
X262804Y167895D01*
X262811Y168019D01*
X262819Y168150D01*
X262833Y168296D01*
X262877Y168602D01*
X262943Y168915D01*
X262986Y169069D01*
X263037Y169207D01*
X263088Y169346D01*
X263154Y169462D01*
X263161Y169470D01*
X263169Y169491D01*
X263190Y169521D01*
X263227Y169557D01*
X263263Y169601D01*
X263314Y169652D01*
X263373Y169703D01*
X263438Y169761D01*
X263511Y169819D01*
X263599Y169870D01*
X263693Y169922D01*
X263795Y169965D01*
X263912Y170002D01*
X264036Y170038D01*
X264167Y170053D01*
X264306Y170060D01*
X264342D01*
X264379Y170053D01*
D02*
G37*
G36*
X26151Y340149D02*
X26132Y339912D01*
X26114Y339639D01*
X26096Y339366D01*
X26059Y339074D01*
X26023Y338801D01*
Y338764D01*
X26005Y338673D01*
X25968Y338546D01*
X25914Y338382D01*
X25859Y338181D01*
X25768Y337963D01*
X25659Y337726D01*
X25513Y337489D01*
X25495Y337452D01*
X25440Y337380D01*
X25349Y337270D01*
X25240Y337124D01*
X25076Y336979D01*
X24912Y336815D01*
X24711Y336651D01*
X24474Y336505D01*
X24438Y336487D01*
X24365Y336450D01*
X24237Y336396D01*
X24055Y336323D01*
X23818Y336250D01*
X23563Y336195D01*
X23254Y336159D01*
X22926Y336141D01*
X22907D01*
X22871D01*
X22798D01*
X22707Y336159D01*
X22598D01*
X22470Y336177D01*
X22160Y336232D01*
X21814Y336305D01*
X21450Y336432D01*
X21085Y336596D01*
X20739Y336815D01*
X20721D01*
X20703Y336851D01*
X20593Y336942D01*
X20448Y337088D01*
X20247Y337288D01*
X20047Y337544D01*
X19828Y337853D01*
X19628Y338218D01*
X19445Y338618D01*
X14289Y334391D01*
Y336450D01*
X19008Y340185D01*
Y341971D01*
X14289D01*
Y343556D01*
X26151D01*
Y340149D01*
D02*
G37*
G36*
Y329873D02*
X26132Y329600D01*
Y329290D01*
X26114Y328980D01*
X26096Y328689D01*
X26059Y328433D01*
Y328397D01*
X26041Y328324D01*
X26023Y328197D01*
X25968Y328033D01*
X25914Y327851D01*
X25859Y327650D01*
X25768Y327431D01*
X25659Y327213D01*
X25640Y327176D01*
X25604Y327103D01*
X25513Y326994D01*
X25422Y326848D01*
X25294Y326703D01*
X25130Y326557D01*
X24966Y326411D01*
X24766Y326284D01*
X24747Y326265D01*
X24675Y326229D01*
X24547Y326192D01*
X24401Y326120D01*
X24201Y326065D01*
X23982Y326028D01*
X23727Y325992D01*
X23454Y325974D01*
X23417D01*
X23308D01*
X23162Y325992D01*
X22962Y326028D01*
X22725Y326083D01*
X22470Y326174D01*
X22215Y326284D01*
X21960Y326429D01*
X21923Y326448D01*
X21850Y326502D01*
X21741Y326611D01*
X21577Y326739D01*
X21413Y326921D01*
X21249Y327122D01*
X21085Y327359D01*
X20921Y327632D01*
X20867D01*
Y327614D01*
X20848Y327577D01*
X20830Y327522D01*
X20812Y327450D01*
X20739Y327267D01*
X20630Y327031D01*
X20484Y326776D01*
X20302Y326502D01*
X20083Y326229D01*
X19810Y325992D01*
X19773Y325974D01*
X19682Y325901D01*
X19518Y325810D01*
X19300Y325700D01*
X19026Y325591D01*
X18699Y325500D01*
X18334Y325427D01*
X17915Y325409D01*
X17897D01*
X17879D01*
X17769D01*
X17605Y325427D01*
X17387Y325445D01*
X17150Y325500D01*
X16895Y325555D01*
X16621Y325646D01*
X16348Y325755D01*
X16312Y325773D01*
X16239Y325810D01*
X16111Y325883D01*
X15966Y325992D01*
X15783Y326120D01*
X15601Y326265D01*
X15419Y326448D01*
X15237Y326648D01*
X15218Y326684D01*
X15146Y326757D01*
X15073Y326903D01*
X14963Y327085D01*
X14836Y327304D01*
X14708Y327541D01*
X14599Y327814D01*
X14508Y328087D01*
Y328124D01*
X14471Y328233D01*
X14435Y328397D01*
X14399Y328616D01*
X14362Y328907D01*
X14326Y329235D01*
X14308Y329618D01*
X14289Y330055D01*
Y333444D01*
X26151D01*
Y329873D01*
D02*
G37*
G36*
Y316736D02*
X24747D01*
Y322257D01*
X21395D01*
Y316973D01*
X19992D01*
Y322257D01*
X14289D01*
Y323842D01*
X26151D01*
Y316736D01*
D02*
G37*
%LPC*%
G36*
X259254Y175310D02*
X258634Y175310D01*
Y173430D01*
X259188Y173430D01*
X259276Y173437D01*
X259370Y173444D01*
X259472Y173451D01*
X259575Y173466D01*
X259669Y173488D01*
X259677D01*
X259713Y173502D01*
X259757Y173517D01*
X259808Y173539D01*
X259874Y173568D01*
X259939Y173605D01*
X260005Y173648D01*
X260063Y173706D01*
X260070Y173714D01*
X260085Y173736D01*
X260114Y173765D01*
X260143Y173801D01*
X260172Y173845D01*
X260209Y173903D01*
X260267Y174020D01*
Y174027D01*
X260274Y174049D01*
X260289Y174086D01*
X260304Y174129D01*
X260311Y174188D01*
X260326Y174253D01*
X260333Y174326D01*
Y174406D01*
Y174421D01*
Y174450D01*
X260326Y174494D01*
Y174552D01*
X260311Y174618D01*
X260296Y174691D01*
X260274Y174764D01*
X260245Y174829D01*
X260238Y174837D01*
X260231Y174858D01*
X260209Y174895D01*
X260180Y174938D01*
X260143Y174982D01*
X260100Y175033D01*
X260048Y175084D01*
X259990Y175128D01*
X259983Y175135D01*
X259961Y175143D01*
X259932Y175157D01*
X259895Y175179D01*
X259844Y175201D01*
X259779Y175230D01*
X259713Y175245D01*
X259640Y175267D01*
X259633D01*
X259604Y175274D01*
X259560Y175281D01*
X259509Y175288D01*
X259436Y175296D01*
X259349Y175303D01*
X259254Y175310D01*
D02*
G37*
G36*
X252977Y172970D02*
X252970D01*
X252941Y172963D01*
X252890D01*
X252824Y172956D01*
X252751Y172948D01*
X252656Y172934D01*
X252547Y172926D01*
X252430Y172912D01*
X252416D01*
X252379Y172905D01*
X252321Y172897D01*
X252248Y172890D01*
X252161Y172875D01*
X252073Y172861D01*
X251986Y172839D01*
X251905Y172817D01*
X251898D01*
X251869Y172802D01*
X251818Y172788D01*
X251767Y172759D01*
X251701Y172730D01*
X251636Y172693D01*
X251570Y172642D01*
X251512Y172591D01*
X251505Y172584D01*
X251490Y172562D01*
X251461Y172533D01*
X251439Y172482D01*
X251410Y172424D01*
X251381Y172358D01*
X251366Y172270D01*
X251359Y172176D01*
Y172161D01*
Y172125D01*
X251366Y172074D01*
X251381Y172001D01*
X251402Y171928D01*
X251432Y171855D01*
X251468Y171782D01*
X251526Y171716D01*
X251534Y171709D01*
X251556Y171695D01*
X251599Y171665D01*
X251658Y171643D01*
X251723Y171614D01*
X251811Y171585D01*
X251913Y171571D01*
X252029Y171563D01*
X252080D01*
X252132Y171571D01*
X252197Y171578D01*
X252277Y171592D01*
X252365Y171614D01*
X252452Y171643D01*
X252540Y171680D01*
X252547Y171687D01*
X252576Y171702D01*
X252627Y171731D01*
X252685Y171767D01*
X252751Y171811D01*
X252824Y171862D01*
X252977Y171979D01*
Y172970D01*
D02*
G37*
G36*
X271377Y174275D02*
X271202D01*
X271151Y174268D01*
X271086Y174261D01*
X271013Y174246D01*
X270881Y174202D01*
X270874D01*
X270852Y174188D01*
X270823Y174173D01*
X270779Y174151D01*
X270685Y174086D01*
X270575Y173991D01*
X270568Y173984D01*
X270553Y173969D01*
X270524Y173940D01*
X270495Y173903D01*
X270466Y173852D01*
X270429Y173801D01*
X270364Y173677D01*
Y173670D01*
X270356Y173648D01*
X270342Y173612D01*
X270327Y173568D01*
X270313Y173510D01*
X270305Y173444D01*
X270291Y173371D01*
X270284Y173291D01*
X272172D01*
Y173298D01*
Y173335D01*
X272164Y173379D01*
Y173437D01*
X272157Y173495D01*
X272143Y173568D01*
X272113Y173706D01*
Y173714D01*
X272106Y173736D01*
X272092Y173765D01*
X272077Y173809D01*
X272026Y173903D01*
X271960Y173998D01*
X271953Y174005D01*
X271938Y174020D01*
X271917Y174042D01*
X271887Y174071D01*
X271851Y174108D01*
X271807Y174137D01*
X271691Y174202D01*
X271683D01*
X271661Y174217D01*
X271625Y174224D01*
X271581Y174239D01*
X271523Y174253D01*
X271457Y174261D01*
X271377Y174275D01*
D02*
G37*
G36*
X236954Y174275D02*
X236779D01*
X236728Y174268D01*
X236662Y174260D01*
X236589Y174246D01*
X236458Y174202D01*
X236451D01*
X236429Y174188D01*
X236400Y174173D01*
X236356Y174151D01*
X236261Y174086D01*
X236152Y173991D01*
X236144Y173984D01*
X236130Y173969D01*
X236101Y173940D01*
X236072Y173903D01*
X236042Y173852D01*
X236006Y173801D01*
X235940Y173677D01*
Y173670D01*
X235933Y173648D01*
X235918Y173612D01*
X235904Y173568D01*
X235889Y173510D01*
X235882Y173444D01*
X235868Y173371D01*
X235860Y173291D01*
X237748D01*
Y173298D01*
Y173335D01*
X237741Y173379D01*
Y173437D01*
X237734Y173495D01*
X237719Y173568D01*
X237690Y173706D01*
Y173714D01*
X237683Y173736D01*
X237668Y173765D01*
X237653Y173809D01*
X237602Y173903D01*
X237537Y173998D01*
X237530Y174005D01*
X237515Y174020D01*
X237493Y174042D01*
X237464Y174071D01*
X237428Y174108D01*
X237384Y174137D01*
X237267Y174202D01*
X237260D01*
X237238Y174217D01*
X237202Y174224D01*
X237158Y174239D01*
X237100Y174253D01*
X237034Y174260D01*
X236954Y174275D01*
D02*
G37*
G36*
X262972Y174246D02*
X262841D01*
X262804Y174239D01*
X262724Y174231D01*
X262622Y174202D01*
X262505Y174166D01*
X262381Y174108D01*
X262265Y174020D01*
X262214Y173969D01*
X262162Y173911D01*
Y173903D01*
X262155Y173896D01*
X262141Y173874D01*
X262126Y173845D01*
X262104Y173809D01*
X262082Y173765D01*
X262060Y173714D01*
X262039Y173655D01*
X262017Y173590D01*
X261995Y173510D01*
X261973Y173430D01*
X261951Y173335D01*
X261936Y173233D01*
X261922Y173123D01*
X261915Y173007D01*
Y172883D01*
Y172875D01*
Y172854D01*
Y172817D01*
X261922Y172773D01*
Y172715D01*
X261929Y172657D01*
X261944Y172511D01*
X261973Y172343D01*
X262017Y172176D01*
X262082Y172015D01*
X262119Y171942D01*
X262162Y171877D01*
X262177Y171862D01*
X262214Y171826D01*
X262265Y171767D01*
X262352Y171709D01*
X262454Y171643D01*
X262578Y171585D01*
X262717Y171549D01*
X262797Y171541D01*
X262884Y171534D01*
X262928D01*
X262957Y171541D01*
X263045Y171549D01*
X263147Y171578D01*
X263263Y171614D01*
X263380Y171673D01*
X263497Y171760D01*
X263548Y171811D01*
X263599Y171869D01*
Y171877D01*
X263613Y171884D01*
X263620Y171906D01*
X263642Y171935D01*
X263657Y171971D01*
X263679Y172008D01*
X263701Y172066D01*
X263730Y172125D01*
X263752Y172190D01*
X263774Y172263D01*
X263795Y172351D01*
X263817Y172438D01*
X263832Y172540D01*
X263846Y172642D01*
X263854Y172759D01*
Y172883D01*
Y172890D01*
Y172912D01*
Y172948D01*
X263846Y172999D01*
Y173050D01*
X263839Y173123D01*
X263825Y173269D01*
X263788Y173437D01*
X263744Y173612D01*
X263686Y173772D01*
X263642Y173845D01*
X263599Y173911D01*
Y173918D01*
X263584Y173925D01*
X263555Y173962D01*
X263497Y174020D01*
X263416Y174078D01*
X263314Y174137D01*
X263190Y174195D01*
X263052Y174231D01*
X262972Y174246D01*
D02*
G37*
G36*
X244018Y168376D02*
X243843D01*
X243792Y168369D01*
X243726Y168361D01*
X243653Y168347D01*
X243522Y168303D01*
X243515D01*
X243493Y168289D01*
X243464Y168274D01*
X243420Y168252D01*
X243325Y168186D01*
X243216Y168092D01*
X243209Y168085D01*
X243194Y168070D01*
X243165Y168041D01*
X243136Y168004D01*
X243107Y167953D01*
X243070Y167902D01*
X243004Y167778D01*
Y167771D01*
X242997Y167749D01*
X242983Y167713D01*
X242968Y167669D01*
X242953Y167611D01*
X242946Y167545D01*
X242932Y167472D01*
X242924Y167392D01*
X244812D01*
Y167399D01*
Y167436D01*
X244805Y167479D01*
Y167538D01*
X244798Y167596D01*
X244783Y167669D01*
X244754Y167807D01*
Y167815D01*
X244747Y167837D01*
X244732Y167866D01*
X244718Y167910D01*
X244667Y168004D01*
X244601Y168099D01*
X244594Y168106D01*
X244579Y168121D01*
X244557Y168143D01*
X244528Y168172D01*
X244492Y168208D01*
X244448Y168238D01*
X244331Y168303D01*
X244324D01*
X244302Y168318D01*
X244266Y168325D01*
X244222Y168340D01*
X244163Y168354D01*
X244098Y168361D01*
X244018Y168376D01*
D02*
G37*
G36*
X264306Y169535D02*
X264262D01*
X264211Y169528D01*
X264153Y169521D01*
X264080Y169506D01*
X264007Y169477D01*
X263934Y169448D01*
X263868Y169404D01*
X263861Y169397D01*
X263839Y169382D01*
X263810Y169353D01*
X263774Y169309D01*
X263730Y169258D01*
X263686Y169193D01*
X263642Y169120D01*
X263599Y169032D01*
X263591Y169018D01*
X263584Y168988D01*
X263569Y168937D01*
X263548Y168865D01*
X263526Y168770D01*
X263504Y168668D01*
X263482Y168544D01*
X263467Y168412D01*
Y168405D01*
Y168398D01*
Y168376D01*
X263460Y168347D01*
Y168274D01*
X263453Y168172D01*
X263446Y168048D01*
Y167910D01*
X263438Y167749D01*
Y167581D01*
Y167574D01*
Y167560D01*
Y167530D01*
Y167501D01*
Y167457D01*
Y167406D01*
X263446Y167290D01*
Y167159D01*
X263453Y167013D01*
X263460Y166874D01*
X263467Y166743D01*
Y166728D01*
X263475Y166685D01*
X263482Y166627D01*
X263497Y166546D01*
X263511Y166452D01*
X263533Y166349D01*
X263599Y166145D01*
X263606Y166138D01*
X263613Y166102D01*
X263635Y166058D01*
X263664Y166007D01*
X263701Y165941D01*
X263744Y165883D01*
X263795Y165817D01*
X263854Y165766D01*
X263861Y165759D01*
X263883Y165744D01*
X263927Y165723D01*
X263978Y165701D01*
X264043Y165679D01*
X264116Y165657D01*
X264204Y165642D01*
X264306Y165635D01*
X264350D01*
X264401Y165642D01*
X264459Y165650D01*
X264525Y165664D01*
X264597Y165686D01*
X264670Y165715D01*
X264736Y165759D01*
X264743Y165766D01*
X264765Y165781D01*
X264794Y165810D01*
X264831Y165854D01*
X264874Y165905D01*
X264918Y165970D01*
X264962Y166043D01*
X264998Y166131D01*
X265006Y166145D01*
X265013Y166174D01*
X265027Y166226D01*
X265049Y166298D01*
X265071Y166386D01*
X265093Y166488D01*
X265115Y166597D01*
X265130Y166728D01*
Y166736D01*
Y166743D01*
X265137Y166765D01*
Y166794D01*
X265144Y166867D01*
X265151Y166969D01*
X265159Y167100D01*
X265166Y167239D01*
X265173Y167406D01*
Y167581D01*
Y167589D01*
Y167603D01*
Y167632D01*
Y167662D01*
Y167705D01*
Y167756D01*
X265166Y167873D01*
Y168004D01*
X265159Y168150D01*
X265144Y168296D01*
X265130Y168434D01*
Y168442D01*
Y168449D01*
X265122Y168493D01*
X265115Y168566D01*
X265100Y168646D01*
X265078Y168741D01*
X265057Y168843D01*
X265035Y168945D01*
X264998Y169039D01*
X264991Y169047D01*
X264984Y169076D01*
X264962Y169120D01*
X264933Y169178D01*
X264896Y169236D01*
X264845Y169295D01*
X264794Y169353D01*
X264736Y169404D01*
X264729Y169411D01*
X264707Y169426D01*
X264670Y169448D01*
X264619Y169470D01*
X264561Y169491D01*
X264481Y169513D01*
X264401Y169528D01*
X264306Y169535D01*
D02*
G37*
G36*
X24784Y341971D02*
X20320D01*
Y340349D01*
X20338Y340185D01*
Y340003D01*
X20375Y339803D01*
X20429Y339384D01*
Y339366D01*
X20448Y339293D01*
X20484Y339183D01*
X20539Y339056D01*
X20612Y338910D01*
X20685Y338764D01*
X20794Y338600D01*
X20921Y338455D01*
X20940Y338436D01*
X20976Y338400D01*
X21049Y338327D01*
X21140Y338254D01*
X21249Y338181D01*
X21395Y338090D01*
X21705Y337944D01*
X21723D01*
X21796Y337926D01*
X21887Y337890D01*
X22015Y337853D01*
X22178Y337835D01*
X22361Y337799D01*
X22579Y337780D01*
X22798D01*
X22816D01*
X22889D01*
X22980Y337799D01*
X23108D01*
X23254Y337835D01*
X23399Y337872D01*
X23563Y337908D01*
X23709Y337981D01*
X23727D01*
X23782Y338017D01*
X23855Y338054D01*
X23946Y338127D01*
X24037Y338199D01*
X24164Y338291D01*
X24256Y338418D01*
X24365Y338546D01*
X24383Y338564D01*
X24401Y338600D01*
X24438Y338673D01*
X24492Y338764D01*
X24529Y338874D01*
X24584Y339019D01*
X24675Y339329D01*
Y339347D01*
X24693Y339402D01*
X24711Y339493D01*
X24729Y339621D01*
X24747Y339785D01*
X24766Y339967D01*
X24784Y340185D01*
Y341971D01*
D02*
G37*
G36*
Y331859D02*
X21322D01*
Y329837D01*
X21340Y329673D01*
X21359Y329308D01*
X21377Y329144D01*
X21395Y328998D01*
Y328980D01*
X21413Y328944D01*
X21431Y328871D01*
X21468Y328780D01*
X21559Y328543D01*
X21705Y328288D01*
X21723Y328270D01*
X21741Y328233D01*
X21796Y328160D01*
X21869Y328087D01*
X22051Y327923D01*
X22160Y327832D01*
X22288Y327778D01*
X22306D01*
X22361Y327759D01*
X22434Y327723D01*
X22543Y327687D01*
X22689Y327668D01*
X22853Y327632D01*
X23035Y327614D01*
X23235D01*
X23254D01*
X23308D01*
X23381D01*
X23490Y327632D01*
X23727Y327668D01*
X23964Y327759D01*
X23982D01*
X24019Y327778D01*
X24073Y327814D01*
X24146Y327869D01*
X24310Y328014D01*
X24474Y328233D01*
X24492Y328251D01*
X24511Y328288D01*
X24547Y328379D01*
X24584Y328470D01*
X24620Y328597D01*
X24675Y328743D01*
X24729Y329071D01*
Y329089D01*
X24747Y329162D01*
Y329272D01*
X24766Y329417D01*
Y329600D01*
X24784Y329818D01*
Y331859D01*
D02*
G37*
G36*
X20010D02*
X15656D01*
Y330237D01*
X15674Y330000D01*
Y329745D01*
X15692Y329472D01*
X15710Y329199D01*
X15747Y328962D01*
Y328944D01*
X15765Y328853D01*
X15801Y328743D01*
X15838Y328597D01*
X15893Y328452D01*
X15947Y328270D01*
X16038Y328087D01*
X16148Y327923D01*
X16166Y327905D01*
X16202Y327851D01*
X16275Y327759D01*
X16348Y327668D01*
X16567Y327450D01*
X16694Y327359D01*
X16840Y327267D01*
X16858Y327249D01*
X16913Y327231D01*
X17004Y327195D01*
X17113Y327158D01*
X17259Y327122D01*
X17441Y327085D01*
X17642Y327049D01*
X17860D01*
X17897D01*
X17970D01*
X18097Y327067D01*
X18243D01*
X18425Y327103D01*
X18607Y327140D01*
X18790Y327176D01*
X18954Y327249D01*
X18972D01*
X19026Y327286D01*
X19117Y327340D01*
X19209Y327413D01*
X19336Y327522D01*
X19445Y327650D01*
X19573Y327814D01*
X19701Y328014D01*
Y328033D01*
X19737Y328087D01*
X19755Y328160D01*
X19792Y328251D01*
X19846Y328379D01*
X19883Y328525D01*
X19937Y328834D01*
Y328853D01*
X19956Y328907D01*
Y329017D01*
X19974Y329144D01*
X19992Y329326D01*
Y329545D01*
X20010Y329782D01*
Y331859D01*
D02*
G37*
%LPD*%
D10*
X2976Y1727D02*
X4469Y789D01*
X6134Y207D01*
X7886Y10D01*
X132039D01*
X133090Y128D01*
X134089Y477D01*
X134985Y1040D01*
X135733Y1788D01*
X136296Y2684D01*
X136645Y3683D01*
X136764Y4734D01*
X136882Y5785D01*
X137231Y6784D01*
X137794Y7680D01*
X138542Y8428D01*
X139438Y8991D01*
X140437Y9340D01*
X141488Y9458D01*
X213535D01*
X214586Y9340D01*
X215585Y8991D01*
X216481Y8428D01*
X217229Y7680D01*
X217792Y6784D01*
X218141Y5785D01*
X218260Y4734D01*
X218378Y3683D01*
X218727Y2684D01*
X219290Y1788D01*
X220038Y1040D01*
X220934Y477D01*
X221933Y128D01*
X222984Y10D01*
X347138D01*
X348890Y207D01*
X350554Y789D01*
X352047Y1727D01*
X353294Y2974D01*
X354232Y4467D01*
X354814Y6131D01*
X355012Y7884D01*
Y143297D01*
X354893Y144348D01*
X355012Y143297D01*
Y7884D01*
X354814Y6131D01*
X354232Y4467D01*
X353294Y2974D01*
X352047Y1727D01*
X350554Y789D01*
X348890Y207D01*
X347138Y10D01*
X222984D01*
X221933Y128D01*
X220934Y477D01*
X220038Y1040D01*
X219290Y1788D01*
X218727Y2684D01*
X218378Y3683D01*
X218260Y4734D01*
X218141Y5785D01*
X217792Y6784D01*
X217229Y7680D01*
X216481Y8428D01*
X215585Y8991D01*
X214586Y9340D01*
X213535Y9458D01*
X141488D01*
X140437Y9340D01*
X139438Y8991D01*
X138542Y8428D01*
X137794Y7680D01*
X137231Y6784D01*
X136882Y5785D01*
X136764Y4734D01*
X136645Y3683D01*
X136296Y2684D01*
X135733Y1788D01*
X134985Y1040D01*
X134089Y477D01*
X133090Y128D01*
X132039Y10D01*
X7886D01*
X6134Y207D01*
X4469Y789D01*
X2976Y1727D01*
X1729Y2974D01*
X2976Y1727D01*
X1729Y2974D02*
X791Y4467D01*
X1729Y2974D01*
X791Y4467D02*
X209Y6131D01*
X791Y4467D01*
X209Y6131D02*
X12Y7884D01*
Y143297D01*
X130Y144348D01*
X479Y145347D01*
X1042Y146242D01*
X1790Y146991D01*
X2686Y147554D01*
X3685Y147903D01*
X4736Y148021D01*
X5787Y148140D01*
X6786Y148489D01*
X7682Y149052D01*
X8430Y149800D01*
X8992Y150696D01*
X9342Y151695D01*
X9460Y152746D01*
Y224793D01*
X9342Y225844D01*
X9460Y224793D01*
Y152746D01*
X9342Y151695D01*
X8992Y150696D01*
X8430Y149800D01*
X7682Y149052D01*
X6786Y148489D01*
X5787Y148140D01*
X4736Y148021D01*
X3685Y147903D01*
X2686Y147554D01*
X1790Y146991D01*
X1042Y146242D01*
X479Y145347D01*
X130Y144348D01*
X12Y143297D01*
Y7884D01*
X209Y6131D01*
X74389Y102485D02*
X74980Y101895D01*
X75571Y102485D01*
X74980Y103076D01*
X74389Y102485D01*
X9342Y225844D02*
X8992Y226843D01*
X9342Y225844D01*
X8992Y226843D02*
X8430Y227739D01*
X8992Y226843D01*
X8430Y227739D02*
X7682Y228487D01*
X8430Y227739D01*
X7682Y228487D02*
X6786Y229049D01*
X7682Y228487D01*
X6786Y229049D02*
X5787Y229399D01*
X6786Y229049D01*
X5787Y229399D02*
X4736Y229517D01*
X5787Y229399D01*
X4736Y229517D02*
X3685Y229636D01*
X4736Y229517D01*
X3685Y229636D02*
X2686Y229985D01*
X3685Y229636D01*
X2686Y229985D02*
X1790Y230548D01*
X2686Y229985D01*
X1790Y230548D02*
X1042Y231296D01*
X1790Y230548D01*
X1042Y231296D02*
X479Y232192D01*
X1042Y231296D01*
X479Y232192D02*
X130Y233190D01*
X479Y232192D01*
X130Y233190D02*
X12Y234242D01*
Y369655D01*
X209Y371407D01*
X791Y373072D01*
X1729Y374565D01*
X2976Y375811D01*
X4469Y376749D01*
X6134Y377332D01*
X7886Y377529D01*
X132039D01*
X133090Y377411D01*
X134089Y377061D01*
X134985Y376499D01*
X135733Y375750D01*
X136296Y374855D01*
X136645Y373856D01*
X136764Y372805D01*
X136882Y371754D01*
X137231Y370755D01*
X137794Y369859D01*
X138542Y369111D01*
X139438Y368548D01*
X140437Y368199D01*
X141488Y368080D01*
X213535Y368080D01*
X214586Y368199D01*
X215585Y368548D01*
X216481Y369111D01*
X217229Y369859D01*
X217792Y370755D01*
X218141Y371754D01*
X218260Y372805D01*
X218378Y373856D01*
X218727Y374855D01*
X219290Y375750D01*
X220038Y376499D01*
X220934Y377061D01*
X221933Y377411D01*
X222984Y377529D01*
X347137D01*
X348890Y377332D01*
X350554Y376749D01*
X352047Y375811D01*
X353294Y374565D01*
X354232Y373072D01*
X354814Y371407D01*
X355012Y369655D01*
Y234242D01*
Y369655D01*
X354814Y371407D01*
X354232Y373072D01*
X353294Y374565D01*
X352047Y375811D01*
X350554Y376749D01*
X348890Y377332D01*
X347137Y377529D01*
X222984D01*
X221933Y377411D01*
X220934Y377061D01*
X220038Y376499D01*
X219290Y375750D01*
X218727Y374855D01*
X218378Y373856D01*
X218260Y372805D01*
X218141Y371754D01*
X217792Y370755D01*
X217229Y369859D01*
X216481Y369111D01*
X215585Y368548D01*
X214586Y368199D01*
X213535Y368080D01*
X141488Y368080D01*
X140437Y368199D01*
X139438Y368548D01*
X138542Y369111D01*
X137794Y369859D01*
X137231Y370755D01*
X136882Y371754D01*
X136764Y372805D01*
X136645Y373856D01*
X136296Y374855D01*
X135733Y375750D01*
X134985Y376499D01*
X134089Y377061D01*
X133090Y377411D01*
X132039Y377529D01*
X7886D01*
X6134Y377332D01*
X4469Y376749D01*
X2976Y375811D01*
X1729Y374565D01*
X791Y373072D01*
X209Y371407D01*
X12Y369655D01*
Y234242D01*
X130Y233190D01*
X307524Y245680D02*
X308115Y245089D01*
X308705Y245680D01*
X308115Y246271D01*
X307524Y245680D01*
X347341Y228487D02*
X348237Y229049D01*
X349236Y229399D01*
X350287Y229517D01*
X351339Y229636D01*
X352337Y229985D01*
X353233Y230548D01*
X353981Y231296D01*
X354544Y232192D01*
X354893Y233190D01*
X355012Y234242D01*
X354893Y233190D01*
X354544Y232192D01*
X353981Y231296D01*
X353233Y230548D01*
X352337Y229985D01*
X351339Y229636D01*
X350287Y229517D01*
X349236Y229399D01*
X348237Y229049D01*
X347341Y228487D01*
X346593Y227739D01*
X347341Y228487D01*
X346593Y227739D02*
X346031Y226843D01*
X346593Y227739D01*
X346031Y226843D02*
X345681Y225844D01*
X346031Y226843D01*
X345681Y225844D02*
X345563Y224793D01*
X345563Y152746D01*
X345681Y151695D01*
X346031Y150696D01*
X346593Y149800D01*
X347341Y149052D01*
X348237Y148489D01*
X349236Y148140D01*
X350287Y148021D01*
X351339Y147903D01*
X352337Y147554D01*
X353233Y146991D01*
X353981Y146242D01*
X354544Y145347D01*
X354893Y144348D01*
X354544Y145347D01*
X353981Y146242D01*
X353233Y146991D01*
X352337Y147554D01*
X351339Y147903D01*
X350287Y148021D01*
X349236Y148140D01*
X348237Y148489D01*
X347341Y149052D01*
X346593Y149800D01*
X346031Y150696D01*
X345681Y151695D01*
X345563Y152746D01*
X345563Y224793D01*
X345681Y225844D01*
D11*
X14490Y145195D02*
X15277D01*
X14490D01*
X36994Y117298D02*
Y127731D01*
X41916D01*
Y117298D01*
X36994D01*
X69583Y75102D02*
X80016D01*
Y70180D01*
X69583D01*
Y75102D01*
X74839Y58324D02*
Y68757D01*
X79761D01*
Y58324D01*
X74839D01*
X74528Y57202D02*
X84961D01*
Y52280D01*
X74528D01*
Y57202D01*
X88305Y72190D02*
X89092D01*
X88305D01*
X110968Y113794D02*
X110968Y118715D01*
X100535D01*
Y113794D01*
X110968D01*
X111863Y125784D02*
X98871D01*
Y141532D01*
X111863Y141532D01*
X111863Y125784D01*
X125824Y139870D02*
X126611D01*
X125824D01*
X158881Y175456D02*
X158881Y195141D01*
X147858Y195141D01*
Y175456D01*
X158881D01*
Y182542D02*
X148251D01*
X147547Y179702D02*
X146759D01*
X147547D01*
X164939Y176584D02*
X164939Y187016D01*
X169861D01*
Y176584D01*
X164939Y176584D01*
X198440Y184412D02*
X209464D01*
X209464Y204097D01*
X198440D01*
X198440Y184412D01*
X198272Y189447D02*
X197485D01*
X198272D01*
X198834Y191499D02*
X209464D01*
X210545Y186850D02*
X215466D01*
Y197283D01*
X210545D01*
Y186850D01*
X220843Y227688D02*
X201157Y227688D01*
Y238712D01*
X220843D01*
X220843Y227688D01*
X211561Y239784D02*
Y250217D01*
X206639Y250217D01*
Y239784D01*
X211561Y239784D01*
X208244Y238318D02*
Y227688D01*
X205405Y239847D02*
Y257958D01*
X193595D01*
X193595Y239847D01*
X205405D01*
X184394Y238800D02*
X183606D01*
X184394D01*
X175794Y226200D02*
X175006D01*
X175794D01*
X170342Y230012D02*
X150657Y230012D01*
Y218988D01*
X170342D01*
Y230012D01*
X160859Y241417D02*
X160859Y230983D01*
X155938D01*
Y241417D01*
X160859Y241417D01*
X157743Y229618D02*
Y218988D01*
X154640Y231263D02*
Y249374D01*
X142830D01*
Y231263D01*
X154640D01*
X134531Y229106D02*
X133743D01*
X134531D01*
X125731Y215706D02*
X124943D01*
X125731D01*
X96021Y219673D02*
X95495Y220525D01*
X94931Y221353D01*
X94332Y222155D01*
X93698Y222931D01*
X93030Y223677D01*
X92329Y224393D01*
X91598Y225077D01*
X90837Y225729D01*
X90048Y226346D01*
X89233Y226927D01*
X88392Y227472D01*
X87529Y227979D01*
X86643Y228448D01*
X85738Y228876D01*
X84815Y229265D01*
X83875Y229612D01*
X82921Y229917D01*
X81955Y230180D01*
X80978Y230400D01*
X79992Y230576D01*
X78999Y230709D01*
X78001Y230797D01*
X77001Y230842D01*
X75999D01*
X74999Y230797D01*
X74001Y230709D01*
X73008Y230576D01*
X72022Y230400D01*
X71045Y230180D01*
X70078Y229917D01*
X69125Y229612D01*
X68185Y229265D01*
X67262Y228876D01*
X66357Y228448D01*
X65472Y227979D01*
X64608Y227472D01*
X63767Y226927D01*
X62952Y226346D01*
X62163Y225729D01*
X61402Y225077D01*
X60671Y224393D01*
X59970Y223677D01*
X59302Y222931D01*
X58668Y222155D01*
X58069Y221353D01*
X57505Y220525D01*
X56979Y219673D01*
X56491Y218798D01*
X56042Y217902D01*
X55634Y216988D01*
X55266Y216056D01*
X54939Y215110D01*
X54655Y214149D01*
X54414Y213177D01*
X54216Y212195D01*
X54061Y211206D01*
X53951Y210210D01*
X53884Y209211D01*
X53862Y208209D01*
X53884Y207208D01*
X53951Y206209D01*
X54061Y205213D01*
X54216Y204224D01*
X54414Y203242D01*
X54655Y202270D01*
X54939Y201309D01*
X55266Y200362D01*
X55634Y199431D01*
X56042Y198516D01*
X56491Y197621D01*
X56979Y196746D01*
X57505Y195894D01*
X58069Y195066D01*
X58668Y194263D01*
X59302Y193488D01*
X59970Y192742D01*
X60671Y192026D01*
X61402Y191342D01*
X62163Y190690D01*
X62952Y190073D01*
X63767Y189492D01*
X64608Y188947D01*
X65472Y188440D01*
X66357Y187971D01*
X67262Y187542D01*
X68185Y187154D01*
X69125Y186807D01*
X70079Y186502D01*
X71045Y186239D01*
X72022Y186019D01*
X73008Y185843D01*
X74001Y185710D01*
X74999Y185622D01*
X75999Y185577D01*
X77001D01*
X78001Y185622D01*
X78999Y185710D01*
X79992Y185843D01*
X80978Y186019D01*
X81955Y186239D01*
X82922Y186502D01*
X83876Y186807D01*
X84815Y187154D01*
X85738Y187542D01*
X86643Y187971D01*
X87529Y188440D01*
X88392Y188947D01*
X89233Y189492D01*
X90048Y190073D01*
X90837Y190690D01*
X91598Y191342D01*
X92329Y192026D01*
X93030Y192742D01*
X93698Y193489D01*
X94332Y194264D01*
X94932Y195066D01*
X95495Y195894D01*
X96021Y196746D01*
X96509Y197621D01*
X96958Y198517D01*
X97366Y199431D01*
X97734Y200362D01*
X98061Y201309D01*
X98345Y202270D01*
X98586Y203242D01*
X98784Y204224D01*
X98939Y205213D01*
X99049Y206209D01*
X99116Y207208D01*
X99138Y208209D01*
X99116Y209211D01*
X99049Y210210D01*
X98939Y211206D01*
X98784Y212195D01*
X98586Y213177D01*
X98345Y214149D01*
X98061Y215110D01*
X97734Y216056D01*
X97366Y216988D01*
X96958Y217902D01*
X96509Y218798D01*
X96021Y219673D01*
X78469Y227894D02*
X74532D01*
Y200335D02*
X78469D01*
X76500Y198367D02*
Y202304D01*
X50593Y184648D02*
X37207Y184648D01*
X37207Y178152D01*
X50593Y178152D01*
Y184648D01*
X34711Y213639D02*
X33924D01*
X34711D01*
X31156Y228882D02*
X24660D01*
Y215496D01*
X31156D01*
Y228882D01*
X40739Y260256D02*
X41527D01*
X40739D01*
X19899Y182256D02*
X19112D01*
X19899D01*
X124298Y260231D02*
X125085D01*
X124298D01*
X254907Y286231D02*
X255695D01*
X254907D01*
X267700Y286387D02*
X268488D01*
X267700D01*
X281405Y302845D02*
Y320955D01*
X269595D01*
X269595Y302845D01*
X281405D01*
X263794Y299832D02*
X263007D01*
X263794D01*
X312488Y239999D02*
X322921D01*
Y235078D01*
X312488D01*
X312488Y239999D01*
X312348Y233710D02*
X322781D01*
Y228788D01*
X312348D01*
Y233710D01*
X297230Y210510D02*
X297230Y200077D01*
X292309D01*
X292309Y210510D01*
X297230Y210510D01*
X290930Y210410D02*
X286009Y210410D01*
X286009Y199977D01*
X290930Y199977D01*
Y210410D01*
X293230Y196066D02*
X288309Y196066D01*
Y185633D01*
X293230Y185633D01*
Y196066D01*
X294609Y196066D02*
X299530Y196066D01*
Y185633D01*
X294609Y185633D01*
X294609Y196066D01*
X324696Y162906D02*
X329617Y162906D01*
X329617Y152473D01*
X324696Y152473D01*
Y162906D01*
X318457Y136827D02*
X317670D01*
X318457D01*
X311387Y134780D02*
X310600D01*
X311387D01*
X327396Y118017D02*
Y128450D01*
X332317D01*
Y118017D01*
X327396D01*
X295113Y134731D02*
X294325D01*
X295113D01*
X293399Y134702D02*
X273714D01*
Y123678D01*
X293399D01*
Y134702D01*
X293325Y119410D02*
Y107599D01*
X275215D01*
Y119410D01*
X293325D01*
X280801Y134308D02*
X280801Y123678D01*
X262281Y103331D02*
X262281Y94669D01*
X259919D01*
Y103331D01*
X262281D01*
X253245Y108649D02*
Y98216D01*
X248324Y98216D01*
Y108649D01*
X253245D01*
X230438Y85039D02*
X229650D01*
X230438D01*
X178892Y79190D02*
X178105D01*
X178892D01*
X169828Y81542D02*
X169828Y76621D01*
X159395Y76621D01*
X159395Y81542D01*
X169828Y81542D01*
X170072Y75598D02*
Y65165D01*
X165151D01*
Y75598D01*
X170072Y75598D01*
X175172Y63842D02*
X175172Y58921D01*
X164739Y58921D01*
X164739Y63842D01*
X175172Y63842D01*
X157828Y92812D02*
Y97733D01*
X147395D01*
Y92812D01*
X157828D01*
X291168Y85444D02*
X291955D01*
X291168D01*
D12*
X921Y92014D02*
Y118588D01*
X2004D01*
X16669D02*
X17456D01*
Y115734D01*
X2004Y92014D02*
X921D01*
X16669D02*
X17456D01*
Y94868D01*
X35533Y155321D02*
X35533Y171069D01*
X27679Y174987D02*
X19805D01*
X19721Y168815D02*
X18946Y168169D01*
X18273Y167418D01*
X17716Y166577D01*
X17288Y165664D01*
X16998Y164698D01*
X16851Y163700D01*
Y162691D01*
X16998Y161693D01*
X17288Y160727D01*
X17716Y159814D01*
X18273Y158972D01*
X18946Y158221D01*
X19721Y157576D01*
X20583Y157050D01*
X21511Y156656D01*
X22487Y156401D01*
X23489Y156290D01*
X24497Y156327D01*
X25489Y156510D01*
X26444Y156836D01*
X27341Y157297D01*
X28161Y157884D01*
X28888Y158584D01*
X29504Y159383D01*
X29998Y160263D01*
X30358Y161205D01*
X30578Y162189D01*
X30651Y163195D01*
X30578Y164201D01*
X30358Y165186D01*
X29998Y166128D01*
X29504Y167008D01*
X28888Y167806D01*
X28161Y168506D01*
X27341Y169093D01*
X26444Y169554D01*
X25489Y169880D01*
X24497Y170063D01*
X23489Y170100D01*
X22487Y169990D01*
X21511Y169735D01*
X20582Y169340D01*
X19721Y168815D01*
X11950Y171069D02*
Y155321D01*
X19805Y151404D02*
X27679Y151404D01*
X89306Y71526D02*
X92220D01*
Y59715D02*
X89306D01*
X98204D02*
X101117D01*
Y71526D02*
X98204D01*
X126824Y110824D02*
X128182D01*
X126824D02*
Y112182D01*
X153418Y110824D02*
X154776D01*
Y112182D01*
Y137418D02*
Y138776D01*
X153418D01*
X128182D02*
X126824D01*
Y137418D01*
X144255Y180082D02*
X132444D01*
X144255Y194452D02*
X132444D01*
X133774Y217269D02*
Y225144D01*
X132574Y229669D02*
X124700Y229669D01*
X125900Y225144D02*
X125900Y217269D01*
X132574Y237544D02*
X124700Y237544D01*
X126162Y248026D02*
Y255113D01*
X117710D02*
Y248026D01*
X175963Y227763D02*
Y235637D01*
X174563Y239363D02*
X182437D01*
X183837Y235637D02*
Y227763D01*
X183170Y204197D02*
X194981D01*
Y189827D02*
X183170D01*
X182437Y247237D02*
X174563D01*
X255864Y287794D02*
X255864Y295669D01*
X253964Y300395D02*
X261838D01*
X263738Y295669D02*
X263738Y287794D01*
X261838Y308268D02*
X253964Y308268D01*
X332937Y262802D02*
X338606Y262802D01*
X349394Y262802D02*
X354236Y262802D01*
Y297998D01*
X349394Y297998D01*
X352522Y308939D02*
X353605D01*
Y335514D01*
X352522D01*
X337857D02*
X337070D01*
Y332660D01*
Y311794D02*
Y308939D01*
X337857D01*
X338606Y297998D02*
X332937Y297998D01*
X328528Y204187D02*
X327741D01*
Y201333D01*
X343194Y204187D02*
X344276D01*
Y177613D01*
X343194D01*
X328528D02*
X327741D01*
Y180467D01*
X317190Y151790D02*
X315024Y151790D01*
X317190Y151790D02*
Y149624D01*
X317190Y140176D02*
X317190Y138010D01*
X315024D01*
X303410Y149624D02*
Y151790D01*
X305576Y151790D01*
Y138010D02*
X303410D01*
X303410Y140176D01*
X279357Y92426D02*
X286443D01*
Y83974D02*
X279357D01*
X237026Y90157D02*
Y97243D01*
X228574D02*
Y90157D01*
X190917Y78526D02*
X188004D01*
X182020Y78526D02*
X179106D01*
X179106Y66715D02*
X182020D01*
X188004D02*
X190917D01*
X164113Y27559D02*
X166967D01*
X187833D02*
X190687D01*
Y26772D01*
Y12106D02*
Y11024D01*
X164113D01*
Y12106D01*
Y26772D02*
Y27559D01*
X262513Y2706D02*
Y1624D01*
X289087D01*
Y2706D01*
Y17372D02*
Y18159D01*
X286233D01*
X265367D02*
X262513D01*
Y17372D01*
X337441Y46034D02*
Y48888D01*
Y46034D02*
X338228D01*
X352894D02*
X353976D01*
Y63400D01*
X352894D01*
X338228Y63433D02*
X337441D01*
Y60579D01*
X352294Y82234D02*
X353376D01*
Y99600D01*
X352294D01*
X337628Y99633D02*
X336841D01*
Y96779D01*
Y85088D02*
Y82234D01*
X337628D01*
X42603Y248052D02*
Y255138D01*
X34151D02*
Y248052D01*
X18201Y284072D02*
Y286926D01*
Y284072D02*
X17414D01*
X2748D02*
X1666D01*
Y310647D01*
X2748D01*
X17414D02*
X18201D01*
Y307792D01*
D13*
X256425Y104086D02*
X257163Y104512D01*
X256425Y104938D01*
Y104086D01*
D14*
X112989Y124466D02*
D03*
D15*
X15842Y41247D02*
Y44847D01*
X23322D01*
Y41247D01*
X15842D01*
X25846Y41593D02*
Y45193D01*
X33327D01*
Y41593D01*
X25846D01*
X37100Y64128D02*
Y71609D01*
X40700D01*
Y64128D01*
X37100D01*
X33400Y78660D02*
Y86140D01*
X29800D01*
Y78660D01*
X33400D01*
X48000Y100239D02*
X48000Y107740D01*
X44400D01*
Y100239D01*
X48000D01*
X47905Y109688D02*
Y117168D01*
X44305D01*
Y109688D01*
X47905D01*
X47900Y119460D02*
Y126961D01*
X44300Y126961D01*
Y119460D01*
X47900D01*
X42136Y112572D02*
X38536D01*
Y105092D01*
X42136D01*
Y112572D01*
X81460Y118900D02*
X88940D01*
Y122500D01*
X81460D01*
Y118900D01*
X94094Y127952D02*
Y135454D01*
X97694D01*
Y127952D01*
X94094D01*
X102611Y121031D02*
Y124632D01*
X110112D01*
Y121031D01*
X102611D01*
X103239Y113800D02*
X110740D01*
Y110200D01*
X103239D01*
Y113800D01*
X118331Y140745D02*
X121931D01*
Y148246D01*
X118331D01*
Y140745D01*
X124760Y145200D02*
X132261D01*
Y148800D01*
X124760D01*
Y145200D01*
X149834Y103962D02*
X157335D01*
Y100362D01*
X149834D01*
Y103962D01*
X171612Y80321D02*
X175212Y80321D01*
X175212Y72820D01*
X171612Y72820D01*
Y80321D01*
X171612Y72321D02*
X171612Y64820D01*
X175212Y64820D01*
Y72321D01*
X171612D01*
X177800Y64546D02*
X185302Y64546D01*
X185302Y60946D01*
X177800Y60946D01*
Y64546D01*
X195254Y67303D02*
Y74805D01*
X198854Y74805D01*
X198854Y67303D01*
X195254Y67303D01*
X195312Y75941D02*
X198912Y75941D01*
Y83421D01*
X195312D01*
X195312Y75941D01*
X226860Y28700D02*
X234340Y28700D01*
Y25100D01*
X226860D01*
Y28700D01*
X240600Y23940D02*
X244200D01*
Y16460D01*
X240600D01*
Y23940D01*
X268140Y52800D02*
Y56400D01*
X260639Y56400D01*
Y52800D01*
X268140Y52800D01*
X291927Y85994D02*
Y93495D01*
X295527D01*
Y85994D01*
X291927D01*
X295340Y93700D02*
Y97300D01*
X287860D01*
Y93700D01*
X295340D01*
X283032Y103225D02*
Y106825D01*
X275530D01*
Y103225D01*
X283032D01*
X280739Y101700D02*
Y98100D01*
X273259D01*
Y101700D01*
X280739D01*
Y97300D02*
Y93700D01*
X273259D01*
Y97300D01*
X280739D01*
X274966Y91575D02*
Y84095D01*
X271366D01*
Y91575D01*
X274966D01*
X272505Y101459D02*
X268905D01*
Y93957D01*
X272505D01*
Y101459D01*
X262661Y93200D02*
Y89600D01*
X255160D01*
Y93200D01*
X262661D01*
X242026Y90222D02*
Y97702D01*
X238426D01*
Y90222D01*
X242026D01*
X236009Y101600D02*
Y105200D01*
X228528D01*
Y101600D01*
X236009D01*
X217910Y120126D02*
X223199Y125416D01*
X220653Y127961D01*
X215364Y122672D01*
X217910Y120126D01*
X217556Y119794D02*
X212267Y114505D01*
X209721Y117050D01*
X215011Y122340D01*
X217556Y119794D01*
X214997Y122997D02*
X220301Y128301D01*
X217755Y130847D01*
X212451Y125543D01*
X214997Y122997D01*
X214601Y122653D02*
X212056Y125198D01*
X206752Y119894D01*
X209297Y117349D01*
X214601Y122653D01*
X230339Y71000D02*
X237840D01*
Y67400D01*
X230339D01*
Y71000D01*
X290928Y24200D02*
X298409D01*
Y20600D01*
X290928D01*
Y24200D01*
X309860Y23900D02*
X317340D01*
X317340Y27500D01*
X309860Y27500D01*
Y23900D01*
X326332Y134796D02*
Y138396D01*
X318831Y138396D01*
Y134796D01*
X326332D01*
X322616Y139090D02*
X330118D01*
Y142690D01*
X322616D01*
Y139090D01*
X322616Y143390D02*
X322616Y146990D01*
X330097Y146990D01*
Y143390D01*
X322616D01*
Y147790D02*
X322616Y151390D01*
X330097Y151390D01*
Y147790D01*
X322616D01*
X317439Y154448D02*
Y158048D01*
X309938D01*
Y154448D01*
X317439D01*
Y158791D02*
Y162390D01*
X309959D01*
Y158791D01*
X317439D01*
X327240Y163800D02*
Y167400D01*
X319760D01*
Y163800D01*
X327240D01*
X329348Y163890D02*
Y167490D01*
X336828D01*
Y163890D01*
X329348D01*
X318640Y163800D02*
Y167400D01*
X311160D01*
Y163800D01*
X318640D01*
X309195Y162390D02*
Y158791D01*
X301715D01*
Y162390D01*
X309195D01*
X307840Y163200D02*
Y166800D01*
X300360D01*
Y163200D01*
X307840D01*
X309216Y158048D02*
X301715D01*
Y154448D01*
X309216D01*
Y158048D01*
X290600Y150509D02*
Y143007D01*
X287000D01*
Y150509D01*
X290600D01*
X293240Y139300D02*
X285739D01*
Y135700D01*
X293240D01*
Y139300D01*
X286612Y187002D02*
X286612Y194503D01*
X283012D01*
Y187002D01*
X286612D01*
X292800Y210828D02*
X296400D01*
X296400Y218309D01*
X292800D01*
Y210828D01*
X292040Y214900D02*
Y218500D01*
X284560D01*
Y214900D01*
X292040D01*
X298917Y251031D02*
X298917Y254631D01*
X306397D01*
Y251031D01*
X298917Y251031D01*
X293709Y257300D02*
Y260900D01*
X286228D01*
Y257300D01*
X293709D01*
X296340Y254700D02*
Y251100D01*
X288839D01*
X288839Y254700D01*
X296340D01*
X268402Y277223D02*
Y284703D01*
X264802Y284703D01*
Y277223D01*
X268402Y277223D01*
X264101Y277123D02*
X264101Y284603D01*
X260501Y284603D01*
Y277123D01*
X264101D01*
X274060Y281400D02*
X281540D01*
Y285000D01*
X274060D01*
Y281400D01*
X287260Y299600D02*
Y303200D01*
X294740D01*
Y299600D01*
X287260D01*
X268401Y308572D02*
X264801D01*
X264801Y301091D01*
X268401D01*
Y308572D01*
X268401Y300572D02*
X264801Y300572D01*
Y293091D01*
X268401D01*
X268401Y300572D01*
X268401Y292603D02*
X264801Y292603D01*
Y285123D01*
X268401Y285123D01*
X268401Y292603D01*
X250301Y308340D02*
X250301Y300860D01*
X246701Y300860D01*
Y308340D01*
X250301D01*
X250300Y299672D02*
X246700D01*
Y292191D01*
X250300D01*
Y299672D01*
X251201D02*
X254801D01*
X254801Y292191D01*
X251201D01*
Y299672D01*
X256201Y284572D02*
X259801D01*
X259801Y277091D01*
X256201D01*
X256201Y284572D01*
X245800Y292191D02*
Y299672D01*
X242200D01*
Y292191D01*
X245800D01*
X245801Y300839D02*
X242201D01*
X242201Y308340D01*
X245801D01*
X245801Y300839D01*
X248340Y309700D02*
Y313300D01*
X240860D01*
Y309700D01*
X248340D01*
X248374Y314400D02*
Y318000D01*
X240893D01*
Y314400D01*
X248374D01*
X209619Y261912D02*
X202117D01*
X202117Y258312D01*
X209619Y258312D01*
X209619Y261912D01*
X190800Y259040D02*
Y251539D01*
X187200Y251539D01*
X187200Y259040D01*
X190800D01*
X188700Y247609D02*
X185100D01*
Y240128D01*
X188700D01*
Y247609D01*
X188700Y239542D02*
X185100D01*
Y232062D01*
X188700D01*
Y239542D01*
X189539Y239100D02*
X197040D01*
Y235500D01*
X189539Y235500D01*
Y239100D01*
Y234900D02*
X197040Y234900D01*
Y231300D01*
X189539D01*
Y234900D01*
Y230700D02*
X197040D01*
Y227100D01*
X189539Y227100D01*
Y230700D01*
X188700Y231475D02*
X185100D01*
Y223995D01*
X188700D01*
Y231475D01*
X188598Y223312D02*
Y219712D01*
X181096D01*
Y223312D01*
X188598Y223312D01*
X179500Y223409D02*
X175900D01*
X175900Y215928D01*
X179500D01*
X179500Y223409D01*
X181086Y219012D02*
X188566D01*
Y215412D01*
X181086Y215412D01*
Y219012D01*
X184266Y214712D02*
X184266Y211112D01*
X176786D01*
X176786Y214712D01*
X184266D01*
X185100Y214340D02*
X188700D01*
Y206860D01*
X185100Y206860D01*
Y214340D01*
X184266Y210412D02*
Y206812D01*
X176765D01*
Y210412D01*
X184266D01*
X179766Y206312D02*
Y202712D01*
X172286D01*
Y206312D01*
X179766D01*
X179787Y201912D02*
X172286D01*
Y198312D01*
X179787D01*
Y201912D01*
X180326Y192574D02*
X176726D01*
Y185072D01*
X180326D01*
X180326Y192574D01*
X181386Y188726D02*
X188866D01*
Y185126D01*
X181386D01*
Y188726D01*
X189706D02*
X197207Y188726D01*
Y185126D01*
X189706Y185126D01*
Y188726D01*
X171700Y196139D02*
X171700Y203640D01*
X168100D01*
Y196139D01*
X171700Y196139D01*
X167440Y199700D02*
Y203300D01*
X159960D01*
Y199700D01*
X167440D01*
X172300Y207260D02*
Y214740D01*
X175900Y214740D01*
Y207260D01*
X172300Y207260D01*
X171100Y230769D02*
Y238271D01*
X174700D01*
Y230769D01*
X171100Y230769D01*
X170200Y230790D02*
Y238271D01*
X166600D01*
Y230790D01*
X170200D01*
Y239692D02*
Y247172D01*
X166600D01*
Y239692D01*
X170200D01*
X162876Y247123D02*
X160330Y244577D01*
X155026Y249882D01*
X157571Y252427D01*
X162876Y247123D01*
X162100Y238271D02*
X165700Y238271D01*
X165700Y230791D01*
X162100D01*
X162100Y238271D01*
X147086Y249680D02*
X147086Y253280D01*
X139585D01*
Y249680D01*
X147086D01*
X139998Y238540D02*
Y231060D01*
X136398D01*
X136398Y238540D01*
X139998D01*
X139569Y230700D02*
X147070Y230700D01*
Y227100D01*
X139569D01*
Y230700D01*
X138637Y229747D02*
X135037D01*
Y222266D01*
X138637Y222266D01*
Y229747D01*
X139537Y226600D02*
X147039D01*
X147039Y223000D01*
X139537Y223000D01*
X139537Y226600D01*
Y222400D02*
X147039D01*
X147039Y218800D01*
X139537Y218800D01*
Y222400D01*
X138737Y221747D02*
X138737Y214266D01*
X135137D01*
X135137Y221747D01*
X138737Y221747D01*
X138318Y213819D02*
X138318Y210219D01*
X130817Y210219D01*
X130817Y213819D01*
X138318Y213819D01*
X138250Y209519D02*
X138250Y205919D01*
X130770Y205919D01*
X130770Y209519D01*
X138250D01*
X138398Y205040D02*
X138398Y197560D01*
X134798Y197560D01*
X134798Y205040D01*
X138398D01*
X134094Y205235D02*
X126613Y205235D01*
Y201635D01*
X134094D01*
Y205235D01*
X134094Y200911D02*
X126592D01*
X126592Y197311D01*
X134094Y197311D01*
Y200911D01*
X130037Y213815D02*
X130037Y206335D01*
X126437Y206335D01*
Y213815D01*
X130037D01*
X125698Y205240D02*
X122098D01*
X122098Y197760D01*
X125698Y197760D01*
Y205240D01*
X129342Y196340D02*
X121862D01*
X121862Y192740D01*
X129342Y192740D01*
Y196340D01*
X121255Y196229D02*
X117655D01*
Y188727D01*
X121255Y188727D01*
X121255Y196229D01*
X121858Y192153D02*
X129359D01*
X129359Y188553D01*
X121858Y188552D01*
Y192153D01*
X126078Y183080D02*
X129678D01*
Y175579D01*
X126078D01*
X126078Y183080D01*
X130638Y179174D02*
X138118D01*
X138118Y175574D01*
X130638D01*
Y179174D01*
X138781Y179224D02*
X146283D01*
X146283Y175624D01*
X138781Y175624D01*
Y179224D01*
X159966Y140793D02*
X163566D01*
Y133291D01*
X159966D01*
Y140793D01*
X104900Y76081D02*
X108500D01*
Y68601D01*
X104900D01*
Y76081D01*
Y68081D02*
X108500D01*
Y60580D01*
X104900D01*
Y68081D01*
X95061Y57341D02*
X87560D01*
Y53741D01*
X95061D01*
Y57341D01*
X84800Y65713D02*
X81200D01*
Y58211D01*
X84800D01*
Y65713D01*
Y66180D02*
Y73681D01*
X81200D01*
Y66180D01*
X84800D01*
X118400Y29040D02*
X122000D01*
Y21560D01*
X118400D01*
Y29040D01*
X137700Y21440D02*
X137700Y13960D01*
X141300Y13960D01*
Y21440D01*
X137700D01*
X117275Y17734D02*
Y25214D01*
X113675D01*
Y17734D01*
X117275D01*
X111140Y16658D02*
X111140Y24138D01*
X107540D01*
X107540Y16658D01*
X111140Y16658D01*
X73100Y20460D02*
Y27940D01*
X69500D01*
Y20460D01*
X73100Y20460D01*
X59100Y16860D02*
Y24340D01*
X55500D01*
Y16860D01*
X59100D01*
X65550Y155191D02*
X70840Y160481D01*
X68294Y163026D01*
X63005Y157737D01*
X65550Y155191D01*
X72528Y161983D02*
X77817Y167272D01*
X75272Y169817D01*
X69982Y164528D01*
X72528Y161983D01*
X59600Y175591D02*
Y183072D01*
X56000D01*
Y175591D01*
X59600D01*
X55200Y187240D02*
Y179760D01*
X51600D01*
Y187240D01*
X55200D01*
X50200Y203767D02*
Y211247D01*
X46600D01*
Y203767D01*
X50200D01*
X42447Y196330D02*
X34967D01*
Y192730D01*
X42447D01*
Y196330D01*
X42000Y176772D02*
X38400D01*
Y169291D01*
X42000D01*
Y176772D01*
X38360Y168300D02*
X45840D01*
Y164700D01*
X38360D01*
Y168300D01*
X112437Y221566D02*
X116037D01*
X116037Y229047D01*
X112437Y229047D01*
X112437Y221566D01*
X116837Y221566D02*
X120437D01*
Y229047D01*
X116837Y229047D01*
X116837Y221566D01*
X116837Y229498D02*
X120437D01*
X120437Y236978D01*
X116837Y236978D01*
Y229498D01*
X116237Y229666D02*
X112637Y229666D01*
X112637Y237147D01*
X116237D01*
X116237Y229666D01*
X121137Y229047D02*
X124737Y229047D01*
X124737Y221545D01*
X121137D01*
X121137Y229047D01*
X118313Y240203D02*
X125793D01*
Y243803D01*
X118313D01*
Y240203D01*
X116333Y247936D02*
Y255416D01*
X112733D01*
Y247936D01*
X116333D01*
X123465Y259282D02*
Y262882D01*
X115964D01*
Y259282D01*
X123465D01*
X143500Y309528D02*
X147100D01*
Y317008D01*
X143500D01*
Y309528D01*
X148400D02*
X152000D01*
Y317008D01*
X148400D01*
Y309528D01*
X141761Y317008D02*
Y309528D01*
X138161D01*
Y317008D01*
X141761D01*
X136900D02*
Y309528D01*
X133300D01*
Y317008D01*
X136900D01*
X116700Y319140D02*
Y311660D01*
X113100D01*
Y319140D01*
X116700D01*
X102100D02*
Y311660D01*
X98500D01*
Y319140D01*
X102100D01*
X37900Y318340D02*
X34300D01*
Y310860D01*
X37900D01*
Y318340D01*
X32060Y263100D02*
X39561D01*
Y259500D01*
X32060D01*
Y263100D01*
X32705Y255415D02*
X29105D01*
Y247935D01*
X32705D01*
Y255415D01*
X34661Y243517D02*
X42141D01*
Y239917D01*
X34661D01*
Y243517D01*
X50800Y243791D02*
Y251272D01*
X54400D01*
Y243791D01*
X50800D01*
D16*
X16600Y46800D02*
Y76800D01*
X36600D01*
Y46800D01*
X16600D01*
X23900Y78502D02*
X21901D01*
X20901Y79502D01*
Y81501D01*
X21901Y82501D01*
X20901Y85500D02*
Y86500D01*
X26899D01*
X25899Y87499D01*
X26899Y82501D02*
X23900D01*
X24900Y80502D01*
Y79502D01*
X23900Y78502D01*
X26899D02*
Y82501D01*
Y89499D02*
X20901Y93498D01*
Y89499D02*
X26899Y93498D01*
X20901Y87499D02*
Y85500D01*
X25500Y119702D02*
X26499D01*
X27499Y120701D01*
Y122701D01*
X26499Y123700D01*
X25500Y119702D02*
X21501Y123700D01*
Y119702D01*
X27499Y125700D02*
X21501Y129698D01*
Y125700D02*
X27499Y129698D01*
X152501Y28274D02*
X156500Y34272D01*
X159499D02*
X158499Y33272D01*
X159499Y34272D02*
Y28274D01*
X160499D01*
X158499D01*
X156500D02*
X152501Y34272D01*
X249649Y25506D02*
X253648Y19508D01*
X256647D02*
X255647Y20507D01*
X256647Y19508D02*
X258646D01*
X259646Y20507D01*
Y21507D01*
X258646Y22507D01*
X257646D01*
X258646D01*
X259646Y23506D01*
Y24506D01*
X258646Y25506D01*
X256647D01*
X255647Y24506D01*
X253648Y25506D02*
X249649Y19508D01*
X273594Y59958D02*
X272594Y58958D01*
X256594Y58958D01*
X255594Y59958D01*
X255594Y67958D01*
X259594Y71958D01*
X269594Y71958D01*
X273594Y67958D01*
X273594Y59958D01*
X327701Y37802D02*
X333699Y41800D01*
Y44799D02*
Y46799D01*
X332699Y47798D01*
X328701D01*
X327701Y46799D01*
Y44799D01*
X328701Y43800D01*
X329700D01*
X330700Y44799D01*
Y47798D01*
X332699Y43800D02*
X333699Y44799D01*
Y37802D02*
X327701Y41800D01*
X326201Y101402D02*
X332199Y105400D01*
Y108399D02*
X331199Y107400D01*
X330200D01*
X329200Y108399D01*
X328200Y107400D01*
X327201D01*
X326201Y108399D01*
Y110399D01*
X327201Y111398D01*
X328200D01*
X329200Y110399D01*
X330200Y111398D01*
X331199D01*
X332199Y110399D01*
Y108399D01*
X329200D02*
Y110399D01*
X326201Y105400D02*
X332199Y101402D01*
X317699Y184702D02*
X311701Y188700D01*
Y184702D02*
X317699Y188700D01*
X316699Y190700D02*
X317699Y191699D01*
Y193699D01*
X316699Y194698D01*
X315700D01*
X314700Y193699D01*
Y190700D01*
X316699D01*
X314700D02*
X312701Y192699D01*
X311701Y194698D01*
X321901Y310702D02*
X327899Y314700D01*
Y310702D02*
X321901Y314700D01*
Y319699D02*
X324900Y316700D01*
Y320698D01*
X327899Y319699D02*
X321901D01*
X321725Y324442D02*
Y330440D01*
X320726Y329441D01*
X318726Y330440D02*
X314728D01*
Y327441D01*
X316727Y328441D01*
X317727D01*
X318726Y327441D01*
Y325442D01*
X317727Y324442D01*
X315727D01*
X314728Y325442D01*
X320726Y324442D02*
X322725D01*
X321725D01*
X323721Y334442D02*
X319722D01*
X323721Y338441D01*
Y339441D01*
X322721Y340440D01*
X320722D01*
X319722Y339441D01*
X317723Y340440D02*
X313724D01*
Y337441D01*
X315723Y338441D01*
X316723D01*
X317723Y337441D01*
Y335442D01*
X316723Y334442D01*
X314724D01*
X313724Y335442D01*
X309912Y322828D02*
Y362328D01*
X49812D01*
Y322828D01*
X309912D01*
X310439Y364493D02*
X306440D01*
X310439Y368492D01*
Y369491D01*
X309439Y370491D01*
X307440D01*
X306440Y369491D01*
X304440Y370491D02*
X300442D01*
Y367492D01*
X302441Y368492D01*
X303441D01*
X304440Y367492D01*
Y365493D01*
X303441Y364493D01*
X301442D01*
X300442Y365493D01*
X243742Y364977D02*
Y374077D01*
X222542D01*
Y364977D01*
X243742D01*
X56413Y364370D02*
X52414D01*
X56413Y368369D01*
Y369369D01*
X55413Y370368D01*
X53414D01*
X52414Y369369D01*
X46565Y340425D02*
X44566D01*
X43566Y339425D01*
X46565Y340425D02*
X47565Y339425D01*
Y338426D01*
X43566Y334427D01*
X47565D01*
X41300Y341600D02*
X41300Y321600D01*
X31300D01*
X31300Y341600D01*
X41300D01*
X45344Y330449D02*
X44344Y329449D01*
X45344Y330449D02*
Y324451D01*
X46343D01*
X44344D01*
X20701Y285798D02*
X26699Y281800D01*
Y279800D02*
Y275802D01*
X25699D01*
X21701Y279800D01*
X20701D01*
Y281800D02*
X26699Y285798D01*
D17*
X41591Y156660D02*
X53009D01*
X53009Y157152D01*
X49800Y156660D02*
Y164140D01*
X50800D01*
X53009Y164140D02*
X53009Y163648D01*
X53009Y164140D02*
X41591D01*
Y163648D01*
X41591Y157152D02*
X41591Y156660D01*
X49764Y146164D02*
Y153250D01*
X50453D01*
X54587D02*
X55276D01*
Y146164D01*
X54587D01*
X55276Y147207D02*
Y148007D01*
X49764D01*
Y146164D02*
X50453D01*
X68146Y135358D02*
X73658D01*
Y130115D02*
Y137202D01*
X72969Y137202D01*
X78744Y143457D02*
Y150543D01*
X79433Y150543D01*
X78744Y145300D02*
X84256D01*
Y144500D01*
Y143457D02*
Y150543D01*
X83567Y150543D01*
Y143457D02*
X84256Y143457D01*
X79433Y143457D02*
X78744Y143457D01*
X73658Y130115D02*
X72969D01*
X68146Y136158D02*
Y135358D01*
Y130115D02*
X68835D01*
X68146D02*
Y137202D01*
X68835Y137202D01*
X33511Y182969D02*
Y196169D01*
X31811D01*
Y199726D02*
X33511D01*
Y212926D01*
X31811D01*
X44660Y224591D02*
X45152Y224591D01*
X44660Y224591D02*
Y236009D01*
X45152Y236009D01*
X44660Y227800D02*
X52140D01*
Y226800D01*
Y224591D02*
Y236009D01*
X51648Y236009D01*
X51648Y224591D02*
X52140Y224591D01*
X22011Y212926D02*
X20311D01*
Y199726D01*
X22011D01*
Y196169D02*
X20311Y196169D01*
Y182969D01*
X22011Y182969D01*
X31811Y182969D02*
X33511D01*
X268900Y287100D02*
Y300300D01*
X270600Y300300D01*
Y287100D02*
X268900Y287100D01*
X280400D02*
X282100D01*
Y300300D01*
X280400D01*
X299160Y215109D02*
X299652Y215109D01*
X299160Y215109D02*
X299160Y203691D01*
X299652Y203691D01*
X299160Y206900D02*
X306640D01*
X306640Y205900D01*
X306640Y203691D02*
X306640Y215109D01*
X306148Y215109D01*
X306148Y203691D02*
X306640Y203691D01*
X293108Y151551D02*
X292616Y151551D01*
Y140134D01*
X293108Y140134D01*
X295432Y133925D02*
X308632D01*
X308632Y132225D01*
X308632Y122425D02*
Y120725D01*
X295432D01*
Y122425D01*
X295432Y132225D02*
X295432Y133925D01*
X299604Y140134D02*
X300096Y140134D01*
Y151551D01*
X299604D01*
X300096Y148343D02*
X292616D01*
Y149343D01*
X311707Y133974D02*
X324907D01*
Y132274D01*
Y122474D02*
Y120774D01*
X311707D01*
Y122474D01*
X311707Y132274D02*
X311707Y133974D01*
X331816Y147381D02*
X332309Y147381D01*
X331816Y147381D02*
Y158798D01*
X332309D01*
X331816Y150590D02*
X339297D01*
Y149590D01*
Y158798D02*
X338805D01*
X339297D02*
Y147381D01*
X338805Y147381D01*
D18*
X46998Y168444D02*
Y173956D01*
X50738D01*
X55462Y173956D02*
X59202Y173956D01*
Y168444D01*
X54478D02*
X51722D01*
X59969Y123242D02*
X68631D01*
Y103558D01*
X66465D01*
X65623Y104400D01*
X62977D01*
X62135Y103558D01*
X59969D01*
Y123242D01*
X84944Y110622D02*
Y113378D01*
Y118102D02*
X90456D01*
Y114362D01*
X90456Y109638D02*
X90456Y105898D01*
X84944D01*
X79132Y30533D02*
X84644D01*
Y26793D01*
X84644Y22068D02*
X84644Y18328D01*
X79132D01*
Y23053D02*
Y25809D01*
X127444Y15438D02*
X127444Y11698D01*
X132956D01*
X132956Y16422D02*
X132956Y19178D01*
X132956Y23902D02*
X127444D01*
Y20162D01*
X235938Y28281D02*
Y33793D01*
X239678D01*
X244402D02*
X248143D01*
Y28281D01*
X243418Y28281D02*
X240662D01*
X307198Y11244D02*
X310938D01*
X315662Y11244D02*
X319402Y11244D01*
Y16756D01*
X314678D02*
X311922Y16756D01*
X307198Y16756D02*
X307198Y11244D01*
X309257Y103190D02*
X294257D01*
X294257Y119690D01*
X309257D01*
X309257Y103190D01*
X323524Y211900D02*
X323524Y228400D01*
X308524D01*
X308524Y211900D01*
X323524Y211900D01*
X307043Y232835D02*
Y230669D01*
X287357Y230669D01*
Y239331D01*
X307043Y239331D01*
Y237165D01*
X306200Y236323D01*
Y233677D01*
X307043Y232835D01*
X296002Y289444D02*
Y294956D01*
X291278D02*
X288522D01*
X287538Y289444D02*
X283798Y289444D01*
Y294956D01*
X292262Y289444D02*
X296002D01*
X251657Y290334D02*
Y286594D01*
Y290334D02*
X246145Y290334D01*
X246145Y285610D02*
X246145Y282854D01*
Y278129D02*
X251657D01*
Y281869D01*
X209442Y226480D02*
X189758Y226480D01*
Y205311D01*
X209442D01*
X209442Y226480D01*
X168856Y217302D02*
X168856Y213562D01*
X168856Y217302D02*
X163344Y217302D01*
Y212578D02*
Y209822D01*
X159121Y218155D02*
X139436Y218155D01*
Y196986D01*
X159121D01*
Y218155D01*
X163344Y205098D02*
X168856Y205098D01*
X168856Y208838D01*
X121119Y219642D02*
X115607Y219642D01*
X115607Y215902D01*
X115607Y211178D02*
Y207438D01*
X121119Y207438D01*
Y212162D02*
X121119Y214918D01*
X78556Y243538D02*
X78556Y239798D01*
X73044Y239798D01*
X73044Y244522D02*
X73044Y247278D01*
Y252002D02*
X78556Y252002D01*
Y248262D01*
X64420Y259311D02*
X58908Y259311D01*
Y255571D01*
Y250847D02*
Y247106D01*
X64420Y247106D01*
X64420Y251831D02*
Y254587D01*
D19*
X260819Y151895D02*
D03*
M02*
