M48
;Layer_Color=9474304
;FILE_FORMAT=4:4
METRIC,LZ
;TYPE=PLATED
T2F00S00C0.4500
T4F00S00C0.6500
;TYPE=NON_PLATED
T10F00S00C0.7000
%
G90
G05
T02
G00X0019756Y00493852
M15
G01X0019106
M16
G00X0019756Y00593852
M15
G01X0019106
M16
T04
G00X0083746Y00669016
M15
G01X0082646
M16
G00X0087676Y00669016
M15
G01X0087076
M16
G00X0087676Y00755416
M15
G01X0087076
M16
G00X0083746Y00755416
M15
G01X0082646
M16
T10
G00X00576515Y002002
M15
G01X00587515
M16
G00X00737875Y002002
M15
G01X00748875
M16
G00X00788675Y002002
M15
G01X00799675
M16
G00X00763275Y00124
M15
G01X00774275
M16
G00X00551115Y00124
M15
G01X00562115
M16
G00X00525715Y002002
M15
G01X00536715
M16
G00X00375354Y002002
M15
G01X00364354
M16
G00X00324554Y002002
M15
G01X00313554
M16
G00X00349954Y00124
M15
G01X00338954
M16
G00X00137794Y00124
M15
G01X00126794
M16
G00X00112394Y002002
M15
G01X00101394
M16
G00X00163194Y002002
M15
G01X00152194
M16
G00X00163194Y006802
M15
G01X00152194
M16
G00X00112394Y006802
M15
G01X00101394
M16
G00X00137794Y007564
M15
G01X00126794
M16
G00X00349954Y007564
M15
G01X00338954
M16
G00X00375354Y006802
M15
G01X00364354
M16
G00X00324554Y006802
M15
G01X00313554
M16
G00X00525715Y006802
M15
G01X00536715
M16
G00X00551115Y007564
M15
G01X00562115
M16
G00X00576515Y006802
M15
G01X00587515
M16
G00X00737875Y006802
M15
G01X00748875
M16
G00X00788675Y006802
M15
G01X00799675
M16
G00X00763275Y007564
M15
G01X00774275
M16
M17
M30
