G04*
G04 #@! TF.GenerationSoftware,Altium Limited,Altium Designer,21.7.2 (23)*
G04*
G04 Layer_Color=8388736*
%FSLAX25Y25*%
%MOIN*%
G70*
G04*
G04 #@! TF.SameCoordinates,2BA94D00-C298-4741-AC1B-5A8F31098602*
G04*
G04*
G04 #@! TF.FilePolarity,Positive*
G04*
G01*
G75*
%ADD10C,0.01181*%
D10*
X2976Y1727D02*
X4469Y789D01*
X6134Y207D01*
X7886Y10D01*
X132039D01*
X133090Y128D01*
X134089Y477D01*
X134985Y1040D01*
X135733Y1788D01*
X136296Y2684D01*
X136645Y3683D01*
X136764Y4734D01*
X136882Y5785D01*
X137231Y6784D01*
X137794Y7680D01*
X138542Y8428D01*
X139438Y8991D01*
X140437Y9340D01*
X141488Y9458D01*
X213535D01*
X214586Y9340D01*
X215585Y8991D01*
X216481Y8428D01*
X217229Y7680D01*
X217792Y6784D01*
X218141Y5785D01*
X218260Y4734D01*
X218378Y3683D01*
X218727Y2684D01*
X219290Y1788D01*
X220038Y1040D01*
X220934Y477D01*
X221933Y128D01*
X222984Y10D01*
X347138D01*
X348890Y207D01*
X350554Y789D01*
X352047Y1727D01*
X353294Y2974D01*
X354232Y4467D01*
X354814Y6131D01*
X355012Y7884D01*
Y143297D01*
X354893Y144348D01*
X355012Y143297D01*
Y7884D01*
X354814Y6131D01*
X354232Y4467D01*
X353294Y2974D01*
X352047Y1727D01*
X350554Y789D01*
X348890Y207D01*
X347138Y10D01*
X222984D01*
X221933Y128D01*
X220934Y477D01*
X220038Y1040D01*
X219290Y1788D01*
X218727Y2684D01*
X218378Y3683D01*
X218260Y4734D01*
X218141Y5785D01*
X217792Y6784D01*
X217229Y7680D01*
X216481Y8428D01*
X215585Y8991D01*
X214586Y9340D01*
X213535Y9458D01*
X141488D01*
X140437Y9340D01*
X139438Y8991D01*
X138542Y8428D01*
X137794Y7680D01*
X137231Y6784D01*
X136882Y5785D01*
X136764Y4734D01*
X136645Y3683D01*
X136296Y2684D01*
X135733Y1788D01*
X134985Y1040D01*
X134089Y477D01*
X133090Y128D01*
X132039Y10D01*
X7886D01*
X6134Y207D01*
X4469Y789D01*
X2976Y1727D01*
X1729Y2974D01*
X2976Y1727D01*
X1729Y2974D02*
X791Y4467D01*
X1729Y2974D01*
X791Y4467D02*
X209Y6131D01*
X791Y4467D01*
X209Y6131D02*
X12Y7884D01*
Y143297D01*
X130Y144348D01*
X479Y145347D01*
X1042Y146242D01*
X1790Y146991D01*
X2686Y147554D01*
X3685Y147903D01*
X4736Y148021D01*
X5787Y148140D01*
X6786Y148489D01*
X7682Y149052D01*
X8430Y149800D01*
X8992Y150696D01*
X9342Y151695D01*
X9460Y152746D01*
Y224793D01*
X9342Y225844D01*
X9460Y224793D01*
Y152746D01*
X9342Y151695D01*
X8992Y150696D01*
X8430Y149800D01*
X7682Y149052D01*
X6786Y148489D01*
X5787Y148140D01*
X4736Y148021D01*
X3685Y147903D01*
X2686Y147554D01*
X1790Y146991D01*
X1042Y146242D01*
X479Y145347D01*
X130Y144348D01*
X12Y143297D01*
Y7884D01*
X209Y6131D01*
X1042Y231296D02*
X1790Y230548D01*
X2686Y229985D01*
X3685Y229636D01*
X4736Y229517D01*
X5787Y229399D01*
X6786Y229049D01*
X7682Y228487D01*
X8430Y227739D01*
X8992Y226843D01*
X9342Y225844D01*
X8992Y226843D01*
X8430Y227739D01*
X7682Y228487D01*
X6786Y229049D01*
X5787Y229399D01*
X4736Y229517D01*
X3685Y229636D01*
X2686Y229985D01*
X1790Y230548D01*
X1042Y231296D01*
X479Y232192D01*
X1042Y231296D01*
X479Y232192D02*
X130Y233190D01*
X479Y232192D01*
X130Y233190D02*
X12Y234242D01*
Y369655D01*
X209Y371407D01*
X791Y373072D01*
X1729Y374565D01*
X2976Y375811D01*
X4469Y376749D01*
X6134Y377332D01*
X7886Y377529D01*
X132039D01*
X133090Y377411D01*
X134089Y377061D01*
X134985Y376499D01*
X135733Y375750D01*
X136296Y374855D01*
X136645Y373856D01*
X136764Y372805D01*
X136882Y371754D01*
X137231Y370755D01*
X137794Y369859D01*
X138542Y369111D01*
X139438Y368548D01*
X140437Y368199D01*
X141488Y368080D01*
X213535Y368080D01*
X214586Y368199D01*
X215585Y368548D01*
X216481Y369111D01*
X217229Y369859D01*
X217792Y370755D01*
X218141Y371754D01*
X218260Y372805D01*
X218378Y373856D01*
X218727Y374855D01*
X219290Y375750D01*
X220038Y376499D01*
X220934Y377061D01*
X221933Y377411D01*
X222984Y377529D01*
X347137D01*
X348890Y377332D01*
X350554Y376749D01*
X352047Y375811D01*
X353294Y374565D01*
X354232Y373072D01*
X354814Y371407D01*
X355012Y369655D01*
Y234242D01*
Y369655D01*
X354814Y371407D01*
X354232Y373072D01*
X353294Y374565D01*
X352047Y375811D01*
X350554Y376749D01*
X348890Y377332D01*
X347137Y377529D01*
X222984D01*
X221933Y377411D01*
X220934Y377061D01*
X220038Y376499D01*
X219290Y375750D01*
X218727Y374855D01*
X218378Y373856D01*
X218260Y372805D01*
X218141Y371754D01*
X217792Y370755D01*
X217229Y369859D01*
X216481Y369111D01*
X215585Y368548D01*
X214586Y368199D01*
X213535Y368080D01*
X141488Y368080D01*
X140437Y368199D01*
X139438Y368548D01*
X138542Y369111D01*
X137794Y369859D01*
X137231Y370755D01*
X136882Y371754D01*
X136764Y372805D01*
X136645Y373856D01*
X136296Y374855D01*
X135733Y375750D01*
X134985Y376499D01*
X134089Y377061D01*
X133090Y377411D01*
X132039Y377529D01*
X7886D01*
X6134Y377332D01*
X4469Y376749D01*
X2976Y375811D01*
X1729Y374565D01*
X791Y373072D01*
X209Y371407D01*
X12Y369655D01*
Y234242D01*
X130Y233190D01*
X351339Y147903D02*
X352337Y147554D01*
X353233Y146991D01*
X353981Y146242D01*
X354544Y145347D01*
X354893Y144348D01*
X354544Y145347D01*
X353981Y146242D01*
X353233Y146991D01*
X352337Y147554D01*
X351339Y147903D01*
X350287Y148021D01*
X351339Y147903D01*
X350287Y148021D02*
X349236Y148140D01*
X350287Y148021D01*
X349236Y148140D02*
X348237Y148489D01*
X349236Y148140D01*
X348237Y148489D02*
X347341Y149052D01*
X348237Y148489D01*
X347341Y149052D02*
X346593Y149800D01*
X347341Y149052D01*
X346593Y149800D02*
X346031Y150696D01*
X346593Y149800D01*
X346031Y150696D02*
X345681Y151695D01*
X346031Y150696D01*
X345681Y151695D02*
X345563Y152746D01*
X345681Y151695D01*
X345563Y152746D02*
X345563Y224793D01*
X345681Y225844D01*
X346031Y226843D01*
X346593Y227739D01*
X347341Y228487D01*
X348237Y229049D01*
X349236Y229399D01*
X350287Y229517D01*
X351339Y229636D01*
X352337Y229985D01*
X353233Y230548D01*
X353981Y231296D01*
X354544Y232192D01*
X354893Y233190D01*
X355012Y234242D01*
X354893Y233190D01*
X354544Y232192D01*
X353981Y231296D01*
X353233Y230548D01*
X352337Y229985D01*
X351339Y229636D01*
X350287Y229517D01*
X349236Y229399D01*
X348237Y229049D01*
X347341Y228487D01*
X346593Y227739D01*
X346031Y226843D01*
X345681Y225844D01*
X345563Y224793D01*
X345563Y152746D01*
M02*
