G04*
G04 #@! TF.GenerationSoftware,Altium Limited,Altium Designer,21.7.2 (23)*
G04*
G04 Layer_Color=8388736*
%FSLAX25Y25*%
%MOIN*%
G70*
G04*
G04 #@! TF.SameCoordinates,586B0D2E-7DEF-4F54-8963-D9A3A6DEDF4E*
G04*
G04*
G04 #@! TF.FilePolarity,Negative*
G04*
G01*
G75*
%ADD10C,0.01181*%
%ADD20R,0.21654X0.08858*%
%ADD21R,0.03937X0.03937*%
%ADD22R,0.02953X0.02953*%
%ADD23R,0.02953X0.02953*%
%ADD24R,0.02362X0.03937*%
%ADD25R,0.03937X0.03937*%
%ADD26P,0.04176X4X180.0*%
%ADD27R,0.06890X0.03740*%
%ADD28R,0.12402X0.08858*%
%ADD29R,0.03740X0.06890*%
%ADD30R,0.08858X0.12402*%
%ADD31R,0.03937X0.03543*%
%ADD32R,0.03543X0.03937*%
%ADD33R,0.09055X0.02756*%
%ADD34R,0.09055X0.02756*%
%ADD35R,0.06299X0.02953*%
%ADD36R,0.06299X0.01772*%
%ADD37C,0.00945*%
%ADD38R,0.05709X0.05118*%
%ADD39R,0.05118X0.05709*%
%ADD40R,0.10827X0.04921*%
%ADD41R,0.01791X0.03691*%
%ADD42R,0.10391X0.07491*%
%ADD43R,0.02559X0.02165*%
%ADD44R,0.02559X0.03543*%
%ADD45R,0.07677X0.07677*%
%ADD46R,0.03791X0.01691*%
%ADD47R,0.03091X0.05991*%
%ADD48R,0.01691X0.03791*%
%ADD49R,0.05991X0.03091*%
%ADD50O,0.03937X0.02165*%
G04:AMPARAMS|DCode=51|XSize=124.02mil|YSize=84.65mil|CornerRadius=22.64mil|HoleSize=0mil|Usage=FLASHONLY|Rotation=180.000|XOffset=0mil|YOffset=0mil|HoleType=Round|Shape=RoundedRectangle|*
%AMROUNDEDRECTD51*
21,1,0.12402,0.03937,0,0,180.0*
21,1,0.07874,0.08465,0,0,180.0*
1,1,0.04528,-0.03937,0.01968*
1,1,0.04528,0.03937,0.01968*
1,1,0.04528,0.03937,-0.01968*
1,1,0.04528,-0.03937,-0.01968*
%
%ADD51ROUNDEDRECTD51*%
%ADD52R,0.02756X0.09055*%
%ADD53R,0.02756X0.09055*%
G04:AMPARAMS|DCode=54|XSize=155.51mil|YSize=45.28mil|CornerRadius=8.86mil|HoleSize=0mil|Usage=FLASHONLY|Rotation=90.000|XOffset=0mil|YOffset=0mil|HoleType=Round|Shape=RoundedRectangle|*
%AMROUNDEDRECTD54*
21,1,0.15551,0.02756,0,0,90.0*
21,1,0.13780,0.04528,0,0,90.0*
1,1,0.01772,0.01378,0.06890*
1,1,0.01772,0.01378,-0.06890*
1,1,0.01772,-0.01378,-0.06890*
1,1,0.01772,-0.01378,0.06890*
%
%ADD54ROUNDEDRECTD54*%
%ADD55R,0.06102X0.10039*%
G04:AMPARAMS|DCode=56|XSize=38.98mil|YSize=16.14mil|CornerRadius=4.23mil|HoleSize=0mil|Usage=FLASHONLY|Rotation=180.000|XOffset=0mil|YOffset=0mil|HoleType=Round|Shape=RoundedRectangle|*
%AMROUNDEDRECTD56*
21,1,0.03898,0.00768,0,0,180.0*
21,1,0.03051,0.01614,0,0,180.0*
1,1,0.00847,-0.01526,0.00384*
1,1,0.00847,0.01526,0.00384*
1,1,0.00847,0.01526,-0.00384*
1,1,0.00847,-0.01526,-0.00384*
%
%ADD56ROUNDEDRECTD56*%
%ADD57R,0.04724X0.12441*%
G04:AMPARAMS|DCode=58|XSize=163.39mil|YSize=64.96mil|CornerRadius=11.81mil|HoleSize=0mil|Usage=FLASHONLY|Rotation=0.000|XOffset=0mil|YOffset=0mil|HoleType=Round|Shape=RoundedRectangle|*
%AMROUNDEDRECTD58*
21,1,0.16339,0.04134,0,0,0.0*
21,1,0.13976,0.06496,0,0,0.0*
1,1,0.02362,0.06988,-0.02067*
1,1,0.02362,-0.06988,-0.02067*
1,1,0.02362,-0.06988,0.02067*
1,1,0.02362,0.06988,0.02067*
%
%ADD58ROUNDEDRECTD58*%
%ADD59R,0.10039X0.06102*%
%ADD60P,0.04176X4X270.0*%
%ADD61R,0.04921X0.10827*%
G04:AMPARAMS|DCode=62|XSize=39.76mil|YSize=16.14mil|CornerRadius=4.23mil|HoleSize=0mil|Usage=FLASHONLY|Rotation=180.000|XOffset=0mil|YOffset=0mil|HoleType=Round|Shape=RoundedRectangle|*
%AMROUNDEDRECTD62*
21,1,0.03976,0.00768,0,0,180.0*
21,1,0.03130,0.01614,0,0,180.0*
1,1,0.00847,-0.01565,0.00384*
1,1,0.00847,0.01565,0.00384*
1,1,0.00847,0.01565,-0.00384*
1,1,0.00847,-0.01565,-0.00384*
%
%ADD62ROUNDEDRECTD62*%
%ADD63R,0.03691X0.01791*%
%ADD64R,0.07491X0.10391*%
%ADD65R,0.04724X0.05709*%
G04:AMPARAMS|DCode=66|XSize=40.16mil|YSize=16.54mil|CornerRadius=4.28mil|HoleSize=0mil|Usage=FLASHONLY|Rotation=90.000|XOffset=0mil|YOffset=0mil|HoleType=Round|Shape=RoundedRectangle|*
%AMROUNDEDRECTD66*
21,1,0.04016,0.00797,0,0,90.0*
21,1,0.03160,0.01654,0,0,90.0*
1,1,0.00856,0.00399,0.01580*
1,1,0.00856,0.00399,-0.01580*
1,1,0.00856,-0.00399,-0.01580*
1,1,0.00856,-0.00399,0.01580*
%
%ADD66ROUNDEDRECTD66*%
G04:AMPARAMS|DCode=67|XSize=40.16mil|YSize=16.54mil|CornerRadius=4.28mil|HoleSize=0mil|Usage=FLASHONLY|Rotation=0.000|XOffset=0mil|YOffset=0mil|HoleType=Round|Shape=RoundedRectangle|*
%AMROUNDEDRECTD67*
21,1,0.04016,0.00797,0,0,0.0*
21,1,0.03160,0.01654,0,0,0.0*
1,1,0.00856,0.01580,-0.00399*
1,1,0.00856,-0.01580,-0.00399*
1,1,0.00856,-0.01580,0.00399*
1,1,0.00856,0.01580,0.00399*
%
%ADD67ROUNDEDRECTD67*%
%ADD68R,0.22638X0.22638*%
%ADD69R,0.02165X0.02559*%
%ADD70R,0.03543X0.02559*%
%ADD71R,0.07677X0.07677*%
G04:AMPARAMS|DCode=72|XSize=39.76mil|YSize=16.14mil|CornerRadius=4.23mil|HoleSize=0mil|Usage=FLASHONLY|Rotation=270.000|XOffset=0mil|YOffset=0mil|HoleType=Round|Shape=RoundedRectangle|*
%AMROUNDEDRECTD72*
21,1,0.03976,0.00768,0,0,270.0*
21,1,0.03130,0.01614,0,0,270.0*
1,1,0.00847,-0.00384,-0.01565*
1,1,0.00847,-0.00384,0.01565*
1,1,0.00847,0.00384,0.01565*
1,1,0.00847,0.00384,-0.01565*
%
%ADD72ROUNDEDRECTD72*%
%ADD73R,0.09016X0.09016*%
%ADD74R,0.05512X0.04528*%
%ADD75C,0.05701*%
%ADD76O,0.10433X0.08465*%
%ADD77C,0.06591*%
%ADD78R,0.06591X0.06591*%
%ADD79C,0.06299*%
%ADD80C,0.03347*%
%ADD81O,0.08858X0.04724*%
G04:AMPARAMS|DCode=82|XSize=64.96mil|YSize=45.28mil|CornerRadius=12.8mil|HoleSize=0mil|Usage=FLASHONLY|Rotation=180.000|XOffset=0mil|YOffset=0mil|HoleType=Round|Shape=RoundedRectangle|*
%AMROUNDEDRECTD82*
21,1,0.06496,0.01968,0,0,180.0*
21,1,0.03937,0.04528,0,0,180.0*
1,1,0.02559,-0.01968,0.00984*
1,1,0.02559,0.01968,0.00984*
1,1,0.02559,0.01968,-0.00984*
1,1,0.02559,-0.01968,-0.00984*
%
%ADD82ROUNDEDRECTD82*%
%ADD83C,0.04528*%
%ADD84C,0.06488*%
%ADD85R,0.06488X0.06488*%
%ADD86C,0.25591*%
G36*
X91157Y60896D02*
X88243D01*
Y62668D01*
X91157D01*
Y60896D01*
D02*
G37*
G36*
Y63455D02*
X88243D01*
Y65227D01*
X91157D01*
Y63455D01*
D02*
G37*
G36*
Y66014D02*
X88243D01*
Y67786D01*
X91157D01*
Y66014D01*
D02*
G37*
G36*
Y68573D02*
X88243D01*
Y70345D01*
X91157D01*
Y68573D01*
D02*
G37*
G36*
X97220Y69341D02*
X98440D01*
Y61900D01*
X97220D01*
Y58652D01*
X95763D01*
Y61900D01*
X94661D01*
Y58652D01*
X93204D01*
Y61900D01*
X91983D01*
Y69341D01*
X93204D01*
Y72589D01*
X94661D01*
Y69341D01*
X95763D01*
Y72589D01*
X97220D01*
Y69341D01*
D02*
G37*
G36*
X102180Y68573D02*
X99267D01*
Y70345D01*
X102180D01*
Y68573D01*
D02*
G37*
G36*
Y66014D02*
X99267D01*
Y67786D01*
X102180D01*
Y66014D01*
D02*
G37*
G36*
Y63455D02*
X99267D01*
Y65227D01*
X102180D01*
Y63455D01*
D02*
G37*
G36*
Y60896D02*
X99267D01*
Y62668D01*
X102180D01*
Y60896D01*
D02*
G37*
G36*
X191980Y75573D02*
X189067D01*
Y77345D01*
X191980D01*
Y75573D01*
D02*
G37*
G36*
X180957Y77345D02*
X180957Y75573D01*
X178043D01*
X178043Y77345D01*
X180957Y77345D01*
D02*
G37*
G36*
X180957Y73014D02*
X178043Y73014D01*
Y74786D01*
X180957D01*
Y73014D01*
D02*
G37*
G36*
X191980Y73014D02*
X189067Y73014D01*
X189067Y74786D01*
X191980D01*
X191980Y73014D01*
D02*
G37*
G36*
X191980Y70455D02*
X189067Y70455D01*
X189067Y72227D01*
X191980D01*
Y70455D01*
D02*
G37*
G36*
X180957Y72227D02*
X180957Y70455D01*
X178043Y70455D01*
X178043Y72227D01*
X180957Y72227D01*
D02*
G37*
G36*
X191980Y67896D02*
X189067D01*
Y69668D01*
X191980D01*
Y67896D01*
D02*
G37*
G36*
X180957D02*
X178043D01*
Y69668D01*
X180957D01*
Y67896D01*
D02*
G37*
G36*
X184461Y79589D02*
X184461Y76341D01*
X185563Y76341D01*
Y79589D01*
X187020Y79589D01*
Y76341D01*
X188240D01*
Y68900D01*
X187020Y68900D01*
Y65652D01*
X185563Y65652D01*
Y68900D01*
X184461D01*
Y65652D01*
X183004Y65652D01*
X183004Y68900D01*
X181783Y68900D01*
Y76341D01*
X183004D01*
X183004Y79589D01*
X184461Y79589D01*
D02*
G37*
D10*
X2976Y1727D02*
X4469Y789D01*
X6134Y207D01*
X7886Y10D01*
X132039D01*
X133090Y128D01*
X134089Y477D01*
X134985Y1040D01*
X135733Y1788D01*
X136296Y2684D01*
X136645Y3683D01*
X136764Y4734D01*
X136882Y5785D01*
X137231Y6784D01*
X137794Y7680D01*
X138542Y8428D01*
X139438Y8991D01*
X140437Y9340D01*
X141488Y9458D01*
X213535D01*
X214586Y9340D01*
X215585Y8991D01*
X216481Y8428D01*
X217229Y7680D01*
X217792Y6784D01*
X218141Y5785D01*
X218260Y4734D01*
X218378Y3683D01*
X218727Y2684D01*
X219290Y1788D01*
X220038Y1040D01*
X220934Y477D01*
X221933Y128D01*
X222984Y10D01*
X347138D01*
X348890Y207D01*
X350554Y789D01*
X352047Y1727D01*
X353294Y2974D01*
X354232Y4467D01*
X354814Y6131D01*
X355012Y7884D01*
Y143297D01*
X354893Y144348D01*
X354544Y145347D01*
X353981Y146242D01*
X353233Y146991D01*
X352337Y147554D01*
X351339Y147903D01*
X350287Y148021D01*
X349236Y148140D01*
X348237Y148489D01*
X347341Y149052D01*
X346593Y149800D01*
X346031Y150696D01*
X345681Y151695D01*
X345563Y152746D01*
X345563Y224793D01*
X345681Y225844D01*
X346031Y226843D01*
X346593Y227739D01*
X347341Y228487D01*
X348237Y229049D01*
X349236Y229399D01*
X350287Y229517D01*
X351339Y229636D01*
X352337Y229985D01*
X353233Y230548D01*
X353981Y231296D01*
X354544Y232192D01*
X354893Y233190D01*
X355012Y234242D01*
Y369655D01*
X354814Y371407D01*
X354232Y373072D01*
X353294Y374565D01*
X352047Y375811D01*
X350554Y376749D01*
X348890Y377332D01*
X347137Y377529D01*
X222984D01*
X221933Y377411D01*
X220934Y377061D01*
X220038Y376499D01*
X219290Y375750D01*
X218727Y374855D01*
X218378Y373856D01*
X218260Y372805D01*
X218141Y371754D01*
X217792Y370755D01*
X217229Y369859D01*
X216481Y369111D01*
X215585Y368548D01*
X214586Y368199D01*
X213535Y368080D01*
X141488Y368080D01*
X140437Y368199D01*
X139438Y368548D01*
X138542Y369111D01*
X137794Y369859D01*
X137231Y370755D01*
X136882Y371754D01*
X136764Y372805D01*
X136645Y373856D01*
X136296Y374855D01*
X135733Y375750D01*
X134985Y376499D01*
X134089Y377061D01*
X133090Y377411D01*
X132039Y377529D01*
X7886D01*
X6134Y377332D01*
X4469Y376749D01*
X2976Y375811D01*
X1729Y374565D01*
X791Y373072D01*
X209Y371407D01*
X12Y369655D01*
Y234242D01*
X130Y233190D01*
X479Y232192D01*
X1042Y231296D01*
X1790Y230548D01*
X2686Y229985D01*
X3685Y229636D01*
X4736Y229517D01*
X5787Y229399D01*
X6786Y229049D01*
X7682Y228487D01*
X8430Y227739D01*
X8992Y226843D01*
X9342Y225844D01*
X9460Y224793D01*
Y152746D01*
X9342Y151695D01*
X8992Y150696D01*
X8430Y149800D01*
X7682Y149052D01*
X6786Y148489D01*
X5787Y148140D01*
X4736Y148021D01*
X3685Y147903D01*
X2686Y147554D01*
X1790Y146991D01*
X1042Y146242D01*
X479Y145347D01*
X130Y144348D01*
X12Y143297D01*
Y7884D01*
X209Y6131D01*
X791Y4467D01*
X1729Y2974D01*
X2976Y1727D01*
D20*
X233268Y369587D02*
D03*
D21*
X46656Y181400D02*
D03*
X41144D02*
D03*
X102996Y116255D02*
D03*
X108508D02*
D03*
X149855Y95272D02*
D03*
X161856Y79081D02*
D03*
X167368Y79081D02*
D03*
X155367Y95272D02*
D03*
X167200Y61381D02*
D03*
X172712D02*
D03*
X82500Y54741D02*
D03*
X77556Y72641D02*
D03*
X72044D02*
D03*
X76988Y54741D02*
D03*
X314809Y231249D02*
D03*
X320320D02*
D03*
X320461Y237538D02*
D03*
X314949Y237538D02*
D03*
D22*
X17614Y43047D02*
D03*
X21551D02*
D03*
X27618Y43393D02*
D03*
X31555D02*
D03*
X89332Y55541D02*
D03*
X93269D02*
D03*
X108968Y112000D02*
D03*
X108320Y122831D02*
D03*
X104383D02*
D03*
X105032Y112000D02*
D03*
X87169Y120700D02*
D03*
X83232D02*
D03*
X126532Y147000D02*
D03*
X130468D02*
D03*
X151627Y102162D02*
D03*
X155564D02*
D03*
X179572Y62746D02*
D03*
X183509Y62746D02*
D03*
X228631Y26900D02*
D03*
X232569D02*
D03*
X262432Y54600D02*
D03*
X266369D02*
D03*
X292700Y22400D02*
D03*
X296637D02*
D03*
X311631Y25700D02*
D03*
X315568Y25700D02*
D03*
X293568Y95500D02*
D03*
X289632D02*
D03*
X281239Y105025D02*
D03*
X277302D02*
D03*
X278968Y99900D02*
D03*
X275031D02*
D03*
Y95500D02*
D03*
X278968D02*
D03*
X260869Y91400D02*
D03*
X256931D02*
D03*
X234237Y103400D02*
D03*
X230300D02*
D03*
X232132Y69200D02*
D03*
X236069D02*
D03*
X287531Y137500D02*
D03*
X291469D02*
D03*
X303486Y156248D02*
D03*
X307423D02*
D03*
X320602Y136596D02*
D03*
X324539D02*
D03*
X324388Y140890D02*
D03*
X328325D02*
D03*
X328325Y145190D02*
D03*
X324388D02*
D03*
Y149590D02*
D03*
X328325D02*
D03*
X335057Y165690D02*
D03*
X331120D02*
D03*
X325468Y165600D02*
D03*
X321532D02*
D03*
X316868D02*
D03*
X312931D02*
D03*
X311731Y160591D02*
D03*
X315668D02*
D03*
X315668Y156248D02*
D03*
X311731D02*
D03*
X307423Y160591D02*
D03*
X303486D02*
D03*
X302132Y165000D02*
D03*
X306068D02*
D03*
X290268Y216700D02*
D03*
X286332D02*
D03*
X300688Y252831D02*
D03*
X304625D02*
D03*
X291937Y259100D02*
D03*
X288000D02*
D03*
X290632Y252900D02*
D03*
X294568D02*
D03*
X279768Y283200D02*
D03*
X275832D02*
D03*
X289032Y301400D02*
D03*
X292969D02*
D03*
X246602Y316200D02*
D03*
X242665D02*
D03*
X242632Y311500D02*
D03*
X246568D02*
D03*
X207826Y260111D02*
D03*
X203889D02*
D03*
X195268Y237300D02*
D03*
X191332D02*
D03*
Y233100D02*
D03*
X195268D02*
D03*
X195268Y228900D02*
D03*
X191332Y228900D02*
D03*
X186826Y221512D02*
D03*
X182889D02*
D03*
X182857Y217212D02*
D03*
X186794D02*
D03*
X182494Y212912D02*
D03*
X178557D02*
D03*
X178557Y208612D02*
D03*
X182494D02*
D03*
X177994Y204512D02*
D03*
X177994Y200112D02*
D03*
X183157Y186926D02*
D03*
X187094D02*
D03*
X191498D02*
D03*
X195436D02*
D03*
X174057Y200112D02*
D03*
X174057Y204512D02*
D03*
X165668Y201500D02*
D03*
X161732D02*
D03*
X144511Y177424D02*
D03*
X140574D02*
D03*
X136347Y177374D02*
D03*
X132410D02*
D03*
X127566Y190352D02*
D03*
X123629D02*
D03*
X123634Y194540D02*
D03*
X127571D02*
D03*
X132322Y199111D02*
D03*
X132322Y203435D02*
D03*
X132541Y207719D02*
D03*
X136478D02*
D03*
X136547Y212019D02*
D03*
X132610D02*
D03*
X145267Y220600D02*
D03*
Y224800D02*
D03*
X145298Y228900D02*
D03*
X141361D02*
D03*
X141330Y224800D02*
D03*
Y220600D02*
D03*
X124021Y242003D02*
D03*
X120084D02*
D03*
X141377Y251480D02*
D03*
X145315D02*
D03*
X121672Y261082D02*
D03*
X117735D02*
D03*
X128385Y203435D02*
D03*
X128385Y199111D02*
D03*
X37769Y261300D02*
D03*
X33832D02*
D03*
X36433Y241717D02*
D03*
X40370D02*
D03*
X40676Y194530D02*
D03*
X36739D02*
D03*
X40132Y166500D02*
D03*
X44069D02*
D03*
D23*
X31600Y80431D02*
D03*
Y84368D02*
D03*
X38900Y69837D02*
D03*
Y65900D02*
D03*
X40336Y106863D02*
D03*
Y110800D02*
D03*
X46105Y111460D02*
D03*
X46200Y105968D02*
D03*
Y102032D02*
D03*
X46105Y115397D02*
D03*
X46100Y121231D02*
D03*
Y125169D02*
D03*
X40200Y171063D02*
D03*
X53400Y181532D02*
D03*
X57800Y181300D02*
D03*
Y177363D02*
D03*
X53400Y185468D02*
D03*
X48400Y205538D02*
D03*
Y209475D02*
D03*
X40200Y175000D02*
D03*
X95894Y133661D02*
D03*
Y129724D02*
D03*
X120131Y142517D02*
D03*
Y146454D02*
D03*
X161766Y135084D02*
D03*
Y139021D02*
D03*
X127878Y177351D02*
D03*
Y181288D02*
D03*
X119455Y190520D02*
D03*
Y194457D02*
D03*
X136598Y199331D02*
D03*
Y203269D02*
D03*
X136937Y216038D02*
D03*
Y219975D02*
D03*
X136837Y224038D02*
D03*
Y227975D02*
D03*
X138198Y232832D02*
D03*
Y236769D02*
D03*
X118637Y235207D02*
D03*
Y231270D02*
D03*
X118637Y227275D02*
D03*
Y223338D02*
D03*
X122937Y223338D02*
D03*
Y227275D02*
D03*
X128237Y212043D02*
D03*
X128237Y208106D02*
D03*
X123898Y203468D02*
D03*
Y199531D02*
D03*
X114237Y223338D02*
D03*
X114237Y227275D02*
D03*
X114437Y231438D02*
D03*
Y235375D02*
D03*
X114533Y249707D02*
D03*
Y253644D02*
D03*
X163900Y236499D02*
D03*
Y232562D02*
D03*
X177700Y221637D02*
D03*
Y217700D02*
D03*
X174100Y212968D02*
D03*
Y209032D02*
D03*
X169900Y201869D02*
D03*
Y197932D02*
D03*
X178526Y190781D02*
D03*
Y186844D02*
D03*
X186900Y208631D02*
D03*
X186900Y212568D02*
D03*
X186900Y225767D02*
D03*
Y229704D02*
D03*
Y233833D02*
D03*
Y237770D02*
D03*
Y241900D02*
D03*
Y245837D02*
D03*
X189000Y253331D02*
D03*
Y257269D02*
D03*
X168400Y245401D02*
D03*
Y241464D02*
D03*
Y236499D02*
D03*
Y232562D02*
D03*
X172900Y232562D02*
D03*
Y236499D02*
D03*
X244000Y293963D02*
D03*
Y297900D02*
D03*
X248500D02*
D03*
Y293963D02*
D03*
X248501Y302631D02*
D03*
X244001D02*
D03*
X258001Y282800D02*
D03*
X258001Y278863D02*
D03*
X262301Y278894D02*
D03*
X266602Y278994D02*
D03*
Y282931D02*
D03*
X266601Y286894D02*
D03*
Y290831D02*
D03*
X262301Y282832D02*
D03*
X266601Y294863D02*
D03*
Y298800D02*
D03*
Y302863D02*
D03*
X266601Y306800D02*
D03*
X253001Y297900D02*
D03*
Y293963D02*
D03*
X248501Y306569D02*
D03*
X244001Y306569D02*
D03*
X294600Y216537D02*
D03*
Y212600D02*
D03*
X284812Y192732D02*
D03*
Y188795D02*
D03*
X288800Y148737D02*
D03*
X288800Y144800D02*
D03*
X270705Y99687D02*
D03*
Y95750D02*
D03*
X273166Y89803D02*
D03*
Y85866D02*
D03*
X293727Y87786D02*
D03*
Y91723D02*
D03*
X240226Y91993D02*
D03*
Y95930D02*
D03*
X197112Y81650D02*
D03*
Y77713D02*
D03*
X197054Y73033D02*
D03*
Y69096D02*
D03*
X173412Y78550D02*
D03*
X173412Y74613D02*
D03*
X173412Y70550D02*
D03*
Y66613D02*
D03*
X139500Y19669D02*
D03*
Y15732D02*
D03*
X120200Y23332D02*
D03*
Y27268D02*
D03*
X115475Y23443D02*
D03*
Y19506D02*
D03*
X109340Y18429D02*
D03*
Y22366D02*
D03*
X106700Y62372D02*
D03*
Y66309D02*
D03*
Y70372D02*
D03*
Y74309D02*
D03*
X83000Y71909D02*
D03*
Y67972D02*
D03*
Y63941D02*
D03*
Y60004D02*
D03*
X71300Y26169D02*
D03*
Y22231D02*
D03*
X57300Y22569D02*
D03*
Y18632D02*
D03*
X242400Y18232D02*
D03*
Y22169D02*
D03*
X52600Y245563D02*
D03*
Y249500D02*
D03*
X30905Y249706D02*
D03*
Y253643D02*
D03*
X36100Y312632D02*
D03*
Y316568D02*
D03*
X100300Y313432D02*
D03*
X114900D02*
D03*
Y317369D02*
D03*
X100300D02*
D03*
X135100Y311299D02*
D03*
X139961D02*
D03*
X145300D02*
D03*
X150200D02*
D03*
Y315236D02*
D03*
X145300D02*
D03*
X139961D02*
D03*
X135100D02*
D03*
D24*
X52520Y145278D02*
D03*
Y154136D02*
D03*
X70902Y129229D02*
D03*
Y138087D02*
D03*
X81500Y142571D02*
D03*
Y151429D02*
D03*
D25*
X39455Y119758D02*
D03*
Y125270D02*
D03*
X77300Y66297D02*
D03*
Y60785D02*
D03*
X167612Y67625D02*
D03*
Y73137D02*
D03*
X250784Y100676D02*
D03*
X250784Y106188D02*
D03*
X329857Y120478D02*
D03*
Y125990D02*
D03*
X327157Y154934D02*
D03*
Y160446D02*
D03*
X294770Y202537D02*
D03*
X288470Y202437D02*
D03*
X290770Y193605D02*
D03*
X290770Y188093D02*
D03*
X297070D02*
D03*
Y193605D02*
D03*
X294770Y208049D02*
D03*
X288470Y207949D02*
D03*
X209100Y247756D02*
D03*
Y242244D02*
D03*
X167400Y184556D02*
D03*
Y179044D02*
D03*
X213006Y189311D02*
D03*
Y194823D02*
D03*
X158398Y233444D02*
D03*
Y238956D02*
D03*
D26*
X65530Y157717D02*
D03*
X72508Y164508D02*
D03*
X75292Y167292D02*
D03*
X68314Y160501D02*
D03*
X212076Y122673D02*
D03*
X209292Y119889D02*
D03*
X212247Y117030D02*
D03*
X215031Y119814D02*
D03*
X217890Y122652D02*
D03*
X220673Y125435D02*
D03*
X217775Y128321D02*
D03*
X214991Y125538D02*
D03*
D27*
X20606Y97919D02*
D03*
Y102840D02*
D03*
Y107762D02*
D03*
Y112683D02*
D03*
X21351Y289977D02*
D03*
Y294899D02*
D03*
Y299820D02*
D03*
Y304741D02*
D03*
X324591Y183518D02*
D03*
Y188439D02*
D03*
Y193361D02*
D03*
Y198282D02*
D03*
X333691Y93061D02*
D03*
Y88139D02*
D03*
X334291Y56861D02*
D03*
Y51939D02*
D03*
X333920Y314845D02*
D03*
Y319766D02*
D03*
Y324687D02*
D03*
Y329609D02*
D03*
D28*
X9189Y87880D02*
D03*
Y122722D02*
D03*
X9933Y279938D02*
D03*
Y314781D02*
D03*
X336009Y173479D02*
D03*
Y208321D02*
D03*
X345337Y304805D02*
D03*
Y339648D02*
D03*
X345109Y103100D02*
D03*
Y78100D02*
D03*
X345709Y66900D02*
D03*
Y41900D02*
D03*
D29*
X170018Y30709D02*
D03*
X174939D02*
D03*
X179861D02*
D03*
X184782D02*
D03*
X268418Y21309D02*
D03*
X273339D02*
D03*
X278261D02*
D03*
X283182D02*
D03*
D30*
X159979Y19291D02*
D03*
X194821D02*
D03*
X258379Y9891D02*
D03*
X293221D02*
D03*
D31*
X77951Y20691D02*
D03*
X77951Y28171D02*
D03*
X85825Y24431D02*
D03*
X126263Y17800D02*
D03*
X134137Y14060D02*
D03*
Y21540D02*
D03*
X91637Y112000D02*
D03*
X83763Y108260D02*
D03*
Y115740D02*
D03*
X162163Y207460D02*
D03*
X170037Y211200D02*
D03*
X162163Y214940D02*
D03*
X122300Y217280D02*
D03*
X122300Y209800D02*
D03*
X114426Y213540D02*
D03*
X79737Y245900D02*
D03*
X71863Y249640D02*
D03*
Y242160D02*
D03*
X65601Y249469D02*
D03*
Y256949D02*
D03*
X57727Y253209D02*
D03*
X244964Y280491D02*
D03*
X244964Y287972D02*
D03*
X252838Y284231D02*
D03*
D32*
X49360Y167263D02*
D03*
X56840D02*
D03*
X53100Y175137D02*
D03*
X238300Y27100D02*
D03*
X245780Y27100D02*
D03*
X242040Y34974D02*
D03*
X313300Y10063D02*
D03*
X317040Y17937D02*
D03*
X309560Y17937D02*
D03*
X289900Y288263D02*
D03*
X293640Y296137D02*
D03*
X286160D02*
D03*
D33*
X54064Y105900D02*
D03*
X74536D02*
D03*
D34*
X54064Y110900D02*
D03*
Y115900D02*
D03*
Y120900D02*
D03*
X74536Y110900D02*
D03*
Y115900D02*
D03*
Y120900D02*
D03*
D35*
X323941Y267605D02*
D03*
Y270754D02*
D03*
Y290046D02*
D03*
Y293195D02*
D03*
D36*
X323941Y273510D02*
D03*
Y275479D02*
D03*
X323941Y277447D02*
D03*
X323941Y279416D02*
D03*
Y281384D02*
D03*
X323941Y283353D02*
D03*
Y285321D02*
D03*
Y287290D02*
D03*
D37*
X107447Y175100D02*
D03*
X109771Y182379D02*
D03*
X130060Y156131D02*
D03*
X119900Y136600D02*
D03*
X120715Y132773D02*
D03*
X119433Y130033D02*
D03*
X119455Y117538D02*
D03*
X118900Y113800D02*
D03*
X122883Y113099D02*
D03*
X126410Y106710D02*
D03*
X131900Y104800D02*
D03*
X135900Y105500D02*
D03*
X139800Y104600D02*
D03*
X137900Y102200D02*
D03*
X133800Y101700D02*
D03*
X142337Y101590D02*
D03*
X143700Y106000D02*
D03*
X147400Y104200D02*
D03*
X159900Y109100D02*
D03*
X165994Y121766D02*
D03*
X165600Y125800D02*
D03*
X164432Y129895D02*
D03*
X161800Y127800D02*
D03*
X160000Y131700D02*
D03*
X160900Y123800D02*
D03*
X160200Y119900D02*
D03*
Y115800D02*
D03*
X164100Y117800D02*
D03*
X154643Y142393D02*
D03*
X154148Y145525D02*
D03*
X148596Y145578D02*
D03*
X145800Y143700D02*
D03*
X143753Y146246D02*
D03*
X138802Y148475D02*
D03*
D38*
X41394Y160400D02*
D03*
X53206Y160400D02*
D03*
D39*
X48400Y224394D02*
D03*
Y236206D02*
D03*
X296356Y139937D02*
D03*
Y151748D02*
D03*
X335557Y147184D02*
D03*
Y158995D02*
D03*
X302900Y203495D02*
D03*
X302900Y215305D02*
D03*
D40*
X148735Y234216D02*
D03*
Y246421D02*
D03*
X199500Y242800D02*
D03*
Y255005D02*
D03*
X275500Y305798D02*
D03*
Y318002D02*
D03*
D41*
X23959Y183819D02*
D03*
X25927Y183819D02*
D03*
X27896Y183819D02*
D03*
X29864Y183819D02*
D03*
Y195319D02*
D03*
X27896Y195319D02*
D03*
X25927D02*
D03*
X23959Y195319D02*
D03*
Y200576D02*
D03*
X25927Y200576D02*
D03*
X27896D02*
D03*
X29864Y200576D02*
D03*
Y212076D02*
D03*
X27896D02*
D03*
X25927D02*
D03*
X23959D02*
D03*
X272547Y287950D02*
D03*
X274516D02*
D03*
X276484D02*
D03*
X278453Y287950D02*
D03*
X278453Y299450D02*
D03*
X276484Y299450D02*
D03*
X274516D02*
D03*
X272547D02*
D03*
D42*
X26911Y189569D02*
D03*
Y206326D02*
D03*
X275500Y293700D02*
D03*
D43*
X277585Y88889D02*
D03*
X277585Y91251D02*
D03*
X288215D02*
D03*
X288215Y88889D02*
D03*
D44*
X277585Y85838D02*
D03*
X288215D02*
D03*
D45*
X282900Y88200D02*
D03*
D46*
X124937Y230907D02*
D03*
X132337D02*
D03*
X132337Y232706D02*
D03*
X132337Y234507D02*
D03*
Y236307D02*
D03*
X124937Y236307D02*
D03*
X124937Y234507D02*
D03*
X124937Y232706D02*
D03*
X174800Y240600D02*
D03*
Y242400D02*
D03*
X182200D02*
D03*
Y240600D02*
D03*
Y244200D02*
D03*
Y246000D02*
D03*
X174800D02*
D03*
Y244200D02*
D03*
X254201Y301631D02*
D03*
X261601D02*
D03*
Y303432D02*
D03*
X261601Y305231D02*
D03*
X261601Y307031D02*
D03*
X254201D02*
D03*
X254201Y305231D02*
D03*
X254201Y303432D02*
D03*
D47*
X128637Y233607D02*
D03*
X178500Y243300D02*
D03*
X257901Y304331D02*
D03*
D48*
X127137Y217507D02*
D03*
X128937Y217507D02*
D03*
X130737Y217507D02*
D03*
X132537Y217507D02*
D03*
Y224906D02*
D03*
X130737Y224906D02*
D03*
X128937Y224906D02*
D03*
X127137Y224906D02*
D03*
X177200Y228000D02*
D03*
X179000Y228000D02*
D03*
X180800Y228000D02*
D03*
X182600Y228000D02*
D03*
Y235400D02*
D03*
X180800Y235400D02*
D03*
X179000Y235400D02*
D03*
X177200Y235400D02*
D03*
X257101Y288032D02*
D03*
X258901Y288032D02*
D03*
X260701Y288032D02*
D03*
X262501D02*
D03*
Y295431D02*
D03*
X260701D02*
D03*
X258901Y295431D02*
D03*
X257101Y295431D02*
D03*
D49*
X129837Y221206D02*
D03*
X179900Y231700D02*
D03*
X259801Y291732D02*
D03*
D50*
X256671Y96441D02*
D03*
Y99000D02*
D03*
X265529D02*
D03*
X265529Y96441D02*
D03*
Y101559D02*
D03*
X256671Y101559D02*
D03*
D51*
X297200Y235000D02*
D03*
D52*
X304700Y224764D02*
D03*
X304700Y245236D02*
D03*
D53*
X289700Y224764D02*
D03*
X294700D02*
D03*
X299700Y224764D02*
D03*
Y245236D02*
D03*
X294700Y245236D02*
D03*
X289700Y245236D02*
D03*
D54*
X297032Y111190D02*
D03*
X306481D02*
D03*
X311300Y219900D02*
D03*
X320749D02*
D03*
D55*
X154200Y224500D02*
D03*
X166798Y224500D02*
D03*
X204701Y233200D02*
D03*
X217299D02*
D03*
X277257Y129190D02*
D03*
X289856D02*
D03*
D56*
X132700Y183330D02*
D03*
X144000Y183330D02*
D03*
Y185298D02*
D03*
Y187267D02*
D03*
Y189235D02*
D03*
Y191204D02*
D03*
X132700D02*
D03*
X132700Y189235D02*
D03*
Y187267D02*
D03*
Y185298D02*
D03*
X183426Y193075D02*
D03*
X183426Y195044D02*
D03*
X194725Y195044D02*
D03*
Y193075D02*
D03*
X194725Y197012D02*
D03*
X194725Y198981D02*
D03*
Y200949D02*
D03*
X183426D02*
D03*
X183426Y198981D02*
D03*
Y197012D02*
D03*
D57*
X138350Y187267D02*
D03*
X189076Y197012D02*
D03*
D58*
X149278Y200588D02*
D03*
Y214761D02*
D03*
X199600Y208913D02*
D03*
Y223087D02*
D03*
D59*
X153370Y178999D02*
D03*
Y191597D02*
D03*
X203952Y187955D02*
D03*
Y200554D02*
D03*
D60*
X157551Y249902D02*
D03*
X160335Y247118D02*
D03*
D61*
X278168Y113504D02*
D03*
X290372D02*
D03*
D62*
X303666Y141947D02*
D03*
Y143916D02*
D03*
Y145884D02*
D03*
Y147853D02*
D03*
X316934D02*
D03*
Y145884D02*
D03*
Y143916D02*
D03*
Y141947D02*
D03*
D63*
X296282Y124373D02*
D03*
X296282Y126341D02*
D03*
Y128310D02*
D03*
Y130278D02*
D03*
X307782Y130278D02*
D03*
Y128310D02*
D03*
Y126341D02*
D03*
X307782Y124373D02*
D03*
X312557Y124421D02*
D03*
X312557Y126390D02*
D03*
Y128358D02*
D03*
X312557Y130327D02*
D03*
X324057Y130327D02*
D03*
X324057Y128358D02*
D03*
Y126390D02*
D03*
X324057Y124421D02*
D03*
D64*
X302032Y127325D02*
D03*
X318307Y127374D02*
D03*
D65*
X101725Y129131D02*
D03*
X109009D02*
D03*
X109009Y138186D02*
D03*
X101725D02*
D03*
D66*
X129973Y111296D02*
D03*
X131942D02*
D03*
X133910D02*
D03*
X135879D02*
D03*
X137847D02*
D03*
X139816D02*
D03*
X141784D02*
D03*
X143753D02*
D03*
X145721D02*
D03*
X147690D02*
D03*
X149658D02*
D03*
X151627D02*
D03*
Y138304D02*
D03*
X149658D02*
D03*
X147690D02*
D03*
X145721D02*
D03*
X143753D02*
D03*
X141784D02*
D03*
X139816D02*
D03*
X137847D02*
D03*
X135879D02*
D03*
X133910D02*
D03*
X131942D02*
D03*
X129973D02*
D03*
D67*
X127296Y113973D02*
D03*
Y115942D02*
D03*
Y117910D02*
D03*
Y119879D02*
D03*
Y121847D02*
D03*
Y123816D02*
D03*
Y125784D02*
D03*
Y127753D02*
D03*
Y129721D02*
D03*
Y131690D02*
D03*
Y133658D02*
D03*
Y135627D02*
D03*
X154304Y123816D02*
D03*
Y121847D02*
D03*
Y119879D02*
D03*
Y117910D02*
D03*
Y115942D02*
D03*
Y113973D02*
D03*
Y125784D02*
D03*
Y127753D02*
D03*
Y129721D02*
D03*
Y131690D02*
D03*
Y133658D02*
D03*
Y135627D02*
D03*
D68*
X140800Y124800D02*
D03*
D69*
X118885Y246255D02*
D03*
X121247D02*
D03*
Y256885D02*
D03*
X118885D02*
D03*
X37688Y256910D02*
D03*
X35326Y256910D02*
D03*
Y246280D02*
D03*
X37688Y246280D02*
D03*
X233489Y99015D02*
D03*
X235851D02*
D03*
Y88385D02*
D03*
X233489D02*
D03*
D70*
X124298Y246255D02*
D03*
Y256885D02*
D03*
X40739Y256910D02*
D03*
Y246280D02*
D03*
X230438Y99015D02*
D03*
Y88385D02*
D03*
D71*
X121936Y251570D02*
D03*
X38377Y251595D02*
D03*
X232800Y93700D02*
D03*
D72*
X307347Y138266D02*
D03*
X309316D02*
D03*
X311284Y138266D02*
D03*
X313253Y138266D02*
D03*
Y151534D02*
D03*
X311284Y151534D02*
D03*
X309316D02*
D03*
X307347Y151534D02*
D03*
D73*
X310300Y144900D02*
D03*
D74*
X27908Y218252D02*
D03*
Y226126D02*
D03*
D75*
X8746Y367010D02*
D03*
X320700Y6900D02*
D03*
D76*
X42084Y78819D02*
D03*
X62084D02*
D03*
X52084Y48819D02*
D03*
X125612Y78819D02*
D03*
X145612D02*
D03*
X135612Y48819D02*
D03*
X209140Y78819D02*
D03*
X229140D02*
D03*
X219140Y48819D02*
D03*
X292667Y78819D02*
D03*
X312667D02*
D03*
X302667Y48819D02*
D03*
X312667Y267795D02*
D03*
X302667Y297795D02*
D03*
X292667Y267795D02*
D03*
X229140D02*
D03*
X219140Y297795D02*
D03*
X209140Y267795D02*
D03*
X145612D02*
D03*
X135612Y297795D02*
D03*
X125612Y267795D02*
D03*
X62084D02*
D03*
X52084Y297795D02*
D03*
X42084Y267795D02*
D03*
D77*
X21600Y51800D02*
D03*
X31600D02*
D03*
X31600Y61800D02*
D03*
X31600Y71800D02*
D03*
X21600Y61800D02*
D03*
X36300Y336600D02*
D03*
D78*
X21600Y71800D02*
D03*
X36300Y326600D02*
D03*
D79*
X205008Y327528D02*
D03*
X205012Y337528D02*
D03*
X215012D02*
D03*
X225012D02*
D03*
X225008Y327528D02*
D03*
X215008D02*
D03*
X235008D02*
D03*
X235012Y337528D02*
D03*
X245012D02*
D03*
X245008Y327528D02*
D03*
X255008D02*
D03*
X255012Y337528D02*
D03*
X265012D02*
D03*
X265008Y327528D02*
D03*
X275008D02*
D03*
X285008D02*
D03*
X285012Y337528D02*
D03*
X275012D02*
D03*
X295012D02*
D03*
X295008Y327528D02*
D03*
X305008D02*
D03*
X305012Y337528D02*
D03*
X304920Y347528D02*
D03*
X304924Y357528D02*
D03*
X294924D02*
D03*
X294920Y347528D02*
D03*
X284924Y357528D02*
D03*
X274924D02*
D03*
X274920Y347528D02*
D03*
X284920D02*
D03*
X264924Y357528D02*
D03*
X264920Y347528D02*
D03*
X254924Y357528D02*
D03*
X254920Y347528D02*
D03*
X244924Y357528D02*
D03*
X244920Y347528D02*
D03*
X234924Y357528D02*
D03*
X234920Y347528D02*
D03*
X224924Y357528D02*
D03*
X214924D02*
D03*
X214920Y347528D02*
D03*
X224920D02*
D03*
X204924Y357528D02*
D03*
X204920Y347528D02*
D03*
X194924Y357528D02*
D03*
X194920Y347528D02*
D03*
X195012Y337528D02*
D03*
X195008Y327528D02*
D03*
X184920Y347528D02*
D03*
X185012Y337528D02*
D03*
X185008Y327528D02*
D03*
X174920Y347528D02*
D03*
X175012Y337528D02*
D03*
X175008Y327528D02*
D03*
X164920Y347528D02*
D03*
X154920D02*
D03*
X155012Y337528D02*
D03*
X165012D02*
D03*
X165008Y327528D02*
D03*
X155008D02*
D03*
X144920Y347528D02*
D03*
X145012Y337528D02*
D03*
X145008Y327528D02*
D03*
X134920Y347528D02*
D03*
X135012Y337528D02*
D03*
X135008Y327528D02*
D03*
X124920Y347528D02*
D03*
X125012Y337528D02*
D03*
X125008Y327528D02*
D03*
X114920Y347528D02*
D03*
X115012Y337528D02*
D03*
X115008Y327528D02*
D03*
X104920Y347528D02*
D03*
X94920D02*
D03*
X95012Y337528D02*
D03*
X105012D02*
D03*
X105008Y327528D02*
D03*
X95008D02*
D03*
X84920Y347528D02*
D03*
X85012Y337528D02*
D03*
X85008Y327528D02*
D03*
X74920Y347528D02*
D03*
X75012Y337528D02*
D03*
X75008Y327528D02*
D03*
X64920Y347528D02*
D03*
X65012Y337528D02*
D03*
X65008Y327528D02*
D03*
X54920Y347528D02*
D03*
X55012Y337528D02*
D03*
X55008Y327528D02*
D03*
X74924Y357528D02*
D03*
X84924D02*
D03*
X94924D02*
D03*
X104924D02*
D03*
X114924D02*
D03*
X124924D02*
D03*
X134924D02*
D03*
X144924D02*
D03*
X154924D02*
D03*
X164924D02*
D03*
X174924D02*
D03*
X184924D02*
D03*
X64924D02*
D03*
X54924D02*
D03*
D80*
X329630Y269022D02*
D03*
Y291778D02*
D03*
D81*
X327543Y263392D02*
D03*
X344000D02*
D03*
X344000Y297408D02*
D03*
X327543D02*
D03*
D82*
X76500Y194430D02*
D03*
Y233800D02*
D03*
D83*
X11811Y136811D02*
D03*
Y241142D02*
D03*
X174100Y256400D02*
D03*
X179100D02*
D03*
X184100D02*
D03*
X342520Y136811D02*
D03*
X269594Y62958D02*
D03*
X264594D02*
D03*
X259594D02*
D03*
X342520Y241142D02*
D03*
D84*
X32600Y150400D02*
D03*
X32600Y175991D02*
D03*
X14884D02*
D03*
D85*
X14884Y150400D02*
D03*
D86*
X20012Y20009D02*
D03*
X335012D02*
D03*
X325012Y357529D02*
D03*
X35012D02*
D03*
M02*
