G04*
G04 #@! TF.GenerationSoftware,Altium Limited,Altium Designer,21.7.2 (23)*
G04*
G04 Layer_Physical_Order=4*
G04 Layer_Color=16711680*
%FSLAX25Y25*%
%MOIN*%
G70*
G04*
G04 #@! TF.SameCoordinates,CFC300D3-B3EF-42DF-9BA6-B8823CD68B8B*
G04*
G04*
G04 #@! TF.FilePolarity,Positive*
G04*
G01*
G75*
%ADD10C,0.01181*%
%ADD11C,0.00787*%
%ADD13C,0.00984*%
%ADD80C,0.06299*%
%ADD87R,0.02362X0.02362*%
%ADD88R,0.03347X0.03347*%
%ADD90R,0.02362X0.02362*%
%ADD92R,0.03347X0.03347*%
%ADD94P,0.03341X4X180.0*%
%ADD97R,0.03150X0.06299*%
%ADD98R,0.08268X0.11811*%
%ADD108R,0.01200X0.03100*%
%ADD109R,0.09800X0.06900*%
%ADD119R,0.02362X0.08661*%
%ADD120R,0.02362X0.08661*%
%ADD143C,0.01575*%
%ADD146C,0.01968*%
%ADD147C,0.00866*%
%ADD148C,0.03937*%
%ADD161C,0.25000*%
%ADD162C,0.04535*%
%ADD163O,0.09843X0.07874*%
%ADD164C,0.06000*%
%ADD165R,0.06000X0.06000*%
%ADD166C,0.02756*%
%ADD167O,0.08268X0.04134*%
G04:AMPARAMS|DCode=168|XSize=59.06mil|YSize=39.37mil|CornerRadius=9.84mil|HoleSize=0mil|Usage=FLASHONLY|Rotation=180.000|XOffset=0mil|YOffset=0mil|HoleType=Round|Shape=RoundedRectangle|*
%AMROUNDEDRECTD168*
21,1,0.05906,0.01968,0,0,180.0*
21,1,0.03937,0.03937,0,0,180.0*
1,1,0.01968,-0.01968,0.00984*
1,1,0.01968,0.01968,0.00984*
1,1,0.01968,0.01968,-0.00984*
1,1,0.01968,-0.01968,-0.00984*
%
%ADD168ROUNDEDRECTD168*%
%ADD169C,0.03937*%
%ADD170C,0.05898*%
%ADD171R,0.05898X0.05898*%
%ADD172C,0.01575*%
%ADD173C,0.01772*%
%ADD188R,0.03937X0.05906*%
%ADD189R,0.14173X0.07087*%
%ADD190C,0.03150*%
%ADD191R,0.11200X0.07900*%
%ADD192R,0.09100X0.18700*%
%ADD193R,0.08980X0.18700*%
G36*
X289700Y306139D02*
X289200Y305804D01*
X289070Y305858D01*
X288530D01*
X288031Y305651D01*
X287649Y305269D01*
X287442Y304770D01*
Y304230D01*
X287649Y303731D01*
X288031Y303348D01*
X288530Y303142D01*
X289070D01*
X289180Y303187D01*
X289463Y302763D01*
X264700Y278000D01*
X256285D01*
X256007Y278416D01*
X256026Y278461D01*
Y279001D01*
X255819Y279500D01*
X255700Y279619D01*
Y291300D01*
X262142Y297742D01*
X262670D01*
X263169Y297949D01*
X263551Y298331D01*
X263758Y298830D01*
Y299358D01*
X266242Y301842D01*
X266900D01*
X267190Y301899D01*
X267436Y302064D01*
X276219Y310846D01*
X276230Y310842D01*
X276770D01*
X277269Y311049D01*
X277652Y311431D01*
X277858Y311930D01*
Y312470D01*
X277652Y312969D01*
X277510Y313110D01*
X280100Y315700D01*
Y332500D01*
X289700D01*
Y306139D01*
D02*
G37*
G36*
X250400Y274000D02*
X250400Y269306D01*
X250369D01*
Y266244D01*
X250756D01*
X255100Y261900D01*
X258700D01*
X259400Y262600D01*
Y265700D01*
X264700D01*
Y260636D01*
X259164Y255100D01*
X249200D01*
X226700Y277600D01*
X175700D01*
X172400Y280900D01*
Y290800D01*
X173900Y292300D01*
X232100D01*
X250400Y274000D01*
D02*
G37*
G36*
X300000Y302100D02*
X299609Y301709D01*
X299459Y301647D01*
X298538Y300940D01*
X297832Y300019D01*
X297770Y299870D01*
X275900Y278000D01*
Y261000D01*
X266300Y251400D01*
X257100D01*
Y252500D01*
X267300Y262700D01*
Y275578D01*
X267612Y275890D01*
X267819Y276389D01*
Y276930D01*
X267612Y277429D01*
X267300Y277741D01*
Y280064D01*
X289731Y302496D01*
X289774Y302598D01*
X289835Y302690D01*
X289827Y302728D01*
X289842Y302763D01*
X289819Y302819D01*
X290500Y303500D01*
X290500Y342400D01*
X300000D01*
Y302100D01*
D02*
G37*
G36*
X252100Y233700D02*
X257100D01*
X259300Y235900D01*
Y239200D01*
X265400D01*
Y229600D01*
X260000Y224200D01*
Y223800D01*
X241200D01*
X212700Y252300D01*
X209621D01*
X209363Y252407D01*
X208822D01*
X208564Y252300D01*
X196500D01*
X193800Y255000D01*
Y260800D01*
X196100Y263100D01*
X222700D01*
X252100Y233700D01*
D02*
G37*
G36*
X129922Y179157D02*
X130421Y178950D01*
X130962D01*
X130973Y178955D01*
X133643Y176284D01*
X133889Y176120D01*
X134179Y176062D01*
X141478D01*
X141769Y176120D01*
X142015Y176284D01*
X144238Y178508D01*
X144700Y178317D01*
Y165600D01*
X136342D01*
X136189Y165969D01*
X135807Y166351D01*
X135308Y166558D01*
X134767D01*
X134268Y166351D01*
X133886Y165969D01*
X133881Y165958D01*
X118900D01*
X118610Y165901D01*
X118364Y165736D01*
X118364Y165736D01*
X118228Y165600D01*
X99000D01*
X98858Y165742D01*
Y176896D01*
X101461Y179500D01*
X122979D01*
X123131Y179349D01*
X123630Y179142D01*
X124170D01*
X124669Y179349D01*
X124821Y179500D01*
X129579D01*
X129922Y179157D01*
D02*
G37*
G36*
X225292Y370311D02*
X227384D01*
Y369647D01*
X225270Y367198D01*
X224680D01*
Y369800D01*
X224118D01*
Y370311D01*
X224680D01*
Y371944D01*
X225292D01*
Y370311D01*
D02*
G37*
%LPC*%
G36*
X264286Y293910D02*
X263746D01*
X263247Y293703D01*
X262865Y293321D01*
X262658Y292822D01*
Y292282D01*
X262865Y291782D01*
X263247Y291400D01*
X263746Y291194D01*
X264286D01*
X264786Y291400D01*
X265168Y291782D01*
X265375Y292282D01*
Y292822D01*
X265168Y293321D01*
X264786Y293703D01*
X264286Y293910D01*
D02*
G37*
G36*
X264162Y287604D02*
X263622D01*
X263123Y287397D01*
X262740Y287015D01*
X262534Y286516D01*
Y286110D01*
X262534Y286079D01*
X262034Y285979D01*
X262031Y285987D01*
X261970Y286132D01*
X261588Y286514D01*
X261089Y286721D01*
X260549D01*
X260050Y286514D01*
X259667Y286132D01*
X259461Y285633D01*
Y285092D01*
X259667Y284593D01*
X260050Y284211D01*
X260549Y284004D01*
X261089D01*
X261588Y284211D01*
X261970Y284593D01*
X262177Y285092D01*
Y285498D01*
X262177Y285529D01*
X262677Y285629D01*
X262680Y285621D01*
X262740Y285476D01*
X263123Y285094D01*
X263622Y284887D01*
X264162D01*
X264661Y285094D01*
X265043Y285476D01*
X265250Y285975D01*
Y286516D01*
X265043Y287015D01*
X264661Y287397D01*
X264162Y287604D01*
D02*
G37*
G36*
X295485Y331150D02*
X294531D01*
X293610Y330903D01*
X292784Y330426D01*
X292109Y329751D01*
X291633Y328926D01*
X291386Y328004D01*
Y327051D01*
X291633Y326130D01*
X292109Y325304D01*
X292784Y324629D01*
X293610Y324152D01*
X294531Y323905D01*
X295485D01*
X296406Y324152D01*
X297232Y324629D01*
X297906Y325304D01*
X298383Y326130D01*
X298630Y327051D01*
Y328004D01*
X298383Y328926D01*
X297906Y329751D01*
X297232Y330426D01*
X296406Y330903D01*
X295485Y331150D01*
D02*
G37*
G36*
X208123Y258505D02*
X207583D01*
X207084Y258298D01*
X206702Y257916D01*
X206495Y257417D01*
Y256876D01*
X206702Y256377D01*
X207084Y255995D01*
X207583Y255788D01*
X208123D01*
X208623Y255995D01*
X209005Y256377D01*
X209211Y256876D01*
Y257417D01*
X209005Y257916D01*
X208623Y258298D01*
X208123Y258505D01*
D02*
G37*
G36*
X226889Y369800D02*
X225292D01*
Y367956D01*
X226889Y369800D01*
D02*
G37*
%LPD*%
D10*
X2976Y1727D02*
X4469Y789D01*
X6134Y207D01*
X7886Y10D01*
X132039D01*
X133090Y128D01*
X134089Y477D01*
X134985Y1040D01*
X135733Y1788D01*
X136296Y2684D01*
X136645Y3683D01*
X136764Y4734D01*
X136882Y5785D01*
X137231Y6784D01*
X137794Y7680D01*
X138542Y8428D01*
X139438Y8991D01*
X140437Y9340D01*
X141488Y9458D01*
X213535D01*
X214586Y9340D01*
X215585Y8991D01*
X216481Y8428D01*
X217229Y7680D01*
X217792Y6784D01*
X218141Y5785D01*
X218260Y4734D01*
X218378Y3683D01*
X218727Y2684D01*
X219290Y1788D01*
X220038Y1040D01*
X220934Y477D01*
X221933Y128D01*
X222984Y10D01*
X347138D01*
X348890Y207D01*
X350554Y789D01*
X352047Y1727D01*
X353294Y2974D01*
X354232Y4467D01*
X354814Y6131D01*
X355012Y7884D01*
Y143297D01*
X354893Y144348D01*
X354544Y145347D01*
X353981Y146242D01*
X353233Y146991D01*
X352337Y147554D01*
X351339Y147903D01*
X350287Y148021D01*
X349236Y148140D01*
X348237Y148489D01*
X347341Y149052D01*
X346593Y149800D01*
X346031Y150696D01*
X345681Y151695D01*
X345563Y152746D01*
X345563Y224793D01*
X345681Y225844D01*
X346031Y226843D01*
X346593Y227739D01*
X347341Y228487D01*
X348237Y229049D01*
X349236Y229399D01*
X350287Y229517D01*
X351339Y229636D01*
X352337Y229985D01*
X353233Y230548D01*
X353981Y231296D01*
X354544Y232192D01*
X354893Y233190D01*
X355012Y234242D01*
Y369655D01*
X354814Y371407D01*
X354232Y373072D01*
X353294Y374565D01*
X352047Y375811D01*
X350554Y376749D01*
X348890Y377332D01*
X347137Y377529D01*
X222984D01*
X221933Y377411D01*
X220934Y377061D01*
X220038Y376499D01*
X219290Y375750D01*
X218727Y374855D01*
X218378Y373856D01*
X218260Y372805D01*
X218141Y371754D01*
X217792Y370755D01*
X217229Y369859D01*
X216481Y369111D01*
X215585Y368548D01*
X214586Y368199D01*
X213535Y368080D01*
X141488Y368080D01*
X140437Y368199D01*
X139438Y368548D01*
X138542Y369111D01*
X137794Y369859D01*
X137231Y370755D01*
X136882Y371754D01*
X136764Y372805D01*
X136645Y373856D01*
X136296Y374855D01*
X135733Y375750D01*
X134985Y376499D01*
X134089Y377061D01*
X133090Y377411D01*
X132039Y377529D01*
X7886D01*
X6134Y377332D01*
X4469Y376749D01*
X2976Y375811D01*
X1729Y374565D01*
X791Y373072D01*
X209Y371407D01*
X12Y369655D01*
Y234242D01*
X130Y233190D01*
X479Y232192D01*
X1042Y231296D01*
X1790Y230548D01*
X2686Y229985D01*
X3685Y229636D01*
X4736Y229517D01*
X5787Y229399D01*
X6786Y229049D01*
X7682Y228487D01*
X8430Y227739D01*
X8992Y226843D01*
X9342Y225844D01*
X9460Y224793D01*
Y152746D01*
X9342Y151695D01*
X8992Y150696D01*
X8430Y149800D01*
X7682Y149052D01*
X6786Y148489D01*
X5787Y148140D01*
X4736Y148021D01*
X3685Y147903D01*
X2686Y147554D01*
X1790Y146991D01*
X1042Y146242D01*
X479Y145347D01*
X130Y144348D01*
X12Y143297D01*
Y7884D01*
X209Y6131D01*
X791Y4467D01*
X1729Y2974D01*
X2976Y1727D01*
D11*
X24700Y45100D02*
Y45800D01*
X26400Y47500D01*
Y90904D01*
X30698Y95202D01*
X33200Y97600D02*
X35400Y99800D01*
X37600D01*
X36400Y95100D02*
Y74214D01*
X38014Y72599D01*
X31400Y88100D02*
X33200Y89900D01*
Y97600D01*
X31400Y88100D02*
X28900D01*
X82000Y124500D02*
X113200D01*
X117462Y131383D02*
Y117804D01*
X106070Y106412D01*
X110154Y103226D02*
X110280Y103100D01*
X115600D01*
X122100Y96600D01*
X139200D01*
X140200Y97600D01*
Y99200D01*
X142200Y101200D01*
X147300D01*
X148224Y105524D02*
X177601Y134901D01*
Y196701D01*
X186900Y206000D01*
X181100Y211800D01*
Y224600D01*
X177800Y227900D01*
Y238500D01*
X174188Y240600D02*
X181693D01*
X182672Y239621D01*
Y238686D01*
X182861Y238497D01*
X180400Y238700D02*
Y235683D01*
X184261Y231822D01*
X188657Y239318D02*
X192614Y243276D01*
Y258891D01*
X193075Y259352D01*
X195598D01*
X189963Y245837D02*
X188235Y244109D01*
X171322D01*
X171800Y248200D02*
X176000D01*
X179100Y251300D01*
Y256400D01*
X171425Y274300D02*
X213583D01*
X249799Y238084D01*
X251184D01*
X251700Y237568D01*
X251731Y237600D01*
X257963D01*
X260916Y243350D02*
X261900Y244334D01*
X263868Y246303D01*
Y249100D01*
Y252532D01*
X263600Y252800D01*
X261900D02*
X261500Y253200D01*
X261900Y252800D02*
Y249100D01*
Y244334D01*
X281981Y241030D02*
X302100Y261149D01*
Y273571D01*
X305722Y277193D01*
Y280571D01*
X308251Y283100D01*
X316330D01*
X316471Y283241D01*
X318312D01*
X318500Y283429D01*
X318312Y281496D02*
X318500Y281308D01*
X318312Y281119D01*
Y281496D02*
X316471D01*
X316245Y281722D01*
X308822D01*
X307100Y280000D01*
Y276622D01*
X303478Y273000D01*
Y260578D01*
X283360Y240459D01*
Y201489D01*
X233671Y151800D01*
X200899D01*
X177463Y128364D01*
X177284Y131367D02*
X178808D01*
X200619Y153178D01*
X233100D01*
X281981Y202060D01*
Y241030D01*
X258047Y264150D02*
X255525D01*
X252687Y266988D01*
X252687D01*
X251900Y267775D01*
Y267775D01*
X251900D02*
X255100Y270975D01*
Y275850D01*
X252343Y278607D01*
Y279957D01*
X245900Y286400D01*
X240003D01*
X223757Y302646D01*
X182846D01*
X159987Y279787D01*
Y248807D01*
X150684Y239504D01*
Y220715D01*
X156768Y214631D01*
X156768D01*
X162834Y208565D01*
Y206466D01*
X166700Y202600D01*
Y192877D01*
X171500Y188077D01*
Y146196D01*
X172016Y145679D01*
Y145413D01*
X173690Y147932D02*
Y147996D01*
X172800Y148886D01*
Y188700D01*
X168108Y193392D01*
Y203292D01*
X164455Y206945D01*
Y208892D01*
X152164Y221183D01*
Y238995D01*
X161839Y248670D01*
Y264714D01*
X171425Y274300D01*
X158485Y281085D02*
X181300Y303900D01*
X225000D01*
X236250Y292650D01*
X239721Y289179D01*
X253001D01*
X253189Y289367D01*
X253095D01*
X258047Y280047D02*
X258100Y280100D01*
X258047Y280047D02*
Y275650D01*
Y272853D01*
X260016Y270884D01*
X261000Y269900D01*
X261984Y270884D01*
X263953Y272853D01*
Y275650D01*
Y279553D01*
X264100Y279700D01*
X261900Y279600D02*
X261984Y279516D01*
Y275650D01*
Y270884D01*
X260016Y279384D02*
Y275650D01*
Y270884D01*
X251900Y271712D02*
X248888D01*
X248700Y271900D01*
X259700Y279700D02*
X260016Y279384D01*
X262400Y299100D02*
X257247Y293947D01*
X246176D01*
X247500Y298400D02*
X248831Y299731D01*
X256236D01*
X258095Y300795D02*
X259900Y302600D01*
X266900D01*
X276500Y312200D01*
X268400Y309100D02*
X264556Y305256D01*
X251184D01*
X258095Y300795D02*
Y298587D01*
X255507Y296000D01*
X239600D01*
X236250Y292650D01*
X233100Y298400D02*
X247500D01*
X239087Y311505D02*
X230705D01*
X226100Y306900D01*
X179879D01*
X155465Y282486D01*
Y250039D01*
X146763Y241337D01*
Y214539D01*
X156202Y205100D01*
X158400D01*
X160100Y203400D01*
Y197800D01*
X162000Y195900D01*
Y188383D01*
X159700Y186083D01*
Y131800D01*
X156700Y128800D01*
Y122888D01*
X157794Y121794D01*
X158469Y120165D02*
X158552Y120248D01*
X158848D01*
X159700Y121100D01*
Y124353D01*
X158584Y125468D01*
Y125734D01*
X158428Y125578D01*
X162600Y130972D02*
X163535Y130037D01*
Y123742D01*
X161163Y120595D02*
Y184948D01*
X163300Y187086D01*
Y196500D01*
X161400Y198400D01*
Y204000D01*
X159000Y206400D01*
X156836D01*
X148023Y215213D01*
Y240989D01*
X156965Y249930D01*
Y281865D01*
X180500Y305400D01*
X226100D01*
X233100Y298400D01*
X224665Y308465D02*
X232400Y316200D01*
X239300D01*
X224665Y308465D02*
X179230D01*
X153900Y283135D01*
Y250484D01*
X145422Y242005D01*
Y213478D01*
X155200Y203700D01*
X157600D01*
X158600Y202700D01*
Y197300D01*
X160600Y195300D01*
Y189200D01*
X158200Y186800D01*
Y176579D01*
X147933Y166313D01*
Y151007D01*
X145719Y148792D01*
X145139Y152232D02*
Y156476D01*
X142762Y158852D01*
X133652D01*
X128810Y154010D01*
X109518D01*
X98099Y165428D01*
Y177210D01*
X101500Y180611D01*
Y185031D01*
Y188831D02*
X101732Y188600D01*
X101500Y188831D02*
Y196064D01*
Y216536D02*
Y227600D01*
X117500Y243600D01*
Y263200D01*
X106223Y274477D01*
X101307D01*
Y289339D01*
X101500Y289531D01*
X96196Y289513D02*
Y302988D01*
X94323Y304862D01*
Y311877D01*
X92400Y313800D01*
X67277D01*
X61000Y320077D01*
Y323066D01*
X65008Y327073D01*
Y327528D01*
X59500Y323035D02*
Y319484D01*
X66530Y312454D01*
X91734D01*
X92944Y311244D01*
Y304839D01*
X91351Y303246D01*
Y289525D01*
X89000Y287174D01*
Y284426D01*
X91553Y281872D01*
X96046Y281868D02*
Y281965D01*
X98248Y284167D01*
Y287461D01*
X96196Y289513D01*
X116827Y302189D02*
X130298D01*
X134108Y306000D01*
X138600D01*
X142200Y308100D02*
X127000D01*
X124050Y305150D01*
X103100Y298200D02*
X101500Y296600D01*
Y293468D01*
X93846Y295305D02*
X93684Y295466D01*
Y297947D01*
X75047Y297653D02*
Y273753D01*
X85400Y263400D01*
X104500D01*
X111300Y256600D01*
Y244500D01*
X104562Y237762D01*
Y236962D01*
X98500Y230900D01*
Y226147D01*
X96191Y223838D01*
X98792Y234792D02*
X100783Y236783D01*
X100795D01*
X98867Y238768D02*
X103568D01*
X109900Y245100D01*
Y256100D01*
X104000Y262000D01*
X84900D01*
X73700Y273200D01*
Y296900D01*
X47300Y323300D01*
Y340400D01*
X50637Y343737D01*
X50637D01*
X54428Y347528D01*
X54920D01*
X51600Y342600D02*
X59993D01*
X64920Y347528D01*
X51600Y342600D02*
X48700Y339700D01*
Y324000D01*
X75047Y297653D01*
X59500Y323035D02*
X55008Y327528D01*
X79864Y259863D02*
X102937D01*
X105668Y257132D01*
Y246400D01*
X101732D02*
X101400Y246731D01*
Y254000D01*
X98867Y238768D02*
X89500Y229400D01*
Y226130D01*
X91791Y223838D01*
X80900Y203569D02*
X84031D01*
X84100Y203500D01*
X84400Y201700D02*
X88700D01*
X89700Y202700D01*
X84400Y201700D02*
X83119Y200419D01*
X81687D01*
X80900Y199632D01*
X82163Y198369D01*
Y188100D01*
X79280Y177886D02*
Y163420D01*
X82100Y160600D01*
X84900D01*
X87394Y163094D01*
Y166994D01*
X82888Y156974D02*
X79946Y159916D01*
X78966D01*
X78778Y160104D01*
X77148Y179351D02*
X69700Y186800D01*
Y234068D01*
X82032Y246400D01*
X80600Y247832D01*
Y250932D01*
X80800Y251132D01*
Y255068D02*
X80881Y255149D01*
Y257873D01*
X79864Y259863D02*
X67859Y247858D01*
Y186341D01*
X75372Y178828D01*
Y143328D01*
X85353Y133347D01*
X118253D01*
X119800Y131800D01*
Y111000D01*
X118300Y109500D01*
X122210Y106710D02*
Y131991D01*
X118988Y135212D01*
X86488D01*
X77148Y144552D01*
Y179351D01*
X86100Y188100D02*
X86500Y188500D01*
Y196064D01*
X95900Y180400D02*
Y165392D01*
X109946Y151346D01*
X128944D01*
X134630Y157032D01*
X142202D01*
X143168Y156066D01*
Y125432D01*
X148435Y120165D01*
X158469D01*
X161163Y120595D02*
X148196Y107628D01*
X137814D01*
X133894Y107794D02*
X139530Y113429D01*
Y153274D01*
X141284Y155029D01*
X137900Y144300D02*
X128498D01*
X123102Y149696D01*
X109189D01*
X99085Y159800D01*
X95600D01*
X98780Y154247D02*
X105317Y147710D01*
X111709D01*
X113922Y145545D02*
X104655D01*
X99500Y150700D01*
X113800Y157500D02*
X119300Y163000D01*
X136000D01*
X135038Y165200D02*
X118900D01*
X113400Y159700D01*
X130691Y180308D02*
X134179Y176821D01*
X141478D01*
X148494Y183836D01*
Y184094D01*
X149200Y184800D01*
X163189Y184691D02*
X164600Y186102D01*
Y197000D01*
X162700Y198900D01*
Y204600D01*
X159600Y207700D01*
X157434D01*
X149218Y215915D01*
Y240018D01*
X158485Y249286D01*
Y281085D01*
X149100Y251600D02*
X143436Y245936D01*
Y235857D01*
X136547Y228968D01*
Y209904D01*
X131026Y210820D02*
Y214700D01*
X127555Y218171D01*
Y228959D01*
X131026Y210820D02*
X139535Y202311D01*
X123900Y186676D01*
Y180500D01*
X163685Y143085D02*
X165212D01*
X166514Y144387D01*
X166780D01*
X175319Y139593D02*
Y188181D01*
X169400Y194100D01*
Y204245D01*
X165928Y207717D01*
Y209345D01*
X162200Y213073D01*
Y233500D01*
X167200Y238500D01*
Y243600D01*
X171800Y248200D01*
X174188Y240600D02*
X166150Y232562D01*
X188657Y223100D02*
Y239318D01*
X165894Y188145D02*
X167278Y189529D01*
X181300Y190000D02*
X185100Y186200D01*
X191478D01*
X199291Y194013D01*
X165894Y188145D02*
Y149055D01*
X165787Y148948D01*
Y148289D01*
X165599Y148101D01*
X163189Y147986D02*
Y184691D01*
X134200Y221200D02*
X130287Y225113D01*
Y229164D01*
X85969Y246400D02*
X86400Y246831D01*
Y254000D01*
X70267Y157087D02*
Y136233D01*
X82000Y124500D01*
X93958Y102203D02*
X110361Y85800D01*
X151500D01*
X168000Y69300D01*
X182100D01*
X186983Y64417D01*
X160998Y97100D02*
X162699Y98801D01*
X160998Y97100D02*
X144577D01*
X142904Y98773D01*
X142771D01*
X142631Y103566D02*
X150966D01*
X174000Y126600D01*
X187200D01*
X200100Y139500D01*
X226500D01*
X261700Y104300D01*
X293830Y122900D02*
X294018Y123088D01*
X295188D01*
X306400Y134300D01*
X310200Y122500D02*
X312015Y124315D01*
Y132587D01*
X321333Y146467D02*
X317000Y150800D01*
X310700D01*
X299900Y161600D01*
X300584Y151533D02*
X315391Y136725D01*
X316858D01*
X310219Y157708D02*
Y157974D01*
X309626Y158567D01*
Y165454D01*
X260916Y243350D02*
X259931Y244334D01*
Y249100D01*
Y252368D01*
X259800Y252500D01*
X258000Y252400D02*
X257963Y252363D01*
Y249100D01*
Y246303D01*
X259931Y244334D01*
X326731Y275500D02*
X329700D01*
X326731D02*
X326700Y275532D01*
X326701Y287169D02*
X326822Y287290D01*
X330110D01*
X201600Y137300D02*
X220000D01*
X237400Y119900D01*
Y96088D01*
X264594Y68894D01*
Y62958D01*
X292600Y28400D02*
Y21769D01*
X292539Y21709D01*
X187526Y123226D02*
X201600Y137300D01*
X187526Y123226D02*
X178440D01*
X176213Y130297D02*
X177284Y131367D01*
X176213Y130297D02*
X175947D01*
X171752Y132602D02*
Y136025D01*
X175319Y139593D01*
X162600Y142000D02*
X163685Y143085D01*
X162600Y142000D02*
Y130972D01*
X148224Y105524D02*
X141424D01*
X134994Y99094D01*
X138104Y99039D02*
X142631Y103566D01*
X118300Y96840D02*
Y95100D01*
Y96840D02*
X114444Y100696D01*
Y100696D01*
X144232Y29877D02*
X144316Y29793D01*
Y24784D01*
X144400Y24700D01*
X107158Y26163D02*
X106226Y27094D01*
Y27360D01*
X107158Y26163D02*
Y21709D01*
X57539D02*
X57300Y21948D01*
Y27700D01*
D13*
X116399Y223349D02*
X124250Y231200D01*
X131068D01*
X132500Y229768D01*
Y228600D01*
X132602Y228498D01*
X272637Y105819D02*
X282956Y95500D01*
X286600D01*
X310526Y134900D02*
X314000D01*
X315000Y133900D01*
X319167D01*
X319271Y133796D01*
X310526Y134900D02*
X309182Y133555D01*
X308969D01*
D80*
X205008Y327528D02*
D03*
X205012Y337528D02*
D03*
X215012D02*
D03*
X225012D02*
D03*
X225008Y327528D02*
D03*
X215008D02*
D03*
X235008D02*
D03*
X235012Y337528D02*
D03*
X245012D02*
D03*
X245008Y327528D02*
D03*
X255008D02*
D03*
X255012Y337528D02*
D03*
X265012D02*
D03*
X265008Y327528D02*
D03*
X275008D02*
D03*
X285008D02*
D03*
X285012Y337528D02*
D03*
X275012D02*
D03*
X295012D02*
D03*
X295008Y327528D02*
D03*
X305008D02*
D03*
X305012Y337528D02*
D03*
X304920Y347528D02*
D03*
X304924Y357528D02*
D03*
X294924D02*
D03*
X294920Y347528D02*
D03*
X284924Y357528D02*
D03*
X274924D02*
D03*
X274920Y347528D02*
D03*
X284920D02*
D03*
X264924Y357528D02*
D03*
X264920Y347528D02*
D03*
X254924Y357528D02*
D03*
X254920Y347528D02*
D03*
X244924Y357528D02*
D03*
X244920Y347528D02*
D03*
X234924Y357528D02*
D03*
X234920Y347528D02*
D03*
X224924Y357528D02*
D03*
X214924D02*
D03*
X214920Y347528D02*
D03*
X224920D02*
D03*
X204924Y357528D02*
D03*
X204920Y347528D02*
D03*
X194924Y357528D02*
D03*
X194920Y347528D02*
D03*
X195012Y337528D02*
D03*
X195008Y327528D02*
D03*
X184920Y347528D02*
D03*
X185012Y337528D02*
D03*
X185008Y327528D02*
D03*
X174920Y347528D02*
D03*
X175012Y337528D02*
D03*
X175008Y327528D02*
D03*
X164920Y347528D02*
D03*
X154920D02*
D03*
X155012Y337528D02*
D03*
X165012D02*
D03*
X165008Y327528D02*
D03*
X155008D02*
D03*
X144920Y347528D02*
D03*
X145012Y337528D02*
D03*
X145008Y327528D02*
D03*
X134920Y347528D02*
D03*
X135012Y337528D02*
D03*
X135008Y327528D02*
D03*
X124920Y347528D02*
D03*
X125012Y337528D02*
D03*
X125008Y327528D02*
D03*
X114920Y347528D02*
D03*
X115012Y337528D02*
D03*
X115008Y327528D02*
D03*
X104920Y347528D02*
D03*
X94920D02*
D03*
X95012Y337528D02*
D03*
X105012D02*
D03*
X105008Y327528D02*
D03*
X95008D02*
D03*
X84920Y347528D02*
D03*
X85012Y337528D02*
D03*
X85008Y327528D02*
D03*
X74920Y347528D02*
D03*
X75012Y337528D02*
D03*
X75008Y327528D02*
D03*
X64920Y347528D02*
D03*
X65012Y337528D02*
D03*
X65008Y327528D02*
D03*
X54920Y347528D02*
D03*
X55012Y337528D02*
D03*
X55008Y327528D02*
D03*
X74924Y357528D02*
D03*
X84924D02*
D03*
X94924D02*
D03*
X104924D02*
D03*
X114924D02*
D03*
X124924D02*
D03*
X134924D02*
D03*
X144924D02*
D03*
X154924D02*
D03*
X164924D02*
D03*
X174924D02*
D03*
X184924D02*
D03*
X64924D02*
D03*
X54924D02*
D03*
D87*
X82163Y188100D02*
D03*
X83500Y181200D02*
D03*
X87437D02*
D03*
X95960Y188507D02*
D03*
X92023D02*
D03*
X86100Y188100D02*
D03*
X95786Y246650D02*
D03*
X101732Y246400D02*
D03*
X105668D02*
D03*
X91849Y246650D02*
D03*
X85969Y246400D02*
D03*
X82032D02*
D03*
X176900Y270300D02*
D03*
X180837Y270300D02*
D03*
X175268Y112200D02*
D03*
X171332D02*
D03*
X182832Y112100D02*
D03*
X186768D02*
D03*
D88*
X109923Y162814D02*
D03*
Y168326D02*
D03*
X195000Y107200D02*
D03*
Y101688D02*
D03*
D90*
X80900Y199632D02*
D03*
Y203569D02*
D03*
X101500Y188969D02*
D03*
Y185031D02*
D03*
X106600Y181668D02*
D03*
Y177732D02*
D03*
X96191Y223838D02*
D03*
Y227775D02*
D03*
X91791D02*
D03*
Y223838D02*
D03*
X80800Y251132D02*
D03*
Y255068D02*
D03*
X95954Y281872D02*
D03*
Y285809D02*
D03*
X101500Y289531D02*
D03*
Y293468D02*
D03*
X93753Y295309D02*
D03*
Y291372D02*
D03*
X91553Y285809D02*
D03*
Y281872D02*
D03*
X251700Y237568D02*
D03*
Y233631D02*
D03*
X251900Y267775D02*
D03*
Y271712D02*
D03*
X326700Y275532D02*
D03*
Y279468D02*
D03*
X326701Y283231D02*
D03*
X326701Y287169D02*
D03*
D92*
X83344Y176100D02*
D03*
X88856D02*
D03*
X169644Y117400D02*
D03*
X175156D02*
D03*
D94*
X96008Y232008D02*
D03*
X98792Y234792D02*
D03*
D97*
X52618Y21709D02*
D03*
X57539D02*
D03*
X62461D02*
D03*
X67382D02*
D03*
X102236D02*
D03*
X107158D02*
D03*
X112079D02*
D03*
X117000D02*
D03*
X237618D02*
D03*
X242539D02*
D03*
X247461D02*
D03*
X252382D02*
D03*
X287618D02*
D03*
X292539D02*
D03*
X297461D02*
D03*
X302382D02*
D03*
D98*
X42579Y10291D02*
D03*
X77421Y10291D02*
D03*
X92197Y10291D02*
D03*
X127039Y10291D02*
D03*
X227579D02*
D03*
X262421D02*
D03*
X277579D02*
D03*
X312421D02*
D03*
D108*
X257963Y237600D02*
D03*
X259931Y237600D02*
D03*
X261900D02*
D03*
X263868Y237600D02*
D03*
Y249100D02*
D03*
X261900Y249100D02*
D03*
X261984Y264150D02*
D03*
X263953Y264150D02*
D03*
Y275650D02*
D03*
X261984D02*
D03*
X260016D02*
D03*
X258047D02*
D03*
Y264150D02*
D03*
X260016Y264150D02*
D03*
X259931Y249100D02*
D03*
X257963Y249100D02*
D03*
D109*
X260916Y243350D02*
D03*
X261000Y269900D02*
D03*
D119*
X101500Y196064D02*
D03*
Y216536D02*
D03*
X101307Y254005D02*
D03*
Y274477D02*
D03*
D120*
X86500Y196064D02*
D03*
X91500D02*
D03*
X96500D02*
D03*
Y216536D02*
D03*
X91500D02*
D03*
X86500D02*
D03*
X96307Y254005D02*
D03*
X91307D02*
D03*
X86308D02*
D03*
X96307Y274477D02*
D03*
X91307D02*
D03*
X86308D02*
D03*
D143*
X47400Y21600D02*
X47509Y21709D01*
X52618D01*
X67382D02*
Y23283D01*
X68169Y24071D01*
X68763D01*
X69092Y24400D01*
X77847D01*
X97900Y21700D02*
X97909Y21709D01*
X102236D01*
X117000D02*
X123109D01*
X126200Y24800D01*
X116037Y34166D02*
Y45237D01*
X125500Y42300D02*
X164866D01*
X186983Y64417D01*
X193475Y70910D01*
X194639Y88218D02*
X194677Y88256D01*
X197256D01*
X197300Y88300D01*
X195000Y101688D02*
X191688D01*
X191600Y101600D01*
X182832Y115368D02*
X182800Y115400D01*
X182832Y115368D02*
Y112100D01*
X175277Y112209D02*
Y114466D01*
X175286Y114474D01*
X175248Y114512D01*
Y117308D01*
X175156Y117400D01*
X175268Y112200D02*
X175277Y112209D01*
X175268Y112200D02*
X176419Y111050D01*
Y107183D01*
X177600Y106002D01*
X168600Y106002D02*
Y106358D01*
Y107465D01*
X168710Y107576D01*
X169264Y107650D02*
X169781Y108167D01*
X170409D01*
X171332Y109089D01*
Y112200D01*
X171350Y112218D01*
Y114509D01*
X171368Y114527D01*
X171330Y114565D01*
Y115714D01*
X169644Y117400D01*
X169264Y107650D02*
Y107022D01*
X169154Y106912D02*
X168600Y106358D01*
X125500Y42300D02*
X103459Y64341D01*
X76758Y80003D02*
X64558Y92203D01*
X49158D01*
Y115858D01*
X57200Y123900D01*
X92633Y143729D02*
X92633Y143729D01*
Y168532D01*
X91969Y169196D01*
Y172987D01*
X88856Y176100D01*
Y179781D01*
X87437Y181200D01*
X89468Y183231D01*
X91500Y185263D01*
Y196064D01*
X88000Y184700D02*
X89468Y183231D01*
X83500Y181200D02*
X83566Y181133D01*
Y168599D01*
X83633Y168532D01*
Y163737D01*
X83380Y163483D01*
Y163430D01*
X83500Y181200D02*
X80400D01*
X88000Y184700D02*
X77100D01*
X72000Y189800D01*
Y216900D01*
X88727Y233627D01*
Y240827D01*
X91400Y243500D01*
Y254000D01*
X96008Y232008D02*
X93983Y229983D01*
X96191Y227775D01*
Y223838D02*
X96346Y223684D01*
Y216691D01*
X96500Y216536D01*
Y196064D02*
Y188507D01*
X96860Y188147D01*
Y185772D01*
X96898Y185734D01*
X106600Y181668D02*
X111415D01*
X113647Y183900D01*
X113700D01*
X109923Y162814D02*
X109911Y162803D01*
Y159411D01*
X109900Y159400D01*
X91646Y216682D02*
Y223693D01*
X91791Y223838D01*
Y227775D02*
X93891Y229875D01*
Y229891D01*
X93983Y229983D01*
X93891Y230075D01*
Y229923D01*
Y229891D01*
X86500Y222700D02*
Y216536D01*
X91500D02*
X91646Y216682D01*
X96400Y243500D02*
Y254000D01*
Y274472D02*
X96223Y274649D01*
Y281691D01*
X96046Y281868D01*
Y285805D02*
X93746Y288105D01*
Y291468D01*
Y288105D02*
Y287905D01*
X91646Y285805D01*
Y281868D02*
X91523Y281745D01*
Y274595D01*
X91400Y274472D01*
X86400D02*
X86418Y274490D01*
Y280442D01*
X86436Y280459D01*
X52900Y277900D02*
Y254900D01*
X58200Y249600D01*
X52900Y277900D02*
X37300Y293500D01*
Y305700D01*
X41400Y309800D01*
Y339000D01*
X38700Y341700D01*
X26900D01*
X15948Y352652D01*
Y364337D01*
X23788Y372177D01*
X80568D01*
X89975Y362770D01*
X100200D01*
X231592D01*
X240401Y371579D01*
X332929D01*
X341245Y363263D01*
Y347897D01*
X333006Y339658D01*
Y295438D01*
X345194Y283249D01*
Y277896D01*
X333918Y266620D01*
Y256796D01*
X332544Y255423D01*
Y156123D01*
X348340Y140328D01*
Y129040D01*
X346000Y126700D01*
X350700Y128500D02*
Y141300D01*
X334814Y157186D01*
Y252814D01*
X337795Y255796D01*
Y265230D01*
X348468Y275903D01*
Y285132D01*
X337029Y296571D01*
Y338029D01*
X344600Y345600D01*
Y365234D01*
X335037Y374797D01*
X239702D01*
X229748Y364843D01*
X93072D01*
X83015Y374900D01*
X22000D01*
X12700Y365600D01*
Y350200D01*
X36300Y326600D01*
X84924Y357528D02*
Y363076D01*
X80200Y367800D01*
X94920Y347528D02*
X100200Y352807D01*
Y362770D01*
X174319Y267719D02*
X176900Y270300D01*
X174319Y267719D02*
Y256243D01*
X183867Y256695D02*
Y267395D01*
X181356Y269906D01*
X181231D01*
X180837Y270300D01*
X180792Y270345D01*
Y270470D01*
X184848Y256852D02*
X185300Y256400D01*
X326700Y279468D02*
X326700Y279469D01*
Y283231D01*
X326701Y283231D01*
X340733D01*
X342205Y281759D01*
X342259D01*
X255500Y29900D02*
X252382Y26782D01*
Y21709D01*
X237618D02*
X237000Y21091D01*
Y15400D01*
X287618Y21709D02*
Y27482D01*
X286370Y28730D01*
X286300Y28800D01*
X302382Y21709D02*
Y14571D01*
X302600Y14353D01*
Y14300D01*
D146*
X60765Y110535D02*
X92481Y78819D01*
X125612D01*
X60765Y110535D02*
Y246561D01*
X77208Y263003D01*
X85405Y267220D02*
X106180D01*
X112800Y260600D01*
Y260600D01*
X114600Y258800D01*
Y244845D01*
X114466Y244712D01*
D147*
X121465Y234876D02*
X138876D01*
X140971Y236971D01*
Y237152D01*
D148*
X42084Y57835D02*
Y78819D01*
X62084D01*
Y57835D01*
X53069Y48819D01*
X52084D01*
X51100D01*
X42084Y57835D01*
X125612D02*
Y78819D01*
X145612D01*
Y57835D01*
X136596Y48819D01*
X135612D01*
X134628D01*
X125612Y57835D01*
X194600Y110800D02*
Y111200D01*
X216800Y133400D01*
D161*
X20012Y20009D02*
D03*
X335012D02*
D03*
X325012Y357529D02*
D03*
X35012D02*
D03*
D162*
X8746Y367010D02*
D03*
X320700Y6900D02*
D03*
D163*
X42084Y78819D02*
D03*
X62084D02*
D03*
X52084Y48819D02*
D03*
X125612Y78819D02*
D03*
X145612D02*
D03*
X135612Y48819D02*
D03*
X209140Y78819D02*
D03*
X229140D02*
D03*
X219140Y48819D02*
D03*
X292667Y78819D02*
D03*
X312667D02*
D03*
X302667Y48819D02*
D03*
X312667Y267795D02*
D03*
X302667Y297795D02*
D03*
X292667Y267795D02*
D03*
X229140D02*
D03*
X219140Y297795D02*
D03*
X209140Y267795D02*
D03*
X145612D02*
D03*
X135612Y297795D02*
D03*
X125612Y267795D02*
D03*
X62084D02*
D03*
X52084Y297795D02*
D03*
X42084Y267795D02*
D03*
D164*
X21600Y51800D02*
D03*
X31600D02*
D03*
X31600Y61800D02*
D03*
X31600Y71800D02*
D03*
X21600Y61800D02*
D03*
X36300Y336600D02*
D03*
D165*
X21600Y71800D02*
D03*
X36300Y326600D02*
D03*
D166*
X329630Y269022D02*
D03*
Y291778D02*
D03*
D167*
X327543Y263392D02*
D03*
X344000D02*
D03*
X344000Y297408D02*
D03*
X327543D02*
D03*
D168*
X76500Y194430D02*
D03*
Y233800D02*
D03*
D169*
X11811Y136811D02*
D03*
Y241142D02*
D03*
X174100Y256400D02*
D03*
X179100D02*
D03*
X184100D02*
D03*
X342520Y136811D02*
D03*
X269594Y62958D02*
D03*
X264594D02*
D03*
X259594D02*
D03*
X342520Y241142D02*
D03*
D170*
X32600Y150400D02*
D03*
X32600Y175991D02*
D03*
X14884D02*
D03*
D171*
X14884Y150400D02*
D03*
D172*
X93243Y65620D02*
D03*
X95212Y63160D02*
D03*
X97180Y65620D02*
D03*
X95212Y68081D02*
D03*
D173*
X14500Y40600D02*
D03*
X24700Y45100D02*
D03*
X47400Y21600D02*
D03*
X57300Y27700D02*
D03*
Y15500D02*
D03*
X77900Y24400D02*
D03*
X81741Y20751D02*
D03*
X97909Y21709D02*
D03*
X106226Y27360D02*
D03*
X111326Y15160D02*
D03*
X126200Y24800D02*
D03*
X130700Y22100D02*
D03*
X144400Y24700D02*
D03*
X144232Y29877D02*
D03*
X170015Y24852D02*
D03*
X174936D02*
D03*
X179857D02*
D03*
X184779D02*
D03*
X225300Y28800D02*
D03*
X237070Y15330D02*
D03*
X242360Y15000D02*
D03*
X268415Y15452D02*
D03*
X271400Y15400D02*
D03*
X283179Y15452D02*
D03*
X292600Y28400D02*
D03*
X302600Y14300D02*
D03*
X309580Y22380D02*
D03*
X311324Y41062D02*
D03*
X286370Y28730D02*
D03*
X278300Y17433D02*
D03*
X255500Y29900D02*
D03*
X242200Y30300D02*
D03*
X194639Y88218D02*
D03*
X193475Y70910D02*
D03*
X200664Y69218D02*
D03*
X185012Y70160D02*
D03*
X186980Y72620D02*
D03*
X183043Y72620D02*
D03*
X185012Y75081D02*
D03*
X189766Y56487D02*
D03*
X171385Y66600D02*
D03*
X177600Y81198D02*
D03*
X162699Y98801D02*
D03*
X155543Y99528D02*
D03*
X155384Y91716D02*
D03*
X168682Y104380D02*
D03*
X168710Y107576D02*
D03*
X177598Y107660D02*
D03*
X177600Y104500D02*
D03*
X182832Y115368D02*
D03*
X178440Y123226D02*
D03*
X191600Y101600D02*
D03*
X210199Y115001D02*
D03*
X225603Y121113D02*
D03*
X227398Y119391D02*
D03*
X227384Y122924D02*
D03*
X229625Y123458D02*
D03*
X229135Y121247D02*
D03*
X247124Y100676D02*
D03*
X250612Y97549D02*
D03*
X256700Y88400D02*
D03*
X260869Y88368D02*
D03*
X261700Y104300D02*
D03*
X266500Y103900D02*
D03*
Y105800D02*
D03*
Y107700D02*
D03*
X272637Y105819D02*
D03*
X281200Y102400D02*
D03*
X286600Y95500D02*
D03*
X310200Y122500D02*
D03*
X329900Y116600D02*
D03*
X319271Y133796D02*
D03*
X312015Y132587D02*
D03*
X321333Y146467D02*
D03*
X330749Y140909D02*
D03*
X339800Y156500D02*
D03*
X339900Y159600D02*
D03*
X340000Y162700D02*
D03*
X336900Y162800D02*
D03*
X340100Y165800D02*
D03*
X330448Y183515D02*
D03*
Y188436D02*
D03*
Y193357D02*
D03*
Y198279D02*
D03*
X336762Y229862D02*
D03*
X315090Y234427D02*
D03*
X312684Y237467D02*
D03*
X312332Y231249D02*
D03*
X307003Y236034D02*
D03*
X305126Y237930D02*
D03*
X301500Y237200D02*
D03*
Y232900D02*
D03*
X288186Y252049D02*
D03*
X292900Y237200D02*
D03*
X297200D02*
D03*
Y232900D02*
D03*
X292900D02*
D03*
X287938Y229671D02*
D03*
X286200Y230800D02*
D03*
X286271Y214141D02*
D03*
X290770Y208390D02*
D03*
X292545D02*
D03*
X284781Y186016D02*
D03*
X292994Y188150D02*
D03*
X294770Y188150D02*
D03*
X299900Y161600D02*
D03*
X307800Y168600D02*
D03*
X300584Y151533D02*
D03*
X300500Y144000D02*
D03*
X307301Y142000D02*
D03*
Y147900D02*
D03*
X306400Y134300D02*
D03*
X308969Y133555D02*
D03*
X316592Y136725D02*
D03*
X313299Y141900D02*
D03*
Y147800D02*
D03*
X310300Y144900D02*
D03*
X324400Y154900D02*
D03*
X330000D02*
D03*
X318400Y160643D02*
D03*
X309626Y165454D02*
D03*
X310219Y157708D02*
D03*
X318400Y156300D02*
D03*
X287536Y140595D02*
D03*
X288254Y132824D02*
D03*
X291530D02*
D03*
X291534Y129090D02*
D03*
X288257D02*
D03*
X288157Y125590D02*
D03*
X291434D02*
D03*
X293830Y122900D02*
D03*
X346000Y126700D02*
D03*
X350700Y128500D02*
D03*
X319362Y262586D02*
D03*
X319400Y264737D02*
D03*
X320834Y266171D02*
D03*
X329700Y275500D02*
D03*
X342259Y281759D02*
D03*
X330110Y287290D02*
D03*
X320834Y294629D02*
D03*
X319400Y296063D02*
D03*
X319362Y298214D02*
D03*
X315900Y302200D02*
D03*
X318500Y283429D02*
D03*
Y281308D02*
D03*
X304093Y255436D02*
D03*
X264016Y292552D02*
D03*
X262400Y299100D02*
D03*
X263892Y286245D02*
D03*
X266460Y276660D02*
D03*
X260819Y285363D02*
D03*
X253001Y289179D02*
D03*
X254668Y278731D02*
D03*
X252933Y275624D02*
D03*
X248674Y280081D02*
D03*
X253039Y297946D02*
D03*
X256236Y299731D02*
D03*
X260000Y299500D02*
D03*
X261927Y309470D02*
D03*
X268400Y309100D02*
D03*
X276500Y312200D02*
D03*
X288800Y304500D02*
D03*
X315900Y304100D02*
D03*
Y306000D02*
D03*
X339776Y314842D02*
D03*
Y319763D02*
D03*
Y324684D02*
D03*
Y329605D02*
D03*
X326267Y330938D02*
D03*
X251184Y305256D02*
D03*
X239358Y316203D02*
D03*
X239087Y311505D02*
D03*
X241286Y306536D02*
D03*
X243949Y300333D02*
D03*
X246176Y293947D02*
D03*
X203304Y261919D02*
D03*
X207853Y257146D02*
D03*
X209093Y251049D02*
D03*
X205807Y247749D02*
D03*
X212393Y247763D02*
D03*
X215698Y236834D02*
D03*
X218974D02*
D03*
X218977Y233100D02*
D03*
X215701D02*
D03*
X215601Y229600D02*
D03*
X218877D02*
D03*
X206191Y210413D02*
D03*
X203891D02*
D03*
Y208113D02*
D03*
X206191D02*
D03*
X210276Y203056D02*
D03*
Y200956D02*
D03*
Y198856D02*
D03*
X212999Y198116D02*
D03*
X206191Y196313D02*
D03*
X203891D02*
D03*
Y194013D02*
D03*
X206191D02*
D03*
X209713Y194815D02*
D03*
X216299Y194830D02*
D03*
X201591Y208113D02*
D03*
X199291D02*
D03*
Y210413D02*
D03*
X201591D02*
D03*
X196702Y202830D02*
D03*
X190226Y201846D02*
D03*
X190199Y199553D02*
D03*
X190171Y197260D02*
D03*
X201591Y196313D02*
D03*
Y194013D02*
D03*
X199291D02*
D03*
X190144Y194967D02*
D03*
X190117Y192674D02*
D03*
X190090Y190381D02*
D03*
X188007Y197287D02*
D03*
Y199580D02*
D03*
Y201873D02*
D03*
X186900Y206000D02*
D03*
X188007Y194994D02*
D03*
Y192701D02*
D03*
Y190408D02*
D03*
X189111Y188269D02*
D03*
X181300Y190000D02*
D03*
X172224Y198277D02*
D03*
X171586Y203827D02*
D03*
X171328Y206945D02*
D03*
X167278Y189529D02*
D03*
X167628Y186858D02*
D03*
X169693Y184556D02*
D03*
X164894Y199250D02*
D03*
X156100Y198900D02*
D03*
Y201200D02*
D03*
X158600Y194100D02*
D03*
Y192000D02*
D03*
Y189900D02*
D03*
X156100Y187100D02*
D03*
Y184800D02*
D03*
X153800Y198900D02*
D03*
X151500D02*
D03*
Y201200D02*
D03*
X153800D02*
D03*
X149200D02*
D03*
Y198900D02*
D03*
X146415Y193452D02*
D03*
X149200Y184800D02*
D03*
X151500D02*
D03*
X153800D02*
D03*
Y187100D02*
D03*
X151500D02*
D03*
X143037Y173800D02*
D03*
Y170514D02*
D03*
Y167300D02*
D03*
X145139Y152232D02*
D03*
X145719Y148792D02*
D03*
X164400Y139000D02*
D03*
Y135063D02*
D03*
X158584Y125734D02*
D03*
X157794Y121794D02*
D03*
X163535Y123742D02*
D03*
X171368Y114527D02*
D03*
X175286Y114474D02*
D03*
X177463Y128364D02*
D03*
X175947Y130297D02*
D03*
X171846Y132696D02*
D03*
X172016Y145413D02*
D03*
X173690Y147932D02*
D03*
X166780Y144387D02*
D03*
X165599Y148101D02*
D03*
X163189Y147986D02*
D03*
X148699Y132749D02*
D03*
Y117000D02*
D03*
X147300Y101200D02*
D03*
X151606Y99528D02*
D03*
X142771Y98773D02*
D03*
X137814Y107628D02*
D03*
X133894Y107794D02*
D03*
X134994Y99094D02*
D03*
X138104Y99039D02*
D03*
X122210Y106710D02*
D03*
X118300Y109500D02*
D03*
Y95100D02*
D03*
X114444Y100696D02*
D03*
X110154Y103226D02*
D03*
X99565Y116255D02*
D03*
X101500Y112100D02*
D03*
X106070Y106412D02*
D03*
X93958Y102203D02*
D03*
X87658Y108303D02*
D03*
X76758Y80003D02*
D03*
X80695Y60003D02*
D03*
X95819Y55599D02*
D03*
X103459Y64341D02*
D03*
X116037Y45237D02*
D03*
X109900Y62400D02*
D03*
X132950Y117000D02*
D03*
Y132749D02*
D03*
X137900Y144300D02*
D03*
X130490Y149635D02*
D03*
X141284Y155029D02*
D03*
X136000Y163000D02*
D03*
X135038Y165200D02*
D03*
X139100Y167300D02*
D03*
Y170514D02*
D03*
Y173800D02*
D03*
X138385Y178523D02*
D03*
X139365Y180635D02*
D03*
X137281Y180662D02*
D03*
Y182955D02*
D03*
X139392Y182928D02*
D03*
X130691Y180308D02*
D03*
X137281Y185248D02*
D03*
X139419Y185221D02*
D03*
X139446Y187514D02*
D03*
X137281Y187541D02*
D03*
Y189834D02*
D03*
X139473Y189807D02*
D03*
X139500Y192100D02*
D03*
X137281Y192127D02*
D03*
X139535Y202311D02*
D03*
X136547Y209904D02*
D03*
X133963Y214991D02*
D03*
X131026Y214700D02*
D03*
X134200Y221200D02*
D03*
X141308Y222697D02*
D03*
X141300Y226800D02*
D03*
X132602Y228498D02*
D03*
X130287Y229164D02*
D03*
X132398Y238721D02*
D03*
X140971Y237152D02*
D03*
X149100Y251600D02*
D03*
X158391Y242249D02*
D03*
X161691Y238963D02*
D03*
X165197Y228134D02*
D03*
X165200Y224400D02*
D03*
X165100Y220900D02*
D03*
X159691Y209403D02*
D03*
X157521Y210314D02*
D03*
X168376Y220900D02*
D03*
X168476Y224400D02*
D03*
X168473Y228134D02*
D03*
X172882Y229759D02*
D03*
X177963Y215368D02*
D03*
X178517Y210783D02*
D03*
X191298Y231003D02*
D03*
X191254Y235203D02*
D03*
X189963Y245837D02*
D03*
X195598Y259352D02*
D03*
X198247Y258668D02*
D03*
X200882Y258689D02*
D03*
X199926Y261940D02*
D03*
X197000Y261900D02*
D03*
X186100Y252400D02*
D03*
X182000Y248200D02*
D03*
X182861Y238497D02*
D03*
X180400Y238700D02*
D03*
X184261Y231822D02*
D03*
X183907Y225735D02*
D03*
X181100Y224600D02*
D03*
X188657Y223100D02*
D03*
X177800Y238500D02*
D03*
X172904Y236498D02*
D03*
X166150Y232562D02*
D03*
X171322Y244109D02*
D03*
X164251Y246967D02*
D03*
X138751Y251416D02*
D03*
X129700Y246100D02*
D03*
X126878Y246149D02*
D03*
X126900Y243300D02*
D03*
X129800Y243200D02*
D03*
X121465Y234876D02*
D03*
X123031Y227235D02*
D03*
X127555Y228959D02*
D03*
X123017Y220549D02*
D03*
X111778Y235318D02*
D03*
X115724Y228649D02*
D03*
X116399Y223349D02*
D03*
X100844Y236689D02*
D03*
X99159Y222263D02*
D03*
X93979Y229923D02*
D03*
X86580Y222621D02*
D03*
X84031Y203569D02*
D03*
X89794Y202794D02*
D03*
X96898Y185734D02*
D03*
X95900Y180400D02*
D03*
X99895Y176088D02*
D03*
X113700Y183900D02*
D03*
X123900Y180500D02*
D03*
X121538Y190442D02*
D03*
X126170Y199104D02*
D03*
X128375Y201219D02*
D03*
X128211Y206250D02*
D03*
X87394Y166994D02*
D03*
X83380Y163430D02*
D03*
X82888Y156974D02*
D03*
X84500Y151400D02*
D03*
X99500Y150700D02*
D03*
X98780Y154247D02*
D03*
X95600Y159800D02*
D03*
X111709Y147710D02*
D03*
X113922Y145545D02*
D03*
X117462Y131383D02*
D03*
X113200Y124500D02*
D03*
X122765Y142496D02*
D03*
Y146432D02*
D03*
X126553Y149635D02*
D03*
X113800Y157500D02*
D03*
X113400Y159700D02*
D03*
X109900Y159400D02*
D03*
X79280Y177886D02*
D03*
X80400Y181200D02*
D03*
X73096Y169434D02*
D03*
X78778Y160104D02*
D03*
X70267Y157087D02*
D03*
X62985Y155380D02*
D03*
X56364Y154136D02*
D03*
X34985Y160300D02*
D03*
X26500Y177601D02*
D03*
X24300D02*
D03*
X24300Y179801D02*
D03*
X26500D02*
D03*
Y182001D02*
D03*
X24300D02*
D03*
X41039Y186212D02*
D03*
X22100Y184201D02*
D03*
Y182001D02*
D03*
Y179801D02*
D03*
X22100Y177601D02*
D03*
X35481Y133398D02*
D03*
X57244Y123905D02*
D03*
X48858Y127903D02*
D03*
X43489Y102035D02*
D03*
X37600Y99800D02*
D03*
X36400Y95100D02*
D03*
X49158Y92203D02*
D03*
X38014Y72599D02*
D03*
X28900Y88100D02*
D03*
X30698Y95202D02*
D03*
X14750Y102844D02*
D03*
Y107765D02*
D03*
Y97922D02*
D03*
Y112686D02*
D03*
X71002Y125387D02*
D03*
X29285Y225155D02*
D03*
X29246Y227104D02*
D03*
X26571D02*
D03*
X26531Y225155D02*
D03*
X43985Y232800D02*
D03*
X43900Y239300D02*
D03*
X43938Y241559D02*
D03*
X41000Y239300D02*
D03*
X58200Y249600D02*
D03*
X43938Y246078D02*
D03*
X43977Y243819D02*
D03*
X27300Y247300D02*
D03*
X15494Y289981D02*
D03*
Y294902D02*
D03*
X15452Y299791D02*
D03*
Y304712D02*
D03*
X37300Y305700D02*
D03*
X77208Y263003D02*
D03*
X80881Y257873D02*
D03*
X85405Y267220D02*
D03*
X96359Y243643D02*
D03*
X114466Y244712D02*
D03*
X93895Y287580D02*
D03*
X86436Y280459D02*
D03*
X103100Y298200D02*
D03*
X116827Y302189D02*
D03*
X124050Y305150D02*
D03*
X138600Y306000D02*
D03*
X142200Y308100D02*
D03*
X174397Y289234D02*
D03*
X177673D02*
D03*
X177676Y285500D02*
D03*
X174400D02*
D03*
X174300Y282000D02*
D03*
X177576D02*
D03*
X87900Y370200D02*
D03*
X80131Y367684D02*
D03*
X12362Y352262D02*
D03*
X93684Y297947D02*
D03*
X213677Y131913D02*
D03*
X215473Y130191D02*
D03*
X215458Y133724D02*
D03*
X217699Y134258D02*
D03*
X217210Y132047D02*
D03*
D188*
X83633Y168532D02*
D03*
X92633D02*
D03*
X101633D02*
D03*
X168600Y106002D02*
D03*
X177600Y106002D02*
D03*
X186600Y106002D02*
D03*
D189*
X92633Y143729D02*
D03*
X177600Y81198D02*
D03*
D190*
X62461Y21709D02*
Y26761D01*
X69866Y34166D01*
X116037D01*
X162809D01*
X197300Y68657D01*
Y88300D01*
Y91300D01*
X229000Y123000D01*
X266500Y96800D02*
Y103900D01*
Y105800D01*
Y107700D01*
Y96800D02*
X277700Y85600D01*
Y57700D01*
X274650Y54650D01*
X297461Y31839D01*
Y21709D01*
X274650Y54650D02*
X247461Y27461D01*
Y21709D01*
X112079Y32700D02*
X112079Y32700D01*
X112079Y32700D02*
Y21709D01*
D191*
X191200Y109450D02*
D03*
D192*
X202741Y202263D02*
D03*
D193*
X152590Y193050D02*
D03*
M02*
