G04*
G04 #@! TF.GenerationSoftware,Altium Limited,Altium Designer,21.7.2 (23)*
G04*
G04 Layer_Physical_Order=1*
G04 Layer_Color=255*
%FSLAX25Y25*%
%MOIN*%
G70*
G04*
G04 #@! TF.SameCoordinates,586B0D2E-7DEF-4F54-8963-D9A3A6DEDF4E*
G04*
G04*
G04 #@! TF.FilePolarity,Positive*
G04*
G01*
G75*
%ADD10C,0.01181*%
%ADD11C,0.00787*%
%ADD12C,0.00500*%
%ADD13C,0.00984*%
%ADD79C,0.06299*%
%ADD87R,0.03347X0.03347*%
%ADD88R,0.02362X0.02362*%
%ADD89R,0.02362X0.02362*%
%ADD90R,0.01772X0.03347*%
%ADD91R,0.03347X0.03347*%
%ADD92P,0.03341X4X180.0*%
%ADD93R,0.06299X0.03150*%
%ADD94R,0.11811X0.08268*%
%ADD95R,0.03150X0.06299*%
%ADD96R,0.08268X0.11811*%
%ADD97R,0.03543X0.03150*%
%ADD98R,0.03150X0.03543*%
%ADD99R,0.08661X0.02362*%
%ADD100R,0.08661X0.02362*%
%ADD101R,0.05709X0.02362*%
%ADD102R,0.05709X0.01181*%
%ADD103C,0.01968*%
%ADD104R,0.05118X0.04528*%
%ADD105R,0.04528X0.05118*%
%ADD106R,0.10236X0.04331*%
%ADD107R,0.01200X0.03100*%
%ADD108R,0.09800X0.06900*%
%ADD109R,0.01968X0.01575*%
%ADD110R,0.01968X0.02953*%
%ADD111R,0.07087X0.07087*%
%ADD112R,0.03200X0.01100*%
%ADD113R,0.02500X0.05400*%
%ADD114R,0.01100X0.03200*%
%ADD115R,0.05400X0.02500*%
%ADD116O,0.03347X0.01575*%
G04:AMPARAMS|DCode=117|XSize=118.11mil|YSize=78.74mil|CornerRadius=19.68mil|HoleSize=0mil|Usage=FLASHONLY|Rotation=180.000|XOffset=0mil|YOffset=0mil|HoleType=Round|Shape=RoundedRectangle|*
%AMROUNDEDRECTD117*
21,1,0.11811,0.03937,0,0,180.0*
21,1,0.07874,0.07874,0,0,180.0*
1,1,0.03937,-0.03937,0.01968*
1,1,0.03937,0.03937,0.01968*
1,1,0.03937,0.03937,-0.01968*
1,1,0.03937,-0.03937,-0.01968*
%
%ADD117ROUNDEDRECTD117*%
%ADD118R,0.02362X0.08661*%
%ADD119R,0.02362X0.08661*%
G04:AMPARAMS|DCode=120|XSize=149.61mil|YSize=39.37mil|CornerRadius=5.91mil|HoleSize=0mil|Usage=FLASHONLY|Rotation=90.000|XOffset=0mil|YOffset=0mil|HoleType=Round|Shape=RoundedRectangle|*
%AMROUNDEDRECTD120*
21,1,0.14961,0.02756,0,0,90.0*
21,1,0.13780,0.03937,0,0,90.0*
1,1,0.01181,0.01378,0.06890*
1,1,0.01181,0.01378,-0.06890*
1,1,0.01181,-0.01378,-0.06890*
1,1,0.01181,-0.01378,0.06890*
%
%ADD120ROUNDEDRECTD120*%
%ADD121R,0.05512X0.09449*%
G04:AMPARAMS|DCode=122|XSize=33.07mil|YSize=10.24mil|CornerRadius=1.28mil|HoleSize=0mil|Usage=FLASHONLY|Rotation=180.000|XOffset=0mil|YOffset=0mil|HoleType=Round|Shape=RoundedRectangle|*
%AMROUNDEDRECTD122*
21,1,0.03307,0.00768,0,0,180.0*
21,1,0.03051,0.01024,0,0,180.0*
1,1,0.00256,-0.01526,0.00384*
1,1,0.00256,0.01526,0.00384*
1,1,0.00256,0.01526,-0.00384*
1,1,0.00256,-0.01526,-0.00384*
%
%ADD122ROUNDEDRECTD122*%
%ADD123R,0.04134X0.11850*%
G04:AMPARAMS|DCode=124|XSize=157.48mil|YSize=59.06mil|CornerRadius=8.86mil|HoleSize=0mil|Usage=FLASHONLY|Rotation=0.000|XOffset=0mil|YOffset=0mil|HoleType=Round|Shape=RoundedRectangle|*
%AMROUNDEDRECTD124*
21,1,0.15748,0.04134,0,0,0.0*
21,1,0.13976,0.05906,0,0,0.0*
1,1,0.01772,0.06988,-0.02067*
1,1,0.01772,-0.06988,-0.02067*
1,1,0.01772,-0.06988,0.02067*
1,1,0.01772,0.06988,0.02067*
%
%ADD124ROUNDEDRECTD124*%
%ADD125R,0.09449X0.05512*%
%ADD126P,0.03341X4X270.0*%
G04:AMPARAMS|DCode=127|XSize=23.62mil|YSize=12.21mil|CornerRadius=1.53mil|HoleSize=0mil|Usage=FLASHONLY|Rotation=0.000|XOffset=0mil|YOffset=0mil|HoleType=Round|Shape=RoundedRectangle|*
%AMROUNDEDRECTD127*
21,1,0.02362,0.00915,0,0,0.0*
21,1,0.02057,0.01221,0,0,0.0*
1,1,0.00305,0.01029,-0.00458*
1,1,0.00305,-0.01029,-0.00458*
1,1,0.00305,-0.01029,0.00458*
1,1,0.00305,0.01029,0.00458*
%
%ADD127ROUNDEDRECTD127*%
%ADD128R,0.05906X0.06890*%
%ADD129R,0.04331X0.10236*%
G04:AMPARAMS|DCode=130|XSize=33.86mil|YSize=10.24mil|CornerRadius=1.28mil|HoleSize=0mil|Usage=FLASHONLY|Rotation=180.000|XOffset=0mil|YOffset=0mil|HoleType=Round|Shape=RoundedRectangle|*
%AMROUNDEDRECTD130*
21,1,0.03386,0.00768,0,0,180.0*
21,1,0.03130,0.01024,0,0,180.0*
1,1,0.00256,-0.01565,0.00384*
1,1,0.00256,0.01565,0.00384*
1,1,0.00256,0.01565,-0.00384*
1,1,0.00256,-0.01565,-0.00384*
%
%ADD130ROUNDEDRECTD130*%
%ADD131R,0.03100X0.01200*%
%ADD132R,0.06900X0.09800*%
%ADD133R,0.04134X0.05118*%
G04:AMPARAMS|DCode=134|XSize=34.25mil|YSize=10.63mil|CornerRadius=1.33mil|HoleSize=0mil|Usage=FLASHONLY|Rotation=90.000|XOffset=0mil|YOffset=0mil|HoleType=Round|Shape=RoundedRectangle|*
%AMROUNDEDRECTD134*
21,1,0.03425,0.00797,0,0,90.0*
21,1,0.03160,0.01063,0,0,90.0*
1,1,0.00266,0.00399,0.01580*
1,1,0.00266,0.00399,-0.01580*
1,1,0.00266,-0.00399,-0.01580*
1,1,0.00266,-0.00399,0.01580*
%
%ADD134ROUNDEDRECTD134*%
G04:AMPARAMS|DCode=135|XSize=34.25mil|YSize=10.63mil|CornerRadius=1.33mil|HoleSize=0mil|Usage=FLASHONLY|Rotation=0.000|XOffset=0mil|YOffset=0mil|HoleType=Round|Shape=RoundedRectangle|*
%AMROUNDEDRECTD135*
21,1,0.03425,0.00797,0,0,0.0*
21,1,0.03160,0.01063,0,0,0.0*
1,1,0.00266,0.01580,-0.00399*
1,1,0.00266,-0.01580,-0.00399*
1,1,0.00266,-0.01580,0.00399*
1,1,0.00266,0.01580,0.00399*
%
%ADD135ROUNDEDRECTD135*%
%ADD136R,0.22047X0.22047*%
%ADD137R,0.01575X0.01968*%
%ADD138R,0.02953X0.01968*%
%ADD139R,0.07087X0.07087*%
G04:AMPARAMS|DCode=140|XSize=33.86mil|YSize=10.24mil|CornerRadius=1.28mil|HoleSize=0mil|Usage=FLASHONLY|Rotation=270.000|XOffset=0mil|YOffset=0mil|HoleType=Round|Shape=RoundedRectangle|*
%AMROUNDEDRECTD140*
21,1,0.03386,0.00768,0,0,270.0*
21,1,0.03130,0.01024,0,0,270.0*
1,1,0.00256,-0.00384,-0.01565*
1,1,0.00256,-0.00384,0.01565*
1,1,0.00256,0.00384,0.01565*
1,1,0.00256,0.00384,-0.01565*
%
%ADD140ROUNDEDRECTD140*%
%ADD141R,0.08425X0.08425*%
%ADD142R,0.04921X0.03937*%
%ADD143C,0.01575*%
%ADD144C,0.02362*%
%ADD145C,0.01968*%
%ADD146C,0.00866*%
%ADD147C,0.03937*%
%ADD148C,0.05118*%
%ADD149R,0.08300X0.06700*%
%ADD150R,0.08700X0.13600*%
%ADD151R,0.25600X0.14700*%
%ADD152R,0.08100X0.05000*%
%ADD153R,0.05800X0.09100*%
%ADD154R,0.04131X0.05357*%
%ADD155R,0.03600X0.10256*%
%ADD156R,0.09200X0.06700*%
%ADD157R,0.13978X0.20574*%
%ADD158R,0.06500X0.14600*%
%ADD159R,0.13800X0.20300*%
%ADD160R,0.07603X0.08965*%
%ADD161C,0.04535*%
%ADD162O,0.09843X0.07874*%
%ADD163C,0.06000*%
%ADD164R,0.06000X0.06000*%
%ADD165C,0.02756*%
%ADD166O,0.08268X0.04134*%
G04:AMPARAMS|DCode=167|XSize=59.06mil|YSize=39.37mil|CornerRadius=9.84mil|HoleSize=0mil|Usage=FLASHONLY|Rotation=180.000|XOffset=0mil|YOffset=0mil|HoleType=Round|Shape=RoundedRectangle|*
%AMROUNDEDRECTD167*
21,1,0.05906,0.01968,0,0,180.0*
21,1,0.03937,0.03937,0,0,180.0*
1,1,0.01968,-0.01968,0.00984*
1,1,0.01968,0.01968,0.00984*
1,1,0.01968,0.01968,-0.00984*
1,1,0.01968,-0.01968,-0.00984*
%
%ADD167ROUNDEDRECTD167*%
%ADD168C,0.03937*%
%ADD169C,0.05898*%
%ADD170R,0.05898X0.05898*%
%ADD171C,0.01575*%
%ADD172C,0.01772*%
%ADD173C,0.25000*%
G36*
X280200Y315900D02*
X276258D01*
Y318002D01*
X276201Y318292D01*
X276036Y318538D01*
X275790Y318703D01*
X275500Y318761D01*
X275210Y318703D01*
X274964Y318538D01*
X274799Y318292D01*
X274742Y318002D01*
Y315900D01*
X270000D01*
Y362400D01*
X280200D01*
Y315900D01*
D02*
G37*
G36*
X314339Y290146D02*
Y275000D01*
X314458Y274403D01*
X314796Y273896D01*
X317900Y270792D01*
Y265196D01*
X317801Y264699D01*
Y262586D01*
X314718Y262000D01*
X287200D01*
Y260631D01*
X286469D01*
Y258641D01*
X285564Y257736D01*
X285399Y257490D01*
X285342Y257200D01*
Y249900D01*
X285399Y249610D01*
X285564Y249364D01*
X286291Y248637D01*
X286537Y248473D01*
X286827Y248415D01*
X287200D01*
Y232678D01*
X286813Y232361D01*
X286200Y232361D01*
X285603Y232242D01*
X285096Y231904D01*
X284758Y231397D01*
Y231397D01*
X284639Y230800D01*
X284758Y230203D01*
X284758Y230203D01*
X285096Y229696D01*
X285603Y229358D01*
X286158Y229247D01*
X286837Y228569D01*
X286837Y228569D01*
X287200Y228206D01*
Y220713D01*
X284800Y218231D01*
X284800D01*
X284800Y218231D01*
Y215169D01*
X284913Y214411D01*
X284913Y214411D01*
X284913Y214411D01*
Y213871D01*
X285120Y213372D01*
X285120Y213372D01*
X285120Y213372D01*
X285502Y212990D01*
X285502Y212990D01*
X285814Y212860D01*
X286446Y209973D01*
X286446D01*
Y205926D01*
X287200D01*
Y194400D01*
X280300Y187500D01*
Y109686D01*
X279708Y106556D01*
Y103494D01*
X276597Y103400D01*
X265968D01*
X263456Y103944D01*
X263058Y104030D01*
X263058Y104570D01*
X262852Y105069D01*
X262469Y105452D01*
X261970Y105658D01*
X261970Y105658D01*
X261430Y105658D01*
X260931Y105452D01*
X260931D01*
X260548Y105069D01*
X260342Y104570D01*
X260342Y104030D01*
X259944Y103944D01*
X257432Y103400D01*
X240300D01*
X194648Y149052D01*
X174491D01*
X174459Y149084D01*
X173960Y149290D01*
X173420D01*
X171423Y150200D01*
X170832Y150640D01*
X167736Y153736D01*
X167490Y153901D01*
X167200Y153958D01*
X149714D01*
X137936Y165736D01*
X137690Y165901D01*
X137416Y165955D01*
Y173216D01*
X140064Y175864D01*
X140400D01*
X140471Y175893D01*
X142105D01*
Y177905D01*
X146100Y181900D01*
X199900D01*
X210698Y192698D01*
X213806Y192799D01*
X215029Y192799D01*
X215630Y193204D01*
X215722Y193266D01*
X216569Y193472D01*
X217068Y193679D01*
X217068Y193679D01*
X217450Y194061D01*
Y194061D01*
X217657Y194560D01*
Y195100D01*
X217657Y195100D01*
X217450Y195599D01*
Y195599D01*
X217068Y195982D01*
X217113Y199113D01*
X220934Y202934D01*
Y246866D01*
X209317Y258483D01*
X209357Y258580D01*
Y261643D01*
X206295D01*
X206198Y261602D01*
X203800Y264000D01*
Y301900D01*
X239718D01*
X241301Y301185D01*
X242469Y299431D01*
Y296369D01*
Y292432D01*
X242842Y289437D01*
Y286047D01*
X243284D01*
X243606Y285566D01*
X242842Y282416D01*
X242842D01*
Y278567D01*
X246028D01*
Y278567D01*
X247085Y278567D01*
X247958Y278670D01*
X248944Y278723D01*
X249152Y278809D01*
X251467Y277492D01*
X251914Y277175D01*
X252041Y276832D01*
X251782Y276393D01*
X251682Y276153D01*
X251676Y276144D01*
X251674Y276134D01*
X251575Y275894D01*
X251575Y275894D01*
X251575Y275635D01*
X251573Y275624D01*
X251573Y275624D01*
X251575Y275613D01*
Y275354D01*
X251575Y275354D01*
X251575Y275354D01*
X251674Y275114D01*
X251676Y275103D01*
X251682Y275094D01*
X251782Y274854D01*
X251965Y274671D01*
X251971Y274662D01*
X251971Y274662D01*
X251980Y274656D01*
X252164Y274472D01*
X252164Y274472D01*
X252403Y274373D01*
X252413Y274367D01*
X252413Y274367D01*
X252423Y274365D01*
X252663Y274266D01*
X252663Y274266D01*
X252923D01*
X252933Y274263D01*
X254485Y274263D01*
X260252D01*
X260772Y274367D01*
X261214Y274662D01*
X261898Y275346D01*
X263551Y275633D01*
X265648Y275514D01*
X266190Y275301D01*
X266731D01*
X266731Y275301D01*
X267230Y275508D01*
X267230D01*
X267230Y275508D01*
X267612Y275890D01*
X267612D01*
X267819Y276389D01*
X267819Y276389D01*
X267819Y276782D01*
X268133Y277463D01*
X268133Y277870D01*
X268133Y277870D01*
X268133Y278283D01*
Y280526D01*
Y284463D01*
X268132Y285363D01*
Y287628D01*
X269753Y289367D01*
X270671Y289900D01*
X274374D01*
X276305Y289869D01*
X276882Y289288D01*
X277503Y288663D01*
Y286050D01*
X277695Y285910D01*
Y284516D01*
X278237Y281669D01*
X278425D01*
Y281669D01*
X280422D01*
Y281669D01*
X281300D01*
X281300Y281669D01*
X282001Y282442D01*
X285034Y282442D01*
X285324Y282499D01*
X285570Y282664D01*
X289048Y286141D01*
X291825Y286141D01*
Y290385D01*
X287975D01*
X287975Y287214D01*
X284994Y284232D01*
X281705Y284284D01*
X281301Y284730D01*
X281300Y284731D01*
X280844Y285299D01*
X280844D01*
X279403Y287095D01*
Y287308D01*
X280750Y289900D01*
X280750Y292442D01*
Y297500D01*
X279403Y297550D01*
Y301350D01*
X281549Y301754D01*
X283088Y300741D01*
X284322Y298871D01*
X284235Y298259D01*
X284235D01*
Y294015D01*
X288085D01*
X288085Y295359D01*
X289971Y296669D01*
X291715Y295773D01*
Y294015D01*
X295565D01*
Y298259D01*
X295565D01*
X295240Y298750D01*
X296692Y301900D01*
X314339D01*
Y290146D01*
D02*
G37*
G36*
X151441Y291339D02*
Y266732D01*
X140614Y255906D01*
X120451D01*
X120451Y289851D01*
X132765Y302165D01*
X140614D01*
X151441Y291339D01*
D02*
G37*
G36*
X67913D02*
Y266732D01*
X57087Y255906D01*
X36923D01*
Y290860D01*
X48228Y302165D01*
X57087D01*
X67913Y291339D01*
D02*
G37*
G36*
X190000Y323400D02*
X203700Y309700D01*
Y302237D01*
X203532Y302168D01*
X203421Y301900D01*
Y264000D01*
X203532Y263732D01*
X205100Y262164D01*
Y252800D01*
X194400Y252900D01*
X180000Y267300D01*
Y362300D01*
X190000D01*
Y323400D01*
D02*
G37*
G36*
X179621Y269521D02*
X154300Y244200D01*
X149493D01*
Y246421D01*
X149436Y246711D01*
X149271Y246957D01*
X149025Y247121D01*
X148735Y247179D01*
X148445Y247121D01*
X148199Y246957D01*
X148035Y246711D01*
X147977Y246421D01*
Y244200D01*
X143600D01*
Y258200D01*
X152500Y267100D01*
Y306112D01*
X170100Y323712D01*
Y362300D01*
X179621D01*
Y269521D01*
D02*
G37*
G36*
X208375Y195135D02*
X208355Y195086D01*
Y194545D01*
X208375Y194496D01*
Y191300D01*
X199853Y191300D01*
X197491Y193663D01*
X197330Y193770D01*
X196757Y194343D01*
X196175Y194500D01*
Y195544D01*
X196875Y196244D01*
X199675D01*
X200879Y197448D01*
X208375D01*
Y195135D01*
D02*
G37*
G36*
X157800Y182400D02*
X148000D01*
X145600Y184800D01*
X144130Y185307D01*
X144213Y185800D01*
X145600D01*
X146300Y186500D01*
X149100D01*
X150800Y188200D01*
X157800D01*
Y182400D01*
D02*
G37*
G36*
X337800Y149700D02*
Y130391D01*
X337100Y129691D01*
X331209Y123800D01*
X326100D01*
Y130900D01*
X329400D01*
X332000Y133500D01*
Y140380D01*
X332107Y140639D01*
Y141180D01*
X332000Y141439D01*
Y148400D01*
X334296Y150696D01*
X336804D01*
X337800Y149700D01*
D02*
G37*
G36*
X186744Y76065D02*
X187965D01*
Y69176D01*
X186744Y69176D01*
X186744Y65927D01*
X185839Y65928D01*
X185839Y69176D01*
X184185D01*
X184185Y65928D01*
X183280Y65927D01*
Y69176D01*
X182059D01*
Y76065D01*
X183280D01*
Y79313D01*
X184185D01*
X184185Y76065D01*
X185839Y76065D01*
X185839Y79313D01*
X186744D01*
X186744Y76065D01*
D02*
G37*
G36*
X96944Y69065D02*
X98165D01*
Y62176D01*
X96944D01*
Y58928D01*
X96039D01*
Y62176D01*
X94385D01*
Y58928D01*
X93480D01*
Y62176D01*
X92259D01*
Y69065D01*
X93480D01*
Y72313D01*
X94385D01*
Y69065D01*
X96039D01*
Y72313D01*
X96944D01*
Y69065D01*
D02*
G37*
G36*
X308774Y89729D02*
X308774Y89729D01*
X318234Y80269D01*
X318234D01*
Y55663D01*
X307407Y44836D01*
X298549D01*
X287244Y56142D01*
Y89729D01*
X308774Y89729D01*
D02*
G37*
G36*
X234301Y55754D02*
X222996Y44449D01*
X214137D01*
X203310Y55276D01*
Y79882D01*
X203311D01*
X212770Y89342D01*
X234301Y89342D01*
Y55754D01*
D02*
G37*
G36*
X242455Y371470D02*
X241595D01*
Y368284D01*
X242455D01*
Y367854D01*
X242375D01*
X242288Y367847D01*
X242186Y367840D01*
X242069Y367818D01*
X241952Y367796D01*
X241836Y367759D01*
X241741Y367716D01*
X241734Y367708D01*
X241705Y367686D01*
X241668Y367650D01*
X241617Y367599D01*
X241573Y367526D01*
X241530Y367439D01*
X241500Y367322D01*
X241479Y367191D01*
X240983D01*
Y371470D01*
X240144D01*
Y371951D01*
X242455D01*
Y371470D01*
D02*
G37*
%LPC*%
G36*
X275489Y341150D02*
X274535D01*
X273614Y340903D01*
X272788Y340426D01*
X272113Y339752D01*
X271637Y338926D01*
X271390Y338004D01*
Y337051D01*
X271637Y336129D01*
X272113Y335304D01*
X272788Y334629D01*
X273614Y334152D01*
X274535Y333906D01*
X275489D01*
X276410Y334152D01*
X277236Y334629D01*
X277910Y335304D01*
X278387Y336129D01*
X278634Y337051D01*
Y338004D01*
X278387Y338926D01*
X277910Y339752D01*
X277236Y340426D01*
X276410Y340903D01*
X275489Y341150D01*
D02*
G37*
G36*
X275485Y331150D02*
X274531D01*
X273610Y330903D01*
X272784Y330426D01*
X272110Y329751D01*
X271633Y328926D01*
X271386Y328004D01*
Y327051D01*
X271633Y326130D01*
X272110Y325304D01*
X272784Y324629D01*
X273610Y324152D01*
X274531Y323905D01*
X275485D01*
X276406Y324152D01*
X277232Y324629D01*
X277906Y325304D01*
X278383Y326130D01*
X278630Y327051D01*
Y328004D01*
X278383Y328926D01*
X277906Y329751D01*
X277232Y330426D01*
X276406Y330903D01*
X275485Y331150D01*
D02*
G37*
G36*
X185489Y341150D02*
X184535D01*
X183614Y340903D01*
X182788Y340426D01*
X182114Y339752D01*
X181637Y338926D01*
X181390Y338004D01*
Y337051D01*
X181637Y336129D01*
X182114Y335304D01*
X182788Y334629D01*
X183614Y334152D01*
X184535Y333906D01*
X185489D01*
X186410Y334152D01*
X187236Y334629D01*
X187910Y335304D01*
X188387Y336129D01*
X188634Y337051D01*
Y338004D01*
X188387Y338926D01*
X187910Y339752D01*
X187236Y340426D01*
X186410Y340903D01*
X185489Y341150D01*
D02*
G37*
G36*
X185485Y331150D02*
X184531D01*
X183610Y330903D01*
X182784Y330426D01*
X182109Y329751D01*
X181633Y328926D01*
X181386Y328004D01*
Y327051D01*
X181633Y326130D01*
X182109Y325304D01*
X182784Y324629D01*
X183610Y324152D01*
X184531Y323905D01*
X185485D01*
X186406Y324152D01*
X187232Y324629D01*
X187906Y325304D01*
X188383Y326130D01*
X188630Y327051D01*
Y328004D01*
X188383Y328926D01*
X187906Y329751D01*
X187232Y330426D01*
X186406Y330903D01*
X185485Y331150D01*
D02*
G37*
G36*
X175489Y341150D02*
X174535D01*
X173614Y340903D01*
X172788Y340426D01*
X172114Y339752D01*
X171637Y338926D01*
X171390Y338004D01*
Y337051D01*
X171637Y336129D01*
X172114Y335304D01*
X172788Y334629D01*
X173614Y334152D01*
X174535Y333906D01*
X175489D01*
X176410Y334152D01*
X177236Y334629D01*
X177910Y335304D01*
X178387Y336129D01*
X178634Y337051D01*
Y338004D01*
X178387Y338926D01*
X177910Y339752D01*
X177236Y340426D01*
X176410Y340903D01*
X175489Y341150D01*
D02*
G37*
G36*
X175485Y331150D02*
X174531D01*
X173610Y330903D01*
X172784Y330426D01*
X172109Y329751D01*
X171633Y328926D01*
X171386Y328004D01*
Y327051D01*
X171633Y326130D01*
X172109Y325304D01*
X172784Y324629D01*
X173610Y324152D01*
X174531Y323905D01*
X175485D01*
X176406Y324152D01*
X177232Y324629D01*
X177906Y325304D01*
X178383Y326130D01*
X178630Y327051D01*
Y328004D01*
X178383Y328926D01*
X177906Y329751D01*
X177232Y330426D01*
X176406Y330903D01*
X175485Y331150D01*
D02*
G37*
%LPD*%
D10*
X2976Y1727D02*
X4469Y789D01*
X6134Y207D01*
X7886Y10D01*
X132039D01*
X133090Y128D01*
X134089Y477D01*
X134985Y1040D01*
X135733Y1788D01*
X136296Y2684D01*
X136645Y3683D01*
X136764Y4734D01*
X136882Y5785D01*
X137231Y6784D01*
X137794Y7680D01*
X138542Y8428D01*
X139438Y8991D01*
X140437Y9340D01*
X141488Y9458D01*
X213535D01*
X214586Y9340D01*
X215585Y8991D01*
X216481Y8428D01*
X217229Y7680D01*
X217792Y6784D01*
X218141Y5785D01*
X218260Y4734D01*
X218378Y3683D01*
X218727Y2684D01*
X219290Y1788D01*
X220038Y1040D01*
X220934Y477D01*
X221933Y128D01*
X222984Y10D01*
X347138D01*
X348890Y207D01*
X350554Y789D01*
X352047Y1727D01*
X353294Y2974D01*
X354232Y4467D01*
X354814Y6131D01*
X355012Y7884D01*
Y143297D01*
X354893Y144348D01*
X354544Y145347D01*
X353981Y146242D01*
X353233Y146991D01*
X352337Y147554D01*
X351339Y147903D01*
X350287Y148021D01*
X349236Y148140D01*
X348237Y148489D01*
X347341Y149052D01*
X346593Y149800D01*
X346031Y150696D01*
X345681Y151695D01*
X345563Y152746D01*
X345563Y224793D01*
X345681Y225844D01*
X346031Y226843D01*
X346593Y227739D01*
X347341Y228487D01*
X348237Y229049D01*
X349236Y229399D01*
X350287Y229517D01*
X351339Y229636D01*
X352337Y229985D01*
X353233Y230548D01*
X353981Y231296D01*
X354544Y232192D01*
X354893Y233190D01*
X355012Y234242D01*
Y369655D01*
X354814Y371407D01*
X354232Y373072D01*
X353294Y374565D01*
X352047Y375811D01*
X350554Y376749D01*
X348890Y377332D01*
X347137Y377529D01*
X222984D01*
X221933Y377411D01*
X220934Y377061D01*
X220038Y376499D01*
X219290Y375750D01*
X218727Y374855D01*
X218378Y373856D01*
X218260Y372805D01*
X218141Y371754D01*
X217792Y370755D01*
X217229Y369859D01*
X216481Y369111D01*
X215585Y368548D01*
X214586Y368199D01*
X213535Y368080D01*
X141488Y368080D01*
X140437Y368199D01*
X139438Y368548D01*
X138542Y369111D01*
X137794Y369859D01*
X137231Y370755D01*
X136882Y371754D01*
X136764Y372805D01*
X136645Y373856D01*
X136296Y374855D01*
X135733Y375750D01*
X134985Y376499D01*
X134089Y377061D01*
X133090Y377411D01*
X132039Y377529D01*
X7886D01*
X6134Y377332D01*
X4469Y376749D01*
X2976Y375811D01*
X1729Y374565D01*
X791Y373072D01*
X209Y371407D01*
X12Y369655D01*
Y234242D01*
X130Y233190D01*
X479Y232192D01*
X1042Y231296D01*
X1790Y230548D01*
X2686Y229985D01*
X3685Y229636D01*
X4736Y229517D01*
X5787Y229399D01*
X6786Y229049D01*
X7682Y228487D01*
X8430Y227739D01*
X8992Y226843D01*
X9342Y225844D01*
X9460Y224793D01*
Y152746D01*
X9342Y151695D01*
X8992Y150696D01*
X8430Y149800D01*
X7682Y149052D01*
X6786Y148489D01*
X5787Y148140D01*
X4736Y148021D01*
X3685Y147903D01*
X2686Y147554D01*
X1790Y146991D01*
X1042Y146242D01*
X479Y145347D01*
X130Y144348D01*
X12Y143297D01*
Y7884D01*
X209Y6131D01*
X791Y4467D01*
X1729Y2974D01*
X2976Y1727D01*
D11*
X14500Y40600D02*
X15167D01*
X17614Y43047D01*
X21600Y43096D02*
Y43887D01*
Y51800D01*
X24700Y45100D02*
X24888Y44912D01*
X26100D01*
X27618Y43393D01*
X30968Y43400D02*
X31600Y44032D01*
Y51800D01*
X36588Y41578D02*
Y57949D01*
X47938Y69299D01*
Y86438D01*
X61710Y100210D01*
X96702D01*
X105760Y109268D01*
X111368D01*
X119700Y117600D01*
Y117900D02*
X121000D01*
X121010Y117910D01*
X127296D01*
Y119879D02*
X118601D01*
X110869Y112147D01*
X109116D01*
X108968Y112000D01*
X108508Y112460D01*
Y116255D01*
X111200Y119700D02*
X113347Y121847D01*
X127296D01*
X137847D01*
X140800Y124800D01*
X143753Y138304D02*
Y146246D01*
Y149747D01*
X120000Y173500D01*
Y187267D01*
X132700D01*
Y185298D02*
X129298D01*
X127878Y183878D01*
Y181288D01*
Y177351D02*
X130700Y180173D01*
Y180300D01*
X132410Y177374D02*
X132700Y177665D01*
Y183330D01*
X135038Y165200D02*
X137400D01*
X149400Y153200D01*
X167200D01*
X170296Y150104D01*
Y137096D01*
X167500Y134300D01*
Y134300D01*
X165800Y132600D01*
X163200D01*
X162300Y131700D01*
X160000D01*
X159995Y131695D01*
X154309D01*
X154304Y131690D01*
Y129721D02*
X164259D01*
X164658Y130121D01*
X175771D01*
X175947Y130297D01*
X176753Y127800D02*
X177318Y128364D01*
X177463D01*
X176753Y127800D02*
X161856D01*
X161828Y127828D01*
X161800Y127800D02*
X161776Y127776D01*
X154328D01*
X154304Y127753D01*
Y125784D02*
X154346Y125742D01*
X165600D01*
X164400Y135063D02*
X161787D01*
X161766Y135084D02*
X160340Y133658D01*
X154304D01*
Y135627D02*
X157027D01*
X158200Y136800D01*
Y138000D01*
X159221Y139021D01*
X161766D01*
X161787Y139000D01*
X164400D01*
X164255Y145525D02*
X165541Y146811D01*
Y148043D01*
X165599Y148101D01*
X163189Y147986D02*
X149886D01*
X147745Y145845D01*
Y138359D01*
X147690Y138304D01*
X145721D02*
X145720Y138305D01*
Y148791D01*
X145719Y148792D01*
X147171Y150200D02*
X166300D01*
X167600Y148900D01*
Y147200D01*
X166854Y146454D01*
Y144461D01*
X166780Y144387D01*
X169015Y143815D02*
Y149428D01*
X166643Y151800D01*
X148660D01*
X145960Y154500D01*
X144500D01*
X136000Y163000D01*
X141284Y155029D02*
X123900Y172413D01*
Y180500D01*
X132700Y189235D02*
X128684D01*
X127566Y190352D01*
X127571Y190357D01*
Y194540D01*
X123462Y190520D02*
X123629Y190352D01*
X123462Y190520D02*
X119455D01*
X120000Y187267D02*
X118733D01*
X114426Y191574D01*
Y213540D01*
X114229D01*
X113048Y214721D01*
Y214918D01*
X111600Y216366D01*
Y228601D01*
X114437Y231438D01*
X115662Y228700D02*
X115800D01*
X115662D02*
X114237Y227275D01*
X122937Y217917D02*
Y223338D01*
Y227275D02*
X122964Y227302D01*
X123062Y227400D01*
X126500D01*
X126981Y226919D01*
Y225063D01*
X127137Y224906D01*
X128812Y225031D02*
Y227688D01*
X127500Y229000D01*
X124781Y230750D02*
X124937Y230907D01*
X124781Y230750D02*
X124304D01*
X122874D01*
X122413Y230289D01*
Y229637D01*
X122874Y229176D01*
Y227392D01*
X122964Y227302D01*
X123031Y227235D01*
X128812Y225031D02*
X128937Y224906D01*
X128937Y217507D02*
Y212743D01*
X128237Y212043D01*
X124815Y208622D01*
Y206897D01*
X123898Y205980D01*
Y203468D01*
Y199531D02*
X124319Y199111D01*
X128385D01*
X128385Y199111D01*
Y203435D01*
X128211Y206250D02*
Y208080D01*
X128237Y208106D01*
X123678Y210981D02*
Y211441D01*
X123679Y211442D01*
Y212998D01*
X127137Y216457D01*
Y217507D01*
X122937Y217917D02*
X122300Y217280D01*
X122300Y209800D02*
X122497D01*
X123678Y210981D01*
X137199Y205209D02*
X137660Y205670D01*
X138539D01*
X139000Y206131D01*
Y213975D01*
X136937Y216038D01*
X134300Y218675D01*
Y221100D01*
X134200Y221200D01*
X136937Y219975D02*
Y223938D01*
X136837Y224038D01*
X134600Y226275D01*
Y230289D01*
X134139Y230750D01*
X132493D01*
X132337Y230907D01*
X132569Y228466D02*
X132602Y228498D01*
X132569Y228466D02*
Y225266D01*
X132381Y225077D01*
X130737Y224906D02*
Y228448D01*
X130287Y228898D01*
Y229164D01*
X136837Y227975D02*
Y232569D01*
X136700Y232706D01*
X138073D01*
X138198Y232832D01*
X136700Y232706D02*
X132337D01*
X132344Y234500D02*
X134768D01*
X135400Y235132D01*
Y238500D01*
X136600Y239700D01*
X147535D01*
X148735Y238499D01*
Y234216D01*
X147486Y241100D02*
X148735Y242349D01*
Y246421D01*
X147486Y241100D02*
X127700D01*
X125800Y239200D01*
X123300D01*
X122700Y238600D01*
Y236761D01*
X123161Y236300D01*
X124931D01*
X124937Y236307D01*
X125844D01*
X126000Y236463D01*
X120084Y242003D02*
X120204Y242122D01*
Y243904D01*
X120853Y244553D01*
Y245861D01*
X121247Y246255D01*
X132300Y238800D02*
X132337D01*
Y236307D01*
Y234507D02*
X132344Y234500D01*
X138198Y236769D02*
X138582Y237152D01*
X140971D01*
X141330Y220600D02*
X141361Y220632D01*
X132537Y217507D02*
Y216457D01*
X133963Y215031D01*
Y214991D01*
X132610Y212019D02*
Y199399D01*
X132322Y199111D01*
Y191322D01*
X132440Y191204D01*
X132700D01*
X144000D02*
X151469D01*
X152976D01*
X153370Y191597D01*
X151862D01*
X151469Y191204D01*
X149500Y189235D01*
X151007D01*
X152976Y191204D01*
X149500Y189235D02*
X149500Y189235D01*
Y188100D01*
X148667Y187267D01*
X144000D01*
Y189235D02*
X149500D01*
X164900Y195700D02*
X167278D01*
X173600D01*
X174912Y197012D01*
X183426D01*
Y198981D02*
X179126D01*
X177994Y200112D01*
X177994Y200112D01*
Y204512D01*
X182494Y201067D02*
X182613Y200949D01*
X183426D01*
X182494Y201067D02*
Y208612D01*
X182494Y208612D01*
Y212912D01*
X182857Y213275D01*
Y217212D01*
X182889Y217244D01*
Y221512D01*
X186826D02*
X188414Y223100D01*
X188657D01*
X188900D01*
X189333Y225767D02*
X190500Y224600D01*
Y216168D01*
X186900Y212568D01*
X186900Y208631D02*
Y206000D01*
X183426Y195044D02*
X180144D01*
X178700Y193600D01*
Y190955D01*
X178526Y190781D01*
X181300Y190000D02*
Y189618D01*
X178526Y186844D01*
X183157Y186926D02*
X183426Y187195D01*
Y193075D01*
X194725Y197012D02*
X198442D01*
X200411Y198981D01*
X202379D01*
X203952Y200554D01*
X201984D01*
X200411Y198981D01*
X194725D01*
Y200949D02*
X203557D01*
X203952Y200554D01*
X213006Y198167D02*
Y194823D01*
X216350D01*
X213006D02*
X209662D01*
X178557Y208612D02*
Y212912D01*
X178557Y212912D01*
X178036Y213139D02*
Y217364D01*
X177700Y217700D01*
X175100Y219037D02*
X177700Y221637D01*
X179000Y222937D01*
Y228000D01*
X180800Y228000D02*
Y224900D01*
X181100Y224600D01*
X183750Y225800D02*
X183900D01*
X183750D02*
X182600Y226950D01*
Y228000D01*
X184400Y228267D02*
Y231683D01*
X184261Y231822D01*
X184660Y236073D02*
Y239190D01*
X183250Y240600D01*
X182200D01*
Y242400D02*
X186400D01*
X186900Y241900D01*
Y237770D01*
X184660Y236073D02*
X186900Y233833D01*
Y229704D01*
X184400Y228267D02*
X186900Y225767D01*
X189333D01*
X186826Y221512D02*
X186794Y221481D01*
Y217212D01*
X177200Y226950D02*
Y228000D01*
Y226950D02*
X173400Y223150D01*
Y217901D01*
X170439Y214940D01*
X162163D01*
X161145Y208478D02*
X162163Y207460D01*
X161732Y201500D02*
X168659Y208428D01*
Y210019D01*
X169840Y211200D01*
X170037D01*
X174100Y212968D02*
Y215300D01*
X175100Y216300D01*
Y219037D01*
X174100Y209032D02*
X171968Y206900D01*
X171200D01*
X171801Y203769D02*
X173314D01*
X174057Y204512D01*
X171801Y203769D02*
X169900Y201869D01*
Y197932D02*
X171877D01*
X174057Y200112D01*
X167278Y195700D02*
Y189595D01*
X164894Y199250D02*
Y200726D01*
X165668Y201500D01*
X161732D02*
Y198869D01*
X164900Y195700D01*
X161145Y208478D02*
X160948D01*
X160785Y208641D01*
X160982D01*
X160785D02*
X158804D01*
X157624Y209821D01*
Y210211D01*
X157521Y210314D01*
X158309Y209403D02*
X159691D01*
X159880Y209215D01*
X160211D01*
X160785Y208641D01*
X172900Y229786D02*
X172928Y229759D01*
X172900Y229786D02*
Y232562D01*
Y236499D02*
X177044D01*
X177200Y236343D01*
Y235400D01*
X177800Y238500D02*
X178844Y237456D01*
Y235556D01*
X179000Y235400D01*
X180800Y235400D02*
Y238300D01*
X180400Y238700D01*
X182730Y238367D02*
X182861Y238497D01*
X182730Y238367D02*
Y235530D01*
X182600Y235400D01*
X191332Y237300D02*
X191332Y237300D01*
X199500Y242800D02*
Y248100D01*
X198500Y249100D01*
X185801D01*
X184700Y248000D01*
Y245000D01*
X184056Y244356D01*
X182356D01*
X182200Y244200D01*
Y246000D02*
Y248000D01*
X182000Y248200D01*
X178738Y250238D02*
X198638D01*
X199500Y251100D01*
Y255005D01*
X189963Y245837D02*
X190000Y245800D01*
X189963Y245837D02*
X186900D01*
X178738Y250238D02*
X176006Y247506D01*
Y246156D01*
X175850Y246000D01*
X174800D01*
Y244200D02*
X174755Y244155D01*
X171367D01*
X171322Y244109D01*
X169691D01*
X168400Y245401D01*
Y241464D02*
X169336Y242400D01*
X174800D01*
Y240600D02*
X173750D01*
X172800Y239650D01*
Y236599D01*
X172900Y236499D01*
X168400Y236499D02*
Y241464D01*
Y232562D02*
X166150D01*
X163900D01*
X163900Y232562D01*
Y236499D02*
X161691Y238708D01*
Y238956D01*
X161742D01*
X161691D02*
Y238963D01*
Y238956D02*
X158398D01*
Y242300D01*
X160335Y247118D02*
X164100D01*
X164251Y246967D01*
X189261Y257007D02*
X189787Y256481D01*
X192019D01*
X192100Y256400D01*
X190453Y257007D02*
X189261D01*
X189000Y257269D01*
X188821Y257447D01*
Y259834D01*
X188213Y260494D02*
Y258056D01*
X188821Y257447D01*
X188213Y260494D02*
X188163Y260544D01*
X205756Y247756D02*
X209100D01*
Y251100D01*
Y247756D02*
X212444D01*
X207900Y257200D02*
X207826Y257274D01*
Y260111D01*
X248521Y283579D02*
X250900Y281200D01*
X254600D01*
X255772Y282372D01*
Y285653D01*
X256944Y286825D01*
Y287875D01*
X257101Y288032D01*
X258901Y288032D02*
Y285001D01*
X258600Y284700D01*
Y283399D01*
X258032Y282832D01*
X262301D01*
X263049Y286434D02*
X263704D01*
X263892Y286245D01*
X263049Y286434D02*
X262501Y286982D01*
Y288032D01*
X264000Y289495D02*
Y292700D01*
X262501Y295431D02*
X262450Y295482D01*
Y299050D01*
X262400Y299100D01*
X262651Y301631D02*
X264200Y300082D01*
Y297264D01*
X266601Y294863D01*
Y290831D01*
X264000Y289495D02*
X266601Y286894D01*
Y282933D01*
X266602Y282931D01*
Y278994D02*
X266460Y278853D01*
Y276660D01*
X279768Y283200D02*
X285034D01*
X289900Y288066D01*
Y288263D01*
X292969Y296809D02*
X293640Y296137D01*
X292969Y296809D02*
Y301400D01*
Y306132D01*
X286900Y312200D01*
X276500D01*
X274200Y311500D02*
X275500Y310200D01*
Y305798D01*
X276681D01*
X278453Y304026D01*
Y299450D01*
Y296653D01*
X276484Y294684D01*
Y299450D01*
Y304813D01*
X275500Y305798D01*
X274516Y304813D01*
Y299450D01*
Y294684D01*
X275500Y293700D01*
X276484Y294684D01*
X274516D02*
X272547Y296653D01*
Y299450D01*
Y304026D01*
X274319Y305798D01*
X275500D01*
X274200Y311500D02*
X266993D01*
X264298Y308805D01*
Y305702D01*
X263837Y305241D01*
X261610D01*
X261601Y305231D01*
X261601Y307031D02*
Y309201D01*
X262000Y309600D01*
X261601Y303432D02*
X266032D01*
X266601Y302863D01*
Y298800D01*
X262651Y301631D02*
X261601D01*
X278453Y287950D02*
Y284516D01*
X279768Y283200D01*
X286160Y296137D02*
X287130Y297108D01*
Y299499D01*
X289032Y301400D01*
Y304269D01*
X288800Y304500D01*
X275500Y318002D02*
Y314300D01*
X274200Y313000D01*
X261136D01*
X255407Y307271D01*
Y307188D01*
X255251Y307031D01*
X254201D01*
X254201Y305231D02*
X251101D01*
X248501Y302631D01*
X244001D02*
Y297901D01*
X244000Y297900D01*
Y293963D02*
X248500D01*
Y297900D02*
X250776Y300175D01*
Y301875D01*
X252175Y303275D01*
X254045D01*
X254201Y303432D01*
Y301631D02*
X253151D01*
X252232Y300713D01*
Y298669D01*
X253001Y297900D01*
X253101Y298000D01*
X255582D01*
X256944Y296638D01*
Y295588D01*
X257101Y295431D01*
X258901Y295431D02*
Y297904D01*
X257262Y299543D01*
X256424D01*
X256236Y299731D01*
X260000Y299500D02*
X260701Y298799D01*
Y295431D01*
X253001Y293963D02*
Y289179D01*
Y284395D01*
X252838Y284231D01*
X258001Y282800D02*
X258032Y282832D01*
X260701Y285599D02*
X260900Y285400D01*
X260701Y285599D02*
Y288032D01*
X258001Y278863D02*
X254563D01*
X254500Y278800D01*
X248521Y283579D02*
Y284611D01*
X245161Y287972D01*
X244964D01*
X253001Y297900D02*
Y297907D01*
X253039Y297946D01*
X266601Y306800D02*
X268400Y308599D01*
Y309100D01*
X242665Y316200D02*
X242662Y316203D01*
X239358D01*
X239087Y311505D02*
X242627D01*
X242632Y311500D01*
X241469Y306569D02*
X241400Y306500D01*
X246200Y304268D02*
X248501Y306569D01*
X246200Y304268D02*
Y300200D01*
X248500Y297900D01*
X286100Y249900D02*
Y257200D01*
X288000Y259100D01*
X291937D02*
X295350D01*
X298059Y256391D01*
X300031Y252900D02*
Y245568D01*
X299700Y245236D01*
X289700Y245236D02*
Y248386D01*
X288913Y249173D01*
X286827D01*
X286100Y249900D01*
X294700Y224764D02*
Y216637D01*
X294600Y216537D01*
X294437Y216700D01*
X290268D01*
X286332D02*
Y214231D01*
X286300Y214200D01*
X284812Y188795D02*
X284781Y188764D01*
X299900Y162768D02*
X302132Y165000D01*
X306068D02*
X306856Y165787D01*
Y167656D01*
X307800Y168600D01*
X307423Y160591D02*
X311731D01*
X315668D02*
X315720Y160643D01*
X318400D01*
X316868Y165600D02*
X321532D01*
Y149632D01*
X319753Y147853D01*
X316934D01*
Y143916D02*
X319516D01*
X320846Y145246D01*
Y146047D01*
X324388Y149590D01*
X328325D02*
Y145190D01*
X324388D02*
X323601Y144402D01*
X323102D01*
X323100Y144400D01*
X322605D01*
X320153Y141947D01*
X321210Y140890D01*
X324388D01*
X328325D02*
X328345Y140909D01*
X324539Y136596D02*
X323754Y135811D01*
Y134924D01*
X322627Y133796D01*
X319271D01*
X319291Y128358D02*
X321259Y130327D01*
X324057D01*
X327173D01*
X327600Y129900D01*
X327300Y128400D02*
X327258Y128358D01*
X324057D01*
X319291D01*
X318307Y127374D01*
X319291Y126390D01*
X321259Y124421D01*
X327647D01*
X327790Y126390D02*
X327800Y126400D01*
X327790Y126390D02*
X324057D01*
X319291D01*
X312557D02*
X312532Y126365D01*
X307806D01*
X307782Y126341D01*
X303016D01*
X303514Y125844D01*
X304985Y124373D01*
X307782D01*
X307782Y128310D02*
X307806Y128334D01*
X312532D01*
X312557Y128358D01*
X312532Y130303D02*
X312557Y130327D01*
X312532Y130303D02*
X307806D01*
X307782Y130278D01*
X304985D01*
X303016Y128310D01*
X307782D01*
X303016D02*
X302032Y127325D01*
X303016Y126341D01*
X306400Y134300D02*
X307347Y135247D01*
Y138266D01*
X303666Y141947D02*
X297920D01*
X296941Y140969D01*
Y140559D01*
X294486Y138105D01*
X292073D01*
X291469Y137500D01*
X287531D02*
Y140568D01*
X287500Y140600D01*
X288800Y144800D02*
X292345D01*
X293429Y145884D01*
X303666D01*
X303624Y143958D02*
X303666Y143916D01*
X303624Y143958D02*
X300542D01*
X300500Y144000D01*
X303666Y147853D02*
X293340D01*
X292456Y148737D01*
X286437D01*
X283680Y145980D01*
Y114780D01*
X282404Y113504D01*
X278168D01*
Y115228D01*
X279939Y117000D01*
X281400D01*
X282100Y117700D01*
Y147900D01*
X290448Y156248D01*
X303486D01*
Y160591D01*
X303486Y160591D01*
X307423D02*
Y156248D01*
X307423Y156248D01*
X307347Y156172D01*
Y151534D01*
X300584Y151533D02*
X296571D01*
X296356Y151748D01*
X288800Y144800D02*
X286058D01*
X285058Y143800D01*
Y114866D01*
X286420Y113504D01*
X290372D01*
X293800Y122900D02*
X293830D01*
X293860D01*
X295332Y124373D01*
X296282D01*
X296282Y126341D02*
X292218D01*
X289856Y128703D01*
Y129190D01*
X290944Y130278D01*
X296282D01*
Y128310D02*
X290736D01*
X289856Y129190D01*
X284946Y108474D02*
X285961Y109490D01*
X290359D01*
X293568Y95500D02*
Y91882D01*
X293727Y91723D01*
X288884D01*
X288412Y91251D01*
X288215D01*
X292667Y78819D02*
X293652D01*
X302667Y69803D01*
X311683Y78819D01*
X312667D01*
X302667Y69803D02*
Y48819D01*
X304616Y39284D02*
X315568Y28332D01*
Y25700D01*
X304616Y39284D02*
X52514D01*
X46227Y45571D01*
Y53956D01*
X68072Y75800D01*
Y86678D01*
X71994Y90600D01*
X110936D01*
X117136Y96800D01*
X143783D01*
X144714Y97731D01*
Y103386D01*
X143926Y104174D01*
Y105774D01*
X143700Y106000D01*
X143726Y106026D01*
Y111270D01*
X143753Y111296D01*
X145721D02*
Y105879D01*
X147400Y104200D01*
Y101300D01*
X147300Y101200D01*
X142582Y100792D02*
X142061Y101314D01*
X141784Y102462D02*
Y111296D01*
X139816D02*
X139808Y111288D01*
Y104608D01*
X139800Y104600D01*
Y101100D01*
X138100Y99400D01*
X135900Y100000D02*
Y105500D01*
X135889Y105511D01*
Y111285D01*
X135879Y111296D01*
X137847D02*
X137874Y111270D01*
Y102226D01*
X137900Y102200D01*
X141784Y102462D02*
X142337Y101910D01*
Y101590D01*
X142582Y100792D02*
Y98961D01*
X142771Y98773D01*
X151606Y99528D02*
Y102141D01*
X151627Y102162D02*
Y105864D01*
X149658Y107832D01*
Y111296D01*
X151627D02*
Y107973D01*
X155537Y104063D01*
Y102189D01*
X155564Y102162D01*
X155543Y102141D02*
Y99528D01*
X162700Y98800D02*
X165674Y101774D01*
X180074D01*
X202475Y124175D01*
X210890D01*
X212076Y122989D01*
Y122673D01*
X212101D01*
X212172D01*
X215031Y119814D01*
X217883Y122652D02*
X217883Y122652D01*
X217890D01*
X217883Y122652D02*
X214998Y125538D01*
X214991D01*
X214966D01*
X212101Y122673D01*
X212247Y117030D02*
X210216Y115000D01*
X210200D01*
X233489Y99015D02*
Y102652D01*
X234237Y103400D01*
X235851Y88385D02*
X238485D01*
X240192Y90092D01*
Y91960D01*
X240226Y91993D01*
X235851Y88385D02*
Y69417D01*
X236069Y69200D01*
X229140Y78819D02*
X228155D01*
X219140Y69803D01*
Y48819D01*
X225300Y28800D02*
X226731D01*
X228631Y26900D01*
X232569D02*
X238100D01*
X238300Y27100D01*
X234729Y30671D01*
X206129D01*
X198869Y37931D01*
X50011D01*
X43500Y44442D01*
Y55086D01*
X54851Y66436D01*
Y83575D01*
X64573Y93297D01*
X107046D01*
X114444Y100696D01*
X113384Y102700D02*
X129800D01*
X131900Y104800D01*
X131921Y104821D01*
Y111275D01*
X131942Y111296D01*
X133855Y111241D02*
X133910Y111296D01*
Y101810D01*
X133800Y101700D01*
X133855Y101755D01*
X134994Y99094D02*
X135900Y100000D01*
X134994Y99094D02*
X134900Y99000D01*
X149471Y95656D02*
X149855Y95272D01*
X149471Y95656D02*
Y105329D01*
X147690Y107110D01*
Y111296D01*
X159900Y93500D02*
Y109100D01*
Y112100D01*
X158027Y113973D01*
X154304D01*
Y115942D02*
X160200D01*
X169864D01*
X170451Y116528D01*
X177928D01*
X184700Y123300D01*
Y131633D01*
X173690Y142644D01*
Y147932D01*
X172016Y145413D02*
Y140428D01*
X182779Y129666D01*
Y124770D01*
X175919Y117910D01*
X164100D01*
X154304D01*
Y119879D02*
X175093D01*
X178440Y123226D01*
X180100Y124886D01*
Y129600D01*
X177004Y132696D01*
X171846D01*
X165994Y122086D02*
Y121766D01*
X165954Y121807D01*
X154344D01*
X154304Y121847D01*
X154312Y123808D02*
X160892D01*
X160900Y123800D01*
X163200D01*
X163300Y123700D01*
X154312Y123808D02*
X154304Y123816D01*
X156400Y90000D02*
X159900Y93500D01*
X156400Y90000D02*
X123400D01*
X118300Y95100D01*
Y109500D02*
X120253Y111453D01*
Y111473D01*
X122753Y113973D01*
X127296D01*
Y115942D02*
X121042D01*
X118900Y113800D01*
X112300Y107200D01*
X110000D01*
X100100Y97300D01*
X62800D01*
X50800Y85300D01*
Y68200D01*
X39500Y56900D01*
Y43065D01*
X39900Y42665D01*
Y42348D01*
X50548Y31700D01*
X107217D01*
X115475Y23443D01*
X120089D01*
X120200Y23332D01*
Y27268D02*
X148739D01*
X156570Y35100D01*
X193072D01*
X215204Y12967D01*
X245167D01*
X245900Y13700D01*
Y19600D01*
X252989Y26689D01*
X284568D01*
X288856Y22400D01*
X292700D01*
Y28300D01*
X292600Y28400D01*
X242777Y30300D02*
X245780Y27297D01*
Y27100D01*
X242400Y22169D02*
X210722D01*
X196418Y36472D01*
X49655D01*
X42217Y43910D01*
Y55617D01*
X53567Y66967D01*
Y84106D01*
X64042Y94581D01*
X105264D01*
X113384Y102700D01*
X110154Y103226D02*
X102890Y95962D01*
X63470D01*
X52186Y84679D01*
Y67540D01*
X40835Y56189D01*
Y43338D01*
X49245Y34928D01*
X139181D01*
X144232Y29877D01*
X144400Y24700D02*
Y18800D01*
X142119Y16519D01*
X140287D01*
X139500Y15732D01*
X137828Y14060D01*
X134137D01*
X115475Y19506D02*
X113494D01*
X111421Y21579D01*
X110127D01*
X109340Y22366D01*
X106413Y25293D01*
Y27174D01*
X106226Y27360D01*
X111400Y16369D02*
Y15100D01*
Y16369D02*
X109340Y18429D01*
X109872Y62372D02*
X109900Y62400D01*
X109872Y62372D02*
X106700D01*
X106109Y61782D01*
X100724D01*
Y64341D02*
X103459D01*
X103500Y64300D01*
X95800Y55600D02*
X95741Y55541D01*
X93269D01*
X89332D02*
X86800Y58073D01*
Y61000D01*
X87582Y61782D01*
X89700D01*
Y64341D02*
X86641D01*
X85300Y63000D01*
Y57541D01*
X82500Y54741D01*
X82999Y60003D02*
X83000Y60004D01*
X82999Y60003D02*
X80695D01*
X77300Y55053D02*
X77144Y54897D01*
X76988Y54741D01*
X83000Y63941D02*
Y67972D01*
X85528D01*
X86600Y66900D01*
X89700D01*
Y69459D02*
X87141D01*
X85067Y71533D01*
X83376D01*
X83000Y71909D01*
X82521Y72247D02*
X77950D01*
X77556Y72641D01*
X77918Y66915D02*
X79693D01*
X80750Y67972D01*
X83000D01*
X100724Y66900D02*
X103200D01*
X103700Y66400D01*
X106609D01*
X106700Y66309D01*
Y70372D01*
X98449Y98791D02*
X106070Y106412D01*
X105032Y112000D02*
X104931Y112100D01*
X101500D01*
X98449Y98791D02*
X62298D01*
X49357Y85850D01*
Y68712D01*
X38006Y57361D01*
Y42166D01*
X50027Y30146D01*
X75976D01*
X76573Y29549D01*
Y29352D01*
X77755Y28171D01*
X77951D01*
X77755D02*
X75752Y26169D01*
X71300D01*
X57300Y27700D02*
X50466D01*
X36588Y41578D01*
X35781Y62781D02*
X38900Y65900D01*
Y69837D02*
X38113Y70624D01*
Y72501D01*
X38014Y72599D01*
X35781Y62781D02*
X32581D01*
X31600Y61800D01*
X31600Y71800D02*
Y80431D01*
X31352Y80242D02*
X31133Y80460D01*
X31206Y84762D02*
X31600Y85156D01*
Y87300D01*
X30800Y88100D01*
X28900D01*
X36400Y95100D02*
X31859Y99641D01*
Y134903D01*
X38655Y141700D01*
X86233D01*
X98780Y154247D01*
X99500Y150700D02*
X88000Y139200D01*
X38605D01*
X33458Y134054D01*
Y103942D01*
X37600Y99800D01*
X49209Y92157D02*
X40336Y101030D01*
Y106863D01*
X42939D01*
X43702Y106100D01*
X46069D01*
X46268Y105900D01*
X54064D01*
X48800Y127868D02*
X46100Y125169D01*
X52500Y144300D02*
X57480D01*
X70267Y157087D01*
Y157267D01*
X71550Y158550D01*
X73400Y156700D01*
X79403D01*
X85418Y162716D01*
Y165271D01*
X84957Y165732D01*
Y194881D01*
X81100Y198738D01*
Y220000D01*
X89900Y228800D01*
Y259736D01*
X80000Y269637D01*
Y332539D01*
X75012Y337528D01*
X75008Y327528D02*
Y272516D01*
X88500Y259023D01*
Y229401D01*
X79500Y220401D01*
Y197662D01*
X83132Y194030D01*
Y166320D01*
X78966Y162155D01*
Y160509D01*
X78561Y160104D01*
X78590Y160293D02*
X78778Y160104D01*
X78590Y160293D02*
X76723D01*
X72508Y164508D01*
X67692D01*
X60500Y171700D01*
Y182338D01*
X57369Y185468D01*
X53400D01*
X53624Y194530D02*
X67248Y180905D01*
X71895D01*
X74914Y177886D01*
X79280D01*
X75292Y167292D02*
X75265D01*
X73123Y169434D01*
X73096D01*
X71550Y158550D02*
X68957Y161143D01*
X59500Y170600D01*
X52697D01*
X50738Y168641D01*
X50541D01*
X49360Y167460D01*
Y167263D01*
X40200Y175000D02*
X32717D01*
X32200Y180400D02*
X33500Y181700D01*
Y194400D01*
X33630Y194530D01*
X36739D01*
X40676D02*
X53624D01*
X41039Y186212D02*
Y181505D01*
X41144Y181400D01*
X29864Y183819D02*
Y181436D01*
X30900Y180400D01*
X32200D01*
X27896Y190553D02*
X29864Y192522D01*
Y195319D01*
Y200576D01*
Y203374D01*
X27896Y205342D01*
X26911Y206326D01*
X25927Y205342D01*
X23959Y203374D01*
Y200576D01*
Y195319D01*
Y192522D01*
X25927Y190553D01*
Y195319D01*
Y200576D01*
Y205342D01*
X27896D02*
Y200576D01*
Y195319D01*
Y190553D01*
X26911Y189569D01*
X25927Y190553D01*
X33500Y194400D02*
Y219600D01*
X32250Y220850D01*
X41200Y229800D01*
X54600D01*
X62302Y237502D01*
Y249640D01*
X48400Y224394D02*
Y209668D01*
X48600Y209469D01*
X36433Y241717D02*
X36571Y241856D01*
Y243618D01*
X37529Y244576D01*
Y246121D01*
X37688Y246280D01*
X35326Y256910D02*
X31610D01*
X30905Y256205D01*
Y253643D01*
X31574Y254312D01*
X35074Y257161D02*
Y258526D01*
X34201Y259399D01*
Y260931D01*
X33832Y261300D01*
X35074Y257161D02*
X35326Y256910D01*
X31000Y222100D02*
X32250Y220850D01*
X31000Y222100D02*
X25361D01*
X23959Y220697D01*
Y212076D01*
X25927D02*
Y216677D01*
X27502Y218252D01*
X27908D01*
X28289D01*
X29864Y216677D01*
Y212076D01*
X27896D02*
Y218240D01*
X27908Y218252D01*
X85714Y159800D02*
X95600D01*
X103100Y153400D02*
X119900Y136600D01*
X122842Y133658D01*
X127296D01*
Y135627D02*
X124473D01*
X120131Y139969D01*
Y142517D01*
X120152Y142496D02*
X122765D01*
Y146432D02*
X120152D01*
X126532Y147000D02*
Y144869D01*
X129973Y141427D01*
Y138304D01*
X126553Y147021D02*
Y149635D01*
X130490Y147021D02*
Y149635D01*
X133910Y149390D02*
X107900Y175400D01*
X107447Y175100D02*
X104400Y178147D01*
Y289762D01*
X116827Y302189D01*
X107600Y283799D02*
X134313Y310512D01*
Y310512D01*
X135100Y311299D01*
X135100D01*
X139961Y311332D02*
X109000Y280371D01*
Y182100D01*
X141784Y149316D01*
Y145600D01*
Y138304D01*
X139816D02*
Y148984D01*
X107600Y181200D01*
Y283799D01*
X103100Y293700D02*
X114900Y305500D01*
Y313432D01*
X124050Y305150D02*
X106000Y287100D01*
Y179368D01*
X135879Y149489D01*
Y138304D01*
X137847D02*
Y144247D01*
X137900Y144300D01*
X131942Y145527D02*
X130468Y147000D01*
X131942Y145527D02*
Y138304D01*
X133910D02*
Y149390D01*
X149658Y141035D02*
X154148Y145525D01*
X164255D01*
X154600Y142600D02*
X154374Y142374D01*
X152974D01*
X151627Y141027D01*
Y138304D01*
X149658D02*
Y141035D01*
X154643Y142393D02*
X167593D01*
X169015Y143815D01*
X147171Y150200D02*
X145139Y152232D01*
X127296Y131690D02*
X121798D01*
X120715Y132773D01*
X101689Y151799D01*
Y213211D01*
X96500Y218400D01*
Y238900D01*
X94400Y241000D01*
Y247000D01*
X100300Y252900D01*
Y313432D01*
X103100Y293700D02*
Y153400D01*
X101725Y138186D02*
Y137694D01*
X105619Y133800D01*
X111900D01*
X117947Y127753D01*
X127296D01*
Y129721D02*
X127158Y129859D01*
X119607D01*
X119433Y130033D01*
X119113D01*
X117952Y131195D01*
X117651D01*
X117462Y131383D01*
X116116Y125784D02*
X127296D01*
Y123816D02*
X113884D01*
X113200Y124500D01*
X116116Y125784D02*
X112769Y129131D01*
X109009D01*
X108320Y128442D01*
Y122831D01*
X111200Y119700D02*
X105700D01*
X105170Y120230D01*
Y122044D01*
X104383Y122831D01*
X98869D01*
X95894Y125806D01*
Y129724D01*
Y133661D02*
X95996Y133763D01*
X97795D01*
X101725Y137694D01*
X113861Y145606D02*
X113922Y145545D01*
X113861Y145606D02*
Y157439D01*
X113800Y157500D01*
X111600Y157900D02*
X113400Y159700D01*
X111600Y157900D02*
Y148200D01*
X99895Y176088D02*
X94588D01*
X87300Y168800D01*
Y166900D01*
X85714Y159800D02*
X82888Y156974D01*
X95900Y180400D02*
X89794Y186506D01*
Y202794D01*
X111725Y235375D02*
X114437D01*
X111725D02*
X111700Y235400D01*
X114533Y253644D02*
X117183Y256294D01*
X118491D01*
X118885Y256688D01*
Y256885D01*
Y259050D01*
X118523Y259412D01*
Y260294D01*
X117735Y261082D01*
X138600Y251500D02*
X138620Y251480D01*
X141377D01*
X136547Y212019D02*
Y209904D01*
Y207788D01*
X136478Y207719D01*
X137199Y205209D02*
Y203869D01*
X136598Y203269D01*
Y199331D02*
X139567Y202300D01*
X139700D01*
X87169Y120700D02*
Y116469D01*
X90259Y113378D01*
Y113181D01*
X91440Y112000D01*
X91637D01*
Y104463D01*
X93900Y102200D01*
X99565Y116255D02*
X102996D01*
X102928Y116324D01*
X118300Y109520D02*
Y109500D01*
X122200Y106700D02*
X122210Y106710D01*
X126410D01*
X127460Y106662D02*
X128863D01*
X129973Y107773D01*
Y111296D01*
X167200Y61381D02*
X167612Y61793D01*
Y67625D01*
Y73137D02*
X168891Y74417D01*
X170616D01*
X170900Y74700D01*
X173324D01*
X173412Y74613D01*
X176187D01*
X176900Y73900D01*
X179500D01*
Y71341D02*
X177108D01*
X176480Y70713D01*
Y65149D01*
X172712Y61381D01*
X179500Y62818D02*
X179572Y62746D01*
X179500Y62818D02*
Y68782D01*
X190524Y68782D02*
X196740D01*
X197054Y69096D01*
X197021Y73000D02*
X197054Y73033D01*
X197112Y73091D01*
X197021Y73000D02*
X194100D01*
X193200Y73900D01*
X190524D01*
Y71341D02*
X193059D01*
X193500Y70900D01*
X209140Y78819D02*
X210124D01*
X219140Y69803D01*
X242200Y30300D02*
X242777D01*
X242400Y18232D02*
X242360Y18192D01*
Y15000D01*
X179500Y76459D02*
X178929D01*
X177488Y77900D01*
X174061D01*
X173412Y78550D01*
X167899D01*
X167368Y79081D01*
X173412Y74613D02*
Y70550D01*
X173412Y70550D01*
X265529Y96441D02*
X269890D01*
X270700Y95631D01*
X270831Y95500D01*
X275031D01*
X278968D02*
X279755Y96287D01*
Y96550D01*
X280216Y97011D01*
X281901D01*
X284946Y100056D01*
Y108474D01*
X283478Y108493D02*
Y100537D01*
X281330Y98389D01*
X280216D01*
X279755Y98850D01*
Y99113D01*
X278968Y99900D01*
X275031D02*
X271031D01*
X270700Y99568D01*
X270131Y99000D01*
X265529D01*
X273166Y89803D02*
X273170Y89800D01*
X275200D01*
X275717Y89283D01*
X277191D01*
X277585Y88889D01*
X281200Y104986D02*
X281239Y105025D01*
X282481Y109490D02*
X283478Y108493D01*
X282481Y109490D02*
X278154D01*
X265529Y101559D02*
X264441D01*
X261700Y104300D01*
X310200Y122500D02*
Y123015D01*
X311607Y124421D01*
X312557D01*
X312015Y132587D02*
Y132853D01*
X311284Y133584D01*
Y138266D01*
X313253Y138266D02*
Y135206D01*
X313837Y134622D01*
X314489D01*
X316592Y136725D01*
X320763D01*
X320867Y136621D01*
X320153Y141947D02*
X316934D01*
X327123Y154900D02*
X327157Y154934D01*
X327190Y154900D01*
X327157Y160446D02*
X328436Y161725D01*
Y163006D01*
X331120Y165690D01*
X312931Y165600D02*
X312831Y165500D01*
X309600D01*
X310219Y157708D02*
X310271D01*
X311731Y156248D01*
X311284Y155802D01*
X309434Y153951D01*
Y151652D01*
X309316Y151534D01*
X311284D02*
Y155802D01*
X315677Y156257D02*
X315720Y156300D01*
X318400D01*
X299900Y161600D02*
Y162768D01*
X323941Y275479D02*
X323962Y275500D01*
X329700D01*
X323941Y277447D02*
X319553D01*
X318500Y278500D01*
Y281308D01*
X318872Y281680D01*
X320499D01*
X320597Y281581D01*
X323744D01*
X323941Y281384D01*
Y279416D02*
X328516D01*
X329300Y280200D01*
Y282800D01*
X328747Y283353D01*
X323941D01*
X323744Y283156D01*
X320597D01*
X320499Y283057D01*
X318872D01*
X318500Y283429D01*
X323941Y287290D02*
X330110D01*
X330200Y287200D01*
X165008Y327528D02*
X152549Y315069D01*
X150200D01*
Y311132D02*
X145069Y306000D01*
X138600D01*
X142200Y308100D02*
Y308231D01*
X145300Y311332D01*
Y315268D02*
Y317820D01*
X155008Y327528D01*
X135008D02*
X139961Y322574D01*
Y315236D01*
X135100D02*
X130100Y320236D01*
Y332616D01*
X135012Y337528D01*
X115008Y327528D02*
Y317476D01*
X114900Y317369D01*
X105008Y327528D02*
Y322076D01*
X100300Y317369D01*
X38900Y144300D02*
X52500D01*
X38900D02*
X30100Y135500D01*
Y97663D01*
X30509Y97254D01*
Y95391D01*
X30698Y95202D01*
X77300Y66297D02*
X77918Y66915D01*
X57300Y27700D02*
Y22569D01*
Y18632D02*
Y15500D01*
D12*
X118637Y235207D02*
X120007D01*
X120300Y234914D01*
X121427D01*
X121465Y234876D01*
X121541Y234800D01*
X122600D01*
X122900Y234500D01*
X124931D01*
X124937Y234507D01*
D13*
X114237Y223338D02*
X114237Y223338D01*
X118637D01*
X118637Y223338D01*
X130737Y217507D02*
X130795Y217449D01*
Y215105D01*
X131100Y214800D01*
X123634Y194540D02*
X123592Y194499D01*
X119496D01*
X119455Y194457D01*
X144000Y183330D02*
X145141D01*
X145161Y183310D01*
Y183257D01*
X147745Y180673D01*
X151696D01*
X153370Y178999D01*
X194725Y193075D02*
X194745Y193056D01*
X196883D01*
X201984Y187955D01*
X203952D01*
X240226Y104526D02*
X240600Y104900D01*
X240226Y104526D02*
Y95930D01*
X286600Y95500D02*
X289632D01*
X309316Y134116D02*
Y138266D01*
Y134116D02*
X308969Y133768D01*
Y133555D01*
Y133450D01*
X307873Y132354D01*
Y130386D01*
X307782Y130295D01*
Y130278D01*
X298800Y201600D02*
Y210900D01*
X297100Y212600D01*
X294600D01*
D79*
X205008Y327528D02*
D03*
X205012Y337528D02*
D03*
X215012D02*
D03*
X225012D02*
D03*
X225008Y327528D02*
D03*
X215008D02*
D03*
X235008D02*
D03*
X235012Y337528D02*
D03*
X245012D02*
D03*
X245008Y327528D02*
D03*
X255008D02*
D03*
X255012Y337528D02*
D03*
X265012D02*
D03*
X265008Y327528D02*
D03*
X275008D02*
D03*
X285008D02*
D03*
X285012Y337528D02*
D03*
X275012D02*
D03*
X295012D02*
D03*
X295008Y327528D02*
D03*
X305008D02*
D03*
X305012Y337528D02*
D03*
X304920Y347528D02*
D03*
X304924Y357528D02*
D03*
X294924D02*
D03*
X294920Y347528D02*
D03*
X284924Y357528D02*
D03*
X274924D02*
D03*
X274920Y347528D02*
D03*
X284920D02*
D03*
X264924Y357528D02*
D03*
X264920Y347528D02*
D03*
X254924Y357528D02*
D03*
X254920Y347528D02*
D03*
X244924Y357528D02*
D03*
X244920Y347528D02*
D03*
X234924Y357528D02*
D03*
X234920Y347528D02*
D03*
X224924Y357528D02*
D03*
X214924D02*
D03*
X214920Y347528D02*
D03*
X224920D02*
D03*
X204924Y357528D02*
D03*
X204920Y347528D02*
D03*
X194924Y357528D02*
D03*
X194920Y347528D02*
D03*
X195012Y337528D02*
D03*
X195008Y327528D02*
D03*
X184920Y347528D02*
D03*
X185012Y337528D02*
D03*
X185008Y327528D02*
D03*
X174920Y347528D02*
D03*
X175012Y337528D02*
D03*
X175008Y327528D02*
D03*
X164920Y347528D02*
D03*
X154920D02*
D03*
X155012Y337528D02*
D03*
X165012D02*
D03*
X165008Y327528D02*
D03*
X155008D02*
D03*
X144920Y347528D02*
D03*
X145012Y337528D02*
D03*
X145008Y327528D02*
D03*
X134920Y347528D02*
D03*
X135012Y337528D02*
D03*
X135008Y327528D02*
D03*
X124920Y347528D02*
D03*
X125012Y337528D02*
D03*
X125008Y327528D02*
D03*
X114920Y347528D02*
D03*
X115012Y337528D02*
D03*
X115008Y327528D02*
D03*
X104920Y347528D02*
D03*
X94920D02*
D03*
X95012Y337528D02*
D03*
X105012D02*
D03*
X105008Y327528D02*
D03*
X95008D02*
D03*
X84920Y347528D02*
D03*
X85012Y337528D02*
D03*
X85008Y327528D02*
D03*
X74920Y347528D02*
D03*
X75012Y337528D02*
D03*
X75008Y327528D02*
D03*
X64920Y347528D02*
D03*
X65012Y337528D02*
D03*
X65008Y327528D02*
D03*
X54920Y347528D02*
D03*
X55012Y337528D02*
D03*
X55008Y327528D02*
D03*
X74924Y357528D02*
D03*
X84924D02*
D03*
X94924D02*
D03*
X104924D02*
D03*
X114924D02*
D03*
X124924D02*
D03*
X134924D02*
D03*
X144924D02*
D03*
X154924D02*
D03*
X164924D02*
D03*
X174924D02*
D03*
X184924D02*
D03*
X64924D02*
D03*
X54924D02*
D03*
D87*
X46656Y181400D02*
D03*
X41144D02*
D03*
X102996Y116255D02*
D03*
X108508D02*
D03*
X149855Y95272D02*
D03*
X161856Y79081D02*
D03*
X167368Y79081D02*
D03*
X155367Y95272D02*
D03*
X167200Y61381D02*
D03*
X172712D02*
D03*
X82500Y54741D02*
D03*
X77556Y72641D02*
D03*
X72044D02*
D03*
X76988Y54741D02*
D03*
X314809Y231249D02*
D03*
X320320D02*
D03*
X320461Y237538D02*
D03*
X314949Y237538D02*
D03*
D88*
X17614Y43047D02*
D03*
X21551D02*
D03*
X27618Y43393D02*
D03*
X31555D02*
D03*
X89332Y55541D02*
D03*
X93269D02*
D03*
X108968Y112000D02*
D03*
X108320Y122831D02*
D03*
X104383D02*
D03*
X105032Y112000D02*
D03*
X87169Y120700D02*
D03*
X83232D02*
D03*
X126532Y147000D02*
D03*
X130468D02*
D03*
X151627Y102162D02*
D03*
X155564D02*
D03*
X179572Y62746D02*
D03*
X183509Y62746D02*
D03*
X228631Y26900D02*
D03*
X232569D02*
D03*
X262432Y54600D02*
D03*
X266369D02*
D03*
X292700Y22400D02*
D03*
X296637D02*
D03*
X311631Y25700D02*
D03*
X315568Y25700D02*
D03*
X293568Y95500D02*
D03*
X289632D02*
D03*
X281239Y105025D02*
D03*
X277302D02*
D03*
X278968Y99900D02*
D03*
X275031D02*
D03*
Y95500D02*
D03*
X278968D02*
D03*
X260869Y91400D02*
D03*
X256931D02*
D03*
X234237Y103400D02*
D03*
X230300D02*
D03*
X232132Y69200D02*
D03*
X236069D02*
D03*
X287531Y137500D02*
D03*
X291469D02*
D03*
X303486Y156248D02*
D03*
X307423D02*
D03*
X320602Y136596D02*
D03*
X324539D02*
D03*
X324388Y140890D02*
D03*
X328325D02*
D03*
X328325Y145190D02*
D03*
X324388D02*
D03*
Y149590D02*
D03*
X328325D02*
D03*
X335057Y165690D02*
D03*
X331120D02*
D03*
X325468Y165600D02*
D03*
X321532D02*
D03*
X316868D02*
D03*
X312931D02*
D03*
X311731Y160591D02*
D03*
X315668D02*
D03*
X315668Y156248D02*
D03*
X311731D02*
D03*
X307423Y160591D02*
D03*
X303486D02*
D03*
X302132Y165000D02*
D03*
X306068D02*
D03*
X290268Y216700D02*
D03*
X286332D02*
D03*
X300688Y252831D02*
D03*
X304625D02*
D03*
X291937Y259100D02*
D03*
X288000D02*
D03*
X290632Y252900D02*
D03*
X294568D02*
D03*
X279768Y283200D02*
D03*
X275832D02*
D03*
X289032Y301400D02*
D03*
X292969D02*
D03*
X246602Y316200D02*
D03*
X242665D02*
D03*
X242632Y311500D02*
D03*
X246568D02*
D03*
X207826Y260111D02*
D03*
X203889D02*
D03*
X195268Y237300D02*
D03*
X191332D02*
D03*
Y233100D02*
D03*
X195268D02*
D03*
X195268Y228900D02*
D03*
X191332Y228900D02*
D03*
X186826Y221512D02*
D03*
X182889D02*
D03*
X182857Y217212D02*
D03*
X186794D02*
D03*
X182494Y212912D02*
D03*
X178557D02*
D03*
X178557Y208612D02*
D03*
X182494D02*
D03*
X177994Y204512D02*
D03*
X177994Y200112D02*
D03*
X183157Y186926D02*
D03*
X187094D02*
D03*
X191498D02*
D03*
X195436D02*
D03*
X174057Y200112D02*
D03*
X174057Y204512D02*
D03*
X165668Y201500D02*
D03*
X161732D02*
D03*
X144511Y177424D02*
D03*
X140574D02*
D03*
X136347Y177374D02*
D03*
X132410D02*
D03*
X127566Y190352D02*
D03*
X123629D02*
D03*
X123634Y194540D02*
D03*
X127571D02*
D03*
X132322Y199111D02*
D03*
X132322Y203435D02*
D03*
X132541Y207719D02*
D03*
X136478D02*
D03*
X136547Y212019D02*
D03*
X132610D02*
D03*
X145267Y220600D02*
D03*
Y224800D02*
D03*
X145298Y228900D02*
D03*
X141361D02*
D03*
X141330Y224800D02*
D03*
Y220600D02*
D03*
X124021Y242003D02*
D03*
X120084D02*
D03*
X141377Y251480D02*
D03*
X145315D02*
D03*
X121672Y261082D02*
D03*
X117735D02*
D03*
X128385Y203435D02*
D03*
X128385Y199111D02*
D03*
X37769Y261300D02*
D03*
X33832D02*
D03*
X36433Y241717D02*
D03*
X40370D02*
D03*
X40676Y194530D02*
D03*
X36739D02*
D03*
X40132Y166500D02*
D03*
X44069D02*
D03*
D89*
X31600Y80431D02*
D03*
Y84368D02*
D03*
X38900Y69837D02*
D03*
Y65900D02*
D03*
X40336Y106863D02*
D03*
Y110800D02*
D03*
X46105Y111460D02*
D03*
X46200Y105968D02*
D03*
Y102032D02*
D03*
X46105Y115397D02*
D03*
X46100Y121231D02*
D03*
Y125169D02*
D03*
X40200Y171063D02*
D03*
X53400Y181532D02*
D03*
X57800Y181300D02*
D03*
Y177363D02*
D03*
X53400Y185468D02*
D03*
X48400Y205538D02*
D03*
Y209475D02*
D03*
X40200Y175000D02*
D03*
X95894Y133661D02*
D03*
Y129724D02*
D03*
X120131Y142517D02*
D03*
Y146454D02*
D03*
X161766Y135084D02*
D03*
Y139021D02*
D03*
X127878Y177351D02*
D03*
Y181288D02*
D03*
X119455Y190520D02*
D03*
Y194457D02*
D03*
X136598Y199331D02*
D03*
Y203269D02*
D03*
X136937Y216038D02*
D03*
Y219975D02*
D03*
X136837Y224038D02*
D03*
Y227975D02*
D03*
X138198Y232832D02*
D03*
Y236769D02*
D03*
X118637Y235207D02*
D03*
Y231270D02*
D03*
X118637Y227275D02*
D03*
Y223338D02*
D03*
X122937Y223338D02*
D03*
Y227275D02*
D03*
X128237Y212043D02*
D03*
X128237Y208106D02*
D03*
X123898Y203468D02*
D03*
Y199531D02*
D03*
X114237Y223338D02*
D03*
X114237Y227275D02*
D03*
X114437Y231438D02*
D03*
Y235375D02*
D03*
X114533Y249707D02*
D03*
Y253644D02*
D03*
X163900Y236499D02*
D03*
Y232562D02*
D03*
X177700Y221637D02*
D03*
Y217700D02*
D03*
X174100Y212968D02*
D03*
Y209032D02*
D03*
X169900Y201869D02*
D03*
Y197932D02*
D03*
X178526Y190781D02*
D03*
Y186844D02*
D03*
X186900Y208631D02*
D03*
X186900Y212568D02*
D03*
X186900Y225767D02*
D03*
Y229704D02*
D03*
Y233833D02*
D03*
Y237770D02*
D03*
Y241900D02*
D03*
Y245837D02*
D03*
X189000Y253331D02*
D03*
Y257269D02*
D03*
X168400Y245401D02*
D03*
Y241464D02*
D03*
Y236499D02*
D03*
Y232562D02*
D03*
X172900Y232562D02*
D03*
Y236499D02*
D03*
X244000Y293963D02*
D03*
Y297900D02*
D03*
X248500D02*
D03*
Y293963D02*
D03*
X248501Y302631D02*
D03*
X244001D02*
D03*
X258001Y282800D02*
D03*
X258001Y278863D02*
D03*
X262301Y278894D02*
D03*
X266602Y278994D02*
D03*
Y282931D02*
D03*
X266601Y286894D02*
D03*
Y290831D02*
D03*
X262301Y282832D02*
D03*
X266601Y294863D02*
D03*
Y298800D02*
D03*
Y302863D02*
D03*
X266601Y306800D02*
D03*
X253001Y297900D02*
D03*
Y293963D02*
D03*
X248501Y306569D02*
D03*
X244001Y306569D02*
D03*
X294600Y216537D02*
D03*
Y212600D02*
D03*
X284812Y192732D02*
D03*
Y188795D02*
D03*
X288800Y148737D02*
D03*
X288800Y144800D02*
D03*
X270705Y99687D02*
D03*
Y95750D02*
D03*
X273166Y89803D02*
D03*
Y85866D02*
D03*
X293727Y87786D02*
D03*
Y91723D02*
D03*
X240226Y91993D02*
D03*
Y95930D02*
D03*
X197112Y81650D02*
D03*
Y77713D02*
D03*
X197054Y73033D02*
D03*
Y69096D02*
D03*
X173412Y78550D02*
D03*
X173412Y74613D02*
D03*
X173412Y70550D02*
D03*
Y66613D02*
D03*
X139500Y19669D02*
D03*
Y15732D02*
D03*
X120200Y23332D02*
D03*
Y27268D02*
D03*
X115475Y23443D02*
D03*
Y19506D02*
D03*
X109340Y18429D02*
D03*
Y22366D02*
D03*
X106700Y62372D02*
D03*
Y66309D02*
D03*
Y70372D02*
D03*
Y74309D02*
D03*
X83000Y71909D02*
D03*
Y67972D02*
D03*
Y63941D02*
D03*
Y60004D02*
D03*
X71300Y26169D02*
D03*
Y22231D02*
D03*
X57300Y22569D02*
D03*
Y18632D02*
D03*
X242400Y18232D02*
D03*
Y22169D02*
D03*
X52600Y245563D02*
D03*
Y249500D02*
D03*
X30905Y249706D02*
D03*
Y253643D02*
D03*
X36100Y312632D02*
D03*
Y316568D02*
D03*
X100300Y313432D02*
D03*
X114900D02*
D03*
Y317369D02*
D03*
X100300D02*
D03*
X135100Y311299D02*
D03*
X139961D02*
D03*
X145300D02*
D03*
X150200D02*
D03*
Y315236D02*
D03*
X145300D02*
D03*
X139961D02*
D03*
X135100D02*
D03*
D90*
X52520Y145278D02*
D03*
Y154136D02*
D03*
X70902Y129229D02*
D03*
Y138087D02*
D03*
X81500Y142571D02*
D03*
Y151429D02*
D03*
D91*
X39455Y119758D02*
D03*
Y125270D02*
D03*
X77300Y66297D02*
D03*
Y60785D02*
D03*
X167612Y67625D02*
D03*
Y73137D02*
D03*
X250784Y100676D02*
D03*
X250784Y106188D02*
D03*
X329857Y120478D02*
D03*
Y125990D02*
D03*
X327157Y154934D02*
D03*
Y160446D02*
D03*
X294770Y202537D02*
D03*
X288470Y202437D02*
D03*
X290770Y193605D02*
D03*
X290770Y188093D02*
D03*
X297070D02*
D03*
Y193605D02*
D03*
X294770Y208049D02*
D03*
X288470Y207949D02*
D03*
X209100Y247756D02*
D03*
Y242244D02*
D03*
X167400Y184556D02*
D03*
Y179044D02*
D03*
X213006Y189311D02*
D03*
Y194823D02*
D03*
X158398Y233444D02*
D03*
Y238956D02*
D03*
D92*
X65530Y157717D02*
D03*
X72508Y164508D02*
D03*
X75292Y167292D02*
D03*
X68314Y160501D02*
D03*
X212076Y122673D02*
D03*
X209292Y119889D02*
D03*
X212247Y117030D02*
D03*
X215031Y119814D02*
D03*
X217890Y122652D02*
D03*
X220673Y125435D02*
D03*
X217775Y128321D02*
D03*
X214991Y125538D02*
D03*
D93*
X20606Y97919D02*
D03*
Y102840D02*
D03*
Y107762D02*
D03*
Y112683D02*
D03*
X21351Y289977D02*
D03*
Y294899D02*
D03*
Y299820D02*
D03*
Y304741D02*
D03*
X324591Y183518D02*
D03*
Y188439D02*
D03*
Y193361D02*
D03*
Y198282D02*
D03*
X333691Y93061D02*
D03*
Y88139D02*
D03*
X334291Y56861D02*
D03*
Y51939D02*
D03*
X333920Y314845D02*
D03*
Y319766D02*
D03*
Y324687D02*
D03*
Y329609D02*
D03*
D94*
X9189Y87880D02*
D03*
Y122722D02*
D03*
X9933Y279938D02*
D03*
Y314781D02*
D03*
X336009Y173479D02*
D03*
Y208321D02*
D03*
X345337Y304805D02*
D03*
Y339648D02*
D03*
X345109Y103100D02*
D03*
Y78100D02*
D03*
X345709Y66900D02*
D03*
Y41900D02*
D03*
D95*
X170018Y30709D02*
D03*
X174939D02*
D03*
X179861D02*
D03*
X184782D02*
D03*
X268418Y21309D02*
D03*
X273339D02*
D03*
X278261D02*
D03*
X283182D02*
D03*
D96*
X159979Y19291D02*
D03*
X194821D02*
D03*
X258379Y9891D02*
D03*
X293221D02*
D03*
D97*
X77951Y20691D02*
D03*
X77951Y28171D02*
D03*
X85825Y24431D02*
D03*
X126263Y17800D02*
D03*
X134137Y14060D02*
D03*
Y21540D02*
D03*
X91637Y112000D02*
D03*
X83763Y108260D02*
D03*
Y115740D02*
D03*
X162163Y207460D02*
D03*
X170037Y211200D02*
D03*
X162163Y214940D02*
D03*
X122300Y217280D02*
D03*
X122300Y209800D02*
D03*
X114426Y213540D02*
D03*
X79737Y245900D02*
D03*
X71863Y249640D02*
D03*
Y242160D02*
D03*
X65601Y249469D02*
D03*
Y256949D02*
D03*
X57727Y253209D02*
D03*
X244964Y280491D02*
D03*
X244964Y287972D02*
D03*
X252838Y284231D02*
D03*
D98*
X49360Y167263D02*
D03*
X56840D02*
D03*
X53100Y175137D02*
D03*
X238300Y27100D02*
D03*
X245780Y27100D02*
D03*
X242040Y34974D02*
D03*
X313300Y10063D02*
D03*
X317040Y17937D02*
D03*
X309560Y17937D02*
D03*
X289900Y288263D02*
D03*
X293640Y296137D02*
D03*
X286160D02*
D03*
D99*
X54064Y105900D02*
D03*
X74536D02*
D03*
D100*
X54064Y110900D02*
D03*
Y115900D02*
D03*
Y120900D02*
D03*
X74536Y110900D02*
D03*
Y115900D02*
D03*
Y120900D02*
D03*
D101*
X323941Y267605D02*
D03*
Y270754D02*
D03*
Y290046D02*
D03*
Y293195D02*
D03*
D102*
X323941Y273510D02*
D03*
Y275479D02*
D03*
X323941Y277447D02*
D03*
X323941Y279416D02*
D03*
Y281384D02*
D03*
X323941Y283353D02*
D03*
Y285321D02*
D03*
Y287290D02*
D03*
D103*
X107447Y175100D02*
D03*
X109771Y182379D02*
D03*
X130060Y156131D02*
D03*
X119900Y136600D02*
D03*
X120715Y132773D02*
D03*
X119433Y130033D02*
D03*
X119455Y117538D02*
D03*
X118900Y113800D02*
D03*
X122883Y113099D02*
D03*
X126410Y106710D02*
D03*
X131900Y104800D02*
D03*
X135900Y105500D02*
D03*
X139800Y104600D02*
D03*
X137900Y102200D02*
D03*
X133800Y101700D02*
D03*
X142337Y101590D02*
D03*
X143700Y106000D02*
D03*
X147400Y104200D02*
D03*
X159900Y109100D02*
D03*
X165994Y121766D02*
D03*
X165600Y125800D02*
D03*
X164432Y129895D02*
D03*
X161800Y127800D02*
D03*
X160000Y131700D02*
D03*
X160900Y123800D02*
D03*
X160200Y119900D02*
D03*
Y115800D02*
D03*
X164100Y117800D02*
D03*
X154643Y142393D02*
D03*
X154148Y145525D02*
D03*
X148596Y145578D02*
D03*
X145800Y143700D02*
D03*
X143753Y146246D02*
D03*
X138802Y148475D02*
D03*
D104*
X41394Y160400D02*
D03*
X53206Y160400D02*
D03*
D105*
X48400Y224394D02*
D03*
Y236206D02*
D03*
X296356Y139937D02*
D03*
Y151748D02*
D03*
X335557Y147184D02*
D03*
Y158995D02*
D03*
X302900Y203495D02*
D03*
X302900Y215305D02*
D03*
D106*
X148735Y234216D02*
D03*
Y246421D02*
D03*
X199500Y242800D02*
D03*
Y255005D02*
D03*
X275500Y305798D02*
D03*
Y318002D02*
D03*
D107*
X23959Y183819D02*
D03*
X25927Y183819D02*
D03*
X27896Y183819D02*
D03*
X29864Y183819D02*
D03*
Y195319D02*
D03*
X27896Y195319D02*
D03*
X25927D02*
D03*
X23959Y195319D02*
D03*
Y200576D02*
D03*
X25927Y200576D02*
D03*
X27896D02*
D03*
X29864Y200576D02*
D03*
Y212076D02*
D03*
X27896D02*
D03*
X25927D02*
D03*
X23959D02*
D03*
X272547Y287950D02*
D03*
X274516D02*
D03*
X276484D02*
D03*
X278453Y287950D02*
D03*
X278453Y299450D02*
D03*
X276484Y299450D02*
D03*
X274516D02*
D03*
X272547D02*
D03*
D108*
X26911Y189569D02*
D03*
Y206326D02*
D03*
X275500Y293700D02*
D03*
D109*
X277585Y88889D02*
D03*
X277585Y91251D02*
D03*
X288215D02*
D03*
X288215Y88889D02*
D03*
D110*
X277585Y85838D02*
D03*
X288215D02*
D03*
D111*
X282900Y88200D02*
D03*
D112*
X124937Y230907D02*
D03*
X132337D02*
D03*
X132337Y232706D02*
D03*
X132337Y234507D02*
D03*
Y236307D02*
D03*
X124937Y236307D02*
D03*
X124937Y234507D02*
D03*
X124937Y232706D02*
D03*
X174800Y240600D02*
D03*
Y242400D02*
D03*
X182200D02*
D03*
Y240600D02*
D03*
Y244200D02*
D03*
Y246000D02*
D03*
X174800D02*
D03*
Y244200D02*
D03*
X254201Y301631D02*
D03*
X261601D02*
D03*
Y303432D02*
D03*
X261601Y305231D02*
D03*
X261601Y307031D02*
D03*
X254201D02*
D03*
X254201Y305231D02*
D03*
X254201Y303432D02*
D03*
D113*
X128637Y233607D02*
D03*
X178500Y243300D02*
D03*
X257901Y304331D02*
D03*
D114*
X127137Y217507D02*
D03*
X128937Y217507D02*
D03*
X130737Y217507D02*
D03*
X132537Y217507D02*
D03*
Y224906D02*
D03*
X130737Y224906D02*
D03*
X128937Y224906D02*
D03*
X127137Y224906D02*
D03*
X177200Y228000D02*
D03*
X179000Y228000D02*
D03*
X180800Y228000D02*
D03*
X182600Y228000D02*
D03*
Y235400D02*
D03*
X180800Y235400D02*
D03*
X179000Y235400D02*
D03*
X177200Y235400D02*
D03*
X257101Y288032D02*
D03*
X258901Y288032D02*
D03*
X260701Y288032D02*
D03*
X262501D02*
D03*
Y295431D02*
D03*
X260701D02*
D03*
X258901Y295431D02*
D03*
X257101Y295431D02*
D03*
D115*
X129837Y221206D02*
D03*
X179900Y231700D02*
D03*
X259801Y291732D02*
D03*
D116*
X256671Y96441D02*
D03*
Y99000D02*
D03*
X265529D02*
D03*
X265529Y96441D02*
D03*
Y101559D02*
D03*
X256671Y101559D02*
D03*
D117*
X297200Y235000D02*
D03*
D118*
X304700Y224764D02*
D03*
X304700Y245236D02*
D03*
D119*
X289700Y224764D02*
D03*
X294700D02*
D03*
X299700Y224764D02*
D03*
Y245236D02*
D03*
X294700Y245236D02*
D03*
X289700Y245236D02*
D03*
D120*
X297032Y111190D02*
D03*
X306481D02*
D03*
X311300Y219900D02*
D03*
X320749D02*
D03*
D121*
X154200Y224500D02*
D03*
X166798Y224500D02*
D03*
X204701Y233200D02*
D03*
X217299D02*
D03*
X277257Y129190D02*
D03*
X289856D02*
D03*
D122*
X132700Y183330D02*
D03*
X144000Y183330D02*
D03*
Y185298D02*
D03*
Y187267D02*
D03*
Y189235D02*
D03*
Y191204D02*
D03*
X132700D02*
D03*
X132700Y189235D02*
D03*
Y187267D02*
D03*
Y185298D02*
D03*
X183426Y193075D02*
D03*
X183426Y195044D02*
D03*
X194725Y195044D02*
D03*
Y193075D02*
D03*
X194725Y197012D02*
D03*
X194725Y198981D02*
D03*
Y200949D02*
D03*
X183426D02*
D03*
X183426Y198981D02*
D03*
Y197012D02*
D03*
D123*
X138350Y187267D02*
D03*
X189076Y197012D02*
D03*
D124*
X149278Y200588D02*
D03*
Y214761D02*
D03*
X199600Y208913D02*
D03*
Y223087D02*
D03*
D125*
X153370Y178999D02*
D03*
Y191597D02*
D03*
X203952Y187955D02*
D03*
Y200554D02*
D03*
D126*
X157551Y249902D02*
D03*
X160335Y247118D02*
D03*
D127*
X89700Y61782D02*
D03*
Y64341D02*
D03*
X100724D02*
D03*
Y61782D02*
D03*
Y66900D02*
D03*
Y69459D02*
D03*
X89700D02*
D03*
Y66900D02*
D03*
X179500Y68782D02*
D03*
Y71341D02*
D03*
Y73900D02*
D03*
X190524Y73900D02*
D03*
Y71341D02*
D03*
Y68782D02*
D03*
Y76459D02*
D03*
X179500Y76459D02*
D03*
D128*
X95212Y65620D02*
D03*
X185012Y72620D02*
D03*
D129*
X278168Y113504D02*
D03*
X290372D02*
D03*
D130*
X303666Y141947D02*
D03*
Y143916D02*
D03*
Y145884D02*
D03*
Y147853D02*
D03*
X316934D02*
D03*
Y145884D02*
D03*
Y143916D02*
D03*
Y141947D02*
D03*
D131*
X296282Y124373D02*
D03*
X296282Y126341D02*
D03*
Y128310D02*
D03*
Y130278D02*
D03*
X307782Y130278D02*
D03*
Y128310D02*
D03*
Y126341D02*
D03*
X307782Y124373D02*
D03*
X312557Y124421D02*
D03*
X312557Y126390D02*
D03*
Y128358D02*
D03*
X312557Y130327D02*
D03*
X324057Y130327D02*
D03*
X324057Y128358D02*
D03*
Y126390D02*
D03*
X324057Y124421D02*
D03*
D132*
X302032Y127325D02*
D03*
X318307Y127374D02*
D03*
D133*
X101725Y129131D02*
D03*
X109009D02*
D03*
X109009Y138186D02*
D03*
X101725D02*
D03*
D134*
X129973Y111296D02*
D03*
X131942D02*
D03*
X133910D02*
D03*
X135879D02*
D03*
X137847D02*
D03*
X139816D02*
D03*
X141784D02*
D03*
X143753D02*
D03*
X145721D02*
D03*
X147690D02*
D03*
X149658D02*
D03*
X151627D02*
D03*
Y138304D02*
D03*
X149658D02*
D03*
X147690D02*
D03*
X145721D02*
D03*
X143753D02*
D03*
X141784D02*
D03*
X139816D02*
D03*
X137847D02*
D03*
X135879D02*
D03*
X133910D02*
D03*
X131942D02*
D03*
X129973D02*
D03*
D135*
X127296Y113973D02*
D03*
Y115942D02*
D03*
Y117910D02*
D03*
Y119879D02*
D03*
Y121847D02*
D03*
Y123816D02*
D03*
Y125784D02*
D03*
Y127753D02*
D03*
Y129721D02*
D03*
Y131690D02*
D03*
Y133658D02*
D03*
Y135627D02*
D03*
X154304Y123816D02*
D03*
Y121847D02*
D03*
Y119879D02*
D03*
Y117910D02*
D03*
Y115942D02*
D03*
Y113973D02*
D03*
Y125784D02*
D03*
Y127753D02*
D03*
Y129721D02*
D03*
Y131690D02*
D03*
Y133658D02*
D03*
Y135627D02*
D03*
D136*
X140800Y124800D02*
D03*
D137*
X118885Y246255D02*
D03*
X121247D02*
D03*
Y256885D02*
D03*
X118885D02*
D03*
X37688Y256910D02*
D03*
X35326Y256910D02*
D03*
Y246280D02*
D03*
X37688Y246280D02*
D03*
X233489Y99015D02*
D03*
X235851D02*
D03*
Y88385D02*
D03*
X233489D02*
D03*
D138*
X124298Y246255D02*
D03*
Y256885D02*
D03*
X40739Y256910D02*
D03*
Y246280D02*
D03*
X230438Y99015D02*
D03*
Y88385D02*
D03*
D139*
X121936Y251570D02*
D03*
X38377Y251595D02*
D03*
X232800Y93700D02*
D03*
D140*
X307347Y138266D02*
D03*
X309316D02*
D03*
X311284Y138266D02*
D03*
X313253Y138266D02*
D03*
Y151534D02*
D03*
X311284Y151534D02*
D03*
X309316D02*
D03*
X307347Y151534D02*
D03*
D141*
X310300Y144900D02*
D03*
D142*
X27908Y218252D02*
D03*
Y226126D02*
D03*
D143*
X14692Y97919D02*
X20606D01*
X27300Y93603D02*
X29103Y91800D01*
X38500D01*
X42084Y88216D01*
Y78819D01*
X27300Y93603D02*
Y152100D01*
X19258Y160142D01*
Y232258D01*
X30905Y243905D01*
Y249706D01*
X27300Y247300D02*
Y317600D01*
X36300Y326600D01*
X36494Y316962D02*
X36494D01*
X43300Y323768D01*
Y334000D01*
X41547Y335753D01*
X37147D01*
X36300Y336600D01*
X36494Y316962D02*
X36100Y316568D01*
Y316568D01*
X36100Y312632D02*
Y306953D01*
X37300Y305753D01*
Y305700D01*
X21309Y304709D02*
X15395D01*
Y299787D02*
X21309D01*
X21351Y294899D02*
X15437D01*
Y289977D02*
X21351D01*
X52740Y249640D02*
X62302D01*
X71863D01*
X75661Y253500D02*
X78753Y250408D01*
Y246687D01*
X79540Y245900D01*
X79737D01*
X75661Y253500D02*
X58886D01*
X71863Y242160D02*
Y237453D01*
X75516Y233800D01*
X76500D01*
X93843Y229885D02*
X93942D01*
X93979Y229923D01*
X93843Y229885D02*
X86580Y222621D01*
X99159Y222263D02*
Y234950D01*
X100844Y236635D01*
Y236689D01*
X100806Y236726D01*
Y239195D01*
X96359Y243643D01*
X80881Y257873D02*
X80828D01*
X79904Y256949D01*
X65601D01*
X52740Y249640D02*
X52600Y249500D01*
Y245563D02*
X48400Y241363D01*
Y236206D01*
Y235910D01*
X45290Y232800D01*
X43985D01*
X43900D01*
X48400Y205538D02*
X59509Y194430D01*
X65398D01*
X76500D01*
X57800Y181300D02*
X47937D01*
X47837Y181400D01*
X53100Y175334D02*
X53887Y176121D01*
X56558D01*
X57800Y177363D01*
X53100Y175334D02*
Y175137D01*
X49360Y167460D02*
X45757Y171063D01*
X40200D01*
X40166Y171029D01*
Y166534D01*
X40132Y166500D01*
X44069D02*
Y162779D01*
X41690Y160400D01*
X41394D01*
X35000D01*
X52520Y154136D02*
X56364D01*
X56400Y154100D01*
X62985Y155380D02*
X63039D01*
X65376Y157717D01*
X65530D01*
X81500Y151429D02*
X84471D01*
X84500Y151400D01*
X70902Y129229D02*
Y125487D01*
X71002Y125387D01*
X74536Y120900D02*
X74636Y120800D01*
X83131D01*
X83232Y120700D01*
X83683Y115820D02*
X83763Y115740D01*
X83683Y115820D02*
X74616D01*
X74536Y115900D01*
Y120900D02*
X65647D01*
X62643Y123905D01*
X57244D01*
X53898Y121066D02*
X54064Y120900D01*
X53898Y121066D02*
X46266D01*
X46100Y121231D01*
X45969Y115532D02*
X46105Y115397D01*
X46224Y115516D01*
X53679D01*
X54064Y115900D01*
X61500D01*
X66500Y110900D01*
X74536D01*
X74536Y105900D02*
X81229D01*
X82779Y107450D01*
Y107472D01*
X83566Y108260D01*
X83763D01*
X87560D01*
X87600Y108300D01*
X76700Y80100D02*
X107900D01*
X110450Y77550D01*
X116037Y71963D01*
Y45237D01*
X126200Y24800D02*
X126232Y24769D01*
Y17831D01*
X126263Y17800D01*
X130700Y22100D02*
X133577D01*
X134137Y21540D01*
X137628D01*
X139500Y19669D01*
X170018Y24795D02*
Y30709D01*
X174939D02*
Y24795D01*
X179861D02*
Y30709D01*
X184782D02*
Y24795D01*
X189766Y56487D02*
Y56489D01*
X183509Y62746D01*
X197054Y69096D02*
X200489D01*
X200611Y69218D01*
X200664D01*
X197112Y73091D02*
Y77713D01*
Y81650D02*
X192531Y86231D01*
X192598D01*
X194586Y88218D01*
X194639D01*
X192531Y86231D02*
X189461Y89300D01*
X168747D01*
X161856Y82409D01*
Y79081D01*
X157790Y67625D02*
X167612D01*
X171300Y66600D02*
X171385D01*
X173399D01*
X173412Y66613D01*
X157790Y67625D02*
X146596Y78819D01*
X145612D01*
X155384Y91716D02*
X155400Y91700D01*
X155384Y91716D02*
X155367Y91733D01*
Y95272D01*
X209292Y119889D02*
X209340D01*
X212199Y117030D01*
X212247D01*
X215031Y119814D02*
X215041D01*
X217879Y122652D01*
X217883D01*
X217890D01*
X247100Y100700D02*
X247124Y100676D01*
X250784D01*
X250650Y100541D01*
Y97586D01*
X250612Y97549D01*
X256671Y96441D02*
Y88429D01*
X256700Y88400D01*
X260869Y88368D02*
Y91400D01*
Y99000D01*
Y100637D01*
X259946Y101559D01*
X256671D01*
Y99000D02*
X260869D01*
Y88368D02*
X260800Y88300D01*
X281200Y102400D02*
Y104986D01*
X259594Y62958D02*
Y57406D01*
X262006Y54994D01*
X262038D01*
X262188Y54844D01*
Y54813D01*
X266369Y54600D02*
X266762Y54994D01*
X266894D01*
X269594Y57694D01*
Y62958D01*
X266369Y54600D02*
X266320Y54552D01*
Y54420D01*
X250426Y34974D02*
X255500Y29900D01*
X250426Y34974D02*
X242040D01*
X268418Y15395D02*
Y21309D01*
X272552Y20521D02*
X273339Y21309D01*
X272552Y20521D02*
Y16605D01*
X271400Y15453D01*
Y15400D01*
X283182Y15395D02*
Y21309D01*
X278261D02*
X278280Y21289D01*
Y17452D01*
X278300Y17433D01*
X296637Y22400D02*
X296647Y22390D01*
X309570D01*
X309580Y22380D01*
X309618Y22418D01*
Y23686D01*
X311631Y25700D01*
X315568Y25700D02*
X315600Y25668D01*
Y23300D01*
X317000Y21900D01*
Y18174D01*
X317040Y18134D01*
Y17937D01*
X309560Y17937D02*
X309580Y17957D01*
Y22380D01*
X313300Y10063D02*
X306837D01*
X302600Y14300D01*
X334291Y51939D02*
X340039D01*
X341300Y53200D01*
Y58127D01*
X333691Y65736D01*
Y88139D01*
X338839D01*
X340300Y89600D01*
Y94700D01*
X336000Y99000D01*
Y110900D01*
X350700Y125600D01*
Y128500D01*
X346000Y126700D02*
X326100Y106800D01*
Y93300D01*
X326339Y93061D01*
X333691D01*
X326100Y93300D02*
Y59200D01*
X328439Y56861D01*
X334291D01*
X330749Y140909D02*
X328345D01*
X327190Y154900D02*
X330000D01*
X327123D02*
X324400D01*
X324591Y183518D02*
X330505D01*
Y188439D02*
X324591D01*
Y193361D02*
X330505D01*
Y198282D02*
X324591D01*
X315232Y231316D02*
X315090Y231457D01*
Y234427D01*
Y237397D01*
X314949Y237538D01*
X314878Y237467D01*
X312684D01*
X312332Y231249D02*
X314809D01*
X307000Y236100D02*
X304700Y238400D01*
Y245236D01*
Y252900D01*
X304625Y252831D02*
X304232Y253224D01*
Y255245D01*
X304093Y255383D01*
Y255436D01*
X304056Y255474D01*
Y255600D01*
X311683Y267795D02*
X312667D01*
X311683D02*
X302667Y276811D01*
Y297795D01*
X293652Y267795D02*
X302667Y276811D01*
X293652Y267795D02*
X292667D01*
X296184Y254784D02*
Y254516D01*
X290632Y252900D02*
X290238Y252506D01*
X288697D01*
X288239Y252049D01*
X288186D01*
X294700Y245236D02*
X294700Y245236D01*
X248674Y280081D02*
X248636Y280118D01*
X245337D01*
X244964Y280491D01*
X229140Y287795D02*
X219140Y297795D01*
Y276811D01*
X210124Y267795D01*
X209140D01*
X229140D02*
Y287795D01*
X253300Y311500D02*
X261100Y319300D01*
Y322527D01*
X265008Y326435D01*
Y327528D01*
X255008D02*
Y319608D01*
X251600Y316200D01*
X246602D01*
X246568Y311500D02*
X253300D01*
X244001Y306569D02*
X241469D01*
X189000Y253331D02*
X187031D01*
X186100Y252400D01*
X191332Y237300D02*
Y228900D01*
X141361Y228900D02*
Y220632D01*
X86812Y280497D02*
X93857Y287542D01*
X86812Y280497D02*
X86473D01*
X86436Y280459D01*
X85384Y367684D02*
X87900Y370200D01*
X85384Y367684D02*
X80131D01*
X56840Y167263D02*
Y167066D01*
X54977Y165203D01*
Y161876D01*
X53501Y160400D01*
X53206D01*
X35481Y133398D02*
X39455Y129425D01*
Y125270D01*
Y119758D02*
X40057Y119157D01*
Y116469D01*
X40993Y115532D01*
X45969D01*
X46105Y110900D02*
X54064D01*
X46105D02*
X40931D01*
X43400Y102000D02*
X43431Y102032D01*
X46200D01*
X48800Y127868D02*
Y127900D01*
X20606Y112683D02*
X14692D01*
Y107762D02*
X20606D01*
Y102840D02*
X14692D01*
X72354Y75754D02*
X76700Y80100D01*
X72354Y75754D02*
Y72951D01*
X72044Y72641D01*
X106700Y74309D02*
X109941Y77550D01*
X110450D01*
X81741Y20751D02*
X81711Y20721D01*
X77982D01*
X77951Y20691D01*
X72841D01*
X71300Y22231D01*
X77900Y24400D02*
X77915Y24415D01*
X85810D01*
X85825Y24431D01*
X284781Y186016D02*
Y188764D01*
X333920Y314845D02*
X339834D01*
Y319766D02*
X339900Y319700D01*
X339834Y319766D02*
X333920D01*
Y324687D02*
X339834D01*
Y329609D02*
X333920D01*
D144*
X52084Y48819D02*
X77081D01*
X77300Y48600D01*
Y55053D01*
X77144Y54897D02*
Y60629D01*
X77300Y60785D01*
Y48600D02*
Y46000D01*
X81149Y42151D01*
X225151D01*
X268838Y85838D01*
X273138D01*
X273166Y85866D01*
Y85838D02*
X276700D01*
X290820Y188143D02*
X297020D01*
X294720Y207999D02*
X294770Y208049D01*
X294720Y207999D02*
X292545D01*
X290770Y207999D01*
X288520D01*
X288470Y207949D01*
X289700Y224764D02*
Y227913D01*
X287941Y229673D01*
X286813Y230800D01*
X286200Y230800D01*
X294700Y245236D02*
Y252900D01*
X294568D02*
X296184Y254516D01*
X298059Y256391D01*
X299934Y258266D01*
X308602D01*
X321834Y245034D01*
X319362Y262586D02*
Y264699D01*
X319400Y264737D01*
X322268Y267605D01*
X323941D01*
Y270754D02*
X320146D01*
X315900Y275000D01*
Y290146D01*
Y302200D01*
Y304100D01*
Y306000D01*
X319362Y298214D02*
Y296101D01*
X319400Y296063D01*
X322268Y293195D01*
X323941D01*
Y290046D02*
X316000D01*
X315900Y290146D01*
X254924Y357528D02*
X248253Y364198D01*
X52042D01*
X49228Y361385D01*
Y315691D01*
X72171Y292748D01*
Y271829D01*
X85200Y258800D01*
Y229276D01*
X76500Y220576D01*
Y194430D01*
D145*
X114466Y244712D02*
X114533Y244779D01*
Y249707D01*
X135612Y276811D02*
X144628Y267795D01*
X145612D01*
X135612Y276811D02*
Y297795D01*
X126596Y267795D02*
X135612Y276811D01*
X126596Y267795D02*
X125612D01*
X196702Y202830D02*
X197997D01*
X198671Y202156D01*
X199883D01*
X207200Y201500D02*
X208756Y203056D01*
X210276D01*
Y200956D02*
X207983D01*
Y198856D02*
X210276D01*
X167628Y186858D02*
Y184783D01*
X167400Y184556D01*
X169693D01*
X158600Y189900D02*
X157400D01*
Y192000D02*
X158600D01*
Y194100D02*
X157400D01*
X149300Y193200D02*
X147984D01*
X147731Y193452D01*
X146415D01*
X230300Y103400D02*
Y99015D01*
X230438D01*
X230300D02*
X172315D01*
X152200Y78900D01*
X145693D01*
X145612Y78819D01*
X329857Y116643D02*
X329900Y116600D01*
X329857Y116643D02*
Y120478D01*
X262104Y277476D02*
Y278698D01*
X262301Y278894D01*
X262104Y277476D02*
X260252Y275624D01*
X252933D01*
D146*
X118637Y227275D02*
X118637Y227275D01*
Y231270D01*
X121070D01*
X122506Y232706D01*
X124937D01*
X119337Y234507D02*
X118637Y235207D01*
D147*
X306481Y111190D02*
Y116701D01*
X303514Y119669D01*
Y125844D01*
D148*
X320817Y214684D02*
Y244017D01*
X321834Y245034D01*
X335451Y258651D01*
Y302449D01*
X331900Y306000D01*
X315900D01*
D149*
X331350Y147350D02*
D03*
D150*
X337450Y161000D02*
D03*
D151*
X292300Y198350D02*
D03*
D152*
X126950Y244700D02*
D03*
D153*
X42200Y242650D02*
D03*
D154*
X138334Y178921D02*
D03*
X189060Y188667D02*
D03*
D155*
X293900Y113504D02*
D03*
D156*
X198900Y184750D02*
D03*
D157*
X200511Y234713D02*
D03*
D158*
X306750Y220100D02*
D03*
D159*
X150100Y226250D02*
D03*
D160*
X24702Y180883D02*
D03*
D161*
X8746Y367010D02*
D03*
X320700Y6900D02*
D03*
D162*
X42084Y78819D02*
D03*
X62084D02*
D03*
X52084Y48819D02*
D03*
X125612Y78819D02*
D03*
X145612D02*
D03*
X135612Y48819D02*
D03*
X209140Y78819D02*
D03*
X229140D02*
D03*
X219140Y48819D02*
D03*
X292667Y78819D02*
D03*
X312667D02*
D03*
X302667Y48819D02*
D03*
X312667Y267795D02*
D03*
X302667Y297795D02*
D03*
X292667Y267795D02*
D03*
X229140D02*
D03*
X219140Y297795D02*
D03*
X209140Y267795D02*
D03*
X145612D02*
D03*
X135612Y297795D02*
D03*
X125612Y267795D02*
D03*
X62084D02*
D03*
X52084Y297795D02*
D03*
X42084Y267795D02*
D03*
D163*
X21600Y51800D02*
D03*
X31600D02*
D03*
X31600Y61800D02*
D03*
X31600Y71800D02*
D03*
X21600Y61800D02*
D03*
X36300Y336600D02*
D03*
D164*
X21600Y71800D02*
D03*
X36300Y326600D02*
D03*
D165*
X329630Y269022D02*
D03*
Y291778D02*
D03*
D166*
X327543Y263392D02*
D03*
X344000D02*
D03*
X344000Y297408D02*
D03*
X327543D02*
D03*
D167*
X76500Y194430D02*
D03*
Y233800D02*
D03*
D168*
X11811Y136811D02*
D03*
Y241142D02*
D03*
X174100Y256400D02*
D03*
X179100D02*
D03*
X184100D02*
D03*
X342520Y136811D02*
D03*
X269594Y62958D02*
D03*
X264594D02*
D03*
X259594D02*
D03*
X342520Y241142D02*
D03*
D169*
X32600Y150400D02*
D03*
X32600Y175991D02*
D03*
X14884D02*
D03*
D170*
X14884Y150400D02*
D03*
D171*
X93243Y65620D02*
D03*
X95212Y63160D02*
D03*
X97180Y65620D02*
D03*
X95212Y68081D02*
D03*
D172*
X14500Y40600D02*
D03*
X24700Y45100D02*
D03*
X47400Y21600D02*
D03*
X57300Y27700D02*
D03*
Y15500D02*
D03*
X77900Y24400D02*
D03*
X81741Y20751D02*
D03*
X97909Y21709D02*
D03*
X106226Y27360D02*
D03*
X111326Y15160D02*
D03*
X126200Y24800D02*
D03*
X130700Y22100D02*
D03*
X144400Y24700D02*
D03*
X144232Y29877D02*
D03*
X170015Y24852D02*
D03*
X174936D02*
D03*
X179857D02*
D03*
X184779D02*
D03*
X225300Y28800D02*
D03*
X237070Y15330D02*
D03*
X242360Y15000D02*
D03*
X268415Y15452D02*
D03*
X271400Y15400D02*
D03*
X283179Y15452D02*
D03*
X292600Y28400D02*
D03*
X302600Y14300D02*
D03*
X309580Y22380D02*
D03*
X286370Y28730D02*
D03*
X278300Y17433D02*
D03*
X255500Y29900D02*
D03*
X242200Y30300D02*
D03*
X194639Y88218D02*
D03*
X193475Y70910D02*
D03*
X200664Y69218D02*
D03*
X185012Y70160D02*
D03*
X186980Y72620D02*
D03*
X183043Y72620D02*
D03*
X185012Y75081D02*
D03*
X189766Y56487D02*
D03*
X171385Y66600D02*
D03*
X177600Y81198D02*
D03*
X162699Y98801D02*
D03*
X155543Y99528D02*
D03*
X155384Y91716D02*
D03*
X168682Y104380D02*
D03*
X168710Y107576D02*
D03*
X177598Y107660D02*
D03*
X177600Y104500D02*
D03*
X182832Y115368D02*
D03*
X178440Y123226D02*
D03*
X191600Y101600D02*
D03*
X210199Y115001D02*
D03*
X225603Y121113D02*
D03*
X227398Y119391D02*
D03*
X227384Y122924D02*
D03*
X229625Y123458D02*
D03*
X229135Y121247D02*
D03*
X247124Y100676D02*
D03*
X250612Y97549D02*
D03*
X256700Y88400D02*
D03*
X260869Y88368D02*
D03*
X261700Y104300D02*
D03*
X266500Y103900D02*
D03*
Y105800D02*
D03*
Y107700D02*
D03*
X272637Y105819D02*
D03*
X281200Y102400D02*
D03*
X286600Y95500D02*
D03*
X310200Y122500D02*
D03*
X329900Y116600D02*
D03*
X319271Y133796D02*
D03*
X312015Y132587D02*
D03*
X321333Y146467D02*
D03*
X330749Y140909D02*
D03*
X339800Y156500D02*
D03*
X339900Y159600D02*
D03*
X340000Y162700D02*
D03*
X336900Y162800D02*
D03*
X340100Y165800D02*
D03*
X330448Y183515D02*
D03*
Y188436D02*
D03*
Y193357D02*
D03*
Y198279D02*
D03*
X312332Y231249D02*
D03*
X315090Y234427D02*
D03*
X312684Y237467D02*
D03*
X307003Y236034D02*
D03*
X305126Y237930D02*
D03*
X301500Y237200D02*
D03*
Y232900D02*
D03*
X288186Y252049D02*
D03*
X292900Y237200D02*
D03*
X297200D02*
D03*
Y232900D02*
D03*
X292900D02*
D03*
X287938Y229671D02*
D03*
X286200Y230800D02*
D03*
X286271Y214141D02*
D03*
X290770Y208390D02*
D03*
X292545D02*
D03*
X284781Y186016D02*
D03*
X292994Y188150D02*
D03*
X294770Y188150D02*
D03*
X299900Y161600D02*
D03*
X307800Y168600D02*
D03*
X300584Y151533D02*
D03*
X300500Y144000D02*
D03*
X307301Y142000D02*
D03*
Y147900D02*
D03*
X306400Y134300D02*
D03*
X308969Y133555D02*
D03*
X316592Y136725D02*
D03*
X313299Y141900D02*
D03*
Y147800D02*
D03*
X310300Y144900D02*
D03*
X324400Y154900D02*
D03*
X330000D02*
D03*
X318400Y160643D02*
D03*
X309626Y165454D02*
D03*
X310219Y157708D02*
D03*
X318400Y156300D02*
D03*
X287536Y140595D02*
D03*
X288254Y132824D02*
D03*
X291530D02*
D03*
X291534Y129090D02*
D03*
X288257D02*
D03*
X288157Y125590D02*
D03*
X291434D02*
D03*
X293830Y122900D02*
D03*
X346000Y126700D02*
D03*
X350700Y128500D02*
D03*
X319362Y262586D02*
D03*
X319400Y264737D02*
D03*
X320834Y266171D02*
D03*
X329700Y275500D02*
D03*
X342259Y281759D02*
D03*
X330110Y287290D02*
D03*
X320834Y294629D02*
D03*
X319400Y296063D02*
D03*
X319362Y298214D02*
D03*
X315900Y302200D02*
D03*
X318500Y283429D02*
D03*
Y281308D02*
D03*
X304093Y255436D02*
D03*
X264016Y292552D02*
D03*
X262400Y299100D02*
D03*
X263892Y286245D02*
D03*
X266460Y276660D02*
D03*
X260819Y285363D02*
D03*
X253001Y289179D02*
D03*
X254668Y278731D02*
D03*
X252933Y275624D02*
D03*
X248674Y280081D02*
D03*
X253039Y297946D02*
D03*
X256236Y299731D02*
D03*
X260000Y299500D02*
D03*
X261927Y309470D02*
D03*
X268400Y309100D02*
D03*
X276500Y312200D02*
D03*
X288800Y304500D02*
D03*
X315900Y304100D02*
D03*
Y306000D02*
D03*
X339776Y314842D02*
D03*
Y319763D02*
D03*
Y324684D02*
D03*
Y329605D02*
D03*
X251184Y305256D02*
D03*
X239358Y316203D02*
D03*
X239087Y311505D02*
D03*
X241286Y306536D02*
D03*
X243949Y300333D02*
D03*
X246176Y293947D02*
D03*
X203304Y261919D02*
D03*
X207853Y257146D02*
D03*
X209093Y251049D02*
D03*
X205807Y247749D02*
D03*
X212393Y247763D02*
D03*
X215698Y236834D02*
D03*
X218974D02*
D03*
X218977Y233100D02*
D03*
X215701D02*
D03*
X215601Y229600D02*
D03*
X218877D02*
D03*
X206191Y210413D02*
D03*
X203891D02*
D03*
Y208113D02*
D03*
X206191D02*
D03*
X210276Y203056D02*
D03*
Y200956D02*
D03*
Y198856D02*
D03*
X212999Y198116D02*
D03*
X206191Y196313D02*
D03*
X203891D02*
D03*
Y194013D02*
D03*
X206191D02*
D03*
X209713Y194815D02*
D03*
X216299Y194830D02*
D03*
X201591Y208113D02*
D03*
X199291D02*
D03*
Y210413D02*
D03*
X201591D02*
D03*
X196702Y202830D02*
D03*
X190226Y201846D02*
D03*
X190199Y199553D02*
D03*
X190171Y197260D02*
D03*
X201591Y196313D02*
D03*
Y194013D02*
D03*
X199291D02*
D03*
X190144Y194967D02*
D03*
X190117Y192674D02*
D03*
X190090Y190381D02*
D03*
X188007Y197287D02*
D03*
Y199580D02*
D03*
Y201873D02*
D03*
X186900Y206000D02*
D03*
X188007Y194994D02*
D03*
Y192701D02*
D03*
Y190408D02*
D03*
X189111Y188269D02*
D03*
X181300Y190000D02*
D03*
X172224Y198277D02*
D03*
X171586Y203827D02*
D03*
X171328Y206945D02*
D03*
X167278Y189529D02*
D03*
X167628Y186858D02*
D03*
X169693Y184556D02*
D03*
X164894Y199250D02*
D03*
X156100Y198900D02*
D03*
Y201200D02*
D03*
X158600Y194100D02*
D03*
Y192000D02*
D03*
Y189900D02*
D03*
X156100Y187100D02*
D03*
Y184800D02*
D03*
X153800Y198900D02*
D03*
X151500D02*
D03*
Y201200D02*
D03*
X153800D02*
D03*
X149200D02*
D03*
Y198900D02*
D03*
X146415Y193452D02*
D03*
X149200Y184800D02*
D03*
X151500D02*
D03*
X153800D02*
D03*
Y187100D02*
D03*
X151500D02*
D03*
X143037Y173800D02*
D03*
Y170514D02*
D03*
Y167300D02*
D03*
X145139Y152232D02*
D03*
X145719Y148792D02*
D03*
X164400Y139000D02*
D03*
Y135063D02*
D03*
X158584Y125734D02*
D03*
X157794Y121794D02*
D03*
X163535Y123742D02*
D03*
X171368Y114527D02*
D03*
X175286Y114474D02*
D03*
X177463Y128364D02*
D03*
X175947Y130297D02*
D03*
X171846Y132696D02*
D03*
X172016Y145413D02*
D03*
X173690Y147932D02*
D03*
X166780Y144387D02*
D03*
X165599Y148101D02*
D03*
X163189Y147986D02*
D03*
X148699Y132749D02*
D03*
Y117000D02*
D03*
X147300Y101200D02*
D03*
X151606Y99528D02*
D03*
X142771Y98773D02*
D03*
X137814Y107628D02*
D03*
X133894Y107794D02*
D03*
X134994Y99094D02*
D03*
X138104Y99039D02*
D03*
X122210Y106710D02*
D03*
X118300Y109500D02*
D03*
Y95100D02*
D03*
X114444Y100696D02*
D03*
X110154Y103226D02*
D03*
X99565Y116255D02*
D03*
X101500Y112100D02*
D03*
X106070Y106412D02*
D03*
X93958Y102203D02*
D03*
X87658Y108303D02*
D03*
X76758Y80003D02*
D03*
X80695Y60003D02*
D03*
X95819Y55599D02*
D03*
X103459Y64341D02*
D03*
X116037Y45237D02*
D03*
X109900Y62400D02*
D03*
X132950Y117000D02*
D03*
Y132749D02*
D03*
X137900Y144300D02*
D03*
X130490Y149635D02*
D03*
X141284Y155029D02*
D03*
X136000Y163000D02*
D03*
X135038Y165200D02*
D03*
X139100Y167300D02*
D03*
Y170514D02*
D03*
Y173800D02*
D03*
X138385Y178523D02*
D03*
X139365Y180635D02*
D03*
X137281Y180662D02*
D03*
Y182955D02*
D03*
X139392Y182928D02*
D03*
X130691Y180308D02*
D03*
X137281Y185248D02*
D03*
X139419Y185221D02*
D03*
X139446Y187514D02*
D03*
X137281Y187541D02*
D03*
Y189834D02*
D03*
X139473Y189807D02*
D03*
X139500Y192100D02*
D03*
X137281Y192127D02*
D03*
X139535Y202311D02*
D03*
X136547Y209904D02*
D03*
X133963Y214991D02*
D03*
X131026Y214700D02*
D03*
X134200Y221200D02*
D03*
X141308Y222697D02*
D03*
X141300Y226800D02*
D03*
X132602Y228498D02*
D03*
X130287Y229164D02*
D03*
X132398Y238721D02*
D03*
X140971Y237152D02*
D03*
X149100Y251600D02*
D03*
X158391Y242249D02*
D03*
X161691Y238963D02*
D03*
X165197Y228134D02*
D03*
X165200Y224400D02*
D03*
X165100Y220900D02*
D03*
X159691Y209403D02*
D03*
X157521Y210314D02*
D03*
X168376Y220900D02*
D03*
X168476Y224400D02*
D03*
X168473Y228134D02*
D03*
X172882Y229759D02*
D03*
X177963Y215368D02*
D03*
X178517Y210783D02*
D03*
X191298Y231003D02*
D03*
X191254Y235203D02*
D03*
X189963Y245837D02*
D03*
X195598Y259352D02*
D03*
X198247Y258668D02*
D03*
X200882Y258689D02*
D03*
X199926Y261940D02*
D03*
X197000Y261900D02*
D03*
X186100Y252400D02*
D03*
X182000Y248200D02*
D03*
X182861Y238497D02*
D03*
X180400Y238700D02*
D03*
X184261Y231822D02*
D03*
X183907Y225735D02*
D03*
X181100Y224600D02*
D03*
X188657Y223100D02*
D03*
X177800Y238500D02*
D03*
X172904Y236498D02*
D03*
X166150Y232562D02*
D03*
X171322Y244109D02*
D03*
X164251Y246967D02*
D03*
X138751Y251416D02*
D03*
X129700Y246100D02*
D03*
X126878Y246149D02*
D03*
X126900Y243300D02*
D03*
X129800Y243200D02*
D03*
X121465Y234876D02*
D03*
X123031Y227235D02*
D03*
X127555Y228959D02*
D03*
X123017Y220549D02*
D03*
X111778Y235318D02*
D03*
X115724Y228649D02*
D03*
X116399Y223349D02*
D03*
X100844Y236689D02*
D03*
X99159Y222263D02*
D03*
X93979Y229923D02*
D03*
X86580Y222621D02*
D03*
X84031Y203569D02*
D03*
X89794Y202794D02*
D03*
X96898Y185734D02*
D03*
X95900Y180400D02*
D03*
X99895Y176088D02*
D03*
X113700Y183900D02*
D03*
X123900Y180500D02*
D03*
X121538Y190442D02*
D03*
X126170Y199104D02*
D03*
X128375Y201219D02*
D03*
X128211Y206250D02*
D03*
X87394Y166994D02*
D03*
X83380Y163430D02*
D03*
X82888Y156974D02*
D03*
X84500Y151400D02*
D03*
X99500Y150700D02*
D03*
X98780Y154247D02*
D03*
X95600Y159800D02*
D03*
X111709Y147710D02*
D03*
X113922Y145545D02*
D03*
X117462Y131383D02*
D03*
X113200Y124500D02*
D03*
X122765Y142496D02*
D03*
Y146432D02*
D03*
X126553Y149635D02*
D03*
X113800Y157500D02*
D03*
X113400Y159700D02*
D03*
X109900Y159400D02*
D03*
X79280Y177886D02*
D03*
X80400Y181200D02*
D03*
X73096Y169434D02*
D03*
X78778Y160104D02*
D03*
X70267Y157087D02*
D03*
X62985Y155380D02*
D03*
X56364Y154136D02*
D03*
X34985Y160300D02*
D03*
X26500Y177601D02*
D03*
X24300D02*
D03*
X24300Y179801D02*
D03*
X26500D02*
D03*
Y182001D02*
D03*
X24300D02*
D03*
X41039Y186212D02*
D03*
X22100Y184201D02*
D03*
Y182001D02*
D03*
Y179801D02*
D03*
X22100Y177601D02*
D03*
X35481Y133398D02*
D03*
X57244Y123905D02*
D03*
X48858Y127903D02*
D03*
X43489Y102035D02*
D03*
X37600Y99800D02*
D03*
X36400Y95100D02*
D03*
X49158Y92203D02*
D03*
X38014Y72599D02*
D03*
X28900Y88100D02*
D03*
X30698Y95202D02*
D03*
X14750Y102844D02*
D03*
Y107765D02*
D03*
Y97922D02*
D03*
Y112686D02*
D03*
X71002Y125387D02*
D03*
X29285Y225155D02*
D03*
X29246Y227104D02*
D03*
X26571D02*
D03*
X26531Y225155D02*
D03*
X43985Y232800D02*
D03*
X43900Y239300D02*
D03*
X43938Y241559D02*
D03*
X41000Y239300D02*
D03*
X58200Y249600D02*
D03*
X43938Y246078D02*
D03*
X43977Y243819D02*
D03*
X27300Y247300D02*
D03*
X15494Y289981D02*
D03*
Y294902D02*
D03*
X15452Y299791D02*
D03*
Y304712D02*
D03*
X37300Y305700D02*
D03*
X77208Y263003D02*
D03*
X80881Y257873D02*
D03*
X85405Y267220D02*
D03*
X96359Y243643D02*
D03*
X114466Y244712D02*
D03*
X93895Y287580D02*
D03*
X86436Y280459D02*
D03*
X103100Y298200D02*
D03*
X116827Y302189D02*
D03*
X124050Y305150D02*
D03*
X138600Y306000D02*
D03*
X142200Y308100D02*
D03*
X174397Y289234D02*
D03*
X177673D02*
D03*
X177676Y285500D02*
D03*
X174400D02*
D03*
X174300Y282000D02*
D03*
X177576D02*
D03*
X87900Y370200D02*
D03*
X80131Y367684D02*
D03*
X93684Y297947D02*
D03*
X213677Y131913D02*
D03*
X215473Y130191D02*
D03*
X215458Y133724D02*
D03*
X217699Y134258D02*
D03*
X217210Y132047D02*
D03*
D173*
X20012Y20009D02*
D03*
X335012D02*
D03*
X325012Y357529D02*
D03*
X35012D02*
D03*
M02*
