M48
;Layer_Color=9474304
;FILE_FORMAT=4:4
METRIC,LZ
;TYPE=PLATED
T1F00S00C0.2000
T3F00S00C0.6000
T5F00S00C0.9000
T6F00S00C0.9900
T7F00S00C1.1000
T8F00S00C3.1800
;TYPE=NON_PLATED
T9F00S00C0.7000
T11F00S00C2.0000
%
T01
X0003683Y00103124
X00120396Y00054864
X00145542Y0003937
Y00070358
X00197866Y00061976
X00207623Y00052708
X00248688Y0005514
X00269815Y00069495
X00282769Y00038507
X00320548Y00062992
X00331978Y00056134
X00366776Y00062738
X00366349Y00075888
X00431838Y00063125
X00444338
X00456838
X00469338
X00572262Y00073152
X00615188Y00076962
X0064897Y00075946
X00681774Y00039249
X00689356Y00039116
X00706882Y00044279
X00719274Y00039249
X00727379Y00072975
X00743204Y00072136
X00786333Y00056845
X00768604Y00036322
X00615595Y000381
X00602157Y00038939
X00652018Y00224536
X00662606Y00224456
X00664718Y00264922
X0067691Y00263906
Y00268732
Y00273558
X00692498Y0026878
X00714248Y00260096
X00727964Y0024257
X0073192Y00318998
X00740241
X00740495Y00327888
X00732174
X00732165Y00337372
X00740487
X00730342Y00357111
X0076327Y0036576
X00763483Y00384894
X00780544Y00375666
Y0036068
X00788162Y00368046
X0079578Y00375412
Y00360426
X00804143Y00347282
X00810948Y00339842
X00792519Y00336771
X0078478Y00339231
X00778256Y00341122
X00787908Y0031115
X00746328Y00312166
X00837946Y00296164
X00840103Y0035791
X008382Y00393446
X00823976
X00808736Y00397002
X00808736Y00408032
X00787955Y00400578
X00786449Y00420252
X00781812Y00428244
X00761746Y00410464
X00748715Y00477901
X00744206Y00477901
X00723344Y0047248
X00839337Y00478628
Y00491128
Y00466128
X00855726Y00413512
X008636Y00413258
X00863346Y00405384
X00863092Y0039751
X00863854Y00421132
X00816184Y00372027
X0087884Y00321818
X00890778Y0032639
X00583247Y00313584
X00582003Y00307966
X00627694Y00255718
X00636554Y00247773
X00577592Y00303254
X00573031Y00307627
X00577555Y00312226
X00547301Y00330686
X00542739Y00335059
X00547263Y00339659
X00552956Y00341016
X00551712Y00335399
X00533905Y00292103
X00464392Y00293036
X00445226Y00290765
X00435275Y002909
X00428525Y00273242
X00428453Y00265124
X00451104Y0026543
X00451098Y00273456
X00453238Y00312995
X00450756Y00326045
X00446906Y00330955
X0043649Y00337049
X00417576Y0034306
Y0035306
X00423621Y00366742
X00420621Y00376177
X004145Y00375885
X00441172Y00375747
X00436921Y0036935
X00370126Y00377933
X00368653Y0038667
X00358862Y00393774
X0034544Y0041402
X00342995Y00419608
X00353314Y00424942
Y00433105
Y00441452
X00363314
Y00433105
Y00424942
X00351499Y00453449
X00353986Y00458813
X00348694Y00458882
Y00464706
X00354055Y00464637
X00354123Y00470462
X00348694Y0047053
Y00476354
X00354192Y00476286
X00354261Y0048211
X00348694Y00482179
Y00488003
X0035433Y00487934
X00371894Y00491369
X00378968Y00469392
X0038481
X00390652
X00396494
Y00475234
X00390652
X0038481
X00402844Y00482346
Y0048768
Y00493014
X00424886Y00481403
X00425774Y0047462
X0043102Y00468772
X00460502Y004826
X00477537Y00483636
X00482829Y00483567
X00482898Y00489391
X00477537Y0048946
Y00495284
X00482966Y00495215
X00483035Y00501039
X00477537Y00501108
X00480342Y00478203
X005062Y00492793
X00512042
X00517884
X00523726
Y00498635
X00517884
X00512042
X00532671Y00494831
X00549399Y00494868
X00308705Y00483722
X00314706Y0045847
X00331956Y00457983
X00288798Y00467106
X0024612Y00471765
X00243586Y00458216
X00253733Y00447264
X00242824Y00405892
X00250901Y00391788
X0025273Y00382778
X0028374Y00375183
X00289363Y00369684
X00311824Y00371939
Y00361939
X00321443Y00380072
X00331443
X00350266Y00366522
X00337694Y00337182
X00377696
Y0029718
X00400797Y00309357
X00402804Y00319365
X00415378Y00314305
X00413255Y00250955
X00395079Y002528
X00385079
X00374142Y00257048
X00362637Y00250883
X00350784Y0025156
X00342885Y00251699
X00340091Y00273797
X00350047Y00273375
X00337694Y0029718
X00310412Y00271042
X00300482Y0027813
X00290688Y00255767
X00279791Y00262195
X00269418Y00270287
X0025781Y00284734
X00252894Y00295288
X00238652Y00259596
X0022265Y0027509
X00194964Y00203208
X00204965Y00152409
X00241838Y00160426
X00246838Y00166676
X00236838
X00241838Y00172926
X00262786Y00163426
X00279146Y00158496
X00243379Y00141222
X00294734Y00114902
X00300482Y00241554
X00287528Y0031623
X00298354Y00333713
X00289052Y0040005
X00288036Y00405638
X00279146Y00404876
X00210536Y00398714
X00211784Y00415112
X00221981Y00424165
X00200096Y00406665
X0021463Y00384556
X00185665Y00430363
X00201371Y00451831
X00204216Y00460248
X00394674Y0023296
X00451104Y00206244
X0046993Y00190706
X0047493Y00184456
X0046493Y00184456
X0046993Y00178206
X00491428Y00180111
X00509687Y00175813
X00482006Y00143476
X00435317Y00169164
X00494384Y00224074
X00486664Y00258064
X00180346Y00318484
X001454Y00314718
X00124098Y00324874
X00090122Y00338831
X00088861Y00407162
X00115824Y00392938
X00143164Y00391506
X00159983Y00394665
X00178478Y00399
X00106934Y0047396
X00094742
X0006731Y00462282
Y00456694
X00061722
Y00462282
X00056134
Y00456694
X00056134Y00451106
X00061722
X0006731
X00056134Y0046787
X00037464Y00286223
Y00273723
Y00261223
Y00248723
X00077972Y00241814
X00092456Y00241554
X00095504Y00253492
X00110462Y00259168
X0012486Y00234196
X00073406Y00223774
X00096556Y00184402
X00062738Y00114554
X00067388Y00571894
X00067489Y00576846
X00074284
X00074385Y00571894
X00111721Y00591312
X00111506Y00607822
X00111601Y00613561
X00111702Y006193
X00111601Y00625039
X0010414Y00607822
X00069342Y00628142
X00147828Y00633984
X00094742Y00776478
X00039249Y00773968
Y00761468
X00039355Y00749051
Y00736551
X00219547Y00712367
X0021693Y00678739
X00196108Y00668027
X00205438Y00654996
X0024475Y00618853
X00256143Y00601189
X00283917Y00597708
X00308522Y00596584
X00312498Y00577177
X00323989Y00581556
X00330929Y00582077
X00336808Y00580385
X00340868Y00561848
X00340266Y00546077
X00332807Y00545337
X00346828Y00533155
X00354419Y0051387
X00378968Y00511048
X0038481
X00390652
X00396494
Y00505206
X00390652
X0038481
X00378968
X00418831Y00506096
X00437449Y00503623
X00435828Y00517721
X00435174Y00525639
X00453434Y00535388
X00452025Y00547034
X00459994Y00570484
X00467125Y00573367
X00468022Y00588829
X00485896Y00586747
X00485785Y00597415
X00464466Y00605783
X00458216Y00606298
X00451612Y0060579
X00439176Y00600706
X0043912Y00583587
X00427921Y0057946
X004196
X00419608Y00569976
X0042793
X00427676Y00561086
X00419354
X00422021Y00590708
X00410696Y00606967
X00402313Y00615312
X00417197Y00627295
X00435157Y00620038
X0046228Y00630428
X00472694Y00641096
X00482506Y00624426
X0052275Y00629281
X00531095Y00637664
X00539478Y00629319
X00527947Y00653152
X0051024Y00657071
X00503548Y00657017
X00496818Y00658754
X0050038Y00665226
X00507811Y00665328
X00516392Y00665274
X00547872Y00601558
X00556193
X00556202Y00592074
X0054788
X00547626Y00583184
X00555948
X00523726Y00534449
X00517884
X00512042
X005062
Y00528607
X00512042
X00517884
X00523726
X005341Y00515763
Y00510429
Y00505095
X00541016Y00503214
X00499623Y00515189
X00483173Y00512688
X00477537Y00512757
Y00506932
X00483104Y00506864
X00474726Y0052324
X00479188Y00566674
X00405616Y00531884
X00400104Y00534198
X00358922Y0056565
X00358902Y00576072
X00358066Y00602365
X00336291Y00606353
X00329692Y00617728
X00329438Y00625094
X00322271Y00625219
X00322326Y00617982
X00290745Y00621568
X00293938Y00580768
X00295653Y00567307
X00312462Y00560195
X00325655Y00523875
X00326073Y00511096
X00320471Y00505725
X00228077Y00515097
X0021344Y00517064
X00219912Y00565459
X00251863Y00564547
X00238708Y00584004
X00238493Y00730453
X00237958Y00756786
X00261874Y00757428
X0029674Y00767561
X00315087Y00775081
X00352044Y0077724
X00361188Y00782574
X00442968Y00734654
X00451289
X00451298Y0072517
X00442976
X00442722Y0071628
X00451044
X00378714Y00639064
X00352428Y00638596
X0064245Y00700084
X00646856Y00707976
X00631632Y00711405
X00642622Y00734514
X0064272Y00756782
X00650839Y00761317
X006604Y0076073
X00666496Y00759714
X00670602Y00743082
X00670285Y00727063
X0066248Y00724821
X0067681Y00702715
X00681736Y00785114
X00665295Y00786053
X00638006Y00775351
X00612868Y007786
X00607282Y00791222
X00607968Y00803156
X00619629Y00762847
X00625288Y00746626
X0070231Y00792988
X00733552Y0077343
X00802386Y00772414
Y0077724
Y00767588
X0081118Y00757464
X00811276Y00752
X00814918Y00748358
X0080899Y00719911
Y00714521
X00837438Y0069977
X0083848Y00729716
X00869337Y00715667
X00863032Y00799698
Y00812198
Y00824698
Y00837198
X00814918Y00676074
X00811276Y00672432
X0081118Y00666968
X00772397Y00648808
X00775021Y00604342
X00779787Y00599526
X0076581Y00602488
X00754888
X00743966
Y00591566
X00754888
X0076581
X00793323Y00587372
X00800329Y00595444
X00794218Y00603167
X00731364Y00583363
X00726948Y00586232
X00727129Y00543919
X00738555Y00529312
X00743064
X00839337Y00503628
X00731992Y00640204
X00223266Y00940308
X00203532Y00933917
T03
X00659368Y00159913
X00672068
X00684768
X00467614Y00651256
X00454914
X00442214
T05
X00054864Y00131572
X00080264
X00080264Y00156972
X00054864
X00054864Y00182372
X00080264
X00092202Y00829564
Y00854964
T06
X00037804Y00382016
X00082804Y00382016
X00082804Y00447016
X00037804
T07
X0013972Y0083192
X0016512
X0016513Y0085732
X0013973
X00139497Y0088272
X00164897
X00190297
X00215697
X00241097
X00266497
X00291897
X00317297
X00342697
X00368097
X00393497
X00418897
X00444297
X00469697
X00495097
X00520497
X00545897
X00571297
X0057153Y0085732
X0054613
X0052073
X0049533
X0046993
X0044453
X0041913
X0039373
X0036833
X0034293
X0031753
X0029213
X0026673
X0024133
X0021593
X0019053
X0019052Y0083192
X0021592
X0024132
X0026672
X0029212
X0031752
X0034292
X0036832
X0039372
X0041912
X0044452
X0046992
X0049532
X0052072
X0054612
X0057152
X0059692
X0062232
X0064772
X0067312
X0069852
X0072392
X0074932
X0077472
X0077473Y0085732
X0074933
X0072393
X0069853
X0067313
X0064773
X0062233
X0059693
X00596697Y0088272
X00622097
X00647497
X00672897
X00698297
X00723697
X00749097
X00774497
X00774507Y0090812
X00749107
X00723707
X00698307
X00672907
X00647507
X00622107
X00596707
X00571307
X00545907
X00520507
X00495107
X00469707
X00444307
X00418907
X00393507
X00368107
X00342707
X00317307
X00291907
X00266507
X00241107
X00215707
X00190307
X00164907
X00139507
T08
X00050829Y00050824
X00850929
X00825529Y00908124
X00088929
T09
X0083726Y00683316
Y00741116
T11
X0087Y003475
X0003
Y006125
X0087
M30
